<svg id="인쇄" xmlns="http://www.w3.org/2000/svg" viewBox="0 0 181.42 136.06"><defs><style>.cls-1{fill:#231815;}.cls-2,.cls-3{fill:none;stroke:#3f3f3f;stroke-linecap:round;stroke-linejoin:round;}.cls-2{stroke-width:0.4px;}.cls-3{stroke-width:0.25px;}.cls-4{fill:#fff;}.cls-5{opacity:0.58;}.cls-6{fill:#877e53;}.cls-7{fill:#241713;}.cls-8{fill:#4cb88b;}.cls-8,.cls-9{opacity:0.37;}.cls-9{fill:#117c4a;}.cls-10,.cls-11{fill:#1daab6;}.cls-10{opacity:0.14;}.cls-11{opacity:0.32;}</style></defs><path class="cls-1" d="M80.23,106.53a.05.05,0,0,1,0,0,.06.06,0,0,1,0,0s0,0,0,0h0a.17.17,0,0,0,.12,0,.14.14,0,0,0,0-.08s0-.07,0-.1v-1.1s0-.06,0-.09a.11.11,0,0,0,0-.08s-.06,0-.12,0h0a.06.06,0,0,1,0,0,.09.09,0,0,1,0,0,.05.05,0,0,1,0,0H81a1.06,1.06,0,0,1,.48.11.77.77,0,0,1,.34.3.81.81,0,0,1,.13.47.74.74,0,0,1-.09.38.73.73,0,0,1-.22.27,1.37,1.37,0,0,1-.32.16,1.5,1.5,0,0,1-.37,0h-.7Zm.75-.11a.61.61,0,0,0,.36-.1.59.59,0,0,0,.2-.26,1.25,1.25,0,0,0,.06-.4,1,1,0,0,0-.08-.4.71.71,0,0,0-.23-.28.77.77,0,0,0-.38-.1H80.7v1.34a.16.16,0,0,0,.07.15A.37.37,0,0,0,81,106.42Z"/><path class="cls-1" d="M85.56,106.53l0,0s0,0,0,0,0,0,0,0h0a.21.21,0,0,0,.12,0l.06-.08,0-.1.48-1.14s0-.08,0-.1a.1.1,0,0,0-.06,0l-.08,0-.06,0s0,0,0-.05,0,0,0,0h.08a.55.55,0,0,1,.19,0,.29.29,0,0,1,.14.08.56.56,0,0,1,.1.19l.47,1.14a.36.36,0,0,0,0,.09.18.18,0,0,0,.06.09.12.12,0,0,0,.09,0h0s0,0,0,0a.06.06,0,0,1,0,0l0,0h-.64l0,0a.06.06,0,0,1,0,0s0,0,0,0h0c.09,0,.14,0,.14,0a.34.34,0,0,0,0-.16l-.1-.23H86a.57.57,0,0,1-.06.15.39.39,0,0,0,0,.06v0a.63.63,0,0,0,0,.14.06.06,0,0,0,0,.06h.2s0,0,0,0a.06.06,0,0,1,0,0,.05.05,0,0,1,0,0h-.57Zm.53-.68h.57l-.27-.71h0Z"/><path class="cls-1" d="M91.88,106.57a.8.8,0,0,1-.36-.07,1,1,0,0,1-.28-.2.79.79,0,0,1-.18-.29,1,1,0,0,1-.06-.33,1,1,0,0,1,.08-.41.81.81,0,0,1,.21-.3.84.84,0,0,1,.28-.18.89.89,0,0,1,.31-.06.87.87,0,0,1,.37.07,1,1,0,0,1,.28.2,1.05,1.05,0,0,1,.17.29,1,1,0,0,1,.06.34.87.87,0,0,1-.08.4.81.81,0,0,1-.21.3.84.84,0,0,1-.28.18A.89.89,0,0,1,91.88,106.57Zm0-.12a.45.45,0,0,0,.32-.11.73.73,0,0,0,.18-.31,1.29,1.29,0,0,0,.06-.4,1.23,1.23,0,0,0-.06-.39.73.73,0,0,0-.19-.28.42.42,0,0,0-.31-.11.48.48,0,0,0-.32.11.75.75,0,0,0-.18.3,1.35,1.35,0,0,0-.06.41,1.21,1.21,0,0,0,.06.38.59.59,0,0,0,.19.29A.41.41,0,0,0,91.88,106.45Z"/><path class="cls-1" d="M97.48,106.57a.83.83,0,0,1-.36-.07,1,1,0,0,1-.28-.2.79.79,0,0,1-.18-.29,1,1,0,0,1-.06-.33,1,1,0,0,1,.08-.41.81.81,0,0,1,.21-.3.84.84,0,0,1,.28-.18.89.89,0,0,1,.31-.06.87.87,0,0,1,.37.07,1,1,0,0,1,.28.2,1.08,1.08,0,0,1,.18.29,1,1,0,0,1,.06.34,1,1,0,0,1-.08.4,1,1,0,0,1-.22.3.84.84,0,0,1-.28.18A.89.89,0,0,1,97.48,106.57Zm0-.12a.45.45,0,0,0,.32-.11A.73.73,0,0,0,98,106a1.29,1.29,0,0,0,.06-.4,1.23,1.23,0,0,0-.06-.39.73.73,0,0,0-.19-.28.42.42,0,0,0-.31-.11.48.48,0,0,0-.32.11.75.75,0,0,0-.18.3,1.35,1.35,0,0,0-.06.41,1.21,1.21,0,0,0,.06.38.59.59,0,0,0,.19.29A.41.41,0,0,0,97.48,106.45Z"/><path class="cls-1" d="M103.22,106.53h0s0,0,0,0l-.62-1.41h0v1.1a.34.34,0,0,0,0,.1.12.12,0,0,0,0,.08.17.17,0,0,0,.12,0h.05s0,0,0,0a.06.06,0,0,1,0,0l0,0h-.52l0,0a.06.06,0,0,1,0,0s0,0,0,0h0a.17.17,0,0,0,.12,0,.12.12,0,0,0,0-.08.34.34,0,0,0,0-.1v-1.1a.44.44,0,0,0,0-.13l-.06-.06-.11,0,0,0s0,0,0-.05a0,0,0,0,1,0,0h.07a.9.9,0,0,1,.24,0,.37.37,0,0,1,.18.08.46.46,0,0,1,.13.19l.47,1.06h0l.54-1.34h.49a.05.05,0,0,1,0,0s0,0,0,0a.06.06,0,0,1,0,0h0c-.06,0-.1,0-.12,0a.11.11,0,0,0-.05.08s0,.06,0,.09v1.1s0,.07,0,.1a.14.14,0,0,0,.05.08.17.17,0,0,0,.12,0h0s0,0,0,0,0,0,0,0a.05.05,0,0,1,0,0h-.67a.05.05,0,0,1,0,0,.06.06,0,0,1,0,0s0,0,0,0h0a.17.17,0,0,0,.12,0,.14.14,0,0,0,0-.08s0-.07,0-.1v-1.1h0l-.57,1.41,0,0Z"/><rect class="cls-1" x="106.51" y="105.78" width="8.44" height="0.14"/><rect class="cls-1" x="69.16" y="105.78" width="8.44" height="0.14"/><line class="cls-2" x1="114.51" y1="40.17" x2="114.51" y2="33.36"/><line class="cls-3" x1="116.34" y1="36.75" x2="116.34" y2="31.39"/><line class="cls-2" x1="112.87" y1="38.12" x2="112.87" y2="34.94"/><line class="cls-2" x1="66.09" y1="70.41" x2="66.09" y2="78.01"/><line class="cls-2" x1="67.98" y1="73.28" x2="67.98" y2="79.26"/><line class="cls-2" x1="69.87" y1="71.85" x2="69.87" y2="75.39"/><path class="cls-1" d="M62.77,97.79l1.46-.22h.29l1.58.22v.59H62.77Zm4.32-9.19H68l3.34,9.78H69.91L67,89.74l.35,0-3,8.68h-.7Zm-1.69,6h3.91l.24.68H65.16Zm2.83,3.24,1.82-.22h.33l1.8.22v.59h-4Z"/><path class="cls-1" d="M76.15,98.38c0-.65,0-2.15,0-3v-.69c0-.79,0-1.24,0-1.82L75,92.69v-.51l2-.87.22.14.17,1.68v2.2c0,.9,0,2.4,0,3Zm2.31-.52v.52H75.1v-.52l1.58-.29H77ZM81.83,94v1.35c0,.93,0,2.4,0,3H80.56c0-.65,0-2.12,0-3V94.1c0-1.33-.34-1.76-1.19-1.76a3.16,3.16,0,0,0-2.13,1H77v-.67h.75L77.1,93A3.86,3.86,0,0,1,80,91.31C81.22,91.31,81.83,92.08,81.83,94Zm-.41,3.59,1.45.29v.52H79.51v-.52l1.58-.29Z"/><path class="cls-1" d="M92.17,94.09a2.82,2.82,0,0,1-.1.81H86.7v-.61h3.41c.7,0,.86-.33.86-.75A1.58,1.58,0,0,0,89.39,92c-.91,0-2,.78-2,2.86,0,1.83.92,2.81,2.35,2.81a2.48,2.48,0,0,0,2-1l.34.28a3,3,0,0,1-2.78,1.68c-2,0-3.23-1.35-3.23-3.56a3.44,3.44,0,0,1,3.33-3.7A2.6,2.6,0,0,1,92.17,94.09Z"/><path class="cls-1" d="M96.7,98.38c0-.65,0-2.15,0-3v-.69c0-.79,0-1.24,0-1.82l-1.14-.13v-.51l2-.87.22.14L98,93.13v2.2c0,.9,0,2.4,0,3ZM99,97.86v.52H95.65v-.52l1.58-.29h.34ZM102.32,94v1.35c0,.93,0,2.4.05,3h-1.31c0-.65,0-2.12,0-3V94.1c0-1.33-.34-1.76-1.2-1.76a3.07,3.07,0,0,0-2.07,1h-.31v-.67h.74l-.61.27a3.82,3.82,0,0,1,2.82-1.64C101.72,91.31,102.32,92.08,102.32,94Zm-.4,3.59,1.44.29v.52H100v-.52l1.58-.29Zm4.75-3.74v1.5c0,.93,0,2.4,0,3h-1.31c0-.65,0-2.12,0-3V94.08c0-1.35-.37-1.74-1.21-1.74a3,3,0,0,0-2.06,1h-.36v-.54h.8L102,93a3.53,3.53,0,0,1,2.85-1.64C106,91.31,106.67,92,106.67,93.83Zm-.4,3.74,1.45.29v.52h-3.37v-.52l1.58-.29Z"/><path class="cls-1" d="M111,95a3.34,3.34,0,1,1,3.33,3.61A3.32,3.32,0,0,1,111,95Zm5.29,0c0-2-.72-3-2-3s-2,1.05-2,3,.69,2.94,2,2.94S116.26,96.92,116.26,95Z"/><path class="cls-1" d="M122.05,98.38c0-.65,0-2.15,0-3v-.68c0-.8,0-1.25,0-1.83l-1.18-.13v-.51l2.24-.87.22.14,0,2v1.91c0,.9,0,2.4,0,3Zm2.28-.52v.52H121v-.52l1.59-.29h.33Zm-2.63-9.09a1,1,0,1,1,1,.93A.93.93,0,0,1,121.7,88.77Z"/><path class="cls-4" d="M106.14,58.89a2.7,2.7,0,0,1,1.71.21c.56.36.55,1.32.57,1.91,0,.12,0,.24,0,.36a6.48,6.48,0,0,1,.88-.29,3,3,0,0,1,1.33-.15,1.66,1.66,0,0,1,.62.35l.33.27c.09.08.21.25.32.3-.43-.19-.77-.57-1.23-.65a1.89,1.89,0,0,0-.94.16c-.3.12-.61.22-.92.32s-.35.12-.53.16-.22,0-.22-.22,0-.59,0-.88,0-.45,0-.67a1.17,1.17,0,0,0-.35-.76,1.76,1.76,0,0,0-.92-.32A1.8,1.8,0,0,0,106.14,58.89Z"/><path d="M111.91,61.91h0a2.87,2.87,0,0,1-.48-.28,2.07,2.07,0,0,0-.73-.36,1.76,1.76,0,0,0-.91.16l-.92.31-.11,0-.42.12a.26.26,0,0,1-.22,0,.33.33,0,0,1-.08-.25,3.85,3.85,0,0,0,0-.48c0-.13,0-.27,0-.4v-.09a5.43,5.43,0,0,0,0-.57,1.13,1.13,0,0,0-.33-.73,1.28,1.28,0,0,0-.69-.27l-.21,0-.14,0a1.07,1.07,0,0,0-.43-.06h0a.06.06,0,0,1-.06-.06.05.05,0,0,1,0-.06,2.77,2.77,0,0,1,1.74.22c.54.35.57,1.23.59,1.81V61c0,.1,0,.19,0,.28a6,6,0,0,1,.81-.25l.13,0a2.69,2.69,0,0,1,1.23-.12,1.65,1.65,0,0,1,.58.32l.05.05a4,4,0,0,1,.34.27l.1.11a1,1,0,0,0,.2.18.05.05,0,0,1,0,.07A.05.05,0,0,1,111.91,61.91Zm-5.24-3,.08,0,.2,0a1.33,1.33,0,0,1,.75.3,1.3,1.3,0,0,1,.37.79c0,.2,0,.4,0,.59v.09c0,.13,0,.27,0,.4s0,.32,0,.48a.28.28,0,0,0,0,.16h.12l.42-.12.1,0,.92-.31a1.86,1.86,0,0,1,1-.16,2,2,0,0,1,.77.37l-.24-.19,0,0a1.55,1.55,0,0,0-.54-.31,2.49,2.49,0,0,0-1.17.13l-.14,0a5.57,5.57,0,0,0-.87.28,0,0,0,0,1,0,0s0,0,0,0,0-.24,0-.36v-.14c0-.6,0-1.41-.54-1.72A2,2,0,0,0,106.67,58.91Z"/><path class="cls-4" d="M84.55,42.81c.27-.27.93-.66,1.33-.51s.46,1.11.41,1.55c0-.05.14-.14.18-.17l.43-.37c.21-.16.61-.51.89-.37s.35.8.39,1.09c0-.3-.2-.75-.55-.79s-.66.4-.86.67-.66.81-.84.42a1.23,1.23,0,0,1,0-.54c0-.17,0-.35,0-.53s0-.64-.33-.74-.47.14-.65.23-.18.12-.28.17S84.41,43,84.55,42.81Z"/><path d="M86.1,44.51h0a.24.24,0,0,1-.19-.15.85.85,0,0,1,0-.45s0-.08,0-.12a4.52,4.52,0,0,0,0-.52c0-.28,0-.61-.29-.69s-.32.07-.47.15L85,42.8l-.12.07a.75.75,0,0,1-.17.1c-.07,0-.21.06-.26,0s0-.11.06-.18h0c.25-.26.94-.69,1.39-.52s.54.64.46,1.44l0,0,0,0a4.74,4.74,0,0,1,.44-.38l.06,0c.23-.17.6-.47.89-.32s.37.71.4,1V44a.06.06,0,1,1-.11,0c0-.23-.17-.69-.5-.73s-.55.29-.74.55l-.07.09C86.71,44.08,86.36,44.51,86.1,44.51Zm-.56-2.06.09,0c.35.11.37.59.38.79s0,.37,0,.54a.69.69,0,0,1,0,.13,1,1,0,0,0,0,.38c0,.07.08.08.1.08s.44-.26.64-.52l.07-.09c.2-.27.47-.64.85-.59a.53.53,0,0,1,.39.26.71.71,0,0,0-.26-.46c-.23-.11-.56.15-.76.31l-.07.06a4.32,4.32,0,0,0-.43.36l-.05,0a.63.63,0,0,0-.12.1.06.06,0,0,1-.06,0s-.06,0,0-.07c.07-.58.07-1.32-.37-1.48s-1,.24-1.27.49h0l0,0,.1,0,.15-.08.14-.09.12-.06A1,1,0,0,1,85.54,42.45Zm-1,.36Z"/><path class="cls-4" d="M104.94,46.3a2.44,2.44,0,0,1,1.45-1c.71,0,.92.85,1,1.29,0,0,.13-.2.16-.24s.27-.35.41-.53.57-.74,1-.72.69.61.82.87a.86.86,0,0,0-.92-.51c-.48.12-.67.65-.83,1s-.53,1.05-.87.76c-.14-.12-.14-.35-.18-.51a4.91,4.91,0,0,0-.15-.51c-.1-.23-.26-.59-.65-.56s-.52.33-.7.48-.19.2-.3.28S104.81,46.5,104.94,46.3Z"/><path d="M107.27,47.28a.29.29,0,0,1-.19-.08.7.7,0,0,1-.18-.42.5.5,0,0,0,0-.12,3.51,3.51,0,0,0-.15-.5c-.11-.27-.26-.55-.58-.52a1.19,1.19,0,0,0-.55.35l-.13.12-.12.12-.17.16c-.08.06-.24.14-.31.07s0-.16,0-.19h0a2.41,2.41,0,0,1,1.5-1.06c.51,0,.86.38,1,1.18l0-.07,0,0c.15-.2.28-.37.42-.53l.06-.08c.21-.25.55-.67.92-.67h0c.42,0,.67.52.82.82l0,.08a.05.05,0,0,1,0,.08.06.06,0,0,1-.08,0h0a.83.83,0,0,0-.85-.48c-.41.1-.59.51-.74.84a.61.61,0,0,0,0,.12c-.06.13-.38.76-.71.84Zm-1.08-1.76c.41,0,.58.42.65.6a3.63,3.63,0,0,1,.15.51l0,.13a.61.61,0,0,0,.13.35.19.19,0,0,0,.16,0c.23-.06.51-.52.63-.78a.61.61,0,0,0,0-.12c.15-.33.36-.79.82-.9a.75.75,0,0,1,.62.13.72.72,0,0,0-.51-.37h0c-.32,0-.64.39-.83.62l-.06.08a6.11,6.11,0,0,0-.41.53l0,0a.79.79,0,0,0-.12.15,0,0,0,0,1,0,.06s-.06,0-.07,0h0c-.1-.57-.33-1.24-.9-1.24h0a2.39,2.39,0,0,0-1.4,1l0,0a.59.59,0,0,0,.14-.07l.15-.15.14-.13.13-.12a1.21,1.21,0,0,1,.61-.38Z"/><path class="cls-4" d="M78.34,48.12a4.74,4.74,0,0,0,.07,1,5.24,5.24,0,0,0,.44,1.75,4.41,4.41,0,0,0,1,1.19,6,6,0,0,0,.53.48,1.61,1.61,0,0,0,.3.21c.37.17.24-.48.2-.64-.07-.34-.19-.66-.23-1a5.58,5.58,0,0,1,.11-1.68,4.84,4.84,0,0,1,.49-1.58,0,0,0,0,0,0,0s0,0-.07,0a.35.35,0,0,0-.11.13,1.51,1.51,0,0,0-.16.31c-.11.28-.2.58-.29.87a9.65,9.65,0,0,0-.31,1.14,4.24,4.24,0,0,0,0,.87,1.89,1.89,0,0,0,.19.88,7.73,7.73,0,0,1-1.3-1.38,2.65,2.65,0,0,1-.41-1.16c-.08-.42-.12-.85-.21-1.27,0,0,0-.22-.11-.21S78.35,48,78.34,48.12Z"/><path d="M80.8,52.8l-.14,0a1.2,1.2,0,0,1-.26-.18l-.05,0c-.2-.16-.38-.34-.54-.49L79.69,52a4.63,4.63,0,0,1-.9-1.09,5.61,5.61,0,0,1-.44-1.77s0,0,0-.08a4.3,4.3,0,0,1-.06-.9h0c0-.16.07-.25.16-.25h0c.12,0,.14.16.16.23v0c0,.22.08.46.11.68l.09.58a2.92,2.92,0,0,0,.4,1.15,7.84,7.84,0,0,0,1.1,1.2,2.38,2.38,0,0,1-.08-.58v-.08a3.7,3.7,0,0,1,0-.89,8.51,8.51,0,0,1,.28-1l0-.13c.09-.3.19-.59.3-.88a1.91,1.91,0,0,1,.16-.32c.06-.08.1-.13.14-.14a.11.11,0,0,1,.11,0,.09.09,0,0,1,0,.08.11.11,0,0,1,0,.06,4.61,4.61,0,0,0-.46,1.46l0,.1a5.44,5.44,0,0,0-.11,1.66,4.13,4.13,0,0,0,.13.61c0,.13.07.25.1.38.08.39.07.62,0,.71A.2.2,0,0,1,80.8,52.8Zm-2.41-4.67h0a4.63,4.63,0,0,0,.06.87.64.64,0,0,0,0,.09,5.36,5.36,0,0,0,.43,1.73,4.09,4.09,0,0,0,.87,1l.13.12a6.1,6.1,0,0,0,.52.47l0,0a1,1,0,0,0,.24.16c.06,0,.1,0,.13,0s.1-.13,0-.59c0-.13-.06-.25-.1-.38a6.21,6.21,0,0,1-.14-.62,6,6,0,0,1,.11-1.7l0-.1a5.05,5.05,0,0,1,.44-1.43l0,0a1.64,1.64,0,0,0-.14.3q-.17.42-.3.87l0,.12a7.17,7.17,0,0,0-.27,1,3.44,3.44,0,0,0,0,.86v.08a1.48,1.48,0,0,0,.17.77.08.08,0,0,1,0,.08.06.06,0,0,1-.08,0,8.23,8.23,0,0,1-1.31-1.39,2.79,2.79,0,0,1-.42-1.19q-.06-.3-.09-.6c0-.22-.07-.45-.11-.67v0c0-.11,0-.13,0-.13S78.4,48,78.39,48.13Z"/><g class="cls-5"><path class="cls-6" d="M78.87,78.15s.9-2.61,6.75-2.91c0,0,3.5-.37,3.6-1a1.54,1.54,0,0,1,1.09-.57A9.53,9.53,0,0,0,92,72.79a3.71,3.71,0,0,1,2.12-.31s.69.09.82-.41,2-2.28,4.91-1.24,2.61,2.34,6.09,1.84,2.9,0,4.46,2.45"/><path d="M78.87,78.21h0a.05.05,0,0,1,0-.07c0-.11,1-2.66,6.79-3,1.34-.14,3.48-.52,3.55-1,0,0,0,0,0,0a1.58,1.58,0,0,1,1.13-.6,9.83,9.83,0,0,0,1.64-.86,3.69,3.69,0,0,1,2.16-.33s.64.08.76-.36a2.43,2.43,0,0,1,1.19-1.12,4.6,4.6,0,0,1,3.79-.17A9.84,9.84,0,0,1,102,71.88c1,.64,1.65,1.05,3.88.74,2.88-.41,3-.15,3.84,1.31.18.33.39.71.68,1.16a.08.08,0,0,1,0,.08.05.05,0,0,1-.08,0c-.29-.45-.51-.85-.68-1.17-.8-1.43-.92-1.65-3.72-1.25a4.69,4.69,0,0,1-4-.75,10.35,10.35,0,0,0-2.16-1.1,4.43,4.43,0,0,0-3.7.17,2.41,2.41,0,0,0-1.13,1c-.11.44-.63.49-.88.46a3.61,3.61,0,0,0-2.08.3,9,9,0,0,1-1.68.88h0a1.53,1.53,0,0,0-1,.55c-.15.64-3.29,1-3.65,1a10.17,10.17,0,0,0-5.52,1.55,3.16,3.16,0,0,0-1.17,1.32A.05.05,0,0,1,78.87,78.21Z"/></g><rect class="cls-7" x="80.88" y="48.41" width="0.09" height="0.09"/><path class="cls-8" d="M91,53.12c.09-.79.17-1.59.25-2.39,0-.53.11-1.07.16-1.6,0-.14,0-.46.08-.57.53-.48,1.85-.36,2.62-.31s1.57.1,2.36.18a6,6,0,0,1,1.93.26c.51.33.32.94.31,1.36,0,.69,0,1.39,0,2.09,0,.37.38,1.12,0,1.45s-2.29,0-2.92-.07C94.31,53.29,92.63,53.36,91,53.12Z"/><path class="cls-8" d="M90.69,67.75a.08.08,0,0,1,0-.1c.18-1.48.29-3,.43-4.45,0-.15,0-.52.08-.64A2.63,2.63,0,0,1,93,62.17c1.11,0,2.25,0,3.36.06a4.64,4.64,0,0,1,1.94.29c.7.48.45,1.35.49,1.92s0,1.38.07,2.07c0,.4.34,1-.59,1.24a4.46,4.46,0,0,1-1.42,0,17.25,17.25,0,0,0-3.22-.15,12.44,12.44,0,0,1-2.8.14Z"/><path class="cls-8" d="M90.69,60.53a.07.07,0,0,1,0-.09c.18-1.48.29-3,.43-4.45,0-.16,0-.52.08-.65A2.63,2.63,0,0,1,93,55c1.11,0,2.25,0,3.36.06a4.81,4.81,0,0,1,1.94.29c.7.48.45,1.35.49,1.92s0,1.38.07,2.07c0,.41.34,1-.59,1.24a4.46,4.46,0,0,1-1.42.06,16.44,16.44,0,0,0-3.22-.15,13.06,13.06,0,0,1-2.8.13A.26.26,0,0,1,90.69,60.53Z"/><path class="cls-8" d="M89.77,73.19l.57-4.14s8.49-.5,9,.64,0,1,0,1-3-.89-4.41,1.25c0,0,.29.56-.82.37s-3.78,1.06-3.78,1.06Z"/><path class="cls-9" d="M91.67,46.38c-.48-.41-.81-2-.21-2.34a1.45,1.45,0,0,1,.87-.18,1,1,0,0,0,.43,0c.57-.24.1-1.3,0-1.7a3.12,3.12,0,0,1,.26-2.4,1.37,1.37,0,0,1,1-.41,12.71,12.71,0,0,1,2.47.09.39.39,0,0,1,.19.06.42.42,0,0,1,.08.12c.61,1.33.12,2.68.34,4a.64.64,0,0,0,.27.45,1.69,1.69,0,0,0,.43.15c.85.29.72,1.49.52,2.17-.26.86-1.44.66-2.11.61-1.43-.12-2.86-.34-4.29-.5A.44.44,0,0,1,91.67,46.38Z"/><path class="cls-10" d="M89.67,61.66a19,19,0,0,0-.27,2.39c-.08,1.78-.1,3.56-.27,5.33-.13,1.32-.32,4.8-2.23,4.91-3,.16-9.14,1-9.69,0a2.61,2.61,0,0,1-.32-2,20.33,20.33,0,0,0,.31-2.69,6.87,6.87,0,0,1,.26-2.6,18.82,18.82,0,0,1,2.24-3.05c.65-.93,1.34-1.84,2-2.76a38.66,38.66,0,0,1,3.9-4.92,3.79,3.79,0,0,1,.58-.48c1.51-.9,3.17-2.42,4-1.37A2.41,2.41,0,0,1,90.37,56c0,.65-.05,1.3-.11,1.94C90.13,59.17,89.87,60.41,89.67,61.66Z"/><path class="cls-11" d="M78.79,61.42a2.36,2.36,0,0,0,1.54-.84,2.26,2.26,0,0,0,.18-1.21A5.8,5.8,0,0,1,82.3,54.9a16.54,16.54,0,0,1,3.55-2.46l1.8-1a5.89,5.89,0,0,1,1.64-.83.81.81,0,0,1,.82.32,1.21,1.21,0,0,1,.12.53,10.76,10.76,0,0,1-.16,3.3,4.29,4.29,0,0,1-2,2.4,18.28,18.28,0,0,0-2.49,2.16,3.47,3.47,0,0,0-.9,1.28,7,7,0,0,1-.26,1.1c-.18.35-.52.44-.79.71a1.57,1.57,0,0,0-.4,1c-.16,2.55-2.49,7.71-1.18,9.78a.45.45,0,0,1,.1.29c0,.21-.3.28-.51.3-3.39.24-3.36-2.33-6.39-4.07a3.37,3.37,0,0,1-1.73-3.88c.13-.54.31-1.64,1-1.81"/><path class="cls-11" d="M99.39,50.38s0,0,0,0,.09,0,.13,0a7.92,7.92,0,0,1,3.16,1.38,4.33,4.33,0,0,1,1.3,1.19c.39.58.5,1.29.9,1.86s.86,1.07.71,1.68c-.1.4-.48.67-.65,1s-.13,1-.58,1.3-1,.13-1.34.68a1.28,1.28,0,0,1-.23.29c-.49.43-.9-1-1-1.29-.59-1.32-1.58-2.64-1.69-4.13-.09-1.3-.5-2.56-.71-3.85C99.38,50.44,99.37,50.41,99.39,50.38Z"/><path class="cls-11" d="M100.46,62a.47.47,0,0,1-.7-.3l0-.12a32.59,32.59,0,0,1-.56-6.83,4.41,4.41,0,0,1,.13-2,25.5,25.5,0,0,1,1.28,2.48,4.18,4.18,0,0,0,.77,1.3c.31.31.85.46,1,.89a2.17,2.17,0,0,1,.05.72c0,.87.23,2.06-.36,2.82A4.88,4.88,0,0,1,100.46,62Z"/><path d="M111.91,61.91h0a2.87,2.87,0,0,1-.48-.28,2.07,2.07,0,0,0-.73-.36,1.76,1.76,0,0,0-.91.16l-.92.31-.11,0-.42.12a.26.26,0,0,1-.22,0,.33.33,0,0,1-.08-.25,3.85,3.85,0,0,0,0-.48c0-.13,0-.27,0-.4v-.09a5.43,5.43,0,0,0,0-.57,1.13,1.13,0,0,0-.33-.73,1.28,1.28,0,0,0-.69-.27l-.21,0-.14,0a1.07,1.07,0,0,0-.43-.06h0a.06.06,0,0,1-.06-.06.05.05,0,0,1,0-.06,2.77,2.77,0,0,1,1.74.22c.54.35.57,1.23.59,1.81V61c0,.1,0,.19,0,.28a6,6,0,0,1,.81-.25l.13,0a2.69,2.69,0,0,1,1.23-.12,1.65,1.65,0,0,1,.58.32l.05.05a4,4,0,0,1,.34.27l.1.11a1,1,0,0,0,.2.18.05.05,0,0,1,0,.07A.05.05,0,0,1,111.91,61.91Zm-5.24-3,.08,0,.2,0a1.33,1.33,0,0,1,.75.3,1.3,1.3,0,0,1,.37.79c0,.2,0,.4,0,.59v.09c0,.13,0,.27,0,.4s0,.32,0,.48a.28.28,0,0,0,0,.16h.12l.42-.12.1,0,.92-.31a1.86,1.86,0,0,1,1-.16,2,2,0,0,1,.77.37l-.24-.19,0,0a1.55,1.55,0,0,0-.54-.31,2.49,2.49,0,0,0-1.17.13l-.14,0a5.57,5.57,0,0,0-.87.28,0,0,0,0,1,0,0s0,0,0,0,0-.24,0-.36v-.14c0-.6,0-1.41-.54-1.72A2,2,0,0,0,106.67,58.91Z"/><path d="M86.1,44.51h0a.24.24,0,0,1-.19-.15.85.85,0,0,1,0-.45s0-.08,0-.12a4.52,4.52,0,0,0,0-.52c0-.28,0-.61-.29-.69s-.32.07-.47.15L85,42.8l-.12.07a.75.75,0,0,1-.17.1c-.07,0-.21.06-.26,0s0-.11.06-.18h0c.25-.26.94-.69,1.39-.52s.54.64.46,1.44l0,0,0,0a4.74,4.74,0,0,1,.44-.38l.06,0c.23-.17.6-.47.89-.32s.37.71.4,1V44a.06.06,0,1,1-.11,0c0-.23-.17-.69-.5-.73s-.55.29-.74.55l-.07.09C86.71,44.08,86.36,44.51,86.1,44.51Zm-.56-2.06.09,0c.35.11.37.59.38.79s0,.37,0,.54a.69.69,0,0,1,0,.13,1,1,0,0,0,0,.38c0,.07.08.08.1.08s.44-.26.64-.52l.07-.09c.2-.27.47-.64.85-.59a.53.53,0,0,1,.39.26.71.71,0,0,0-.26-.46c-.23-.11-.56.15-.76.31l-.07.06a4.32,4.32,0,0,0-.43.36l-.05,0a.63.63,0,0,0-.12.1.06.06,0,0,1-.06,0s-.06,0,0-.07c.07-.58.07-1.32-.37-1.48s-1,.24-1.27.49h0l0,0,.1,0,.15-.08.14-.09.12-.06A1,1,0,0,1,85.54,42.45Zm-1,.36Z"/><path d="M107.27,47.28a.29.29,0,0,1-.19-.08.7.7,0,0,1-.18-.42.5.5,0,0,0,0-.12,3.51,3.51,0,0,0-.15-.5c-.11-.27-.26-.55-.58-.52a1.19,1.19,0,0,0-.55.35l-.13.12-.12.12-.17.16c-.08.06-.24.14-.31.07s0-.16,0-.19h0a2.41,2.41,0,0,1,1.5-1.06c.51,0,.86.38,1,1.18l0-.07,0,0c.15-.2.28-.37.42-.53l.06-.08c.21-.25.55-.67.92-.67h0c.42,0,.67.52.82.82l0,.08a.05.05,0,0,1,0,.08.06.06,0,0,1-.08,0h0a.83.83,0,0,0-.85-.48c-.41.1-.59.51-.74.84a.61.61,0,0,0,0,.12c-.06.13-.38.76-.71.84Zm-1.08-1.76c.41,0,.58.42.65.6a3.63,3.63,0,0,1,.15.51l0,.13a.61.61,0,0,0,.13.35.19.19,0,0,0,.16,0c.23-.06.51-.52.63-.78a.61.61,0,0,0,0-.12c.15-.33.36-.79.82-.9a.75.75,0,0,1,.62.13.72.72,0,0,0-.51-.37h0c-.32,0-.64.39-.83.62l-.06.08a6.11,6.11,0,0,0-.41.53l0,0a.79.79,0,0,0-.12.15,0,0,0,0,1,0,.06s-.06,0-.07,0h0c-.1-.57-.33-1.24-.9-1.24h0a2.39,2.39,0,0,0-1.4,1l0,0a.59.59,0,0,0,.14-.07l.15-.15.14-.13.13-.12a1.21,1.21,0,0,1,.61-.38Z"/><path d="M80.8,52.8l-.14,0a1.2,1.2,0,0,1-.26-.18l-.05,0c-.2-.16-.38-.34-.54-.49L79.69,52a4.63,4.63,0,0,1-.9-1.09,5.61,5.61,0,0,1-.44-1.77s0,0,0-.08a4.3,4.3,0,0,1-.06-.9h0c0-.16.07-.25.16-.25h0c.12,0,.14.16.16.23v0c0,.22.08.46.11.68l.09.58a2.92,2.92,0,0,0,.4,1.15,7.84,7.84,0,0,0,1.1,1.2,2.38,2.38,0,0,1-.08-.58v-.08a3.7,3.7,0,0,1,0-.89,8.51,8.51,0,0,1,.28-1l0-.13c.09-.3.19-.59.3-.88a1.91,1.91,0,0,1,.16-.32c.06-.08.1-.13.14-.14a.11.11,0,0,1,.11,0,.09.09,0,0,1,0,.08.11.11,0,0,1,0,.06,4.61,4.61,0,0,0-.46,1.46l0,.1a5.44,5.44,0,0,0-.11,1.66,4.13,4.13,0,0,0,.13.61c0,.13.07.25.1.38.08.39.07.62,0,.71A.2.2,0,0,1,80.8,52.8Zm-2.41-4.67h0a4.63,4.63,0,0,0,.06.87.64.64,0,0,0,0,.09,5.36,5.36,0,0,0,.43,1.73,4.09,4.09,0,0,0,.87,1l.13.12a6.1,6.1,0,0,0,.52.47l0,0a1,1,0,0,0,.24.16c.06,0,.1,0,.13,0s.1-.13,0-.59c0-.13-.06-.25-.1-.38a6.21,6.21,0,0,1-.14-.62,6,6,0,0,1,.11-1.7l0-.1a5.05,5.05,0,0,1,.44-1.43l0,0a1.64,1.64,0,0,0-.14.3q-.17.42-.3.87l0,.12a7.17,7.17,0,0,0-.27,1,3.44,3.44,0,0,0,0,.86v.08a1.48,1.48,0,0,0,.17.77.08.08,0,0,1,0,.08.06.06,0,0,1-.08,0,8.23,8.23,0,0,1-1.31-1.39,2.79,2.79,0,0,1-.42-1.19q-.06-.3-.09-.6c0-.22-.07-.45-.11-.67v0c0-.11,0-.13,0-.13S78.4,48,78.39,48.13Z"/><path d="M71.86,69.28h0a.06.06,0,0,1,0-.07s.2-.93,1.77-1.47h0c1,0,3.63,0,3.68-.6,0,0,.16-.94,1.55-1,.06,0,.48-.19.48-.55,0,0,.08-.87.83-1h0a.45.45,0,0,0,.3-.08.35.35,0,0,0,.11-.3,3,3,0,0,1,.74-1.56,4.56,4.56,0,0,0,0-1.11,1.14,1.14,0,0,1,0-.86A4.91,4.91,0,0,0,81.89,58a2.38,2.38,0,0,1,.27-1.6.68.68,0,0,1,.54-.23s.6,0,.92-.8c0,0,0,0,0,0a2.41,2.41,0,0,1,.57-.22,1.75,1.75,0,0,1,.39,0,.64.64,0,0,0,.58-.2,1.23,1.23,0,0,0,.3-.64l0-.13a1.26,1.26,0,0,1,.22-.6,1.73,1.73,0,0,1,.39-.34l.18-.14a1.66,1.66,0,0,0,.26-.27,4,4,0,0,1,.28-.3,2.1,2.1,0,0,1,.78-.38,3.25,3.25,0,0,0,1.79-1,1.87,1.87,0,0,1,1.87-.63c.23.07.44-.07.67-.21a1.58,1.58,0,0,1,.47-.23h0a3.24,3.24,0,0,1,.82-.11,1.46,1.46,0,0,1,.36.09.78.78,0,0,0,.36.08,2.73,2.73,0,0,0,.4,0l.19,0,.71-.11a6.83,6.83,0,0,1,2.26-.15,2.55,2.55,0,0,1,1.16.46,1.69,1.69,0,0,1,.44.49,1.43,1.43,0,0,1,.08.22.76.76,0,0,0,.11.24,1.38,1.38,0,0,0,.3.24l.06,0a2.23,2.23,0,0,0,.8.33.78.78,0,0,0,.37,0l.15-.05a.53.53,0,0,1,.45,0c.33.14.48.64.61,1a1.47,1.47,0,0,0,.08.25,1.66,1.66,0,0,0,.12.31c0,.12.09.24.13.35a2.8,2.8,0,0,1,.06.28,1.24,1.24,0,0,0,.08.32l.09.1a.6.6,0,0,0,.4.09c.23,0,.49,0,.6.35l0,.08c.13.38.25.77.76.93a.65.65,0,0,1,.53.62.22.22,0,0,1-.17.21.64.64,0,0,1-.22,0c-.14,0-.3-.09-.4,0a.4.4,0,0,0-.14.29.54.54,0,0,0,.14.49.36.36,0,0,0,.15.08.44.44,0,0,1,.23.16.34.34,0,0,1,0,.28.37.37,0,0,1-.2.19.31.31,0,0,0-.23.34.07.07,0,0,1-.06.07.06.06,0,0,1-.06-.06.44.44,0,0,1,.32-.47.16.16,0,0,0,.12-.11.19.19,0,0,0,0-.18c0-.06-.09-.08-.17-.11a.64.64,0,0,1-.18-.1.69.69,0,0,1-.17-.6.49.49,0,0,1,.19-.37.6.6,0,0,1,.49,0,.45.45,0,0,0,.18,0s.06,0,.06-.1-.07-.38-.45-.5a1.29,1.29,0,0,1-.83-1l0-.08c-.08-.27-.26-.27-.49-.27a.72.72,0,0,1-.47-.12.34.34,0,0,1-.12-.14,1,1,0,0,1-.1-.35,2,2,0,0,0,0-.26l-.13-.34c0-.11-.09-.21-.12-.32s-.06-.16-.09-.25c-.11-.38-.25-.84-.54-1a.42.42,0,0,0-.36,0l-.16.06a.89.89,0,0,1-.43,0,2.35,2.35,0,0,1-.83-.36l-.06,0a1.7,1.7,0,0,1-.33-.27.9.9,0,0,1-.13-.28,1.07,1.07,0,0,0-.07-.19,1.62,1.62,0,0,0-.41-.46,2.29,2.29,0,0,0-1.1-.43,6.65,6.65,0,0,0-2.23.14l-.71.12-.19,0-.41.05a1,1,0,0,1-.41-.09,1,1,0,0,0-.33-.08,2.93,2.93,0,0,0-.78.1h0a1.6,1.6,0,0,0-.43.22.93.93,0,0,1-.77.22,1.7,1.7,0,0,0-1.73.59,3.38,3.38,0,0,1-1.86,1,2,2,0,0,0-.73.36,2.4,2.4,0,0,0-.27.28,1.86,1.86,0,0,1-.27.29l-.19.14a2.24,2.24,0,0,0-.37.32,1.22,1.22,0,0,0-.2.55l0,.13a1.47,1.47,0,0,1-.32.7.78.78,0,0,1-.67.24,1.09,1.09,0,0,0-.36,0,2.54,2.54,0,0,0-.53.2,1.2,1.2,0,0,1-1,.86.55.55,0,0,0-.45.18C81.86,56.93,82,58,82,58a5,5,0,0,1-.56,2.74,1,1,0,0,0,0,.77,4.81,4.81,0,0,1,0,1.18l0,0a2.86,2.86,0,0,0-.71,1.5.49.49,0,0,1-.15.38.52.52,0,0,1-.39.1c-.64.08-.71.81-.72.84,0,.47-.54.66-.56.67h0c-1.31.07-1.45.89-1.46.92-.07.81-3.35.73-3.78.71-1.49.52-1.69,1.38-1.69,1.38A.06.06,0,0,1,71.86,69.28Z"/><path d="M86.37,74.65a.05.05,0,0,1,0,0c-4.12-3.88-2.67-12.39-1.93-14.21A3.93,3.93,0,0,1,85.23,59a1.24,1.24,0,0,1,.67-.26,1.52,1.52,0,0,0,.52-.17,1.11,1.11,0,0,0,.51-.87c0-.82.33-.88.63-.95a1.07,1.07,0,0,0,.33-.11,2.42,2.42,0,0,0,.84-1.43A.64.64,0,0,1,89,54.7a.45.45,0,0,1,.42-.06c.28.11.67-.21.68-.22s1.17-1.3,1.81-.89a2.36,2.36,0,0,0,1,.27H93a1.12,1.12,0,0,0,.75-.09c.87-.58,1.71,0,2.35.62.17.16.32.24.4.21s.1-.13.11-.22v0a.91.91,0,0,1,.14-.42c.11-.17.21-.26.32-.26h0a.21.21,0,0,1,.18.12.56.56,0,0,1,.06.31.4.4,0,0,0,0,.2c.07.13.14.2.19.2h0c.06,0,.11-.08.12-.11.14-.26.27-.38.39-.35s.27.41.28.49.13.22.2.24.2-.09.32-.2l.21-.18a.52.52,0,0,1,.51-.08c.33.16.38.88.41,1.35,0,.09,0,.17,0,.23s0,.13,0,.2a2.07,2.07,0,0,0,.16.76,4,4,0,0,1,.35,1.15,3.55,3.55,0,0,1,0,.46,3.73,3.73,0,0,0,0,.48.23.23,0,0,0,.1.18.31.31,0,0,0,.25,0l.26-.2c.18-.14.36-.28.55-.4s.51,0,.71.22a1.21,1.21,0,0,0,.25.21.31.31,0,0,1,.13.24.52.52,0,0,1-.19.42.26.26,0,0,1-.12.05s-.08,0-.09,0,0,.23.05.32v0a2,2,0,0,0,.21.37,1.8,1.8,0,0,1,.23.46.57.57,0,0,1,0,.14.75.75,0,0,0,.08.24s0,.06.13,0c.28,0,.78-.67.83-.88a.54.54,0,0,0,0-.22.68.68,0,0,1,0-.14v0a.75.75,0,0,1,.07-.38,1.37,1.37,0,0,1,.43-.4l.21-.15a.06.06,0,0,1,.07.09,1.66,1.66,0,0,1-.21.16,1.26,1.26,0,0,0-.4.36.5.5,0,0,0,0,.32v0s0,.08,0,.13a.57.57,0,0,1,0,.26c-.05.21-.57.9-.92,1a.22.22,0,0,1-.24-.09.67.67,0,0,1-.1-.28.57.57,0,0,0,0-.14,2.19,2.19,0,0,0-.22-.43,2.88,2.88,0,0,1-.22-.38v0c0-.11-.12-.29,0-.42a.28.28,0,0,1,.16-.09l.08,0a.43.43,0,0,0,.14-.32.16.16,0,0,0-.08-.15,1.86,1.86,0,0,1-.26-.23c-.22-.22-.37-.34-.56-.21l-.55.4-.27.21h0a.5.5,0,0,1-.36,0,.35.35,0,0,1-.16-.26,4.07,4.07,0,0,1,0-.5c0-.15,0-.3,0-.44a4.39,4.39,0,0,0-.34-1.12,2.19,2.19,0,0,1-.18-.8,1.5,1.5,0,0,0,0-.2c0-.06,0-.14,0-.23,0-.42-.08-1.12-.36-1.26-.09,0-.22,0-.38.08a1.06,1.06,0,0,0-.2.17c-.15.13-.28.25-.43.22s-.2-.12-.28-.32-.1-.39-.19-.41-.11,0-.26.29c0,0-.09.18-.23.18s-.21-.08-.3-.26a.66.66,0,0,1,0-.25.51.51,0,0,0,0-.25s-.06-.06-.08-.06h0c-.06,0-.14.07-.23.2a1.07,1.07,0,0,0-.12.37v.05c0,.17-.09.27-.19.31s-.3,0-.52-.24c-.64-.59-1.41-1.13-2.21-.6a1.28,1.28,0,0,1-.82.11H92.9a2.35,2.35,0,0,1-1.08-.28c-.56-.36-1.66.86-1.67.88s-.46.38-.8.24a.31.31,0,0,0-.31,0,.47.47,0,0,0-.19.43,2.52,2.52,0,0,1-.9,1.54,1.09,1.09,0,0,1-.36.12c-.28.06-.5.11-.55.85a1.22,1.22,0,0,1-.55,1,1.52,1.52,0,0,1-.57.18,1.1,1.1,0,0,0-.61.24,3.54,3.54,0,0,0-.8,1.35,18.8,18.8,0,0,0-.84,6.29c.06,2.42.57,5.74,2.74,7.79a.06.06,0,0,1,0,.08Z"/><path d="M103.17,68h0l-1.49-.37A24.47,24.47,0,0,1,96.79,66a6.45,6.45,0,0,1-3-2.57,4.1,4.1,0,0,1,.33-4.1.05.05,0,0,1,.08,0s0,0,0,.08a4,4,0,0,0-.31,4,6.24,6.24,0,0,0,2.92,2.51,24.08,24.08,0,0,0,4.85,1.57l1.49.37a.06.06,0,0,1,0,.07A.05.05,0,0,1,103.17,68Z"/><path d="M90.52,76.21h0l0,0a13,13,0,0,1-4.41-4.68,11.25,11.25,0,0,1-1.57-6.39,9.32,9.32,0,0,1,2.58-5.94A11.78,11.78,0,0,1,92,56.06a8.58,8.58,0,0,1,2.14-.37c.53,0,1.06,0,1.58,0a2.88,2.88,0,0,1,1.53.35,3,3,0,0,1,.6.54,1,1,0,0,1,.21.6v.08a1.05,1.05,0,0,0,.17.46,2.68,2.68,0,0,1,.12.24.37.37,0,0,1-.11.45,2.88,2.88,0,0,1-.54.37c.34,0,.74.08.82.37.14.48-.24,1-.58,1.26.24,0,.53-.08.67.09a.49.49,0,0,1,0,.44c0,.15-.06.27,0,.38l.08.06.12-.29h0c.21-.25.36-.33.46-.28s.1.32.08.4a.73.73,0,0,0,.16.52.37.37,0,0,0,.21.1h0c.15,0,.25,0,.29-.09s0-.38-.15-.64-.27-.63-.14-.84a.43.43,0,0,1,.35-.18,1.35,1.35,0,0,1,.8.16l.14.1c.16.11.32.23.5.17.48-.15.44-1.12.43-1.53a.06.06,0,0,1,.06-.06h0s0,0,.06.06c0,.47,0,1.47-.51,1.64a.68.68,0,0,1-.61-.19l-.13-.09a1.25,1.25,0,0,0-.73-.15c-.14,0-.22.06-.26.13s0,.45.15.73.25.59.13.76-.19.14-.38.13a.43.43,0,0,1-.29-.13.81.81,0,0,1-.19-.61c0-.14,0-.27,0-.29s-.07,0-.32.25l-.13.32a.1.1,0,0,1,0,0c-.07,0-.21-.12-.21-.12a.49.49,0,0,1,0-.48c0-.13.06-.24,0-.33s-.47-.08-.68,0l-.1,0s0,0-.06,0a.06.06,0,0,1,0-.07c.26-.22.86-.77.71-1.29-.07-.23-.51-.27-.81-.3l-.23,0h0a.08.08,0,0,1,0-.07.06.06,0,0,1,.07,0h0a1.61,1.61,0,0,0,.76-.42A.27.27,0,0,0,98.2,58a1.51,1.51,0,0,0-.11-.22,1.23,1.23,0,0,1-.18-.51v-.08a.83.83,0,0,0-.18-.53,2.49,2.49,0,0,0-.57-.52,2.81,2.81,0,0,0-1.47-.34c-.52,0-1.05,0-1.57,0a8.34,8.34,0,0,0-2.11.36,11.6,11.6,0,0,0-4.86,3.09,9.23,9.23,0,0,0-2.55,5.86,11.18,11.18,0,0,0,1.56,6.32,12.89,12.89,0,0,0,4.37,4.64l0,0a.05.05,0,0,1,0,.08A.05.05,0,0,1,90.52,76.21Z"/><path d="M94.28,72.26h0a9.22,9.22,0,0,1-4.94-4.43,8.48,8.48,0,0,1-.62-4.18A6.57,6.57,0,0,1,89.91,60a3.56,3.56,0,0,1,3.38-1.37.06.06,0,0,1,0,.06.08.08,0,0,1-.07.05A3.41,3.41,0,0,0,90,60.05a6.37,6.37,0,0,0-1.19,3.6,8.38,8.38,0,0,0,.6,4.12,9.22,9.22,0,0,0,4.89,4.38.05.05,0,0,1,0,.07A.07.07,0,0,1,94.28,72.26Z"/><path d="M91.73,73.06h0a7.32,7.32,0,0,1-3.6-3,9.25,9.25,0,0,1-1.4-3.69,8.53,8.53,0,0,1,4-8.46.05.05,0,0,1,.08,0,.06.06,0,0,1,0,.08,8.43,8.43,0,0,0-3.94,8.35A9.22,9.22,0,0,0,88.21,70a7.23,7.23,0,0,0,3.54,3,.05.05,0,0,1,0,.07S91.75,73.06,91.73,73.06Z"/><path d="M83.2,63s0,0-.06,0-.42-3,.6-3.75a2.63,2.63,0,0,1,1.65-1.45.07.07,0,0,1,.08,0,.07.07,0,0,1,0,.08,2.49,2.49,0,0,0-1.58,1.39s0,0,0,0c-1,.69-.57,3.62-.56,3.65a.08.08,0,0,1-.05.07Z"/><path d="M88.19,53.4s0,0,0,0a.07.07,0,0,1,0-.08,2.42,2.42,0,0,0,1.29-.91A2.58,2.58,0,0,1,91,51.44s.07,0,.07.05,0,.06,0,.07a2.47,2.47,0,0,0-1.48.87,2.53,2.53,0,0,1-1.36,1Z"/><path d="M101.38,53.83h0c-1.42-.31-1.43-.95-1.43-1s0-1.07-1.5-1.3-1.65-.49-1.76-.6l0,0a.05.05,0,0,1,0-.07.07.07,0,0,1,.08,0l.06.05c.08.09.35.36,1.68.56,1.63.25,1.6,1.41,1.6,1.42s0,.57,1.35.86c0,0,0,0,0,.07S101.4,53.83,101.38,53.83Z"/><path d="M103,58h0a.06.06,0,0,1,0-.08c.25-.51.23-.75.17-.87A.19.19,0,0,0,103,57c-.55-.08-1.27-1-1.3-1.05a.05.05,0,0,1,0-.08.06.06,0,0,1,.08,0s.72.93,1.23,1a.32.32,0,0,1,.2.15c.11.2,0,.53-.16,1A.07.07,0,0,1,103,58Z"/><path d="M82.24,66h0a.06.06,0,0,1,0-.08,1.46,1.46,0,0,0-.31-1.52.08.08,0,0,1,0-.09.06.06,0,0,1,.08,0A1.6,1.6,0,0,1,82.29,66,.05.05,0,0,1,82.24,66Z"/><path d="M82.88,66.19h0a.05.05,0,0,1,0-.08.76.76,0,0,0,0-.92.06.06,0,0,1,0-.08.06.06,0,0,1,.09,0,.94.94,0,0,1,0,1.06S82.9,66.19,82.88,66.19Z"/><path d="M79.56,75.91h0c-2.67-1.84-1.37-7.47-1.36-7.53a.06.06,0,0,1,.07,0s.05,0,0,.07S77,74,79.59,75.81a.05.05,0,0,1,0,.08Z"/><path d="M84.73,77.06h0a12.79,12.79,0,0,1-4.89-3.58,4.17,4.17,0,0,1,0-5.13.06.06,0,0,1,.09,0,.06.06,0,0,1,0,.08,4.06,4.06,0,0,0,0,5A12.69,12.69,0,0,0,84.75,77a.05.05,0,0,1,0,.07A.05.05,0,0,1,84.73,77.06Z"/><path d="M88.73,76.56h0a46.58,46.58,0,0,1-6.17-3.22,3,3,0,0,1-1.71-2.28,3.81,3.81,0,0,1,1.5-2.72.05.05,0,0,1,.08,0,.05.05,0,0,1,0,.08A3.78,3.78,0,0,0,81,71.06a2.9,2.9,0,0,0,1.65,2.18,46.72,46.72,0,0,0,6.16,3.21.08.08,0,0,1,0,.08A.06.06,0,0,1,88.73,76.56Z"/><path d="M86.5,55.14a.78.78,0,0,1-.19,0,.07.07,0,0,1,0-.08.06.06,0,0,1,.08,0,.37.37,0,0,0,.29,0,.44.44,0,0,0,.17-.36.08.08,0,0,1,.07,0,.07.07,0,0,1,0,.07.52.52,0,0,1-.23.44A.45.45,0,0,1,86.5,55.14Z"/><path d="M92.39,52a.05.05,0,0,1,0,0,.05.05,0,0,1,0-.08,1.24,1.24,0,0,1,1.13,0,.06.06,0,1,1-.06.1,1.11,1.11,0,0,0-1,0Z"/><path d="M79.36,67.56a.06.06,0,0,1,0-.11h0s.41-.19.41-.87a.06.06,0,0,1,.12,0,1,1,0,0,1-.48,1Z"/><path d="M78.87,78.21h0a.05.05,0,0,1,0-.07c0-.11,1-2.66,6.79-3,1.34-.14,3.48-.52,3.55-1,0,0,0,0,0,0a1.58,1.58,0,0,1,1.13-.6,9.83,9.83,0,0,0,1.64-.86,3.69,3.69,0,0,1,2.16-.33s.64.08.76-.36a2.43,2.43,0,0,1,1.19-1.12,4.6,4.6,0,0,1,3.79-.17A9.84,9.84,0,0,1,102,71.88c1,.64,1.65,1.05,3.88.74,2.88-.41,3-.15,3.84,1.31.18.33.39.71.68,1.16a.08.08,0,0,1,0,.08.05.05,0,0,1-.08,0c-.29-.45-.51-.85-.68-1.17-.8-1.43-.92-1.65-3.72-1.25a4.69,4.69,0,0,1-4-.75,10.35,10.35,0,0,0-2.16-1.1,4.43,4.43,0,0,0-3.7.17,2.41,2.41,0,0,0-1.13,1c-.11.44-.63.49-.88.46a3.61,3.61,0,0,0-2.08.3,9,9,0,0,1-1.68.88h0a1.53,1.53,0,0,0-1,.55c-.15.64-3.29,1-3.65,1a10.17,10.17,0,0,0-5.52,1.55,3.16,3.16,0,0,0-1.17,1.32A.05.05,0,0,1,78.87,78.21Z"/><path d="M88.91,74.39h0a.07.07,0,0,1-.05-.07l.55-4.26.14-1.39a.38.38,0,0,1,.06-.3.82.82,0,0,1,.59-.31c.72-.12,1.69-.24,1.7-.24s.3,0,.35-.49.05-2.17.05-2.19a.58.58,0,0,1,.16-.4.48.48,0,0,1,.4-.1l.1,0c.44.06.69.09.68.76s0,1.8,0,2.07l4.84.46a.24.24,0,0,0,.2,0c.08-.06.15-.24.07-.71-.18-1-.58-9-.59-9.37v0a.35.35,0,0,0-.07-.27.9.9,0,0,0-.68-.27c-.05,0-3.41-1.09-5.74-.08,0,0,0,0,0,0a.5.5,0,0,0-.23.1,1,1,0,0,0-.22.7L90.7,66s0,.42-.25.56a.44.44,0,0,1-.39,0s-.57-.32-.24-1.31l.65-8.38a0,0,0,0,1,.06,0,.05.05,0,0,1,0,.06l-.64,8.39h0c-.31.9.15,1.16.17,1.17a.29.29,0,0,0,.27,0,.64.64,0,0,0,.2-.47L91.06,58a1,1,0,0,1,.27-.78.45.45,0,0,1,.3-.12c2.36-1,5.76.07,5.79.08a1,1,0,0,1,.76.31.48.48,0,0,1,.08.36c0,.3.41,8.4.59,9.35.08.42,0,.69-.1.82a.31.31,0,0,1-.3.06l-4.88-.46s-.06,0-.06-.06V65.42c0-.57-.14-.59-.57-.65h-.11a.36.36,0,0,0-.3.06.44.44,0,0,0-.12.32c0,.07,0,1.69,0,2.21s-.44.59-.46.59-1,.12-1.69.24a.75.75,0,0,0-.52.25.3.3,0,0,0,0,.22v0l-.14,1.4L89,74.34A.06.06,0,0,1,88.91,74.39Z"/><path d="M90.34,73.5h0a.06.06,0,0,1,0-.08,18.09,18.09,0,0,0,.16-3.94.72.72,0,0,1,.12-.55,1,1,0,0,1,.81-.29c.08,0,2.11-.26,2.76-.26h0c.77,0,4.58.13,4.81.55a0,0,0,0,1,0,0l-.07,1.33a.06.06,0,0,1-.06.06s-.06,0-.06-.06L98.84,69c-.22-.27-3-.43-4.7-.48h0c-.64,0-2.73.27-2.75.27h0a.87.87,0,0,0-.71.24.59.59,0,0,0-.1.46,17.44,17.44,0,0,1-.17,4A.05.05,0,0,1,90.34,73.5Z"/><path d="M99.85,70.67a.06.06,0,0,1-.06,0c0-.1-.3-2.26-.33-2.59,0,0-.32-4.1-.23-4.54l-.17-.86c0-.07-.36-6.6-.56-7.39s-.35-6-.34-6.72a.06.06,0,0,1,.06-.05h0a.06.06,0,0,1,.06.06c0,.72.14,5.91.33,6.69s.55,7.13.57,7.4l.17.86v0c-.09.29.19,4.06.23,4.51s.32,2.56.32,2.58,0,.06-.05.07Z"/><path d="M98,56.74a.59.59,0,0,1-.26-.08c-.46-.25-.59-.19-.59-.19h0a.33.33,0,0,1-.21-.06.57.57,0,0,1-.19-.36c0-.15,0-.5,0-.9a7.93,7.93,0,0,0-.13-1.72l-.8,0-.18,2.39a.3.3,0,0,1,0,.22c-.07.13-.26.21-.56.24-.67.07-3.11.12-3.13.12h0s-.06,0-.06,0a.06.06,0,0,1,0-.06s2.46-.06,3.13-.12c.32,0,.43-.12.47-.19a.13.13,0,0,0,0-.12,0,0,0,0,1,0,0l.18-2.47s0-.06.07,0l.88.06s0,0,0,0a5,5,0,0,1,.18,1.81c0,.4,0,.74,0,.88.05.31.22.32.25.32s.24,0,.7.2c.08,0,.2.09.27,0s.1-.27.09-.34L98,55.52s0,0,0,0c.09-.55-.24-4.87-.24-4.91a9.13,9.13,0,0,1-.11-1.77c0-.37-.06-.41-.68-.59l-.61-.2a11,11,0,0,0-4.25.22c-.5.13-.41.53-.4.54v0l-.18,5.06s-.08.4-.11.5a2.91,2.91,0,0,0,0,.44v0a.48.48,0,0,1-.52.35.33.33,0,0,1-.23-.12.79.79,0,0,1-.1-.57l.09-1.17s.21-2.81.25-3.24,0-1.14,0-1.15.06-.61.11-1a.44.44,0,0,1,.16-.29.43.43,0,0,1,.28-.07.08.08,0,0,1,0,.07s0,.06-.07,0h0a.27.27,0,0,0-.19,0,.29.29,0,0,0-.11.21c0,.36-.11,1-.11,1s0,.72,0,1.15-.25,3.24-.25,3.24l-.09,1.18a.81.81,0,0,0,.08.48.21.21,0,0,0,.15.07.34.34,0,0,0,.39-.25,2.54,2.54,0,0,1,0-.47l.1-.48.18-5a.59.59,0,0,1,.49-.68,11,11,0,0,1,4.32-.21l.6.2c.62.18.83.24.76.72a10.36,10.36,0,0,0,.11,1.73c0,.18.33,4.34.24,4.94l.14.73s0,.34-.14.46A.23.23,0,0,1,98,56.74Z"/><path d="M97.83,47.81h0c-.88-.75-4.8-.57-4.84-.57h0a.06.06,0,0,1-.06,0,.06.06,0,0,1,.06-.06c.16,0,3.76-.18,4.82.52v-1s0-.24-.48-.38A11.55,11.55,0,0,0,94,45.79c-.86.13-2.53.46-2.7.5a.29.29,0,0,1-.26.06c-.07,0-.12-.12-.13-.26,0-.38-.1-1.39-.1-1.39h0a.5.5,0,0,1,.08-.36.88.88,0,0,1,.65-.35l.7-.19h0l0,0a.48.48,0,0,0,.06-.25c0-.34,0-2.68,0-2.7a2.6,2.6,0,0,1,.41-1.07.06.06,0,1,1,.08.08,2.52,2.52,0,0,0-.37,1v2.69a.46.46,0,0,1-.1.34.13.13,0,0,1-.1,0h0l-.7.19a.85.85,0,0,0-.58.3.4.4,0,0,0-.06.28s.07,1,.11,1.4a.21.21,0,0,0,.06.17.22.22,0,0,0,.15-.06h0s1.81-.36,2.72-.5a11.48,11.48,0,0,1,3.4.42c.55.16.56.47.56.48v1.17a.07.07,0,0,1,0,.06Z"/><path d="M98.18,45.66a.5.5,0,0,1-.39-.26v0s0-.76-.08-.94a1.29,1.29,0,0,0-.88-.46h0a.37.37,0,0,1-.29-.09.15.15,0,0,1,0-.11s0-1.79,0-2.32a.38.38,0,0,0-.11-.33A.43.43,0,0,0,96,41a27.64,27.64,0,0,1-2.91,0c-.35-.05-.45-.09-.47-.16s0-.11.08-.17a.76.76,0,0,0,.11-.14c.17-.26,1.16-.17,1.39-.14a1.5,1.5,0,0,1,1-.09,2.09,2.09,0,0,0,.33.07c.44.07.62-.07.67-.14l-.53-.93a0,0,0,0,1,0-.07.05.05,0,0,1,.08,0l.55,1a.06.06,0,0,1,0,.06s-.18.32-.8.22l-.35-.07a1.31,1.31,0,0,0-1,.08h0c-.48-.06-1.19-.07-1.29.08a.75.75,0,0,1-.13.16s0,0,0,0a1.3,1.3,0,0,0,.38.08,27.14,27.14,0,0,0,2.89,0,.58.58,0,0,1,.39.12.57.57,0,0,1,.15.42c0,.53,0,2.31,0,2.33s0,.08.25.08h0c.35,0,1,.32,1,.54a8.89,8.89,0,0,1,.08,1,.35.35,0,0,0,.31.19c.15,0,.16-.09.17-.25a.2.2,0,0,1,0-.07,0,0,0,0,1,.06,0,.06.06,0,0,1,0,.06v.07c0,.14,0,.32-.27.36Z"/></svg>