<svg id="인쇄" xmlns="http://www.w3.org/2000/svg" viewBox="0 0 181.42 136.06"><defs><style>.cls-1{fill:#231815;}.cls-2,.cls-3{fill:none;stroke:#3f3f3f;stroke-linecap:round;stroke-linejoin:round;}.cls-2{stroke-width:0.4px;}.cls-3{stroke-width:0.25px;}.cls-4{fill:#fff;}.cls-5{fill:#040000;}.cls-6{fill:#6a84c2;opacity:0.4;}.cls-7{fill:#cfdbf0;}.cls-7,.cls-8{opacity:0.5;}.cls-8{fill:#eff4fb;}.cls-9{fill:#241713;}</style></defs><path class="cls-1" d="M80.23,106.53a.05.05,0,0,1,0,0,.06.06,0,0,1,0,0s0,0,0,0h0a.17.17,0,0,0,.12,0,.14.14,0,0,0,0-.08s0-.07,0-.1v-1.1s0-.06,0-.09a.11.11,0,0,0,0-.08s-.06,0-.12,0h0a.06.06,0,0,1,0,0,.09.09,0,0,1,0,0,.05.05,0,0,1,0,0H81a1.06,1.06,0,0,1,.48.11.77.77,0,0,1,.34.3.81.81,0,0,1,.13.47.74.74,0,0,1-.09.38.73.73,0,0,1-.22.27,1.37,1.37,0,0,1-.32.16,1.5,1.5,0,0,1-.37,0h-.7Zm.75-.11a.61.61,0,0,0,.36-.1.59.59,0,0,0,.2-.26,1.25,1.25,0,0,0,.06-.4,1,1,0,0,0-.08-.4.71.71,0,0,0-.23-.28.77.77,0,0,0-.38-.1H80.7v1.34a.16.16,0,0,0,.07.15A.37.37,0,0,0,81,106.42Z"/><path class="cls-1" d="M85.56,106.53l0,0s0,0,0,0,0,0,0,0h0a.21.21,0,0,0,.12,0l.06-.08,0-.1.48-1.14s0-.08,0-.1a.1.1,0,0,0-.06,0l-.08,0-.06,0s0,0,0-.05,0,0,0,0h.08a.55.55,0,0,1,.19,0,.29.29,0,0,1,.14.08.56.56,0,0,1,.1.19l.47,1.14a.36.36,0,0,0,0,.09.18.18,0,0,0,.06.09.12.12,0,0,0,.09,0h0s0,0,0,0a.06.06,0,0,1,0,0l0,0h-.64l0,0a.06.06,0,0,1,0,0s0,0,0,0h0c.09,0,.14,0,.14,0a.34.34,0,0,0,0-.16l-.1-.23H86a.57.57,0,0,1-.06.15.39.39,0,0,0,0,.06v0a.63.63,0,0,0,0,.14.06.06,0,0,0,0,.06h.2s0,0,0,0a.06.06,0,0,1,0,0,.05.05,0,0,1,0,0h-.57Zm.53-.68h.57l-.27-.71h0Z"/><path class="cls-1" d="M91.88,106.57a.8.8,0,0,1-.36-.07,1,1,0,0,1-.28-.2.79.79,0,0,1-.18-.29,1,1,0,0,1-.06-.33,1,1,0,0,1,.08-.41.81.81,0,0,1,.21-.3.84.84,0,0,1,.28-.18.89.89,0,0,1,.31-.06.87.87,0,0,1,.37.07,1,1,0,0,1,.28.2,1.05,1.05,0,0,1,.17.29,1,1,0,0,1,.06.34.87.87,0,0,1-.08.4.81.81,0,0,1-.21.3.84.84,0,0,1-.28.18A.89.89,0,0,1,91.88,106.57Zm0-.12a.45.45,0,0,0,.32-.11.73.73,0,0,0,.18-.31,1.29,1.29,0,0,0,.06-.4,1.23,1.23,0,0,0-.06-.39.73.73,0,0,0-.19-.28.42.42,0,0,0-.31-.11.48.48,0,0,0-.32.11.75.75,0,0,0-.18.3,1.35,1.35,0,0,0-.06.41,1.21,1.21,0,0,0,.06.38.59.59,0,0,0,.19.29A.41.41,0,0,0,91.88,106.45Z"/><path class="cls-1" d="M97.48,106.57a.83.83,0,0,1-.36-.07,1,1,0,0,1-.28-.2.79.79,0,0,1-.18-.29,1,1,0,0,1-.06-.33,1,1,0,0,1,.08-.41.81.81,0,0,1,.21-.3.84.84,0,0,1,.28-.18.89.89,0,0,1,.31-.06.87.87,0,0,1,.37.07,1,1,0,0,1,.28.2,1.08,1.08,0,0,1,.18.29,1,1,0,0,1,.06.34,1,1,0,0,1-.08.4,1,1,0,0,1-.22.3.84.84,0,0,1-.28.18A.89.89,0,0,1,97.48,106.57Zm0-.12a.45.45,0,0,0,.32-.11A.73.73,0,0,0,98,106a1.29,1.29,0,0,0,.06-.4,1.23,1.23,0,0,0-.06-.39.73.73,0,0,0-.19-.28.42.42,0,0,0-.31-.11.48.48,0,0,0-.32.11.75.75,0,0,0-.18.3,1.35,1.35,0,0,0-.06.41,1.21,1.21,0,0,0,.06.38.59.59,0,0,0,.19.29A.41.41,0,0,0,97.48,106.45Z"/><path class="cls-1" d="M103.22,106.53h0s0,0,0,0l-.62-1.41h0v1.1a.34.34,0,0,0,0,.1.12.12,0,0,0,0,.08.17.17,0,0,0,.12,0h.05s0,0,0,0a.06.06,0,0,1,0,0l0,0h-.52l0,0a.06.06,0,0,1,0,0s0,0,0,0h0a.17.17,0,0,0,.12,0,.12.12,0,0,0,0-.08.34.34,0,0,0,0-.1v-1.1a.44.44,0,0,0,0-.13l-.06-.06-.11,0,0,0s0,0,0-.05a0,0,0,0,1,0,0h.07a.9.9,0,0,1,.24,0,.37.37,0,0,1,.18.08.46.46,0,0,1,.13.19l.47,1.06h0l.54-1.34h.49a.05.05,0,0,1,0,0s0,0,0,0a.06.06,0,0,1,0,0h0c-.06,0-.1,0-.12,0a.11.11,0,0,0-.05.08s0,.06,0,.09v1.1s0,.07,0,.1a.14.14,0,0,0,.05.08.17.17,0,0,0,.12,0h0s0,0,0,0,0,0,0,0a.05.05,0,0,1,0,0h-.67a.05.05,0,0,1,0,0,.06.06,0,0,1,0,0s0,0,0,0h0a.17.17,0,0,0,.12,0,.14.14,0,0,0,0-.08s0-.07,0-.1v-1.1h0l-.57,1.41,0,0Z"/><rect class="cls-1" x="106.51" y="105.78" width="8.44" height="0.14"/><rect class="cls-1" x="69.16" y="105.78" width="8.44" height="0.14"/><line class="cls-2" x1="114.51" y1="40.17" x2="114.51" y2="33.36"/><line class="cls-3" x1="116.34" y1="36.75" x2="116.34" y2="31.39"/><line class="cls-2" x1="112.87" y1="38.12" x2="112.87" y2="34.94"/><line class="cls-2" x1="66.09" y1="70.41" x2="66.09" y2="78.01"/><line class="cls-2" x1="67.98" y1="73.28" x2="67.98" y2="79.26"/><line class="cls-2" x1="69.87" y1="71.85" x2="69.87" y2="75.39"/><path class="cls-1" d="M51.34,97.05v.79l-.9.21.37-2.16h.9L51.65,98a6.13,6.13,0,0,1-2.94.7,4.77,4.77,0,0,1-4.91-5.08,4.84,4.84,0,0,1,4.9-5.07,5.52,5.52,0,0,1,2.81.7l.05,2.11h-.89L50.3,89.2l.9.21v.88a3.36,3.36,0,0,0-2.31-1c-1.94,0-3.51,1.51-3.51,4.34S46.8,98,48.79,98A4,4,0,0,0,51.34,97.05Z"/><path class="cls-1" d="M56.42,87.75l.21.12-.06,2.06v5.5c0,1,0,2,0,3H55.3c0-1,0-2,0-3V89.06l-1.18-.14v-.51ZM57.75,98v.52H54.16V98l1.63-.29h.33Z"/><path class="cls-1" d="M60.3,95.06a3.34,3.34,0,1,1,6.66,0,3.34,3.34,0,1,1-6.66,0Zm5.29,0c0-2-.72-3-2-3s-2,1-2,3,.69,3,2,3S65.59,97,65.59,95.06Z"/><path class="cls-1" d="M71.57,95.92c0,1.27.37,1.71,1.15,1.71a3.15,3.15,0,0,0,2.19-1.09h.32v.75h-.75l.5-.23a3.42,3.42,0,0,1-2.76,1.61c-1.16,0-1.9-.7-1.88-2.61l0-3.84.32.29-1.35-.29v-.51l2.14-.21.15.15-.07,2ZM75,98.6l-.2-1.7,0-4.68.32.29-1.35-.29v-.51l2.11-.21.15.15,0,2v4.37l-.39-.38L77,98v.52Z"/><path class="cls-1" d="M82.8,97.85c.74,0,1.25-.34,1.9-1.18l.14.38a2.61,2.61,0,0,1-2.4,1.62c-1.76,0-3-1.46-3-3.57s1.32-3.7,3.09-3.7a2.65,2.65,0,0,1,2.31,1.5l-.15.37a2.75,2.75,0,0,0-1.95-1c-1.07,0-2,.86-2,2.84S81.65,97.85,82.8,97.85Zm4,.11v.52l-2.25.15-.15-1.47V92.87l0-.18V89.06l-1.23-.14v-.51l2.27-.66.2.12,0,2.06v8.55l-.28-.76Z"/><path class="cls-1" d="M101.72,97.05v.79l-.9.21.37-2.16h.89L102,98a6.13,6.13,0,0,1-2.94.7,4.76,4.76,0,0,1-4.91-5.08,4.84,4.84,0,0,1,4.9-5.07,5.51,5.51,0,0,1,2.8.7l.06,2.11H101l-.37-2.16.91.21v.88a3.36,3.36,0,0,0-2.32-1c-1.93,0-3.5,1.51-3.5,4.34S97.17,98,99.16,98A4,4,0,0,0,101.72,97.05Z"/><path class="cls-1" d="M104.83,95.06a3.34,3.34,0,1,1,3.33,3.61A3.31,3.31,0,0,1,104.83,95.06Zm5.28,0c0-2-.72-3-2-3s-2,1-2,3,.69,3,2,3S110.11,97,110.11,95.06Z"/><path class="cls-1" d="M116.89,97.92a1.62,1.62,0,0,0,1-.4l.34.39a2.06,2.06,0,0,1-1.71.76A1.49,1.49,0,0,1,114.84,97c0-.36,0-.67,0-1.23V92.36h-1.2v-.64l1.8-.23-.6.49.46-2.36h.88l-.11,2.54v4.69C116.08,97.6,116.4,97.92,116.89,97.92Zm1.17-6.33v.77h-2.59v-.77Z"/><path class="cls-1" d="M123.26,97.92a1.67,1.67,0,0,0,1-.4l.33.39a2.06,2.06,0,0,1-1.71.76A1.49,1.49,0,0,1,121.21,97c0-.36,0-.67,0-1.23V92.36H120v-.64l1.8-.23-.6.49.46-2.36h.88l-.11,2.54v4.69C122.45,97.6,122.77,97.92,123.26,97.92Zm1.17-6.33v.77h-2.59v-.77Z"/><path class="cls-1" d="M126.78,95.06a3.34,3.34,0,1,1,6.66,0,3.34,3.34,0,1,1-6.66,0Zm5.29,0c0-2-.72-3-2-3s-2,1-2,3,.69,3,2,3S132.07,97,132.07,95.06Z"/><path class="cls-1" d="M137.26,98.48c0-.65.05-2.15.05-3v-.69c0-.8,0-1.24-.05-1.82l-1.14-.13v-.51l2-.88.22.15.17,1.68v2.2c0,.9,0,2.4.05,3Zm2.31-.52v.52h-3.36V98l1.58-.29h.34Zm3.37-3.88v1.35c0,.93,0,2.4,0,3h-1.31c0-.65.05-2.12.05-3V94.2c0-1.33-.35-1.76-1.2-1.76a3.16,3.16,0,0,0-2.13,1h-.31v-.67h.75l-.62.27a3.88,3.88,0,0,1,2.87-1.65C142.33,91.4,142.94,92.18,142.94,94.08Zm-.41,3.59L144,98v.52h-3.36V98l1.58-.29Z"/><polygon class="cls-4" points="77.82 44.77 78.42 45.57 77.86 46.38 77.2 45.58 77.82 44.77"/><path class="cls-5" d="M77.86,46.42l-.69-.84.65-.86.64.85Zm-.62-.84.62.75.52-.76-.56-.75Z"/><polygon class="cls-4" points="106.93 36.66 107.53 37.46 106.97 38.27 106.31 37.48 106.93 36.66"/><path class="cls-5" d="M107,38.32l-.69-.84.65-.87.64.85Zm-.62-.84.62.74.52-.76-.56-.75Z"/><polygon class="cls-4" points="112.24 62.8 112.85 63.6 112.29 64.4 111.63 63.61 112.24 62.8"/><path class="cls-5" d="M112.29,64.45l-.69-.84.64-.86.64.85Zm-.62-.84.62.75.52-.76-.57-.76Z"/><polygon class="cls-4" points="80.54 75.12 81.14 75.92 80.58 76.73 79.93 75.93 80.54 75.12"/><path class="cls-5" d="M80.59,76.78l-.7-.84.65-.87.64.85ZM80,75.93l.61.75.53-.76-.57-.75Z"/><path class="cls-6" d="M89.82,71.65l5.52-26.73s.09-1-.44-1.16-.53-.57-.9-.79-.58-1.3-.58-1.3-.6-.57,0-.76,1.37-1.17,1.48-1,1.1.79,1.34.67A6,6,0,0,1,98.18,40c.9-.08,2.53-.16,2.78-.14a4.14,4.14,0,0,1,1.19.74,9.93,9.93,0,0,1,.73,1.18l1.59,6.63L106.53,63a8.15,8.15,0,0,0-2.93-1c-2.14-.42-3,4.21-3,4.21L98,67.62l-1.33,1.43-.41.54-.69,1.57L94,71.88a16.87,16.87,0,0,0-1.78.13,8,8,0,0,1-1.49-.07Z"/><path class="cls-7" d="M80.54,73.49s-4.31-1-4.5-2l1.11-1.93A19.62,19.62,0,0,1,80.27,72c.68.85,1,.15,1,.15Z"/><path class="cls-7" d="M100.32,68.5a32.75,32.75,0,0,1,1-4.6c.36-.55,1.36-2.15,2.27-1.93l1.55.37s1.45,0,1.38.62-.32,2.91-.32,2.91-.55.61-.79.61v1.14a3.85,3.85,0,0,1-1,1.25,8.06,8.06,0,0,1-2.61.57A1.49,1.49,0,0,1,100.32,68.5Z"/><path class="cls-6" d="M83.66,72.64a7.93,7.93,0,0,1-5.38-2.44l-1.13-.61s-1,.11-.32-1.27,2.56-5.39,2.56-5.39,1.17-3.25,1.51-4,1.51-3.47,1.62-3.73S85.18,49,85.18,49l1.62-3,1.66-1a2.24,2.24,0,0,1,.25-1.3,2.75,2.75,0,0,1,1.4-1.48,11.71,11.71,0,0,0,0,1.48c.07.39.1,1.38.1,1.38L89.46,49l-.61,4s-.54,1.91-.54,2.09-.08,1.68-.08,1.68L87.1,60.31l-.68,4.39-.36,2.5-1.27,3.2Z"/><path class="cls-8" d="M90.11,43.76s-.85-1.2,0-1.48a30.36,30.36,0,0,1,3.31-.61L94,43l1.33,1.45-.53,3.14-5,24.09a11.67,11.67,0,0,1-1.91.36c-.46,0-1.79-.23-2-.27l-1.57-.53A31.39,31.39,0,0,1,85.8,68a14.5,14.5,0,0,0,.79-2.27l-.17-1,1.59-7s.6-3.7.56-3.75a17.58,17.58,0,0,1,.48-2.27c.11-.21.41-2.68.41-2.68Z"/><path class="cls-8" d="M98,67.62s2.37.56,2.45,0,.16-1.44.16-1.44l-1.92.88Z"/><path class="cls-9" d="M92.55,72.22a2.75,2.75,0,0,1-.52-.06,4.29,4.29,0,0,0-.62-.07,5.1,5.1,0,0,1-1.61-.38.08.08,0,0,1,0-.07L92,60.79a13.48,13.48,0,0,1,.71-2.1A4.36,4.36,0,0,0,93,57.13l.94-4.7.91-5s.42-2.34.45-2.57a1.84,1.84,0,0,0-.33-.83,1.58,1.58,0,0,0-.32-.21,2.21,2.21,0,0,1-.31-.19,5.37,5.37,0,0,1-.93-1.28,7.32,7.32,0,0,1,0-1.26.05.05,0,0,1,0,0l1.21-.9a0,0,0,0,1,.06,0s1,.69,1.75.19,4.44-.6,4.77-.53,1.46,1.21,1.59,1.34a0,0,0,0,1,0,0c0,.06,1.32,6,1.55,6.49s.74,4.9.76,5.09L106.59,63c0,.1-.23,2.13-.26,2.36a1.23,1.23,0,0,0,0,.2,1.32,1.32,0,0,1-.18.69,1.29,1.29,0,0,1-.67.33.06.06,0,0,1,.07,0,2.29,2.29,0,0,1-1.62,2.64,3.68,3.68,0,0,1-3.08,0s-.46-.23-.52-.6v0a.1.1,0,0,1,0,0v0h0v0s0-.14,0-.34.05-.34.07-.53l.2-1.36-.2.06s-1.36.68-1.7.79c-.16.06-.35.33-.52.58a1.48,1.48,0,0,1-.5.56,6,6,0,0,0-1.3,1.26c-.05.08-.17.39-.31.71s-.34.8-.44,1c-.2.35-1,.61-2.19.9A4.19,4.19,0,0,1,92.55,72.22Zm-2.66-.6a4.86,4.86,0,0,0,1.52.35,6.13,6.13,0,0,1,.64.08A2.72,2.72,0,0,0,93.4,72c.94-.22,1.93-.5,2.12-.84.1-.18.28-.6.44-1a6.84,6.84,0,0,1,.32-.72,5.83,5.83,0,0,1,1.35-1.31c.13-.05.29-.29.45-.52a1.66,1.66,0,0,1,.57-.62c.33-.11,1.68-.78,1.69-.79l.27-.07c0-.08,0-.14,0-.17,0-.19.59-1.9.64-2.06l-.12-3.26c0-.1-.24-2.55-.24-2.87,0-.09,0-.29,0-.55a19.31,19.31,0,0,1,0-2,22.93,22.93,0,0,0-.08-2.31s0-1,0-1.68a2.88,2.88,0,0,1,.1-.72c.16-.48.32-4.39.32-4.43l.15-3.06a.06.06,0,0,1,.06,0h0a.06.06,0,0,1,.06.06L101.37,46c0,.16-.15,4-.32,4.46a3,3,0,0,0-.1.69c0,.71,0,1.66,0,1.67s.13,2.09.07,2.34,0,1.32,0,2c0,.26,0,.47,0,.56,0,.31.25,2.84.25,2.87l.11,3.27v0s-.59,1.86-.64,2.06c0,0,0,.06,0,.13h0a0,0,0,0,1,0,0c-.07.47-.24,1.49-.32,2a1,1,0,0,1,.17-.2,7.15,7.15,0,0,1,1.9-1.18,1.87,1.87,0,0,1,1.39-.27,3.24,3.24,0,0,0,2.14-.39,1.16,1.16,0,0,0,.16-.63c0-.08,0-.16,0-.22,0-.22.26-2.32.27-2.34L105,52.79s-.53-4.57-.75-5-1.46-6.09-1.55-6.5A6.75,6.75,0,0,0,101.19,40c-.32-.07-3.9,0-4.68.52a1.79,1.79,0,0,1-1.85-.17l-1.15.87a6.06,6.06,0,0,0,0,1.21,4.81,4.81,0,0,0,.89,1.21,1.34,1.34,0,0,0,.29.18,1.3,1.3,0,0,1,.36.25,2,2,0,0,1,.35.91c0,.23-.45,2.55-.45,2.57l-.91,5-1,4.69a4.2,4.2,0,0,1-.28,1.6,14.6,14.6,0,0,0-.7,2.07Zm13.67-5a1.6,1.6,0,0,0-1,.28h0a7.58,7.58,0,0,0-1.87,1.17.6.6,0,0,0-.25.52c0,.31.45.51.46.51a3.52,3.52,0,0,0,3,0,2.15,2.15,0,0,0,1.55-2.5.06.06,0,0,1,0-.07,4.32,4.32,0,0,1-1.58.11Z"/><path class="cls-9" d="M96,69.85a.07.07,0,0,1,0,0,3.49,3.49,0,0,1-.1-.74c0-.25,0-.54-.07-.8,0-.09,0-.26-.08-.48a37.13,37.13,0,0,1-.55-4.89,10.68,10.68,0,0,0,0-1.48,7.76,7.76,0,0,1,0-2.05c.08-.38.14-.76.2-1.13a9.9,9.9,0,0,1,.43-1.91,53.63,53.63,0,0,0,.27-6.63c0-1.78,0-3.18.1-3.43.14-.62.61-2.51.62-2.53a.06.06,0,0,1,.11,0s-.48,1.91-.62,2.52c-.06.24-.07,1.71-.09,3.41a51.78,51.78,0,0,1-.28,6.67,8.88,8.88,0,0,0-.42,1.89c-.06.37-.12.76-.2,1.14a7.92,7.92,0,0,0,0,2,10.65,10.65,0,0,1,0,1.48,35.38,35.38,0,0,0,.55,4.88c0,.21.06.38.07.47,0,.27.06.56.08.81a4.32,4.32,0,0,0,.09.71.06.06,0,0,1,0,.07Z"/><path class="cls-9" d="M99.26,51.78h0a.06.06,0,0,1,0-.07,3.33,3.33,0,0,0,.38-1.64,3.21,3.21,0,0,0-.31-1c0-.06,0-.12-.08-.19a6.33,6.33,0,0,1-.37-1.77,4.86,4.86,0,0,0-.62-2.21.76.76,0,0,1-.15-.79.69.69,0,0,0-.1-.71.06.06,0,0,1,0-.08.05.05,0,0,1,.08,0,.83.83,0,0,1,.12.8.67.67,0,0,0,.12.7,4.75,4.75,0,0,1,.64,2.25,6.48,6.48,0,0,0,.37,1.75l.08.18a2.6,2.6,0,0,1-.07,2.68A.07.07,0,0,1,99.26,51.78Z"/><path class="cls-9" d="M83.46,72.83a1,1,0,0,1-.33-.1l-.25-.1a7.83,7.83,0,0,0-.84-.18,4.41,4.41,0,0,1-1.11-.28,5.73,5.73,0,0,1-1.22-.86c-.2-.18-.41-.35-.62-.51a11.9,11.9,0,0,0-2.16-1.25c-.14-.06-.39-.18-.43-.41a.66.66,0,0,1,.06-.32c.42-1.06.94-2.09,1.44-3.09a35.29,35.29,0,0,0,1.64-3.58l.36-1c.14-.4.28-.81.43-1.21.39-1,.84-2,1.27-3l2.54-5.76L84.73,50a20.05,20.05,0,0,1,2-4,8.19,8.19,0,0,1,1.68-1h0a2.2,2.2,0,0,1,.36-1.58c.07-.15.14-.29.2-.43a.79.79,0,0,1,.14-.25,2.4,2.4,0,0,1,.86-.48l.25-.11A5.13,5.13,0,0,1,92,41.83a5.82,5.82,0,0,0,1.43-.21.06.06,0,0,1,0,.11A5.54,5.54,0,0,1,92,42a4.59,4.59,0,0,0-1.68.31l-.26.11a2.41,2.41,0,0,0-.82.45.84.84,0,0,0-.11.21,4.39,4.39,0,0,1-.21.44,1.86,1.86,0,0,0-.28,1.65.09.09,0,0,1,0,.07s-.32.35-.22.62a8.88,8.88,0,0,1,.32,3.52v.24A8.1,8.1,0,0,0,88.83,51a5.19,5.19,0,0,1,0,2.32,3.27,3.27,0,0,1-.18.47,3.23,3.23,0,0,0-.21.62,3.91,3.91,0,0,0-.06.84,1.82,1.82,0,0,1,0,.33,12.88,12.88,0,0,1-.4,2.56c-.17.77-.37,1.56-.56,2.32-.37,1.51-.76,3.07-1,4.61a4,4,0,0,0,0,.59,5.46,5.46,0,0,1,0,.57,11.59,11.59,0,0,1-1.14,3.26c-.2.44-.42.9-.6,1.35s-.69,1.44-.86,1.77A.27.27,0,0,1,83.46,72.83Zm5-27.73h0a8.38,8.38,0,0,0-1.64.94,20.07,20.07,0,0,0-2,4l-.5,1.16-2.53,5.76c-.44,1-.89,2-1.27,3-.15.4-.29.81-.43,1.21l-.36,1a34.48,34.48,0,0,1-1.64,3.59c-.5,1-1,2-1.44,3.08a.43.43,0,0,0,0,.26c0,.16.2.25.36.32a12.52,12.52,0,0,1,2.18,1.27,6.11,6.11,0,0,1,.63.51,5.14,5.14,0,0,0,1.19.84,4.09,4.09,0,0,0,1.08.28,6.44,6.44,0,0,1,.85.18,1.69,1.69,0,0,1,.27.11c.26.11.35.13.43,0s.73-1.43.86-1.77.4-.92.61-1.36a12.09,12.09,0,0,0,1.13-3.22c0-.19,0-.38,0-.56a4,4,0,0,1,0-.6c.24-1.55.63-3.12,1-4.63.19-.76.39-1.55.56-2.32a12.69,12.69,0,0,0,.4-2.54v-.32a4.28,4.28,0,0,1,0-.87,3.77,3.77,0,0,1,.23-.64,3,3,0,0,0,.17-.45,5.12,5.12,0,0,0,0-2.27,8.36,8.36,0,0,1-.13-1.5v-.24a8.63,8.63,0,0,0-.31-3.47.85.85,0,0,1,.21-.71Z"/><path class="cls-9" d="M80.24,73.59a17.77,17.77,0,0,1-3.67-1.48c-.19-.12-.6-.42-.6-.56a.11.11,0,0,1,0-.08c.09-.07.72-1.21,1.1-1.91a0,0,0,0,1,.07,0,.05.05,0,0,1,0,.07c-.15.27-.8,1.48-1,1.85.09,0,.46.18.63.23a6.09,6.09,0,0,1,.69.26l.14.06c.24.1.6.25.83.37s1.68.73,1.7.73c.21.1.47.24.44.36S80.47,73.59,80.24,73.59Zm-4.15-2a2.37,2.37,0,0,0,.54.45,18.3,18.3,0,0,0,3.61,1.47c.21,0,.24,0,.24,0a1.25,1.25,0,0,0-.38-.22c-.06,0-1.42-.6-1.7-.74l-.82-.36-.15-.06a5.27,5.27,0,0,0-.67-.26C76.56,71.75,76.12,71.57,76.09,71.56Z"/><path class="cls-9" d="M80.54,73.55h0a.06.06,0,0,1,0-.08,9.26,9.26,0,0,0,.71-1.15.05.05,0,0,1,.06,0,.06.06,0,0,1,.06.06,9.18,9.18,0,0,1-.73,1.2S80.56,73.55,80.54,73.55Z"/><path class="cls-9" d="M81.26,65.93h0a.06.06,0,0,1,0-.08l.4-.59c.26-.37.53-.75.76-1.14a10.92,10.92,0,0,0,.81-2,14.77,14.77,0,0,1,.53-1.45l.7-1.44c.3-.61.61-1.24.89-1.88,1.21-2.83,2.28-5.71,3.3-8.5a.06.06,0,0,1,.08,0,.05.05,0,0,1,0,.07c-1,2.79-2.09,5.68-3.31,8.51-.27.64-.58,1.27-.89,1.88s-.47,1-.69,1.44a14.41,14.41,0,0,0-.53,1.43,10.54,10.54,0,0,1-.82,2c-.23.39-.5.78-.76,1.15-.14.19-.27.38-.4.58C81.29,65.92,81.28,65.93,81.26,65.93Z"/><path class="cls-9" d="M77.12,69.25h0a.06.06,0,0,1,0-.07,13.25,13.25,0,0,1,1-2.06l.18-.31c.22-.39.42-.8.62-1.19s.32-.65.49-1a14.18,14.18,0,0,0,1.21-2.86,6.79,6.79,0,0,1,1.45-2.27.06.06,0,0,1,.08,0,.06.06,0,0,1,0,.09,6.45,6.45,0,0,0-1.42,2.22,14.77,14.77,0,0,1-1.23,2.88c-.17.32-.33.65-.49,1s-.4.8-.62,1.19l-.18.32a12.58,12.58,0,0,0-1,2A.05.05,0,0,1,77.12,69.25Z"/><path class="cls-9" d="M88,72.06a10,10,0,0,1-3.62-.8.06.06,0,0,1,0-.11s3.19,1.44,5.41.45a.05.05,0,0,1,.07,0s0,.06,0,.08A4.65,4.65,0,0,1,88,72.06Z"/><path class="cls-9" d="M98.79,67.89c-.43,0-.76,0-.79,0a.06.06,0,0,1-.06-.06.07.07,0,0,1,.07-.06,7.43,7.43,0,0,0,2.41-.18.05.05,0,0,1,.08,0,.06.06,0,0,1,0,.08A4.78,4.78,0,0,1,98.79,67.89Z"/><path class="cls-9" d="M99.07,67.39c-.38,0-.68,0-.71,0a.08.08,0,0,1,0-.07.06.06,0,0,1,.06-.05A4.7,4.7,0,0,0,100.5,67a.06.06,0,1,1,.06.1A3.11,3.11,0,0,1,99.07,67.39Z"/><path class="cls-9" d="M105.29,64.77a.78.78,0,0,1-.7-.47h0a.52.52,0,0,1,.17-.52.59.59,0,0,1,.47-.05.74.74,0,0,1,.31.15.55.55,0,0,1,.15.27.9.9,0,0,1,0,.28.33.33,0,0,1,0,.19.26.26,0,0,1-.13.09A.71.71,0,0,1,105.29,64.77Zm-.59-.51a.65.65,0,0,0,.83.35l.07,0a.16.16,0,0,0,0-.12,1.09,1.09,0,0,0,0-.26.34.34,0,0,0-.12-.21.56.56,0,0,0-.26-.12.44.44,0,0,0-.37,0A.37.37,0,0,0,104.7,64.26Z"/><path class="cls-9" d="M105.15,64.76h0a.73.73,0,0,1-.35-.5.53.53,0,0,1,.19-.47.05.05,0,0,1,.08,0,.06.06,0,0,1,0,.08.42.42,0,0,0-.15.35.61.61,0,0,0,.29.43,0,0,0,0,1,0,.07A.07.07,0,0,1,105.15,64.76Z"/><path class="cls-9" d="M88.85,52.3a.06.06,0,0,1-.06-.06,6.7,6.7,0,0,1,.26-1.46l.6-3c0-.09.38-2.24.48-2.52a2.12,2.12,0,0,0,0-.62,2.49,2.49,0,0,1,0-.54.49.49,0,0,1,.29-.37.18.18,0,0,0,.08-.06c.06-.07.28-.1.68-.13l.17,0c.08,0,1.29-.75,2.08-1.22a.06.06,0,1,1,.06.1c-.48.28-2,1.21-2.11,1.23l-.19,0a2.26,2.26,0,0,0-.6.1.36.36,0,0,1-.12.08.35.35,0,0,0-.22.29,1.77,1.77,0,0,0,0,.51,2.1,2.1,0,0,1,0,.67c-.1.27-.47,2.48-.47,2.5l-.61,3a7,7,0,0,0-.25,1.43.06.06,0,0,1-.06.06Z"/><path class="cls-9" d="M88.57,45.2s0,0,0,0,0-.07,0-.07c.41-.08,1.11-.26,1.29-.68a1.29,1.29,0,0,0,.07-.4V44a4.33,4.33,0,0,1,.23-1.18A1.55,1.55,0,0,1,90.7,42a.06.06,0,0,1,.08,0,.07.07,0,0,1,0,.08,1.39,1.39,0,0,0-.5.75A4.11,4.11,0,0,0,90,44V44a1.29,1.29,0,0,1-.07.43c-.2.45-.86.66-1.38.75Z"/><path class="cls-9" d="M88.6,71.63a.43.43,0,0,1-.24-.06.46.46,0,0,1-.17-.38c0-.56,0-1.12,0-1.67,0-.24,0-.49,0-.73s0-.44,0-.66a65.57,65.57,0,0,0,0-.47c0-.25,0-.5,0-.74s0-.71,0-1.06c0-.75,0-1.53,0-2.29a8,8,0,0,0,0-.85,10.09,10.09,0,0,1,0-1.1,12.53,12.53,0,0,1,.21-1.25,8.41,8.41,0,0,0,.21-1.22,9,9,0,0,0,0-1.27c0-.37,0-.75,0-1.12a11.18,11.18,0,0,1,.53-2.52c.13-.44.26-.89.36-1.34a8.4,8.4,0,0,0-.12-3.85.06.06,0,0,1,0-.07.06.06,0,0,1,.07.05,8.31,8.31,0,0,1,.12,3.89c-.1.46-.23.91-.36,1.35a11.14,11.14,0,0,0-.52,2.49,10.46,10.46,0,0,0,0,1.12c0,.42,0,.85,0,1.28s-.13.83-.21,1.24a8.31,8.31,0,0,0-.21,1.23,7.93,7.93,0,0,0,0,1.09c0,.28,0,.56,0,.85,0,.76,0,1.54,0,2.29,0,.36,0,.71,0,1.06s0,.49,0,.73a1.79,1.79,0,0,1,0,.23,1.94,1.94,0,0,1,0,.24c0,.22,0,.45,0,.67l0,.74c0,.54,0,1.1,0,1.65a.36.36,0,0,0,.13.3.52.52,0,0,0,.31,0l1.13-.14a.06.06,0,0,1,.06,0s0,.06-.05.07l-1.12.13Z"/><path class="cls-9" d="M87.08,71.74a7.2,7.2,0,0,1-2.58-.83.06.06,0,1,1,0-.11c2.25,1.06,2.84.87,3,.66a1.06,1.06,0,0,0,.14-.58c0-.76.08-1.53.12-2.28.09-1.45.17-3,.17-4.43a28.14,28.14,0,0,1,.62-6.44.06.06,0,0,1,.07,0,.08.08,0,0,1,0,.07,27.43,27.43,0,0,0-.63,6.42c0,1.48-.08,3-.16,4.44-.05.75-.09,1.52-.12,2.28a1.09,1.09,0,0,1-.17.64A.65.65,0,0,1,87.08,71.74Z"/><path class="cls-9" d="M101.33,64h0a.06.06,0,0,1,0-.08c.06-.09,1.32-2.34,2.68-1.9a5.05,5.05,0,0,0,1.71.36h0c.09,0,1,.22.9.63a.06.06,0,1,1-.11,0c0-.26-.57-.45-.81-.5a5.54,5.54,0,0,1-1.74-.37c-1.28-.41-2.53,1.83-2.54,1.85A.07.07,0,0,1,101.33,64Z"/><path class="cls-9" d="M102.41,69.39a3.62,3.62,0,0,1-1.31-.23.84.84,0,0,1-.5-.42.53.53,0,0,1,0-.15.35.35,0,0,1,.13-.26c.15-.14.31-.29.48-.43a6.42,6.42,0,0,1,.94-.59l.13-.08a6.54,6.54,0,0,1,1.64-.7s.07,0,.07,0,0,.07,0,.07a5.88,5.88,0,0,0-1.61.7l-.13.07a6.27,6.27,0,0,0-.93.59c-.17.13-.33.28-.47.41a.32.32,0,0,0-.09.17.25.25,0,0,0,0,.11.7.7,0,0,0,.43.37,3.83,3.83,0,0,0,2.07.13,4.67,4.67,0,0,0,1.53-.57.06.06,0,0,1,.08,0,.05.05,0,0,1,0,.08,4.71,4.71,0,0,1-1.56.58A3.84,3.84,0,0,1,102.41,69.39Z"/><path class="cls-9" d="M94,43h0a.06.06,0,0,1,0-.07,2.26,2.26,0,0,1,.93-1.06l.11-.08c.53-.41.78-.8.75-1.2a.06.06,0,1,1,.12,0c0,.43-.23.85-.8,1.29l-.11.08a2.19,2.19,0,0,0-.89,1S94,43,94,43Z"/><path class="cls-4" d="M84.48,51.27s2.92-1.83,7.75-.18c3.47,1.18,7.37,2.54,10.67.24-.66,1.33-2.55,2.07-3.93,2.23a13.93,13.93,0,0,1-5.12-.75C90.78,52,87.72,50.62,84.48,51.27Z"/><path class="cls-9" d="M98.16,53.64A15,15,0,0,1,94.34,53l-.5-.14c-.67-.17-1.35-.38-2-.58-2.37-.72-4.82-1.46-7.34-1l-.16,0,.13-.09s3-1.81,7.78-.18l.09,0c3.41,1.16,7.29,2.48,10.56.21l.09-.06,0,.1a3.77,3.77,0,0,1-1.71,1.57,7,7,0,0,1-2.25.68A7.34,7.34,0,0,1,98.16,53.64Zm-12-2.57a19.43,19.43,0,0,1,5.63,1.13c.66.2,1.34.4,2,.58l.5.13a12.28,12.28,0,0,0,4.61.62c1.41-.17,3.19-.9,3.86-2.11-3.27,2.19-7.11.88-10.51-.28l-.09,0c-4.13-1.4-6.89-.25-7.56.1A8.2,8.2,0,0,1,86.21,51.07Z"/><path class="cls-4" d="M78.49,54.51A9.57,9.57,0,0,1,84.3,52.7a16.89,16.89,0,0,1,4,.67c4.87,1.2,10.78,4,15.67,1.29a7.22,7.22,0,0,0,2.93-3,7.57,7.57,0,0,1-5,4.8,13.65,13.65,0,0,1-7.15,0c-2.49-.57-4.81-1.64-7.27-2.25l-.17,0a15.47,15.47,0,0,0-7-.27A15.39,15.39,0,0,0,78.49,54.51Z"/><path class="cls-9" d="M98.51,57a17.08,17.08,0,0,1-3.75-.45,37.17,37.17,0,0,1-3.84-1.18c-1.12-.39-2.27-.79-3.43-1.08l-.16,0a15.21,15.21,0,0,0-7-.27,9.56,9.56,0,0,0-1.31.43l-.49.17-.17.07.14-.12a9.66,9.66,0,0,1,5.83-1.81h0a15.44,15.44,0,0,1,3.68.59l.34.09c1,.24,2,.54,3.08.86,4.07,1.23,8.69,2.61,12.58.42a7.23,7.23,0,0,0,2.91-3l.06,0a7.6,7.6,0,0,1-5,4.82A11.35,11.35,0,0,1,98.51,57ZM83,53.57a18.7,18.7,0,0,1,4.35.58l.17,0c1.16.29,2.31.69,3.43,1.08a37.71,37.71,0,0,0,3.83,1.17,13.5,13.5,0,0,0,7.14,0,7.62,7.62,0,0,0,4.91-4.46A7.41,7.41,0,0,1,104,54.68c-3.91,2.2-8.54.82-12.63-.41-1.07-.32-2.08-.63-3.07-.87L88,53.32a14.8,14.8,0,0,0-3.66-.59h0a9.57,9.57,0,0,0-5.63,1.68l.3-.11a9.26,9.26,0,0,1,1.32-.43A11.76,11.76,0,0,1,83,53.57Z"/><path class="cls-4" d="M75.78,58.62A11.6,11.6,0,0,1,85,55.4a20.52,20.52,0,0,1,4.51,1c.93.32,1.8.78,2.71,1.16A17.76,17.76,0,0,0,97.61,59a7.55,7.55,0,0,0,4.89-1.1c-.35.25-.61.68-1,.93a7.12,7.12,0,0,1-3.8.95A19.12,19.12,0,0,1,90.38,58a21,21,0,0,0-4.91-1.33,15.16,15.16,0,0,0-5.29.13C78.78,57,76.81,57.56,75.78,58.62Z"/><path class="cls-9" d="M97.64,59.76A18.87,18.87,0,0,1,90.37,58a21.32,21.32,0,0,0-4.91-1.32,15.49,15.49,0,0,0-5.28.12c-1.38.29-3.34.8-4.38,1.87h0l0,0h0A11.6,11.6,0,0,1,85,55.37a20.27,20.27,0,0,1,4.51,1c.6.2,1.18.47,1.74.72l1,.44a17.52,17.52,0,0,0,5.44,1.41,7.4,7.4,0,0,0,4.87-1.09h0l0,0a3.09,3.09,0,0,0-.46.43,2.39,2.39,0,0,1-.55.5,7,7,0,0,1-3.81,1ZM83.12,56.42a17.22,17.22,0,0,1,2.35.17,21.43,21.43,0,0,1,4.92,1.33,18.94,18.94,0,0,0,7.25,1.78h.06a6.85,6.85,0,0,0,3.78-1,2.52,2.52,0,0,0,.54-.49l.17-.17a7.79,7.79,0,0,1-4.58.89,17.41,17.41,0,0,1-5.45-1.42c-.33-.13-.66-.29-1-.43-.56-.26-1.14-.52-1.73-.73a21,21,0,0,0-4.5-1,11.69,11.69,0,0,0-8.54,2.63,11.19,11.19,0,0,1,3.76-1.34A14.26,14.26,0,0,1,83.12,56.42Z"/><path class="cls-4" d="M82.18,59.73a11.1,11.1,0,0,1,6-.35c2.73.47,5.28,1.64,8,2.08a13.11,13.11,0,0,0,6.74-.57,19.73,19.73,0,0,0,4.78-2.68c-.8.61-1.39,1.51-2.19,2.14A13.07,13.07,0,0,1,102.69,62a12.43,12.43,0,0,1-8.12.45c-2.26-.59-4.38-1.63-6.64-2.25C86.23,59.73,83.91,59,82.18,59.73Z"/><path class="cls-9" d="M98.1,62.94a14.19,14.19,0,0,1-3.54-.47,34,34,0,0,1-3.4-1.15c-1-.39-2.13-.8-3.24-1.1l-.23-.06c-1.72-.47-3.86-1.06-5.5-.4h0l0-.06a11,11,0,0,1,6.07-.34,29.13,29.13,0,0,1,4,1,30.43,30.43,0,0,0,4,1,12.93,12.93,0,0,0,6.73-.56,19.39,19.39,0,0,0,4.77-2.68l0,.05a8.78,8.78,0,0,0-1.12,1.08,8.84,8.84,0,0,1-1.07,1A12.87,12.87,0,0,1,102.7,62,11.66,11.66,0,0,1,98.1,62.94ZM83.89,59.41a15,15,0,0,1,3.81.69l.24.07c1.1.3,2.19.71,3.24,1.1a35.69,35.69,0,0,0,3.4,1.14,12.38,12.38,0,0,0,8.1-.44,13.08,13.08,0,0,0,2.88-1.65,8.74,8.74,0,0,0,1.07-1c.19-.21.4-.44.61-.64A19.32,19.32,0,0,1,103,60.92a13.15,13.15,0,0,1-6.76.57,31,31,0,0,1-4.06-1.05,32.71,32.71,0,0,0-4-1,12,12,0,0,0-5.17.05A5.69,5.69,0,0,1,83.89,59.41Z"/></svg>