<svg xmlns="http://www.w3.org/2000/svg" viewBox="0 0 181.42 136.06"><defs><style>.cls-1{isolation:isolate;}.cls-2{fill:#231815;}.cls-3,.cls-4{fill:none;stroke:#3f3f3f;stroke-linecap:round;stroke-linejoin:round;}.cls-3{stroke-width:0.4px;}.cls-4{stroke-width:0.25px;}.cls-12,.cls-5{fill:#f8e386;}.cls-5{opacity:0.5;}.cls-6{fill:#f18d3c;}.cls-10,.cls-6{mix-blend-mode:multiply;}.cls-6,.cls-8{opacity:0.47;}.cls-7{fill:#e8b8ac;opacity:0.34;}.cls-10,.cls-11,.cls-8{fill:#f8c4aa;}.cls-9{fill:#ccc7af;}.cls-12{opacity:0.6;}.cls-13{fill:#241713;}</style></defs><g class="cls-1"><g id="인쇄"><path class="cls-2" d="M80.23,106.53a.05.05,0,0,1,0,0,.06.06,0,0,1,0,0s0,0,0,0h0a.17.17,0,0,0,.12,0,.14.14,0,0,0,0-.08s0-.07,0-.1v-1.1s0-.06,0-.09a.11.11,0,0,0,0-.08s-.06,0-.12,0h0a.06.06,0,0,1,0,0,.09.09,0,0,1,0,0,.05.05,0,0,1,0,0H81a1.06,1.06,0,0,1,.48.11.77.77,0,0,1,.34.3.81.81,0,0,1,.13.47.74.74,0,0,1-.09.38.73.73,0,0,1-.22.27,1.37,1.37,0,0,1-.32.16,1.5,1.5,0,0,1-.37,0h-.7Zm.75-.11a.61.61,0,0,0,.36-.1.59.59,0,0,0,.2-.26,1.25,1.25,0,0,0,.06-.4,1,1,0,0,0-.08-.4.71.71,0,0,0-.23-.28.77.77,0,0,0-.38-.1H80.7v1.34a.16.16,0,0,0,.07.15A.37.37,0,0,0,81,106.42Z"/><path class="cls-2" d="M85.56,106.53l0,0s0,0,0,0,0,0,0,0h0a.21.21,0,0,0,.12,0l.06-.08,0-.1.48-1.14s0-.08,0-.1a.1.1,0,0,0-.06,0l-.08,0-.06,0s0,0,0-.05,0,0,0,0h.08a.55.55,0,0,1,.19,0,.29.29,0,0,1,.14.08.56.56,0,0,1,.1.19l.47,1.14a.36.36,0,0,0,0,.09.18.18,0,0,0,.06.09.12.12,0,0,0,.09,0h0s0,0,0,0a.06.06,0,0,1,0,0l0,0h-.64l0,0a.06.06,0,0,1,0,0s0,0,0,0h0c.09,0,.14,0,.14,0a.34.34,0,0,0,0-.16l-.1-.23H86a.57.57,0,0,1-.06.15.39.39,0,0,0,0,.06v0a.63.63,0,0,0,0,.14.06.06,0,0,0,0,.06h.2s0,0,0,0a.06.06,0,0,1,0,0,.05.05,0,0,1,0,0h-.57Zm.53-.68h.57l-.27-.71h0Z"/><path class="cls-2" d="M91.88,106.57a.8.8,0,0,1-.36-.07,1,1,0,0,1-.28-.2.79.79,0,0,1-.18-.29,1,1,0,0,1-.06-.33,1,1,0,0,1,.08-.41.81.81,0,0,1,.21-.3.84.84,0,0,1,.28-.18.89.89,0,0,1,.31-.06.87.87,0,0,1,.37.07,1,1,0,0,1,.28.2,1.05,1.05,0,0,1,.17.29,1,1,0,0,1,.06.34.87.87,0,0,1-.08.4.81.81,0,0,1-.21.3.84.84,0,0,1-.28.18A.89.89,0,0,1,91.88,106.57Zm0-.12a.45.45,0,0,0,.32-.11.73.73,0,0,0,.18-.31,1.29,1.29,0,0,0,.06-.4,1.23,1.23,0,0,0-.06-.39.73.73,0,0,0-.19-.28.42.42,0,0,0-.31-.11.48.48,0,0,0-.32.11.75.75,0,0,0-.18.3,1.35,1.35,0,0,0-.06.41,1.21,1.21,0,0,0,.06.38.59.59,0,0,0,.19.29A.41.41,0,0,0,91.88,106.45Z"/><path class="cls-2" d="M97.48,106.57a.83.83,0,0,1-.36-.07,1,1,0,0,1-.28-.2.79.79,0,0,1-.18-.29,1,1,0,0,1-.06-.33,1,1,0,0,1,.08-.41.81.81,0,0,1,.21-.3.84.84,0,0,1,.28-.18.89.89,0,0,1,.31-.06.87.87,0,0,1,.37.07,1,1,0,0,1,.28.2,1.08,1.08,0,0,1,.18.29,1,1,0,0,1,.06.34,1,1,0,0,1-.08.4,1,1,0,0,1-.22.3.84.84,0,0,1-.28.18A.89.89,0,0,1,97.48,106.57Zm0-.12a.45.45,0,0,0,.32-.11A.73.73,0,0,0,98,106a1.29,1.29,0,0,0,.06-.4,1.23,1.23,0,0,0-.06-.39.73.73,0,0,0-.19-.28.42.42,0,0,0-.31-.11.48.48,0,0,0-.32.11.75.75,0,0,0-.18.3,1.35,1.35,0,0,0-.06.41,1.21,1.21,0,0,0,.06.38.59.59,0,0,0,.19.29A.41.41,0,0,0,97.48,106.45Z"/><path class="cls-2" d="M103.22,106.53h0s0,0,0,0l-.62-1.41h0v1.1a.34.34,0,0,0,0,.1.12.12,0,0,0,0,.08.17.17,0,0,0,.12,0h.05s0,0,0,0a.06.06,0,0,1,0,0l0,0h-.52l0,0a.06.06,0,0,1,0,0s0,0,0,0h0a.17.17,0,0,0,.12,0,.12.12,0,0,0,0-.08.34.34,0,0,0,0-.1v-1.1a.44.44,0,0,0,0-.13l-.06-.06-.11,0,0,0s0,0,0-.05a0,0,0,0,1,0,0h.07a.9.9,0,0,1,.24,0,.37.37,0,0,1,.18.08.46.46,0,0,1,.13.19l.47,1.06h0l.54-1.34h.49a.05.05,0,0,1,0,0s0,0,0,0a.06.06,0,0,1,0,0h0c-.06,0-.1,0-.12,0a.11.11,0,0,0-.05.08s0,.06,0,.09v1.1s0,.07,0,.1a.14.14,0,0,0,.05.08.17.17,0,0,0,.12,0h0s0,0,0,0,0,0,0,0a.05.05,0,0,1,0,0h-.67a.05.05,0,0,1,0,0,.06.06,0,0,1,0,0s0,0,0,0h0a.17.17,0,0,0,.12,0,.14.14,0,0,0,0-.08s0-.07,0-.1v-1.1h0l-.57,1.41,0,0Z"/><rect class="cls-2" x="106.51" y="105.78" width="8.44" height="0.14"/><rect class="cls-2" x="69.16" y="105.78" width="8.44" height="0.14"/><line class="cls-3" x1="114.51" y1="40.17" x2="114.51" y2="33.36"/><line class="cls-4" x1="116.34" y1="36.75" x2="116.34" y2="31.39"/><line class="cls-3" x1="112.87" y1="38.12" x2="112.87" y2="34.94"/><line class="cls-3" x1="66.09" y1="70.41" x2="66.09" y2="78.01"/><line class="cls-3" x1="67.98" y1="73.28" x2="67.98" y2="79.26"/><line class="cls-3" x1="69.87" y1="71.85" x2="69.87" y2="75.39"/><path class="cls-2" d="M51,89.26v-.59h2v.81h-.15Zm2,8.31v.81H51v-.59l1.9-.22Zm-.69-4.4c0-1.5,0-3,0-4.5h1.46c-.05,1.47-.05,3-.05,4.5v.55c0,1.66,0,3.17.05,4.66H52.31c0-1.46,0-3,0-4.66ZM53,97.7H54.9c2.24,0,3.48-1.53,3.48-4.16S57.14,89.35,55,89.35H53v-.68h2.23c2.78,0,4.69,1.72,4.69,4.87s-2.14,4.84-5,4.84H53Z"/><path class="cls-2" d="M65.36,94.57A15.47,15.47,0,0,1,67.62,94v.52a14.37,14.37,0,0,0-1.94.58c-1.27.5-1.44,1-1.44,1.48a1,1,0,0,0,1.16,1.08c.5,0,.78-.19,1.67-.82l.31-.23.2.29-.43.44c-.86.86-1.35,1.27-2.25,1.27A1.77,1.77,0,0,1,63,96.76C63,95.93,63.4,95.27,65.36,94.57ZM67,97.06V93.73c0-1.42-.4-1.77-1.35-1.77a3.53,3.53,0,0,0-1.31.26l.6-.46L64.58,93c-.12.45-.36.69-.76.69a.61.61,0,0,1-.67-.59c.26-1.11,1.34-1.79,2.83-1.79s2.24.68,2.24,2.52v3.08c0,.64.2.86.53.86a.69.69,0,0,0,.56-.32l.29.32a1.37,1.37,0,0,1-1.26.76A1.33,1.33,0,0,1,67,97.06Z"/><path class="cls-2" d="M71.22,101a.92.92,0,0,1,1-.63,1.42,1.42,0,0,1,1.07.55l.45.46-.57.32-.39-.32a4.2,4.2,0,0,0,1.9-2.48l.46-1.31,2.22-6.12h.79l-2.6,6.83c-1,2.57-1.77,3.67-3,3.67C71.83,102,71.22,101.6,71.22,101Zm1.46-8.8L71.27,92V91.5h3.49V92L73,92.23Zm2.18,6.91-3-7.64h1.41l2.26,6.13Zm2.47-6.91L75.81,92V91.5h2.84V92l-1,.22Z"/><path class="cls-2" d="M86,89.26v-.59h2v.81h-.15Zm2,8.31v.81H86v-.59l1.9-.22Zm-.69-4.4c0-1.5,0-3,0-4.5h1.46c-.05,1.47-.05,3-.05,4.5v.55c0,1.66,0,3.17.05,4.66H87.33c0-1.46,0-3,0-4.66Zm.69,4.53h1.86c2.24,0,3.48-1.53,3.48-4.16s-1.24-4.19-3.35-4.19h-2v-.68h2.23c2.78,0,4.69,1.72,4.69,4.87s-2.14,4.84-5,4.84H88.06Z"/><path class="cls-2" d="M99,95.33v-.69c0-.8,0-1.24,0-1.82l-1.15-.13v-.51l2-.87.22.14.17,1.81v2.07c0,.9,0,2.4,0,3H99C99,97.73,99,96.23,99,95.33ZM98,97.86l1.58-.29h.36l1.59.29v.52H98Zm1.69-4.48h.84l-.35.12c.45-1.38,1.34-2.19,2.2-2.19a1.22,1.22,0,0,1,1,.52c0,.69-.27,1.07-.85,1.07a1.3,1.3,0,0,1-.88-.37l-.4-.35.71-.12a3.48,3.48,0,0,0-1.73,2.29h-.58Z"/><path class="cls-2" d="M111.69,94.09a2.82,2.82,0,0,1-.1.81h-5.37v-.61h3.41c.7,0,.86-.33.86-.75A1.59,1.59,0,0,0,108.91,92c-.91,0-2,.78-2,2.86,0,1.83.92,2.81,2.35,2.81a2.49,2.49,0,0,0,2-1l.34.28a3,3,0,0,1-2.78,1.68c-2,0-3.23-1.35-3.23-3.56a3.43,3.43,0,0,1,3.33-3.7A2.6,2.6,0,0,1,111.69,94.09Z"/><path class="cls-2" d="M117,94.57a15.67,15.67,0,0,1,2.25-.61v.52a14.83,14.83,0,0,0-1.94.58c-1.27.5-1.43,1-1.43,1.48A1,1,0,0,0,117,97.62c.49,0,.78-.19,1.67-.82l.3-.23.2.29-.43.44c-.86.86-1.35,1.27-2.24,1.27a1.77,1.77,0,0,1-2-1.81C114.58,95.93,115,95.27,117,94.57Zm1.64,2.49V93.73c0-1.42-.4-1.77-1.36-1.77a3.6,3.6,0,0,0-1.31.26l.61-.46L116.21,93c-.13.45-.36.69-.76.69a.62.62,0,0,1-.68-.59,2.64,2.64,0,0,1,2.84-1.79c1.51,0,2.24.68,2.24,2.52v3.08c0,.64.2.86.52.86a.69.69,0,0,0,.56-.32l.3.32a1.39,1.39,0,0,1-1.27.76A1.32,1.32,0,0,1,118.63,97.06Z"/><path class="cls-2" d="M124.55,98.38c0-.65,0-2.15,0-3v-.69c0-.79,0-1.24,0-1.82l-1.14-.13v-.51l2-.87.22.14.17,1.68v2.2c0,.9,0,2.4.05,3Zm2.31-.52v.52H123.5v-.52l1.58-.29h.34ZM130.17,94v1.35c0,.93,0,2.4.05,3h-1.31c0-.65,0-2.12,0-3V94.1c0-1.33-.34-1.76-1.2-1.76a3.07,3.07,0,0,0-2.07,1h-.31v-.67h.74l-.61.27a3.82,3.82,0,0,1,2.82-1.64C129.57,91.31,130.17,92.08,130.17,94Zm-.4,3.59,1.44.29v.52h-3.36v-.52l1.58-.29Zm4.75-3.74v1.5c0,.93,0,2.4,0,3h-1.31c0-.65,0-2.12,0-3V94.08c0-1.35-.37-1.74-1.21-1.74a3,3,0,0,0-2.06,1h-.36v-.54h.8l-.66.14a3.53,3.53,0,0,1,2.86-1.64C133.84,91.31,134.52,92,134.52,93.83Zm-.4,3.74,1.44.29v.52H132.2v-.52l1.58-.29Z"/><path class="cls-5" d="M79.53,41.27A2.42,2.42,0,0,1,80.24,44c-.21.46-.65,1.38-1.23,1.46s-.81-1.05-.85-1.51a3.61,3.61,0,0,1,.27-1.59,2.63,2.63,0,0,1,.63-1.13.27.27,0,0,1,.19-.08.44.44,0,0,1,.25.13Z"/><path class="cls-5" d="M77.7,40.37s1.73-2.17,3-2-.85,3.19-.85,3.19-.31.88-2.2-.49A.54.54,0,0,1,77.7,40.37Z"/><path class="cls-6" d="M92.6,75.63c-.72.18-1.44.14-1.7-.65A5.78,5.78,0,0,1,90.66,73a5.62,5.62,0,0,1,.44-2.33,1.91,1.91,0,0,1,1.31-1.19,2.4,2.4,0,0,1,1.85.84,10.09,10.09,0,0,1,1.07,1.2,10.75,10.75,0,0,1,1,1.36l0,0a1.14,1.14,0,0,1,.17.62,1.07,1.07,0,0,1-.48.65,9.08,9.08,0,0,1-1.63.79A10.33,10.33,0,0,1,92.6,75.63Z"/><path class="cls-7" d="M83.57,52.69a18.46,18.46,0,0,0-.92,2.81,26.51,26.51,0,0,0-.7,6.76,24.11,24.11,0,0,0,.88,6.55c.66,2.08,2.3,4,4.68,3.76a14.78,14.78,0,0,0,3.42-1.08c1.37-.5,2.73-1,4.09-1.54,2.85-1.1,5.73-2.19,8.52-3.44,2.07-.92,4.11-2.45,4.62-4.79a5.62,5.62,0,0,0-.53-3.42c-.48-1.18-1-2.35-1.55-3.5-1.74-3.58-3.79-7.59-6.84-10.25s-7.68-.38-10.49,1.63c-.44.31-.88.64-1.29,1A15.08,15.08,0,0,0,83.57,52.69Z"/><path class="cls-8" d="M83.22,42.2a3,3,0,0,1,.93-2.27,8.71,8.71,0,0,1,4.21-1.45A17.46,17.46,0,0,1,94,38.22c3.64.56,7.06,3.43,9.1,6.39.45.65.81,1.34,1.24,2a7,7,0,0,1,1.11,2.21c.33,1.37-.94,2.38-1.89,3.11a16,16,0,0,1-6.3,3.31c-1.57.32-3.17.57-4.77.76s-3.47.68-4.9,0c-2.18-1-2.92-3.45-3.48-5.6A25.92,25.92,0,0,1,83.22,42.2Z"/><path class="cls-6" d="M80.34,65.05s-.47-2.91.91-4.46c1.63-1.84,4,2,4.76,3.11a.72.72,0,0,1,.14.47c0,.42-.57.77-.9,1a7.31,7.31,0,0,1-1.34.6,5.41,5.41,0,0,1-2.44.61A1.4,1.4,0,0,1,80.34,65.05Z"/><path class="cls-9" d="M87.91,62.09a1.17,1.17,0,0,0,0,.11c0,.13-.14.31,0,.43a.45.45,0,0,0,.17.08,2.75,2.75,0,0,0,1.14,0,3.28,3.28,0,0,0,1.26-.61,13.87,13.87,0,0,0,1.34-1.06,6.58,6.58,0,0,0,1.66-1.9,2,2,0,0,0,.28-.81c0-.06-.47-.13-.5-.14a3.2,3.2,0,0,0-1.41.14,5,5,0,0,0-1.46.9,11.67,11.67,0,0,0-1.72,1.65,5.05,5.05,0,0,0-.54.82A2.68,2.68,0,0,0,87.91,62.09Z"/><path class="cls-9" d="M94.25,57.61a12.18,12.18,0,0,1,3-.52,5.15,5.15,0,0,1,2.09.33,2.34,2.34,0,0,1,1.16.82.66.66,0,0,1,.06.58.71.71,0,0,1-.41.29l-.6.27a6,6,0,0,1-3.43.82c-.64-.13-1.27-.3-1.9-.48a8.52,8.52,0,0,1-2.1-.86s-.07-.06-.07-.11,0-.08,0-.11a3.09,3.09,0,0,1,1.76-.93Z"/><path class="cls-9" d="M91.35,58.11a2.18,2.18,0,0,1-1.51-.84c-.46-.63-.91-1.27-1.31-2v0a10,10,0,0,1-.62-1.22c-.09-.21-.16-.43-.23-.65s-.15-.41,0-.54a1,1,0,0,1,.57-.21,3.56,3.56,0,0,1,1.44.22,5.88,5.88,0,0,1,1.6.71,1.87,1.87,0,0,1,.63.62,14.65,14.65,0,0,1,.78,1.82l.39,1a3.42,3.42,0,0,1,.32,1C93.4,58.4,92.11,58.24,91.35,58.11Z"/><path class="cls-9" d="M81.63,46.42a1,1,0,0,1,0-1.19,2.83,2.83,0,0,1,1.46-.54,17,17,0,0,1,2.35-.4,4.5,4.5,0,0,1,1.32,0c.16,0-.22.58-.26.64a3.85,3.85,0,0,1-.7.81A8.77,8.77,0,0,1,84,46.89c-.7.37-1.45.81-2.06,0A4,4,0,0,1,81.63,46.42Z"/><path class="cls-9" d="M84.6,49.73s0,0,0,0a2.8,2.8,0,0,1,0-1,4.48,4.48,0,0,1,.67-2.06,3.86,3.86,0,0,1,2-1.34c.15-.06,0,.61,0,.68a12.27,12.27,0,0,1-.67,1.64c-.24.52-.43,1.06-.71,1.57-.16.3-.52,1-1,.82A.46.46,0,0,1,84.6,49.73Z"/><path class="cls-6" d="M94.8,62l-.58.22a6.06,6.06,0,0,1-.75.27.86.86,0,0,1-.65,0,.9.9,0,0,1-.38-.65,3.49,3.49,0,0,1-.06-.91c0-.7.35-1.89,1.25-1.79.65.07,1.42,1.19,1.83,1.76a.58.58,0,0,1,.13.57.64.64,0,0,1-.26.28A5.36,5.36,0,0,1,94.8,62Z"/><path class="cls-9" d="M96.65,51.4A3.73,3.73,0,0,1,99,48.89c2.22-1,4.72-.51,4.82-.28s-.42.72-.53.87c-.23.32-.47.63-.71.94-.39.47-.79.93-1.21,1.37a1.63,1.63,0,0,1-.63.47,2.14,2.14,0,0,1-.87.09c-.37,0-.74,0-1.11-.07a4.68,4.68,0,0,1-2.17-.6A1.27,1.27,0,0,1,96.65,51.4Z"/><path class="cls-10" d="M91.48,46.42a2.25,2.25,0,0,0-.56,3.16,6.66,6.66,0,0,0,1.43,2.29.63.63,0,0,1,.22.24c.09.19,0,.4,0,.6a.8.8,0,0,0,.29.65c.64.52,1.83,0,2.41-.36a10.92,10.92,0,0,0,1.84-1.82c.53-.59,1-1.2,1.57-1.81a1.25,1.25,0,0,0,.29-.45.43.43,0,0,0-.13-.48c.69-.28,1.57-.28,2-.94a2.1,2.1,0,0,0,.21-1.54c-.06-.45,0-1-.38-1.37a1,1,0,0,0-.74-.23l.82-1.13a11,11,0,0,0-2.34-.61,4.1,4.1,0,0,0-3,.54A3.69,3.69,0,0,0,94.34,45c-.17.53-.82.49-1.31.67A5.67,5.67,0,0,0,91.48,46.42Z"/><path class="cls-11" d="M89.9,42.94c-.05,0-.09-.24-.1-.28a1.74,1.74,0,0,1-.07-.68c.06-.6.51-.81,1-1a8.32,8.32,0,0,1,1.39-.44c.48-.08,1.41-.24,1.49.44,0,.2.23.75.11.93a2.92,2.92,0,0,1,2.09-1.25,1.46,1.46,0,0,1,.72,0c.34.1.44.38.58.68.3.62.6,1.23.93,1.84,0,0,.86,1.57.38,2.32A7.81,7.81,0,0,1,97.27,47a12.7,12.7,0,0,1-1.72,1.17,6.14,6.14,0,0,1-2,1A.76.76,0,0,1,93,49.1s-.34-.28-.28-.34a14.48,14.48,0,0,1-1.11.94,5,5,0,0,1-2.13,1.15.74.74,0,0,1-.33,0,.77.77,0,0,1-.38-.26,4.71,4.71,0,0,1-.73-1.65,12.31,12.31,0,0,1-.52-4.14,2,2,0,0,1,.53-1.6,2.1,2.1,0,0,1,1-.31A1.79,1.79,0,0,1,89.9,42.94Z"/><path class="cls-5" d="M106.49,60.7s.53-3.12,1.83-3.65.87,3.65.87,3.65.16,1-2.39.71A.63.63,0,0,1,106.49,60.7Z"/><path class="cls-5" d="M107,60.58s-3.23.36-3.86,1.71,3.69,1.15,3.69,1.15,1.06.23.88-2.49A.65.65,0,0,0,107,60.58Z"/><path class="cls-12" d="M74.44,44.78s.13-6.5,2.37-7.91,2.56,7.26,2.56,7.26.57,2.09-4.16,2A1.34,1.34,0,0,1,74.44,44.78Z"/><path class="cls-5" d="M79.21,57.07a.12.12,0,0,1-.06-.06c-.11-.19-.16-.4-.28-.58a1.43,1.43,0,0,0-.23-.26c-.08-.1-.15-.2-.23-.29a5.77,5.77,0,0,0-.44-.42,5.45,5.45,0,0,0-3.12-1.17c-.95-.06-1.9.23-1.45,1.33A12.8,12.8,0,0,0,75,57.87a24.32,24.32,0,0,0,1.6,2.07c.46.55,1,1.5,1.65,1.8a1.39,1.39,0,0,0,1,0,9.6,9.6,0,0,0,3-1.84,6.15,6.15,0,0,0,2-2.09.92.92,0,0,0,0-.69,1.23,1.23,0,0,0-1.1-.54,8.15,8.15,0,0,0-2.2.17l-1.7.35Z"/><path class="cls-5" d="M99.88,68c-.1-.06-.17-.47-.2-.57a6.8,6.8,0,0,1-.29-1.48,3.82,3.82,0,0,1,.69-2.75c.81-1,1.78-.65,2.37.38a5.81,5.81,0,0,1,.5,1.17c.11.34.12.7.4,1a6,6,0,0,0,.58.4,2.75,2.75,0,0,1,.83,2.7C104.3,70.89,100.86,68.58,99.88,68Z"/><path class="cls-13" d="M93.72,79.26h0a.06.06,0,0,1,0-.06c0-.62,0-1.25,0-1.87,0-1.4,0-2.81,0-4.22s0-3,.07-4.53.08-2.7.16-3.79c0-.56.1-1.12.15-1.67,0-.18,0-.37.05-.56s0-.29,0-.44a4.58,4.58,0,0,0,0-1.65.46.46,0,0,0-.12-.24H94a1.56,1.56,0,0,1-.59-.1c0,.25.08.5.12.75a5.79,5.79,0,0,1,.13,2.23,3.47,3.47,0,0,1-.16.55s0,.05,0,.08a2.71,2.71,0,0,1-.58,1,10.75,10.75,0,0,1-1.05,1.22s0,0-.06,0a0,0,0,0,1,0-.06v0a1.09,1.09,0,0,1-.67-.93,3,3,0,0,1,.23-1.23L92.92,59c-.23.25-.44.55-.65.83a7.24,7.24,0,0,1-.51.69,11,11,0,0,1-1.58,1.56,1.5,1.5,0,0,1-1.18.42,1.52,1.52,0,0,1-.69-.47,10.17,10.17,0,0,1-.92-1l0-.05h0a.07.07,0,0,1,0,0,0,0,0,0,1,0-.06h0v0a.3.3,0,0,1,.08-.17,6.38,6.38,0,0,1,2.14-2,5,5,0,0,1,2.41-.38,9.16,9.16,0,0,1-1.82-.56,4.25,4.25,0,0,1-2.07-1.82,5.6,5.6,0,0,1-.16-3.79A.21.21,0,0,1,88,51.9a.19.19,0,0,1,.15,0l.12,0a.72.72,0,0,1,.25.07,10.91,10.91,0,0,1,1.92.76,5,5,0,0,1,1.83,1.62,7.93,7.93,0,0,1,.88,2.3c.06.24.13.48.2.72l.2.35a3.73,3.73,0,0,1,.15.38.71.71,0,0,0,0-.22,2.51,2.51,0,0,0,0-.61,1.94,1.94,0,0,1,0-.24c0-.3,0-.61-.07-.91,0-.74-.07-1.31-.06-1.84v-.76a.05.05,0,0,1,0-.06h0a.06.06,0,0,1,.06.06v.76c0,.53,0,1.09.06,1.83,0,.3,0,.61.07.91l0,.23a3.56,3.56,0,0,1,0,.65,1.4,1.4,0,0,1-.09.31l0,0a4.2,4.2,0,0,0,.82-1.6c0-.15.09-.29.14-.42a18.75,18.75,0,0,1,.83-1.82c.2-.4.41-.81.64-1.21a1.73,1.73,0,0,1,.46-.55.19.19,0,0,1,.2,0c.07,0,.09.12.1.16a6.33,6.33,0,0,1,.1,2,5.4,5.4,0,0,1-.32,1.51,3,3,0,0,1-.9,1.27,3.3,3.3,0,0,1-.73.42l.31-.07a5.18,5.18,0,0,1,3.2.4l0,0a.94.94,0,0,1,.23.1.43.43,0,0,1,.23.19.38.38,0,0,1,0,.38.83.83,0,0,1-.26.24,3.26,3.26,0,0,1-1,.38c-.59.16-1.2.27-1.79.37a14.34,14.34,0,0,1-1.86.25.74.74,0,0,1,.1.22,4.8,4.8,0,0,1,0,1.69c0,.15,0,.3,0,.44l-.06.57c0,.54-.1,1.1-.14,1.66-.08,1.09-.13,2.25-.16,3.79s0,3.08-.07,4.52,0,2.82,0,4.22c0,.63,0,1.25,0,1.87A.06.06,0,0,1,93.72,79.26ZM92.71,60,91.4,63.73a2.92,2.92,0,0,0-.23,1.18,1,1,0,0,0,.57.82A56.28,56.28,0,0,1,92.71,60Zm.32-.86a54.43,54.43,0,0,0-1.16,6.57c.16-.2.34-.4.51-.59s.27-.28.4-.43a4.54,4.54,0,0,0,.58-1,3.93,3.93,0,0,0,0-1.41,7.1,7.1,0,0,0-.12-1.12c0-.18-.06-.37-.08-.55l-.07-.63h0a.82.82,0,0,1-.07-.76Zm.2.94.06.49c0,.18,0,.37.08.55a8.49,8.49,0,0,1,.11,1.12,5.52,5.52,0,0,1,.06.72,6.34,6.34,0,0,0-.15-2c0-.28-.1-.56-.14-.84Zm-5.73.88a9.67,9.67,0,0,0,.89,1,1.48,1.48,0,0,0,.64.44,1.42,1.42,0,0,0,1.08-.4,11.8,11.8,0,0,0,1.56-1.54c.18-.22.34-.45.51-.68a6.5,6.5,0,0,1,.8-1h0a.6.6,0,0,1,.11-.3,11.69,11.69,0,0,0-1.43.29,6.44,6.44,0,0,0-.76.36c-.43.23-.85.5-1.26.77-.24.16-.49.32-.75.47A3.21,3.21,0,0,1,87.5,60.93ZM90.9,59a12.25,12.25,0,0,0-3.38,1.81,3.49,3.49,0,0,0,1.36-.55l.75-.48c.41-.27.83-.54,1.26-.78Zm.64-.68a4.41,4.41,0,0,0-2,.39,6.23,6.23,0,0,0-2.1,2v0a12.33,12.33,0,0,1,4.21-2.06,4.63,4.63,0,0,1,.91-.26C92.25,58.36,91.9,58.33,91.54,58.33ZM93.36,60a1.18,1.18,0,0,0,.59.12,1.92,1.92,0,0,0-.6-.19Zm-.07-.19h0a1.63,1.63,0,0,1,.84.31,13.77,13.77,0,0,0,1.93-.25c.59-.11,1.19-.21,1.78-.37a3.17,3.17,0,0,0,.92-.37.63.63,0,0,0,.23-.2.29.29,0,0,0,0-.27.34.34,0,0,0-.17-.14l-.24-.1a22,22,0,0,1-5.3,1.3s0,0,0,0a0,0,0,0,1,0,0,2.21,2.21,0,0,1,1.27-1.4,7.1,7.1,0,0,1-.8.17l-.1,0a.07.07,0,0,1-.06,0l-.23,0a.35.35,0,0,0-.13.16.53.53,0,0,1,.29-.12.05.05,0,0,1,.06,0,0,0,0,0,1,0,.06,1.45,1.45,0,0,0-.33.45l-.06.13c0,.09,0,.17,0,.25a2,2,0,0,0,0,.25l0,.21,0,0v0s0,0,0,0Zm2.87-1.75a4,4,0,0,0-1.47.24,2.21,2.21,0,0,0-1.31,1.3,21.81,21.81,0,0,0,5.05-1.24l-.22-.05a9,9,0,0,0-1.54-.23A4.52,4.52,0,0,0,96.16,58.05Zm-3.07.81,0,.09a1.32,1.32,0,0,1,.19-.29.49.49,0,0,0-.18.17S93.11,58.86,93.09,58.86Zm-5-6.86h0a.15.15,0,0,0,0,.09,5.48,5.48,0,0,0,.15,3.71,4.11,4.11,0,0,0,2,1.76,11.24,11.24,0,0,0,2.64.72,2.52,2.52,0,0,0,.72,0l-.46-.62c-.58-.79-1.19-1.6-1.81-2.38a21.05,21.05,0,0,0-3-3.16L88.11,52s0,0,0,0Zm8.76.67-.07,0a1.66,1.66,0,0,0-.43.52c-.23.39-.44.81-.64,1.21a18.33,18.33,0,0,0-.82,1.8c-.05.13-.09.27-.14.41A4.56,4.56,0,0,1,94,58.22l.12,0a4.79,4.79,0,0,0,1.72-.73,2.93,2.93,0,0,0,.86-1.22A5.53,5.53,0,0,0,97,54.75a6.14,6.14,0,0,0-.1-2s0-.06,0-.07Zm-.67,5.26.52,0c.35,0,.71.07,1.06.13a5.23,5.23,0,0,0-1.81-.14Zm-7.84-5.86a20.71,20.71,0,0,1,3,3.17c.63.78,1.23,1.59,1.82,2.38l.23.32c-.06-.17-.11-.33-.16-.49l-.18-.31a19.41,19.41,0,0,0-4.29-4.83,1.37,1.37,0,0,0-.29-.2Zm.53.16A19.2,19.2,0,0,1,93.12,57c0-.11-.05-.22-.08-.32a7.63,7.63,0,0,0-.87-2.27,4.74,4.74,0,0,0-1.78-1.57A8.38,8.38,0,0,0,88.85,52.23Z"/><path class="cls-13" d="M93.92,58.31a.06.06,0,0,1-.06-.06,8.78,8.78,0,0,1,0-1,6.09,6.09,0,0,1,1.27-3.09,7.79,7.79,0,0,1,.7-.84,4.27,4.27,0,0,1,.63-.51l.26-.19.07,0,.08-.06a1.14,1.14,0,0,1,.06-.25.49.49,0,0,1,.26-.25h0s0,0,0,0a0,0,0,0,1,0,0,.12.12,0,0,1,.11-.07c.1,0,.23,0,.42.21a4.27,4.27,0,0,0,1.67.16A5,5,0,0,0,102.75,50a6.65,6.65,0,0,0,.94-1.93,6.7,6.7,0,0,0-4.15-.25,21,21,0,0,1,3.38.19l.6.07s0,0,0,0a.06.06,0,0,1,0,.06,4.19,4.19,0,0,1-1.28,1.27,6.48,6.48,0,0,1-1.69.65s-.07,0-.07,0a.06.06,0,0,1,0-.07,6.62,6.62,0,0,0,1.66-.64,3.86,3.86,0,0,0,1.19-1.16l-.5,0A18.6,18.6,0,0,0,99,48,.06.06,0,0,1,99,48s0-.05,0-.06a6.84,6.84,0,0,1,4.78.12.06.06,0,0,1,0,.07,7,7,0,0,1-1,2,5.11,5.11,0,0,1-3.3,2.23,4.07,4.07,0,0,1-1.52-.1h0a6.28,6.28,0,0,1,.86,1.17A6.77,6.77,0,0,1,100,55.68a.92.92,0,0,1-.07.72,1,1,0,0,1-.37.28,1.87,1.87,0,0,1-1.78.25,1.53,1.53,0,0,1-.57-1A7.09,7.09,0,0,1,97,54.7l0-.3a10.09,10.09,0,0,1-.06-1.74l-.06.05-.26.18a5,5,0,0,0-.62.5,8.93,8.93,0,0,0-.69.83,6.06,6.06,0,0,0-1.24,3,8.69,8.69,0,0,0,0,1,.06.06,0,0,1,0,.06ZM97,52.56v0a9,9,0,0,0,.06,1.8l0,.3a6.75,6.75,0,0,0,.2,1.26,1.44,1.44,0,0,0,.52.88,1.17,1.17,0,0,0,.94.06h0c-.54-1.5-1-3.05-1.44-4.59A1.86,1.86,0,0,1,97,52.56Zm.38-.37a9.26,9.26,0,0,1,.92,2.17c.23.82.39,1.67.54,2.49h0a3.17,3.17,0,0,0,.62-.28.72.72,0,0,0,.32-.24.82.82,0,0,0,.06-.63,7,7,0,0,0-1-2.21A6.33,6.33,0,0,0,98,52.34l-.17-.16-.28-.07-.1,0a0,0,0,0,1,0,0s0,0,0,0Zm.13.47q.5,1.74,1.08,3.45c-.12-.57-.24-1.15-.4-1.71A9,9,0,0,0,97.53,52.66Zm-.3-.53a.32.32,0,0,0-.15.17l0,.09a1.07,1.07,0,0,0,.18-.19l0,0Zm.23-.16.08,0Z"/><path class="cls-13" d="M96.21,52h-.48a3.29,3.29,0,0,1-2-.61,3.61,3.61,0,0,1-.93-1.48,1.37,1.37,0,0,1-.12-.55,1.34,1.34,0,0,1,.67-.91l.3-.21a4.54,4.54,0,0,0,.56-.42,4.6,4.6,0,0,1,.31-.53l.09-.14c.14-.23.28-.45.41-.68l.09-.13a.41.41,0,0,1,.07-.11,2,2,0,0,0,.27-.59.35.35,0,0,0-.07-.29.81.81,0,0,0-.6-.14,6.59,6.59,0,0,0-1,.16l-.4.07-.57.11L91,45.9a.06.06,0,1,1,0-.12l1.76-.31.57-.11.39-.08c.33-.06.68-.13,1-.16a1,1,0,0,1,.7.18.46.46,0,0,1,.09.39,1.57,1.57,0,0,1-.29.63l-.06.11-.09.14-.41.67-.09.14-.21.33,0,0a.06.06,0,0,1,0,.08l-.13.12a1.29,1.29,0,0,0-.07.21c-.1.46.06,1.39.6,1.53a2.75,2.75,0,0,0,2.07-.81l0,0c.36-.29.85-.68.93-1.16a.41.41,0,0,0-.06-.32.54.54,0,0,0-.35-.18,3.67,3.67,0,0,0-1.36-.05.06.06,0,0,1-.06,0,0,0,0,0,1,0-.06,2.35,2.35,0,0,1,1.79.14,10.25,10.25,0,0,1,1.58,1.22c.2.19.4.39.59.59l0,0a1.12,1.12,0,0,1,.39,1.27,2.9,2.9,0,0,1-1.9,1.45A8.34,8.34,0,0,1,96.21,52Zm-2.09-4-.42.31-.3.21c-.3.22-.6.46-.62.82a1.19,1.19,0,0,0,.11.5,3.51,3.51,0,0,0,.89,1.43,3.22,3.22,0,0,0,2,.58,8.4,8.4,0,0,0,2.79-.3,2.83,2.83,0,0,0,1.83-1.39,1,1,0,0,0-.38-1.14l0,0c-.19-.19-.39-.4-.59-.58a10.92,10.92,0,0,0-1.43-1.13.6.6,0,0,1,0,.36,2.33,2.33,0,0,1-1,1.23l0,0a2.83,2.83,0,0,1-2.16.83c-.65-.17-.79-1.19-.69-1.67A.43.43,0,0,0,94.12,48.06Z"/><path class="cls-13" d="M91.06,51.55a1.26,1.26,0,0,1-.67-.17,12,12,0,0,1-2.14-2s0-.06,0-.08a.06.06,0,0,1,.08,0,12,12,0,0,0,2.1,2,1.21,1.21,0,0,0,1.26,0,3.73,3.73,0,0,0,.55-.58,9.93,9.93,0,0,0,1-1.7c.11-.21.22-.43.34-.64a.07.07,0,0,1,.08,0,.05.05,0,0,1,0,.08L93.4,49a9.47,9.47,0,0,1-1.05,1.71,3.55,3.55,0,0,1-.57.6A1.27,1.27,0,0,1,91.06,51.55Z"/><path class="cls-13" d="M88.38,49.47a.05.05,0,0,1,0,0,9.33,9.33,0,0,1-1.07-3.31,1.57,1.57,0,0,1,.52-1.38A1.64,1.64,0,0,1,89,44.4l.28.05c.26,0,.52.09.77.16l.15,0a9.48,9.48,0,0,0-1.06-.37,2.38,2.38,0,0,0-.37-.06,3.73,3.73,0,0,1-.46-.09.79.79,0,0,1-.4-.22.53.53,0,0,1-.13-.4,1.76,1.76,0,0,1,.65-1l.51-.44a4.21,4.21,0,0,1,1.8-1.17,1.93,1.93,0,0,1,.68,0,1.31,1.31,0,0,1,.71.41,1.94,1.94,0,0,1,.35.44c.07-.55.24-1.62.58-1.87a1.32,1.32,0,0,1,.92-.13,5,5,0,0,1,2.69,1.29L98,42.18s0,0,0,0l0,0s-.29.34-.62.65A4.2,4.2,0,0,1,98.9,43a2.75,2.75,0,0,1,1.33.68,2.11,2.11,0,0,1,.51,1.52,8.87,8.87,0,0,1-.17,2,.9.9,0,0,1-1.14.7,4,4,0,0,1-1-.25l-.59-.25a.06.06,0,1,1,0-.11l.58.25a3.35,3.35,0,0,0,1,.24,1,1,0,0,0,.53,0,.94.94,0,0,0,.48-.59,9.18,9.18,0,0,0,.17-2,2,2,0,0,0-.48-1.43,2.63,2.63,0,0,0-1.28-.66,4.22,4.22,0,0,0-1.6,0,2.21,2.21,0,0,1-.6.41,6.57,6.57,0,0,0-1,.48.06.06,0,0,1-.07,0,.06.06,0,0,1,0-.07A1.67,1.67,0,0,1,96.87,43l.35-.06a8.63,8.63,0,0,0,.7-.71c-.1-.08-.41-.33-1.31-1.09A4.92,4.92,0,0,0,94,39.88a1.31,1.31,0,0,0-.84.11c-.34.25-.52,1.61-.57,2.12a0,0,0,0,1-.06,0,.06.06,0,0,1,0-.06c0-.27-.23-.51-.41-.69a1.24,1.24,0,0,0-.64-.38,2,2,0,0,0-.64,0A4.17,4.17,0,0,0,89,42.18a6.66,6.66,0,0,1-.51.44,1.63,1.63,0,0,0-.6.9.39.39,0,0,0,.1.31.7.7,0,0,0,.35.19,3.25,3.25,0,0,0,.43.08l.39.07a11.59,11.59,0,0,1,2,.8l.11.05a.05.05,0,0,1,0,.07.07.07,0,0,1-.07,0,4,4,0,0,1-.69-.23c-.17-.06-.35-.13-.53-.18a6.8,6.8,0,0,0-.76-.15l-.28,0a1.51,1.51,0,0,0-1.15.32,1.44,1.44,0,0,0-.47,1.28,9.13,9.13,0,0,0,1.05,3.26.06.06,0,0,1,0,.08Zm8.67-6.38-.16,0a1.77,1.77,0,0,0-1,.61c.19-.1.48-.24.79-.37A2.3,2.3,0,0,0,97.05,43.09Z"/><path class="cls-13" d="M93.93,53.5a4.41,4.41,0,0,1-.52,0C91.92,53.24,92,52.08,92,52.06a3.74,3.74,0,0,1,.48-1.72,0,0,0,0,1,.07,0,.06.06,0,0,1,0,.08,3.75,3.75,0,0,0-.47,1.67s-.1,1.08,1.28,1.28a7.4,7.4,0,0,0,3.29-.63.05.05,0,0,1,.08,0,.06.06,0,0,1,0,.08A8,8,0,0,1,93.93,53.5Z"/><path class="cls-13" d="M91.05,49.74c-.16,0-.47-.1-.84-.62l-.34-.44c-.17-.22-.35-.45-.5-.69a4.34,4.34,0,0,1-.49-1.21,1.87,1.87,0,0,1-.07-.22,2.66,2.66,0,0,1-.12-1.45,2.26,2.26,0,0,1,1.83-1.49c.4-.06.77.35,1.08.68,0-.1,0-.19-.07-.28l0-.11a2.86,2.86,0,0,1-.07-1.22.69.69,0,0,1,.48-.59,4.53,4.53,0,0,1,1.33-.16h.06a3.83,3.83,0,0,1,1.34.2l.24.08a3.66,3.66,0,0,1,.43.15.7.7,0,0,1,.43.48,1.23,1.23,0,0,1,0,.28l-.12.7a1.57,1.57,0,0,1,1.08-.41,2.32,2.32,0,0,1,1.08.23,1.24,1.24,0,0,1,.73.84,3.6,3.6,0,0,1,.1,1v.2a4.21,4.21,0,0,1,0,.62c-.12.59-.89.66-1.22.66a.06.06,0,0,1-.06-.06.06.06,0,0,1,.06-.06h0c.3,0,1-.05,1.1-.56a3,3,0,0,0,0-.61,1.21,1.21,0,0,1,0-.19,3.33,3.33,0,0,0-.11-1,1.1,1.1,0,0,0-.66-.76h0a2,2,0,0,0-1-.22,1.4,1.4,0,0,0-1.12.5.07.07,0,0,1-.07,0s0,0,0-.06l.14-.88a.72.72,0,0,0,0-.25.56.56,0,0,0-.35-.39,3.12,3.12,0,0,0-.43-.15l-.24-.08a3.8,3.8,0,0,0-1.3-.2h-.06a4.37,4.37,0,0,0-1.3.16.59.59,0,0,0-.4.5,2.85,2.85,0,0,0,.07,1.18l0,.1a1.17,1.17,0,0,0,.27.63h0a.05.05,0,0,1,0,.08.06.06,0,0,1-.08,0h0a2.54,2.54,0,0,1-.32-.33c-.29-.31-.64-.7-1-.65a2.16,2.16,0,0,0-1.73,1.41,2.66,2.66,0,0,0,.12,1.39,1.42,1.42,0,0,1,.07.22,4.41,4.41,0,0,0,.47,1.18c.16.23.33.46.51.68s.23.29.33.44c.51.7.84.56.84.55h0a2,2,0,0,0,.68-.14,7.51,7.51,0,0,0,2-1l.06,0c.16-.11.42-.31.38-.48a.06.06,0,1,1,.11,0c.06.25-.24.47-.42.6l-.06.05a7.61,7.61,0,0,1-2,1,2.14,2.14,0,0,1-.71.14A.27.27,0,0,1,91.05,49.74Z"/><path class="cls-13" d="M94.19,48.09a2.94,2.94,0,0,1-1.49-.65l-.17-.12a5.11,5.11,0,0,1-1.29-1.16,1,1,0,0,1-.26-.59,1.08,1.08,0,0,1,.34-.65A5.68,5.68,0,0,1,92.47,44a4.1,4.1,0,0,1,1.5-.62,1.34,1.34,0,0,1,1,.21,1.29,1.29,0,0,1,.3.37,4.58,4.58,0,0,1,1,0,.54.54,0,0,1,.37.13.58.58,0,0,1,.13.31,3.2,3.2,0,0,1-1,2.82,3,3,0,0,1-1.69.69s-.06,0-.07-.05a.09.09,0,0,1,.06-.07,2.94,2.94,0,0,0,1.62-.65,3.11,3.11,0,0,0,1-2.72.51.51,0,0,0-.1-.25.47.47,0,0,0-.3-.09,4,4,0,0,0-1,0l0,.11a1.42,1.42,0,0,1,.15.72.43.43,0,0,1-.11.29.59.59,0,0,1-.51.12L93,45.19a.91.91,0,0,1-.71-.29s0,0,0-.07a1.34,1.34,0,0,1,1-.4h.32a3.81,3.81,0,0,0,.67-.07,3.61,3.61,0,0,0,.42-.16,3.54,3.54,0,0,1,.39-.14l.13,0a1.37,1.37,0,0,0-.25-.3,1.22,1.22,0,0,0-.91-.18,3.79,3.79,0,0,0-1.46.6A5.54,5.54,0,0,0,91.4,45a.7.7,0,0,0-.07,1.09,4.87,4.87,0,0,0,1.26,1.13l.18.12a2.39,2.39,0,0,0,1.58.62.05.05,0,0,1,.07,0,.05.05,0,0,1,0,.06Zm-1.8-3.22a.92.92,0,0,0,.6.2l1.93.16a.5.5,0,0,0,.42-.09.41.41,0,0,0,.08-.22,1.48,1.48,0,0,0-.14-.66l-.07-.14-.16,0a2.92,2.92,0,0,0-.38.14,3.16,3.16,0,0,1-.43.16,2.74,2.74,0,0,1-.69.07l-.32,0A1.3,1.3,0,0,0,92.39,44.87Z"/><path class="cls-13" d="M84.3,46.21a2.45,2.45,0,0,1-.46,0l-.94-.28-.59-.3s0,0,0,0a0,0,0,0,1,0-.05l.13-.12A9.6,9.6,0,0,1,86,44.08a9,9,0,0,1,1.72,0h.09a10.5,10.5,0,0,1,1.73.3.07.07,0,0,1,0,.07.06.06,0,0,1-.08,0,10.4,10.4,0,0,0-1.7-.29h-.09a8.16,8.16,0,0,0-5.22,1.3l0,.06.51.25.92.28h0A2.65,2.65,0,0,0,85,46c.46-.19,2.06-1,2.07-1s1.23-.77,1.7-.56a.07.07,0,0,1,0,.08.05.05,0,0,1-.07,0c-.35-.15-1.27.35-1.6.55-.07,0-1.62.86-2.09,1.05A2,2,0,0,1,84.3,46.21Z"/><path class="cls-13" d="M82.82,45.68a1.08,1.08,0,0,1-.37,0s0,0,0-.05v-.09a.07.07,0,0,1,0-.05,6.51,6.51,0,0,1,1-.39,14.52,14.52,0,0,1,2.34-.58h.32c.78-.19,1.75-.36,1.82-.38a.06.06,0,0,1,.06.05.06.06,0,0,1,0,.07l-.59.11a8.12,8.12,0,0,1,.9-.05,2.32,2.32,0,0,1,.72.07.06.06,0,0,1,0,.11,1.89,1.89,0,0,0-.67-.07,15.73,15.73,0,0,0-1.72.15l-.42,0a4.18,4.18,0,0,0-.87.28h0a13.86,13.86,0,0,0-1.68.65A1.45,1.45,0,0,1,82.82,45.68Zm-.29-.15a1.34,1.34,0,0,0,.94-.13,14.35,14.35,0,0,1,1.69-.65,1.65,1.65,0,0,1,.38-.15c-.5.08-1.63.42-2.1.56a6,6,0,0,0-.91.37Z"/><path class="cls-13" d="M85.41,50a.06.06,0,0,1,0,0,1.57,1.57,0,0,1-.38-.67,2.12,2.12,0,0,1,0-2.07c0-.07.77-1.52,1.49-1.77l1-.6h0s.06-.06.06-.07a.06.06,0,0,1,.09,0,.06.06,0,0,1,0,.08,4,4,0,0,0-.73,2,8.54,8.54,0,0,1-1.23,2.9l-.22.23a0,0,0,0,1,0,0Zm2-4.94-.85.52c-.69.24-1.43,1.69-1.43,1.71a2,2,0,0,0,0,2v0a1.41,1.41,0,0,0,.32.59l.17-.18a8.53,8.53,0,0,0,1.21-2.85A5.69,5.69,0,0,1,87.37,45Z"/><path class="cls-13" d="M85.43,49.9h0c-.12,0-.11-.55,0-1.55A8.27,8.27,0,0,1,87,45.2a.05.05,0,0,1,.08,0,.06.06,0,0,1,0,.08,8.39,8.39,0,0,0-1.53,3.09c-.17,1.19-.11,1.41-.09,1.44a.08.08,0,0,1,0,.06A.08.08,0,0,1,85.43,49.9Z"/><path class="cls-13" d="M85.15,49.45h0a.06.06,0,0,1-.06-.06,7.17,7.17,0,0,1,.61-2.83,4.33,4.33,0,0,1,1.23-1.34.06.06,0,0,1,.08,0,.05.05,0,0,1,0,.08,4.63,4.63,0,0,0-1.19,1.31,7.36,7.36,0,0,0-.6,2.77A.06.06,0,0,1,85.15,49.45Z"/><path class="cls-13" d="M74.64,42.58a.05.05,0,0,1-.06,0,3.46,3.46,0,0,1-.06-1.49,6.22,6.22,0,0,1,1.87-3.44.06.06,0,0,1,.08,0,.05.05,0,0,1,0,.08,6.16,6.16,0,0,0-1.83,3.37,3.58,3.58,0,0,0,0,1.45.05.05,0,0,1,0,.07Z"/><path class="cls-13" d="M75.5,43.37a.05.05,0,0,1,0,0,.06.06,0,0,1,0-.07,3.85,3.85,0,0,0,.46-.14c.4-.13.83-.3,1.31-.5l0,0a1.84,1.84,0,0,0,.84-.56,2,2,0,0,0,.31-.75,1.46,1.46,0,0,0-.07-.88,2.69,2.69,0,0,1-.17-1.67,3.81,3.81,0,0,0,.07-1.07c0-.08,0-.16,0-.24a.06.06,0,0,1,.06-.06h0a.06.06,0,0,1,.06.06v.24a4.08,4.08,0,0,1-.07,1.1,2.51,2.51,0,0,0,.17,1.59,1.61,1.61,0,0,1,.07.95,2,2,0,0,1-.33.79,2,2,0,0,1-.89.61h0c-.48.21-.91.38-1.31.51a4.6,4.6,0,0,1-.47.14Z"/><path class="cls-13" d="M79.05,41.61a0,0,0,0,1,0,0,0,0,0,0,1,0-.06c.33-.06.4-.21.45-.54A3.59,3.59,0,0,1,80,39.7c.14-.21.29-.41.43-.6s.28-.36.41-.55a.3.3,0,0,0,.06-.2.17.17,0,0,0-.05-.06c-.9-.28-2.28.85-2.29.86a.06.06,0,0,1-.07-.09c0-.05,1.44-1.18,2.4-.88a.24.24,0,0,1,.12.14.38.38,0,0,1-.07.29c-.13.2-.28.38-.41.56s-.3.39-.43.59A3.44,3.44,0,0,0,79.61,41c0,.3-.12.56-.55.63Z"/><path class="cls-13" d="M74.72,44.17h0a1.52,1.52,0,0,1-.35-.45l0,0a1.72,1.72,0,0,1-.24-.58,4.8,4.8,0,0,1,0-.52c0-.15-.2-.27-.33-.35h0a1.89,1.89,0,0,0-.48-.21A2.92,2.92,0,0,0,71.75,42s-.07,0-.07-.05a.06.06,0,0,1,0-.07,3.16,3.16,0,0,1,1.5.07,2,2,0,0,1,.51.22h0c.15.09.38.23.39.43a4.17,4.17,0,0,0,0,.52,1.79,1.79,0,0,0,.22.54l0,0a1.46,1.46,0,0,0,.32.41.05.05,0,0,1,0,.08S74.74,44.17,74.72,44.17Z"/><path class="cls-13" d="M72.29,42.74l0,0a.05.05,0,0,1,0-.08,1.05,1.05,0,0,1,.82-.25,2,2,0,0,0,.76,0,.05.05,0,0,1,.07,0,.07.07,0,0,1,0,.08,2,2,0,0,1-.81,0,1,1,0,0,0-.73.23Z"/><path class="cls-13" d="M77.56,46.12a.85.85,0,0,1-.22,0L77.18,46c-.3-.17-1.82-1.14-1.94-1.72a.06.06,0,0,1,.11,0c.11.5,1.5,1.43,1.89,1.65l.13.06c.67.22,1.18-.8,1.35-1.14a4.08,4.08,0,0,0,.44-2c0-.74-.43-.91-.44-.91a.07.07,0,0,1,0-.08.07.07,0,0,1,.08,0s.49.19.52,1a4.28,4.28,0,0,1-.46,2C78.66,45.21,78.2,46.12,77.56,46.12Z"/><path class="cls-13" d="M77.24,44.29h0l-.51-.21a.06.06,0,0,1,0-.08.05.05,0,0,1,.07,0l.52.21a.06.06,0,0,1,0,.08A.05.05,0,0,1,77.24,44.29Z"/><path class="cls-13" d="M78.79,45a.06.06,0,0,1,0-.11.75.75,0,0,0,.39-.25,2.8,2.8,0,0,0,.41-.57l0,0a2.58,2.58,0,0,0,.36-.9,1.08,1.08,0,0,0-.49-1,.05.05,0,0,1,0-.07.07.07,0,0,1,.08,0,1.17,1.17,0,0,1,.55,1.14,2.42,2.42,0,0,1-.37,1l0,0a2.82,2.82,0,0,1-.43.61.87.87,0,0,1-.45.27Z"/><path class="cls-13" d="M80.31,56.78l-.07,0c-.07,0-.1-.12-.12-.18a1,1,0,0,0,0-.17v0a3.5,3.5,0,0,1-.08-.65c0-.16,0-.32,0-.49a2,2,0,0,0-.26-.68.06.06,0,0,1,0-.08,0,0,0,0,1,.07,0,2,2,0,0,1,.27.73,4.07,4.07,0,0,1,0,.49c0,.21,0,.43.08.64v0l0,.15c0,.05,0,.11.07.12s.16,0,.54-.4l.1-.1,0,0a1.74,1.74,0,0,1,.38-.27,1.11,1.11,0,0,1,.43-.07h.07a.07.07,0,0,1,.07.06.06.06,0,0,1-.06.06h-.08a1,1,0,0,0-.38.07,1.67,1.67,0,0,0-.36.25l0,0-.09.09C80.63,56.62,80.43,56.78,80.31,56.78Z"/><path class="cls-13" d="M77.92,58c-.47,0-.9,0-1,0A.94.94,0,0,1,76,57.3a3.4,3.4,0,0,0-1.23-1.63l-.19-.17a6.51,6.51,0,0,1-.64-.65.78.78,0,0,1-.19-.59.84.84,0,0,1,.45-.55,1.32,1.32,0,0,1,.64-.15h0a5.36,5.36,0,0,1,1.73.38,5.63,5.63,0,0,1,1.58.72,3.91,3.91,0,0,1,.92.85,4,4,0,0,1,.77,1.43.06.06,0,0,1-.11,0A4,4,0,0,0,79,55.58a4.37,4.37,0,0,0-.89-.83,6.16,6.16,0,0,0-1.55-.7,5.57,5.57,0,0,0-1.7-.37h0a1.08,1.08,0,0,0-.58.13.7.7,0,0,0-.39.47.62.62,0,0,0,.16.49,6.18,6.18,0,0,0,.62.64l.19.17a3.53,3.53,0,0,1,1.27,1.69.83.83,0,0,0,.81.58,8.74,8.74,0,0,0,2.19-.09.06.06,0,0,1,.08,0,.05.05,0,0,1,0,.08A3.44,3.44,0,0,1,77.92,58Z"/><path class="cls-13" d="M78.27,61.23h0a.8.8,0,0,1-.49-.27,16.74,16.74,0,0,1-1.47-1.87.61.61,0,0,1-.19-.52,1.18,1.18,0,0,1,.56-.69.06.06,0,0,1,.06.1,1,1,0,0,0-.5.61.47.47,0,0,0,.16.42,18.27,18.27,0,0,0,1.44,1.85l0,0a.66.66,0,0,0,.41.23h0a.42.42,0,0,0,.29-.14,1.24,1.24,0,0,0,.16-.24,7.46,7.46,0,0,0,.52-1.62.06.06,0,0,1,.07,0,.06.06,0,0,1,0,.06,7.67,7.67,0,0,1-.54,1.66.9.9,0,0,1-.17.26A.52.52,0,0,1,78.27,61.23Z"/><path class="cls-13" d="M81.67,59.37h-.06a1.55,1.55,0,0,1-.87-.51,2.72,2.72,0,0,1-.43-.65.07.07,0,0,1,0-.08.06.06,0,0,1,.08,0,2.3,2.3,0,0,0,.41.62,1.43,1.43,0,0,0,.79.47,1.15,1.15,0,0,0,.78-.39l.15-.12.3-.25a7.51,7.51,0,0,1,.78-.58l.24-.15a6.74,6.74,0,0,0,1.5-1.08c.15-.16.3-.38.14-.55a1.17,1.17,0,0,0-.66-.26,5.2,5.2,0,0,0-.88,0,4.93,4.93,0,0,0-1.62.39,8.82,8.82,0,0,0-1.87,1,.06.06,0,1,1-.06-.1,9,9,0,0,1,1.89-1A5.39,5.39,0,0,1,84,55.7a4.54,4.54,0,0,1,.9.06,1.13,1.13,0,0,1,.72.29c.18.18.13.43-.14.71a7,7,0,0,1-1.52,1.1l-.24.15a6,6,0,0,0-.76.57l-.31.25-.14.12A1.42,1.42,0,0,1,81.67,59.37Z"/><path class="cls-13" d="M79.36,61.32a.52.52,0,0,1-.3-.16l-.33-.36a.06.06,0,0,1,0-.08.08.08,0,0,1,.09,0l.32.36s.16.13.23.12a.26.26,0,0,0,.11-.08,2.4,2.4,0,0,1,.9-.49l.31-.12.19-.08a2.14,2.14,0,0,0,.67-.36c.27-.25.09-.68.09-.69a.05.05,0,0,1,0-.07.07.07,0,0,1,.08,0,.75.75,0,0,1-.12.81,2.29,2.29,0,0,1-.7.39l-.2.08-.31.12a2.33,2.33,0,0,0-.85.46.37.37,0,0,1-.19.11Z"/><path class="cls-13" d="M101.19,67.68a.05.05,0,0,1,0-.05,0,0,0,0,1,0-.06,9.18,9.18,0,0,0,1.57-.9,1.15,1.15,0,0,0,.41-.47,1.89,1.89,0,0,0,.23-.5.9.9,0,0,0-.07-.56l0-.08c0-.15-.1-.29-.14-.44s-.11-.33-.16-.49c-.13-.41-.26-.83-.43-1.23a1.87,1.87,0,0,0-1-1.14.73.73,0,0,0-.63,0,1.23,1.23,0,0,0-.37.49l0,.06a5.94,5.94,0,0,0-.35.82,5.41,5.41,0,0,0-.26,1.55,5.14,5.14,0,0,0,.31,2,.06.06,0,0,1,0,.07s-.06,0-.07,0a5.35,5.35,0,0,1-.32-2,5.88,5.88,0,0,1,.27-1.58,6.37,6.37,0,0,1,.36-.85l0-.05a1.28,1.28,0,0,1,.41-.54.87.87,0,0,1,.74,0,2,2,0,0,1,1,1.2c.17.41.3.83.43,1.25,0,.16.1.32.16.48s.09.3.14.44l0,.08a1,1,0,0,1,.07.63,2.32,2.32,0,0,1-.24.53,1.17,1.17,0,0,1-.46.51,8.36,8.36,0,0,1-1.6.91Z"/><path class="cls-13" d="M104,69.3c-.22,0-.45,0-.66,0a5.6,5.6,0,0,1-2-1,.06.06,0,0,1,0-.08,0,0,0,0,1,.08,0,5.67,5.67,0,0,0,2,1c.6.07,1.34.16,1.65-.42a2,2,0,0,0,.19-1.06c0-.31-.11-1.87-1.09-2-.8-.1-1.61.77-1.88,1.06a.06.06,0,0,1-.08,0,.05.05,0,0,1,0-.08c.49-.52,1.21-1.19,2-1.1,1.08.13,1.19,1.78,1.2,2.1a2.27,2.27,0,0,1-.2,1.12A1.14,1.14,0,0,1,104,69.3Z"/><path class="cls-13" d="M100.14,67.46h0a2.79,2.79,0,0,0-1.84-.17.06.06,0,0,1-.07,0,.06.06,0,0,1,0-.07,3,3,0,0,1,1.75.1,2.38,2.38,0,0,0-1.62-.76.06.06,0,0,1-.06-.06.07.07,0,0,1,.07-.06s1.41.11,1.8,1a.06.06,0,0,1,0,.07Z"/><path class="cls-13" d="M105.86,63.09a4,4,0,0,1-.6-.06,3,3,0,0,1-2-.53.9.9,0,0,1-.26-.67c0-.8,2.39-1.46,2.49-1.49a.06.06,0,1,1,0,.11c-.66.18-2.39.79-2.4,1.38a.78.78,0,0,0,.22.58,2.86,2.86,0,0,0,2,.5c.22.05.84.13,1,0a.19.19,0,0,0,.08-.15,6.45,6.45,0,0,0-.16-1.27.06.06,0,0,1,0-.07s.07,0,.07,0a6.89,6.89,0,0,1,.17,1.31.36.36,0,0,1-.13.24A1,1,0,0,1,105.86,63.09Z"/><path class="cls-13" d="M106.64,60.66a.06.06,0,0,1-.06-.06s0-.05.06-.06a8.35,8.35,0,0,0,1.69-.2.55.55,0,0,0,.34-.24,3.87,3.87,0,0,0,.09-2v-.07c-.06-.74-.25-1-.41-1.11a.34.34,0,0,0-.3,0c-1.15.2-1.87,2.88-1.88,2.91a.06.06,0,1,1-.11,0c0-.12.75-2.78,2-3a.44.44,0,0,1,.39.05,1.53,1.53,0,0,1,.47,1.2v.07c.08,1.06.13,1.7-.1,2a.66.66,0,0,1-.41.29,7.92,7.92,0,0,1-1.72.21Z"/><path class="cls-13" d="M107.94,61.84h-.06a1,1,0,0,1-.66-.52.06.06,0,0,1,0-.08.08.08,0,0,1,.08,0,.81.81,0,0,0,.57.46.55.55,0,0,0,.42-.15,2.21,2.21,0,0,0,.6-.75.49.49,0,0,0-.21-.59.06.06,0,0,1,0-.08s0,0,.08,0a.62.62,0,0,1,.25.73,2.15,2.15,0,0,1-.63.79A.65.65,0,0,1,107.94,61.84Z"/><path class="cls-13" d="M107,62.86a1.29,1.29,0,0,1-.55-.12.06.06,0,0,1,0-.08.05.05,0,0,1,.08,0,1.2,1.2,0,0,0,1,0,.67.67,0,0,0,.28-.82.06.06,0,1,1,.11,0,.78.78,0,0,1-.34,1A1.18,1.18,0,0,1,107,62.86Z"/><path class="cls-13" d="M105.43,60.06l0,0a2.84,2.84,0,0,0-1.9-1.15h0a0,0,0,0,1,0,0s0-.06,0-.06a2.61,2.61,0,0,1,1.66.83,2.19,2.19,0,0,1-.31-1.37.06.06,0,0,1,.07,0,.08.08,0,0,1,0,.07c-.17.67.52,1.69.53,1.7a.06.06,0,0,1,0,.08Z"/></g></g></svg>