<svg id="인쇄" xmlns="http://www.w3.org/2000/svg" viewBox="0 0 181.42 136.06"><defs><style>.cls-1{fill:#231815;}.cls-2,.cls-3{fill:none;stroke:#3f3f3f;stroke-linecap:round;stroke-linejoin:round;}.cls-2{stroke-width:0.4px;}.cls-3{stroke-width:0.25px;}.cls-4{fill:#e67f4f;opacity:0.7;}.cls-5{fill:#29813a;}.cls-6{fill:#241713;}.cls-7{fill:#65868a;}.cls-8{fill:#a2837a;}.cls-8,.cls-9{opacity:0.69;}.cls-9{fill:#b9363a;}</style></defs><path class="cls-1" d="M80.23,106.53a.05.05,0,0,1,0,0,.06.06,0,0,1,0,0s0,0,0,0h0a.17.17,0,0,0,.12,0,.14.14,0,0,0,0-.08s0-.07,0-.1v-1.1s0-.06,0-.09a.11.11,0,0,0,0-.08s-.06,0-.12,0h0a.06.06,0,0,1,0,0,.09.09,0,0,1,0,0,.05.05,0,0,1,0,0H81a1.06,1.06,0,0,1,.48.11.77.77,0,0,1,.34.3.81.81,0,0,1,.13.47.74.74,0,0,1-.09.38.73.73,0,0,1-.22.27,1.37,1.37,0,0,1-.32.16,1.5,1.5,0,0,1-.37,0h-.7Zm.75-.11a.61.61,0,0,0,.36-.1.59.59,0,0,0,.2-.26,1.25,1.25,0,0,0,.06-.4,1,1,0,0,0-.08-.4.71.71,0,0,0-.23-.28.77.77,0,0,0-.38-.1H80.7v1.34a.16.16,0,0,0,.07.15A.37.37,0,0,0,81,106.42Z"/><path class="cls-1" d="M85.56,106.53l0,0s0,0,0,0,0,0,0,0h0a.21.21,0,0,0,.12,0l.06-.08,0-.1.48-1.14s0-.08,0-.1a.1.1,0,0,0-.06,0l-.08,0-.06,0s0,0,0-.05,0,0,0,0h.08a.55.55,0,0,1,.19,0,.29.29,0,0,1,.14.08.56.56,0,0,1,.1.19l.47,1.14a.36.36,0,0,0,0,.09.18.18,0,0,0,.06.09.12.12,0,0,0,.09,0h0s0,0,0,0a.06.06,0,0,1,0,0l0,0h-.64l0,0a.06.06,0,0,1,0,0s0,0,0,0h0c.09,0,.14,0,.14,0a.34.34,0,0,0,0-.16l-.1-.23H86a.57.57,0,0,1-.06.15.39.39,0,0,0,0,.06v0a.63.63,0,0,0,0,.14.06.06,0,0,0,0,.06h.2s0,0,0,0a.06.06,0,0,1,0,0,.05.05,0,0,1,0,0h-.57Zm.53-.68h.57l-.27-.71h0Z"/><path class="cls-1" d="M91.88,106.57a.8.8,0,0,1-.36-.07,1,1,0,0,1-.28-.2.79.79,0,0,1-.18-.29,1,1,0,0,1-.06-.33,1,1,0,0,1,.08-.41.81.81,0,0,1,.21-.3.84.84,0,0,1,.28-.18.89.89,0,0,1,.31-.06.87.87,0,0,1,.37.07,1,1,0,0,1,.28.2,1.05,1.05,0,0,1,.17.29,1,1,0,0,1,.06.34.87.87,0,0,1-.08.4.81.81,0,0,1-.21.3.84.84,0,0,1-.28.18A.89.89,0,0,1,91.88,106.57Zm0-.12a.45.45,0,0,0,.32-.11.73.73,0,0,0,.18-.31,1.29,1.29,0,0,0,.06-.4,1.23,1.23,0,0,0-.06-.39.73.73,0,0,0-.19-.28.42.42,0,0,0-.31-.11.48.48,0,0,0-.32.11.75.75,0,0,0-.18.3,1.35,1.35,0,0,0-.06.41,1.21,1.21,0,0,0,.06.38.59.59,0,0,0,.19.29A.41.41,0,0,0,91.88,106.45Z"/><path class="cls-1" d="M97.48,106.57a.83.83,0,0,1-.36-.07,1,1,0,0,1-.28-.2.79.79,0,0,1-.18-.29,1,1,0,0,1-.06-.33,1,1,0,0,1,.08-.41.81.81,0,0,1,.21-.3.84.84,0,0,1,.28-.18.89.89,0,0,1,.31-.06.87.87,0,0,1,.37.07,1,1,0,0,1,.28.2,1.08,1.08,0,0,1,.18.29,1,1,0,0,1,.06.34,1,1,0,0,1-.08.4,1,1,0,0,1-.22.3.84.84,0,0,1-.28.18A.89.89,0,0,1,97.48,106.57Zm0-.12a.45.45,0,0,0,.32-.11A.73.73,0,0,0,98,106a1.29,1.29,0,0,0,.06-.4,1.23,1.23,0,0,0-.06-.39.73.73,0,0,0-.19-.28.42.42,0,0,0-.31-.11.48.48,0,0,0-.32.11.75.75,0,0,0-.18.3,1.35,1.35,0,0,0-.06.41,1.21,1.21,0,0,0,.06.38.59.59,0,0,0,.19.29A.41.41,0,0,0,97.48,106.45Z"/><path class="cls-1" d="M103.22,106.53h0s0,0,0,0l-.62-1.41h0v1.1a.34.34,0,0,0,0,.1.12.12,0,0,0,0,.08.17.17,0,0,0,.12,0h.05s0,0,0,0a.06.06,0,0,1,0,0l0,0h-.52l0,0a.06.06,0,0,1,0,0s0,0,0,0h0a.17.17,0,0,0,.12,0,.12.12,0,0,0,0-.08.34.34,0,0,0,0-.1v-1.1a.44.44,0,0,0,0-.13l-.06-.06-.11,0,0,0s0,0,0-.05a0,0,0,0,1,0,0h.07a.9.9,0,0,1,.24,0,.37.37,0,0,1,.18.08.46.46,0,0,1,.13.19l.47,1.06h0l.54-1.34h.49a.05.05,0,0,1,0,0s0,0,0,0a.06.06,0,0,1,0,0h0c-.06,0-.1,0-.12,0a.11.11,0,0,0-.05.08s0,.06,0,.09v1.1s0,.07,0,.1a.14.14,0,0,0,.05.08.17.17,0,0,0,.12,0h0s0,0,0,0,0,0,0,0a.05.05,0,0,1,0,0h-.67a.05.05,0,0,1,0,0,.06.06,0,0,1,0,0s0,0,0,0h0a.17.17,0,0,0,.12,0,.14.14,0,0,0,0-.08s0-.07,0-.1v-1.1h0l-.57,1.41,0,0Z"/><rect class="cls-1" x="106.51" y="105.78" width="8.44" height="0.14"/><rect class="cls-1" x="69.16" y="105.78" width="8.44" height="0.14"/><line class="cls-2" x1="114.51" y1="40.17" x2="114.51" y2="33.36"/><line class="cls-3" x1="116.34" y1="36.75" x2="116.34" y2="31.39"/><line class="cls-2" x1="112.87" y1="38.12" x2="112.87" y2="34.94"/><line class="cls-2" x1="66.09" y1="70.41" x2="66.09" y2="78.01"/><line class="cls-2" x1="67.98" y1="73.28" x2="67.98" y2="79.26"/><line class="cls-2" x1="69.87" y1="71.85" x2="69.87" y2="75.39"/><path class="cls-1" d="M65.56,97.79l1.53-.22h.3l1.42.22v.59H65.56Zm0-9.12h1.92v.81h-.18l-1.74-.22Zm1.3,0h.62L67.62,93v5.35h-.75Zm0,0h1.36l3.5,8.61h-.49l3.31-8.61h.78l-3.76,9.71h-.74Zm6.59,9.12,1.75-.22h.31l1.9.22v.59h-4Zm1.25-3.89V88.67h1.38c-.05,1.47-.05,3-.05,4.5v.71c0,1.5,0,3,.05,4.5H74.69C74.73,96.91,74.73,95.41,74.73,93.9Zm.66-5.23h2v.59l-1.9.22h-.15Z"/><path class="cls-1" d="M87,94.09a2.82,2.82,0,0,1-.1.81H81.48v-.61h3.41c.7,0,.86-.33.86-.75A1.58,1.58,0,0,0,84.18,92c-.92,0-2,.78-2,2.86,0,1.83.93,2.81,2.36,2.81a2.46,2.46,0,0,0,2-1l.35.28a3,3,0,0,1-2.79,1.68c-2,0-3.23-1.35-3.23-3.56a3.44,3.44,0,0,1,3.33-3.7A2.6,2.6,0,0,1,87,94.09Z"/><path class="cls-1" d="M91.82,95.33v-.69c0-.8,0-1.24,0-1.82l-1.14-.13v-.51l2-.87.22.14L93,93.26v2.07c0,.9,0,2.4,0,3H91.77C91.8,97.73,91.82,96.23,91.82,95.33Zm-1.07,2.53,1.58-.29h.36l1.58.29v.52H90.75Zm1.69-4.48h.84l-.35.12c.45-1.38,1.34-2.19,2.2-2.19a1.22,1.22,0,0,1,1,.52c0,.69-.27,1.07-.85,1.07a1.34,1.34,0,0,1-.89-.37L94,92.18l.7-.12A3.44,3.44,0,0,0,93,94.35h-.58Z"/><path class="cls-1" d="M101.21,87.65l.2.12-.06,2.06v5.5c0,1,0,2,.05,3h-1.32c0-1,0-2,0-3V89l-1.19-.15v-.51Zm1.33,10.21v.52h-3.6v-.52l1.63-.29h.34Z"/><path class="cls-1" d="M106,95a3.34,3.34,0,1,1,3.33,3.61A3.31,3.31,0,0,1,106,95Zm5.28,0c0-2-.72-3-2-3s-2,1.05-2,3,.69,2.94,2,2.94S111.31,96.92,111.31,95Z"/><path class="cls-1" d="M119,97.82a1.64,1.64,0,0,0,1-.4l.33.39a2.05,2.05,0,0,1-1.7.76A1.49,1.49,0,0,1,117,96.91c0-.36,0-.67,0-1.23V92.26h-1.2v-.63l1.79-.24-.59.49.46-2.36h.88l-.12,2.54v4.69C118.22,97.5,118.54,97.82,119,97.82Zm1.17-6.32v.76h-2.59V91.5Z"/><path class="cls-4" d="M82.13,62.68c-.74.93-1.6,1.74-2.33,2.67a4.64,4.64,0,0,0-1.13,3.34,3,3,0,0,0,1.85,2.39c1.41.81,3.83.26,5.27-.2,3.07-1,5.08-3.35,6.93-5.88a8.3,8.3,0,0,0,1.71-4.65,10.85,10.85,0,0,0-1.33-5s-.56-.77,0-1.07,3.12-1.14,2.85-2.43-1.49-.59-2.16-1.28c-.42-.43-.41-1.33-.63-1.9a3.06,3.06,0,0,0-1.23-1.63s-.56-.31-.39-1.35.72-3.16.47-3.55c-.48-.76-2.82,2.09-3.1,2.43a16.57,16.57,0,0,0-3.25,6.22,14.59,14.59,0,0,0-.5,2.7,20.77,20.77,0,0,1-.92,5.37,14,14,0,0,1-1.79,3.38C82.33,62.42,82.23,62.55,82.13,62.68Z"/><path class="cls-5" d="M103.1,54.73a.22.22,0,0,1-.08,0,.37.37,0,0,1-.16-.09,4.58,4.58,0,0,1-1.83-3c0-.44.13-.85.63-.75a2.87,2.87,0,0,1,1.26.68,2.39,2.39,0,0,1,.49,1.5C103.43,53.34,103.43,54.61,103.1,54.73Z"/><path class="cls-6" d="M103,55.58a.2.2,0,0,1-.11,0,.15.15,0,0,1-.08-.17.09.09,0,0,1,0-.05h0a1.5,1.5,0,0,1,.21-.42l.1-.16.41-.76c.11-.22.23-.44.34-.67l0-.1c.06-.16.15-.35.37-.35h0a.91.91,0,0,1,.41.09.67.67,0,0,1,.32.57h0a.05.05,0,0,1,0,.06h0a2.37,2.37,0,0,0-.55.29,2,2,0,0,0-.34.68.65.65,0,0,1,0,.13,1.1,1.1,0,0,1-.31.58A1.67,1.67,0,0,1,103,55.58Zm-.07-.23h0v0s0,.06,0,.06.61-.18.7-.27a1,1,0,0,0,.28-.52s0-.09,0-.14a2.12,2.12,0,0,1,.36-.72,3.54,3.54,0,0,1,.59-.32.54.54,0,0,0-.26-.41.68.68,0,0,0-.35-.09h0c-.14,0-.19.11-.26.28a.61.61,0,0,0,0,.12l-.35.66c-.13.26-.27.51-.4.76l-.11.17A1.4,1.4,0,0,0,103,55.35Z"/><path class="cls-6" d="M93.15,66.45h0a.05.05,0,0,1,0-.08,4,4,0,0,0,.32-2.53.06.06,0,1,1,.12,0,4.17,4.17,0,0,1-.34,2.62Z"/><path class="cls-7" d="M73.83,65.67a2.45,2.45,0,0,1-.51-.88,2.09,2.09,0,0,1,.91-2.38c.7-.38,2-.11,2,.88a3.29,3.29,0,0,1-.28,1.19c-.2.52-.06,1.14-.62,1.45A1.14,1.14,0,0,1,73.83,65.67Z"/><path class="cls-7" d="M78.59,45.19a3.92,3.92,0,0,1-.85-1.48,3.54,3.54,0,0,1,1.52-4c1.19-.64,3.42-.17,3.35,1.47a6,6,0,0,1-.47,2c-.34.87-.1,1.91-1,2.44A1.94,1.94,0,0,1,78.59,45.19Z"/><path class="cls-7" d="M78.87,60.65a1.11,1.11,0,0,1-.08-1.74c.59-.44,1.4.16,1.78.64a1.17,1.17,0,0,1,.24.86.85.85,0,0,1-.54.68,1.11,1.11,0,0,1-.6,0A2,2,0,0,1,78.87,60.65Z"/><path class="cls-7" d="M97.7,43.57a2.69,2.69,0,0,0-1.32.09c-1,.32-2.08,1.54-1.63,2.66.25.65.93.94,1.5,1.25a7.14,7.14,0,0,1,1.22.77c.28.23.5.59.91.58a1.87,1.87,0,0,0,1.19-.63,3.52,3.52,0,0,0,.41-2.8A2.8,2.8,0,0,0,97.7,43.57Z"/><path class="cls-7" d="M102,45.48a1.08,1.08,0,0,1-.23-1.7c.74-.61,1.43.08,1.55.86s-.36,1.19-1,1A1.11,1.11,0,0,1,102,45.48Z"/><path class="cls-7" d="M111.25,68.43a.89.89,0,0,1,.86-1.13c.79.07.78.87.4,1.4a.66.66,0,0,1-1.18,0A.9.9,0,0,1,111.25,68.43Z"/><path class="cls-7" d="M108.79,55.21l-.06-.1c-.57-1.06-.07-2.76.92-2.86.5,0,1,.57,1.44.91C112.16,54,110,57.19,108.79,55.21Z"/><path class="cls-7" d="M112.61,65.37a1.08,1.08,0,0,1-.24-1.7c.74-.61,1.43.08,1.55.86s-.36,1.19-1,1A.87.87,0,0,1,112.61,65.37Z"/><path class="cls-8" d="M94.2,65.79c-.06-.36-.19-.71-.27-1.14-.37-2,1.9-2.8,3.5-3.06a32.58,32.58,0,0,1,7-.26,23.74,23.74,0,0,1,2.91.31,2.83,2.83,0,0,1,1.75.74c1.35,1.44.31,3.68.27,5.37a6.44,6.44,0,0,0,1.13,3.93,2.42,2.42,0,0,0,.86.79c.34.17.81.13.92.59a.84.84,0,0,1-.22.73,3.91,3.91,0,0,1-1.7.82,26,26,0,0,1-5.56.76c-3.69.23-7.93,0-11.11-2.1-.63-.41-1.73-1.18-1.82-2S92.67,69.61,93,69a13.52,13.52,0,0,0,1.1-2.06A2.05,2.05,0,0,0,94.2,65.79Z"/><path class="cls-9" d="M98,65.72a6.78,6.78,0,0,1-1.06-2.49,6.69,6.69,0,0,1,1.15-6.14,5.24,5.24,0,0,1,4.68-1.62c.47.08.86.39,1.32.51s.79.11,1.18.24a4.12,4.12,0,0,1,2.61,2.6,6.59,6.59,0,0,1-.63,4.35,7.42,7.42,0,0,1-1.91,3,6,6,0,0,1-3.48,1,5.25,5.25,0,0,1-3.12-.74A3.16,3.16,0,0,1,98,65.72Z"/><path class="cls-6" d="M86.56,77a26.33,26.33,0,0,1-2.72-.16c-3.19-.37-5.38-1.31-6.69-2.9a5.91,5.91,0,0,1-1-5.65,11.36,11.36,0,0,1,2.74-3.86c.33-.37.68-.74,1-1.12a14.92,14.92,0,0,0,3.65-12.43,1.61,1.61,0,0,1-1-.35l-.1-.08.13,0a.71.71,0,0,0,.46-.3,1.34,1.34,0,0,1-1-.24l-.11-.07.13,0a1.51,1.51,0,0,0,1-.72,1.79,1.79,0,0,1-.67-.27l-.07,0,.07-.05a6.54,6.54,0,0,0,1.71-2l1.62-2.47c1.19-1.81,2.52-3.62,4.51-4.06l.13,0-.06.12A8.74,8.74,0,0,0,89.13,45a3.1,3.1,0,0,1,2.48,1.7,3.89,3.89,0,0,1,.29,1.22,2.73,2.73,0,0,0,.57,1.6,3.19,3.19,0,0,0,1.44.7,4.75,4.75,0,0,1,.57.18,4.55,4.55,0,0,1,.67.42.47.47,0,0,1,.15.13.48.48,0,0,1,.11.17.84.84,0,0,1,.07.24,1.16,1.16,0,0,1-.25.91,2.69,2.69,0,0,1-1.74.83,6.93,6.93,0,0,1-1.82-.15c-.33-.06-.66-.12-1-.15a.32.32,0,0,0-.36.18c-.07.19,0,.49.37.76a3.52,3.52,0,0,0,.69.36c.61.29,1.38.63,1.56,1.15a.73.73,0,0,1,0,.61.47.47,0,0,1-.06.09,1.81,1.81,0,0,1,.47.44,3.29,3.29,0,0,1,.56,1.5c.06.41.07,1-.36,1.25l-.15.06A3.39,3.39,0,0,1,93,61.24a.68.68,0,0,1-.45.3,6.15,6.15,0,0,1-.18.75,2.86,2.86,0,0,1-.83,1.23l-.07-.08a2.83,2.83,0,0,0,.79-1.18,4.28,4.28,0,0,0,.17-.72h0a.39.39,0,0,1-.29-.25.31.31,0,0,1,0-.31.23.23,0,0,1,.25-.11.21.21,0,0,1,.13.1.91.91,0,0,1,0,.46.54.54,0,0,0,.34-.25,3.17,3.17,0,0,0,.37-2,.53.53,0,0,1-.42-.16.45.45,0,0,1-.09-.38.36.36,0,0,1,.2-.26.11.11,0,0,1,.11,0,.11.11,0,0,1,.08.07,1.85,1.85,0,0,1,.21.6l.11,0c.38-.23.36-.75.31-1.13a3.23,3.23,0,0,0-.54-1.45,1.62,1.62,0,0,0-.47-.43.58.58,0,0,1-.4.1.38.38,0,0,1-.33-.3v-.06h.07a1.1,1.1,0,0,1,.65.12.27.27,0,0,0,.07-.08.68.68,0,0,0,0-.52c-.18-.47-.92-.81-1.51-1.08a5.77,5.77,0,0,1-.72-.37c-.42-.33-.48-.69-.4-.9a.44.44,0,0,1,.48-.26c.33,0,.67.09,1,.15a6.35,6.35,0,0,0,1.79.15,2.52,2.52,0,0,0,1.66-.79,1,1,0,0,0,.22-.82.29.29,0,0,0,0-.09.69.69,0,0,1-.44.11.59.59,0,0,1-.41-.21c-.14-.17-.09-.29,0-.34a.48.48,0,0,1,.35-.13,2.57,2.57,0,0,0-.36-.2c-.18-.07-.37-.12-.57-.18a3.26,3.26,0,0,1-1.49-.73,2.9,2.9,0,0,1-.59-1.67,4.24,4.24,0,0,0-.28-1.18,3,3,0,0,0-2.44-1.64h0v0a8.87,8.87,0,0,1,1.06-4.67c-1.88.48-3.16,2.23-4.31,4l-1.62,2.47a7.06,7.06,0,0,1-1.67,2,1.57,1.57,0,0,0,.63.21h.08l0,.07a1.61,1.61,0,0,1-.94.83,1.28,1.28,0,0,0,.9.12l.11,0,0,.11a.9.9,0,0,1-.49.45,1.46,1.46,0,0,0,.91.25h.05v.05A15.06,15.06,0,0,1,80,63.42c-.33.38-.68.75-1,1.11a11.49,11.49,0,0,0-2.71,3.83,5.81,5.81,0,0,0,1,5.54c1.29,1.56,3.46,2.49,6.62,2.85A17.64,17.64,0,0,0,91,76.32a25.37,25.37,0,0,0,2.55-1,22.71,22.71,0,0,1,3-1.09c.63-.17,1.29-.28,1.93-.39a16.17,16.17,0,0,0,2.55-.57,1.67,1.67,0,0,0,1-.69c.3-.59-.12-1.31-.67-1.76a4.53,4.53,0,0,0-2.51-1,1.5,1.5,0,0,1-.28.51.88.88,0,0,1-.91.32.5.5,0,0,1-.41-.47c0-.23.24-.4.61-.45a4.52,4.52,0,0,1,.9,0,1.11,1.11,0,0,0,0-.7,2.6,2.6,0,0,0-1.91-1.24,3.72,3.72,0,0,0-1.24-.07,1.57,1.57,0,0,1,0,.23.86.86,0,0,1-.57.54.7.7,0,0,1-.62-.11l0,0,0,0a1.66,1.66,0,0,1,1.13-.68,1.14,1.14,0,0,0-.52-.81,2.12,2.12,0,0,0-1.3-.26,1.23,1.23,0,0,0-1,.54,3.35,3.35,0,0,1-.57.54.75.75,0,0,1,.34.63.54.54,0,0,1-.29.43.4.4,0,0,1-.41,0,.36.36,0,0,1-.2-.33,1,1,0,0,1,.36-.73h0a2.14,2.14,0,0,0-1.62.12,31.34,31.34,0,0,0-3.06,1.41c-1.95,1-4,2-6.18,2h0a1.72,1.72,0,0,1-1.58-.66l-.09-.15.16.07a5,5,0,0,0,2.74.34A3,3,0,0,1,81,68.3a4.88,4.88,0,0,1,1-2.69,5.21,5.21,0,0,1,3.88-2.32,3.45,3.45,0,0,1,3.55,2.48,2.76,2.76,0,0,1,.06.69,11,11,0,0,0,1.16-1.31l.87-1.05v.16a11.68,11.68,0,0,1-.36,3.08l-.11,0a10.74,10.74,0,0,0,.36-2.88l-.67.8a10.6,10.6,0,0,1-1.27,1.42,1.87,1.87,0,0,1-.33.82,1.38,1.38,0,0,1-1.59.49h0l0-.11h0a2.29,2.29,0,0,0,.69-.42l.1-.08a8.16,8.16,0,0,0,.88-.67l.1-.09a2.39,2.39,0,0,0,0-.79,3.34,3.34,0,0,0-3.43-2.39,5.19,5.19,0,0,0-3.79,2.27,4.7,4.7,0,0,0-1,2.63,2.85,2.85,0,0,0,1.17,2.44l.12.08-.14,0a5.16,5.16,0,0,1-2.75-.25,1.81,1.81,0,0,0,1.37.45h0c2.18,0,4.19-1,6.13-2a28.46,28.46,0,0,1,3.07-1.42,2.27,2.27,0,0,1,1.71-.12l.07,0,0,0a2.63,2.63,0,0,0,.56-.53,1.32,1.32,0,0,1,1-.57,2.18,2.18,0,0,1,1.36.27,1.24,1.24,0,0,1,.57.89,3.86,3.86,0,0,1,1.27.07,2.7,2.7,0,0,1,2,1.32,1.16,1.16,0,0,1,.06.74,4.73,4.73,0,0,1,2.55,1,1.66,1.66,0,0,1,.7,1.9,1.76,1.76,0,0,1-1.07.75,16.32,16.32,0,0,1-2.56.58c-.63.1-1.29.22-1.92.38a23,23,0,0,0-2.94,1.09,24.82,24.82,0,0,1-2.57,1A15.33,15.33,0,0,1,86.56,77ZM98.41,69.8a4,4,0,0,0-.6,0c-.12,0-.5.09-.52.34s.16.3.33.35a.77.77,0,0,0,.79-.29,1.14,1.14,0,0,0,.25-.44Zm-6.47-2.13a1,1,0,0,0-.36.66.29.29,0,0,0,.15.24.29.29,0,0,0,.3,0,.45.45,0,0,0,.23-.34A.67.67,0,0,0,91.94,67.67Zm2.44.62a.53.53,0,0,0,.48,0,.72.72,0,0,0,.49-.45,1.13,1.13,0,0,0,0-.18A1.51,1.51,0,0,0,94.38,68.29Zm-6.59-.39a1.3,1.3,0,0,0,1.29-.51,1.64,1.64,0,0,0,.28-.63,9.4,9.4,0,0,1-.88.68l-.1.07A4.67,4.67,0,0,1,87.79,67.9ZM92.33,61a.14.14,0,0,0-.11.06.22.22,0,0,0,0,.21.31.31,0,0,0,.21.18h0a.75.75,0,0,0,0-.41s0,0,0,0ZM93,58.49h0a.26.26,0,0,0-.14.19.34.34,0,0,0,.07.28.37.37,0,0,0,.31.11,1.62,1.62,0,0,0-.2-.56Zm-.85-2.63a.25.25,0,0,0,.21.13.55.55,0,0,0,.25,0A1,1,0,0,0,92.16,55.86Zm2.63-5a.34.34,0,0,0-.25.08s0,.11,0,.2a.46.46,0,0,0,.33.16.48.48,0,0,0,.38-.1,0,0,0,0,0,0,0A.38.38,0,0,0,95.2,51a.65.65,0,0,0-.12-.11l-.06,0A.46.46,0,0,0,94.79,50.81Z"/><path class="cls-6" d="M95.62,64.39a1.33,1.33,0,0,1-.72-.32.05.05,0,0,1,0-.08A.06.06,0,0,1,95,64c.38.28.67.36.85.24.43-.27.27-1.62.17-2.11l0-.18a3.82,3.82,0,0,1-.08-.39,8.3,8.3,0,0,1,.53-3.63A4.2,4.2,0,0,1,98,55.83a4.58,4.58,0,0,1,2-.86,3.57,3.57,0,0,1,1.72.15,3.21,3.21,0,0,1,.83.4s0,0,0,0a7.12,7.12,0,0,0,.42-.82,0,0,0,0,1,0,0,2.14,2.14,0,0,0-.63-1.59c-.19-.21-.41-.41-.62-.6l-.54-.51a2.49,2.49,0,0,1-.76-1.43,0,0,0,0,1,0,0s0,0,0,0a6,6,0,0,1,2.22,1.13,2.29,2.29,0,0,1,.74,1.13,2.53,2.53,0,0,1-.12,1.38,7.41,7.41,0,0,1-.64,1.42,3,3,0,0,1,1.08.94.06.06,0,0,1,0,.06.06.06,0,0,1-.06,0,1.44,1.44,0,0,1-.77-.51,2.7,2.7,0,0,0-1.26-.79,3.48,3.48,0,0,0-1.67-.14,4.42,4.42,0,0,0-1.93.83,4.1,4.1,0,0,0-1.57,2A8.19,8.19,0,0,0,96,61.53a2.53,2.53,0,0,0,.07.38c0,.06,0,.12,0,.18s.36,1.85-.23,2.23A.41.41,0,0,1,95.62,64.39Zm7.09-8.75a3,3,0,0,1,.32.3,1.61,1.61,0,0,0,.54.43A2.86,2.86,0,0,0,102.71,55.64Zm-2.17-5.06a2.51,2.51,0,0,0,.72,1.27c.17.18.36.35.53.51a7.34,7.34,0,0,1,.64.61,2.4,2.4,0,0,1,.66,1.45c0-.13.09-.25.13-.37a2.42,2.42,0,0,0,.12-1.32,2.24,2.24,0,0,0-.71-1.08A5.86,5.86,0,0,0,100.54,50.58Z"/><path class="cls-6" d="M104.77,65.71h0a.06.06,0,0,1,0-.08,11.87,11.87,0,0,0,1-1.43c.21-.32.39-.64.55-.94a5.44,5.44,0,0,0,.26-.66,1.92,1.92,0,0,0,0-.86,1.7,1.7,0,0,0-.76-1.16,1.15,1.15,0,0,0-1.27,0l0,0a2,2,0,0,1-.94.49,1.08,1.08,0,0,1-.78-.28.45.45,0,0,1-.13-.36l0-.14a1.66,1.66,0,0,1,1.39-.9l.27,0a2.12,2.12,0,0,0,1.2-.42.93.93,0,0,0,.25-.8,2.59,2.59,0,0,0-.71-1.6,2.84,2.84,0,0,0-.94-.69,8.27,8.27,0,0,0-1.18-.15s-.06,0-.06-.06,0-.06.06-.06l.57,0a3.28,3.28,0,0,0-.9-.11.1.1,0,0,1-.06,0,.08.08,0,0,1,0-.07l.08,0c.5-.14,1-1,1-1a2.57,2.57,0,0,1,.71-.91h0c.38-.16.43-.28.44-.31a.69.69,0,0,0-.19-.19,1.06,1.06,0,0,1,.12.12v0a.08.08,0,0,1,0,0,.71.71,0,0,1-.72-.2l0,.13v0a3.56,3.56,0,0,1-.19.47l-.06.15a4.19,4.19,0,0,1-.39.76c-.22.32-.43.45-.63.38s-.44-.37-.59-.59l-.07-.11-.11-.16a7.21,7.21,0,0,1-.55-.88,7.68,7.68,0,0,1-.39-.93,12.85,12.85,0,0,1-.46-1.8.08.08,0,0,1,.05-.07s.06,0,.07.05a11.05,11.05,0,0,0,.45,1.78,8.29,8.29,0,0,0,.38.92,6.68,6.68,0,0,0,.55.87l.1.15a1,1,0,0,1,.08.11c.14.21.32.49.52.55s.32-.07.5-.34a3.89,3.89,0,0,0,.38-.73l.07-.15c.07-.17.13-.31.18-.46v0c0-.07.06-.18,0-.24a.05.05,0,0,1,0-.07h0a.06.06,0,0,1,.05,0,1,1,0,0,1,1,.4s0,0,0,0,0,.22-.51.43a2.43,2.43,0,0,0-.66.86,3,3,0,0,1-.87,1,4.07,4.07,0,0,1,1.25.32,4.56,4.56,0,0,1,1.44.53,3.43,3.43,0,0,1,1.52,2.22,6.65,6.65,0,0,1,0,2.49,7.38,7.38,0,0,1-.81,2.28,8.15,8.15,0,0,1-1.61,2.38S104.79,65.71,104.77,65.71Zm.46-5.43a1.31,1.31,0,0,1,.67.19,1.75,1.75,0,0,1,.81,1.23,1.73,1.73,0,0,1,0,.64,6.5,6.5,0,0,0,.37-1.33,6.67,6.67,0,0,0,0-2.45,3.38,3.38,0,0,0-1.47-2.14,3.64,3.64,0,0,0-1-.41,2.81,2.81,0,0,1,.6.51A2.75,2.75,0,0,1,106,58.2a1.06,1.06,0,0,1-.3.89,2.18,2.18,0,0,1-1.26.44l-.26,0a1.54,1.54,0,0,0-1.3.82.5.5,0,0,0,0,.12.3.3,0,0,0,.09.26,1,1,0,0,0,.69.24,1.81,1.81,0,0,0,.88-.47h0A1.19,1.19,0,0,1,105.23,60.28Zm-1.14-7.43a.62.62,0,0,0,.57.25A1.21,1.21,0,0,0,104.09,52.85Z"/><path class="cls-6" d="M104.62,67s-.05,0-.05,0a2.49,2.49,0,0,0-1.73-1.7,1.76,1.76,0,0,0-1.38.1,1.41,1.41,0,0,1-.58.27.21.21,0,0,0-.12.07s-.08.06-.12,0a.07.07,0,0,1-.06,0,4,4,0,0,0-1.22-.38,2.3,2.3,0,0,0-1.54.43,0,0,0,0,1,0,0c-.5-.12-.82-.82-.85-.91a8.84,8.84,0,0,1-.81-2.21,7.37,7.37,0,0,1-.24-1.74A7.58,7.58,0,0,1,97,57.48a4.53,4.53,0,0,1,2-1.73,6.06,6.06,0,0,1,2.35-.15c.93.13,1.19-.05,1.19-.05a.05.05,0,0,1,.08,0,.05.05,0,0,1,0,.08s-.29.22-1.27.08a5.71,5.71,0,0,0-2.3.14,4.43,4.43,0,0,0-1.92,1.68A7.45,7.45,0,0,0,96,60.92a7.62,7.62,0,0,0,.23,1.71A8.92,8.92,0,0,0,97,64.8v0s.3.71.75.84a2.33,2.33,0,0,1,1.62-.43,4.38,4.38,0,0,1,1.28.41h0a.39.39,0,0,1,.19-.1,1.31,1.31,0,0,0,.51-.23,1.79,1.79,0,0,1,1.5-.13,2.65,2.65,0,0,1,1.73,1.55c.35-1.92.37-1.91.43-1.9s.06.07.06.1,0,.13.05.15.08,0,.23-.09a.2.2,0,0,1,.22,0c.21.09.33.58.39.9.38-1.35.84-2.83,1.06-2.83h0a.08.08,0,0,1,0,.07.06.06,0,0,1-.06,0,15.87,15.87,0,0,0-1,3s0,0-.06,0a.05.05,0,0,1,0,0c0-.37-.19-1-.36-1.07,0,0-.06,0-.11,0s-.26.15-.35.11l-.07-.06c-.08.4-.24,1.27-.35,1.85a.05.05,0,0,1-.05,0Z"/><path class="cls-6" d="M74.73,66.16a1.38,1.38,0,0,1-1-.45h0a2.39,2.39,0,0,1-.51-.91,2.17,2.17,0,0,1,.93-2.45,1.73,1.73,0,0,1,1.61.07.92.92,0,0,1,.47.87A3.49,3.49,0,0,1,76,64.5a1.89,1.89,0,0,0-.12.51,1.2,1.2,0,0,1-.53,1A1.29,1.29,0,0,1,74.73,66.16Zm-.86-.53a1.08,1.08,0,0,0,1.42.25c.36-.2.41-.53.47-.89a2.56,2.56,0,0,1,.13-.53,3.56,3.56,0,0,0,.28-1.18.85.85,0,0,0-.42-.77,1.6,1.6,0,0,0-1.49,0,2,2,0,0,0-.88,2.31,2.22,2.22,0,0,0,.49.86Z"/><path class="cls-6" d="M79.49,46a2.23,2.23,0,0,1-1.55-.75h0a4,4,0,0,1-.86-1.5,3.6,3.6,0,0,1,1.55-4.06,2.85,2.85,0,0,1,2.66.1,1.57,1.57,0,0,1,.78,1.43,6.14,6.14,0,0,1-.48,2,4.41,4.41,0,0,0-.21.87,1.94,1.94,0,0,1-.86,1.6A2,2,0,0,1,79.49,46ZM78,45.15a1.89,1.89,0,0,0,2.44.44,1.84,1.84,0,0,0,.8-1.52,4.6,4.6,0,0,1,.21-.89,6,6,0,0,0,.47-2,1.43,1.43,0,0,0-.72-1.32,2.75,2.75,0,0,0-2.54-.1,3.47,3.47,0,0,0-1.5,3.92A3.91,3.91,0,0,0,78,45.15Z"/><path class="cls-6" d="M79.58,61.52a1.63,1.63,0,0,1-.36-.05,2,2,0,0,1-.83-.44A1.42,1.42,0,0,1,77.91,60a1,1,0,0,1,.4-.75c.63-.47,1.47.15,1.86.65a1.22,1.22,0,0,1,.26.9.9.9,0,0,1-.58.73A1.26,1.26,0,0,1,79.58,61.52Zm-.76-2.37a.72.72,0,0,0-.44.14A.87.87,0,0,0,78,60a1.32,1.32,0,0,0,.45,1h0a1.75,1.75,0,0,0,.77.41,1.12,1.12,0,0,0,.57,0,.81.81,0,0,0,.51-.64,1.14,1.14,0,0,0-.24-.81A1.88,1.88,0,0,0,78.82,59.15Z"/><path class="cls-6" d="M98.36,49a1.07,1.07,0,0,1-.73-.41l-.2-.19a7.32,7.32,0,0,0-1.21-.76l-.18-.1a2.56,2.56,0,0,1-1.35-1.18A1.65,1.65,0,0,1,94.77,45a2.86,2.86,0,0,1,1.59-1.39,2.91,2.91,0,0,1,1.35-.09h0a2.88,2.88,0,0,1,2.33,2,3.57,3.57,0,0,1-.43,2.85,2,2,0,0,1-1.23.65Zm-1.14-5.4a2.93,2.93,0,0,0-.83.13A2.67,2.67,0,0,0,94.88,45a1.55,1.55,0,0,0-.08,1.26,2.46,2.46,0,0,0,1.29,1.12l.18.09a7.62,7.62,0,0,1,1.23.78,2.09,2.09,0,0,1,.22.2.93.93,0,0,0,.64.37h0a1.76,1.76,0,0,0,1.14-.61,3.47,3.47,0,0,0,.41-2.74,2.79,2.79,0,0,0-2.24-1.89h0A3.73,3.73,0,0,0,97.22,43.58Z"/><path class="cls-6" d="M101.94,45.94a1.25,1.25,0,0,1-.32,0,1,1,0,0,1-.28-.14h0a1.34,1.34,0,0,1-.59-1,.93.93,0,0,1,.35-.79.84.84,0,0,1,.88-.19,1.37,1.37,0,0,1,.76,1.09,1,1,0,0,1-.28.91A.8.8,0,0,1,101.94,45.94Zm-.54-.29a.91.91,0,0,0,.26.13.73.73,0,0,0,.72-.11.86.86,0,0,0,.25-.8,1.28,1.28,0,0,0-.69-1,.74.74,0,0,0-.77.17.82.82,0,0,0-.3.7,1.17,1.17,0,0,0,.53.91Z"/><path class="cls-6" d="M111.73,68.78h0a.71.71,0,0,1-.57-.42,1.47,1.47,0,0,1-.08-.25h0a1.08,1.08,0,0,1,.25-.93.78.78,0,0,1,.67-.27.73.73,0,0,1,.64.41,1.16,1.16,0,0,1-.2,1.09A.85.85,0,0,1,111.73,68.78Zm-.59-.69a.83.83,0,0,0,.08.22.57.57,0,0,0,.47.35.7.7,0,0,0,.61-.32,1,1,0,0,0,.18-1,.59.59,0,0,0-.54-.34.66.66,0,0,0-.57.22,1,1,0,0,0-.23.84Z"/><path class="cls-6" d="M109.56,55.58a1.16,1.16,0,0,1-1-.66h0l-.06-.11a2.48,2.48,0,0,1,0-2.22,1.21,1.21,0,0,1,.93-.72c.4,0,.8.32,1.15.64.12.1.22.2.33.28a1.09,1.09,0,0,1,.25,1.18,2.19,2.19,0,0,1-1.5,1.6Zm-.89-.72a1,1,0,0,0,1,.6,2.15,2.15,0,0,0,1.41-1.52,1,1,0,0,0-.21-1.06,2.86,2.86,0,0,1-.33-.29c-.34-.3-.71-.65-1.07-.61a1.15,1.15,0,0,0-.84.66,2.4,2.4,0,0,0,0,2.12l.06.1Z"/><path class="cls-6" d="M113,65.29a1.25,1.25,0,0,1-.32-.05,1.11,1.11,0,0,1-.29-.14,1.34,1.34,0,0,1-.59-1,1,1,0,0,1,.35-.79.86.86,0,0,1,.89-.19,1.39,1.39,0,0,1,.76,1.09,1,1,0,0,1-.29.91A.78.78,0,0,1,113,65.29Zm-.24-2.12a.89.89,0,0,0-.54.22.84.84,0,0,0-.3.7,1.22,1.22,0,0,0,.53.91h0a1.05,1.05,0,0,0,.26.13.74.74,0,0,0,.73-.11.88.88,0,0,0,.24-.8,1.25,1.25,0,0,0-.68-1A.69.69,0,0,0,112.78,63.17Z"/><path class="cls-6" d="M93.39,65.09a1.67,1.67,0,0,1,0-1.51C94,62.43,96,62.06,96,62l0,.11s-2,.39-2.54,1.49a1.55,1.55,0,0,0,0,1.41Z"/><path class="cls-6" d="M100.5,66.49c-3.07,0-4.88-.54-5.37-1.61s.52-2.22.56-2.26a.06.06,0,0,1,.09.07s-1,1.15-.54,2.14,2.34,1.57,5.39,1.55c3.29,0,5.4-.6,6.28-1.74a2.25,2.25,0,0,0,.32-2,.86.86,0,0,0,0-.13.06.06,0,0,1,.06-.06.06.06,0,0,1,.06.05.89.89,0,0,0,0,.11,2.38,2.38,0,0,1-.34,2.15c-.9,1.17-3,1.77-6.37,1.78Z"/><path class="cls-6" d="M100.42,67.68c-.26,0-.51,0-.75,0a.06.06,0,0,1-.06-.06.06.06,0,0,1,.06,0h0a16.78,16.78,0,0,0,9.13-2.34c.64-.38,1-.79.91-1.21-.1-1.11-2.45-2-2.47-2a.06.06,0,0,1,0-.08.05.05,0,0,1,.07,0c.1,0,2.44,1,2.54,2.13.05.47-.28.92-1,1.32A17,17,0,0,1,100.42,67.68Z"/><path class="cls-6" d="M111.83,74a.05.05,0,0,1,0,0c-.13-.16-.29-.33-.47-.54a9.3,9.3,0,0,1-2.27-3.61c-.48-1.61.19-4.17.64-5.55,0,0,0-.08,0-.09s.05,0,.07,0a.06.06,0,0,1,0,.07.23.23,0,0,0,0,.1c-.44,1.37-1.11,3.9-.64,5.48a9.44,9.44,0,0,0,2.24,3.57q.28.3.48.54a.06.06,0,0,1,0,.08Z"/></svg>