<svg xmlns="http://www.w3.org/2000/svg" viewBox="0 0 181.42 136.06"><defs><style>.cls-1{isolation:isolate;}.cls-2{fill:#231815;}.cls-3,.cls-4{fill:none;stroke:#3f3f3f;stroke-linecap:round;stroke-linejoin:round;}.cls-3{stroke-width:0.4px;}.cls-4{stroke-width:0.25px;}.cls-5{fill:#c5daa1;mix-blend-mode:multiply;opacity:0.22;}.cls-6{fill:#c2daae;opacity:0.5;}.cls-7{fill:#96bfc1;}.cls-7,.cls-8{opacity:0.3;}.cls-8{fill:#727272;}.cls-9{fill:#241713;}</style></defs><g class="cls-1"><g id="인쇄"><path class="cls-2" d="M80.23,106.53a.05.05,0,0,1,0,0,.06.06,0,0,1,0,0s0,0,0,0h0a.17.17,0,0,0,.12,0,.14.14,0,0,0,0-.08s0-.07,0-.1v-1.1s0-.06,0-.09a.11.11,0,0,0,0-.08s-.06,0-.12,0h0a.06.06,0,0,1,0,0,.09.09,0,0,1,0,0,.05.05,0,0,1,0,0H81a1.06,1.06,0,0,1,.48.11.77.77,0,0,1,.34.3.81.81,0,0,1,.13.47.74.74,0,0,1-.09.38.73.73,0,0,1-.22.27,1.37,1.37,0,0,1-.32.16,1.5,1.5,0,0,1-.37,0h-.7Zm.75-.11a.61.61,0,0,0,.36-.1.59.59,0,0,0,.2-.26,1.25,1.25,0,0,0,.06-.4,1,1,0,0,0-.08-.4.71.71,0,0,0-.23-.28.77.77,0,0,0-.38-.1H80.7v1.34a.16.16,0,0,0,.07.15A.37.37,0,0,0,81,106.42Z"/><path class="cls-2" d="M85.56,106.53l0,0s0,0,0,0,0,0,0,0h0a.21.21,0,0,0,.12,0l.06-.08,0-.1.48-1.14s0-.08,0-.1a.1.1,0,0,0-.06,0l-.08,0-.06,0s0,0,0-.05,0,0,0,0h.08a.55.55,0,0,1,.19,0,.29.29,0,0,1,.14.08.56.56,0,0,1,.1.19l.47,1.14a.36.36,0,0,0,0,.09.18.18,0,0,0,.06.09.12.12,0,0,0,.09,0h0s0,0,0,0a.06.06,0,0,1,0,0l0,0h-.64l0,0a.06.06,0,0,1,0,0s0,0,0,0h0c.09,0,.14,0,.14,0a.34.34,0,0,0,0-.16l-.1-.23H86a.57.57,0,0,1-.06.15.39.39,0,0,0,0,.06v0a.63.63,0,0,0,0,.14.06.06,0,0,0,0,.06h.2s0,0,0,0a.06.06,0,0,1,0,0,.05.05,0,0,1,0,0h-.57Zm.53-.68h.57l-.27-.71h0Z"/><path class="cls-2" d="M91.88,106.57a.8.8,0,0,1-.36-.07,1,1,0,0,1-.28-.2.79.79,0,0,1-.18-.29,1,1,0,0,1-.06-.33,1,1,0,0,1,.08-.41.81.81,0,0,1,.21-.3.84.84,0,0,1,.28-.18.89.89,0,0,1,.31-.06.87.87,0,0,1,.37.07,1,1,0,0,1,.28.2,1.05,1.05,0,0,1,.17.29,1,1,0,0,1,.06.34.87.87,0,0,1-.08.4.81.81,0,0,1-.21.3.84.84,0,0,1-.28.18A.89.89,0,0,1,91.88,106.57Zm0-.12a.45.45,0,0,0,.32-.11.73.73,0,0,0,.18-.31,1.29,1.29,0,0,0,.06-.4,1.23,1.23,0,0,0-.06-.39.73.73,0,0,0-.19-.28.42.42,0,0,0-.31-.11.48.48,0,0,0-.32.11.75.75,0,0,0-.18.3,1.35,1.35,0,0,0-.06.41,1.21,1.21,0,0,0,.06.38.59.59,0,0,0,.19.29A.41.41,0,0,0,91.88,106.45Z"/><path class="cls-2" d="M97.48,106.57a.83.83,0,0,1-.36-.07,1,1,0,0,1-.28-.2.79.79,0,0,1-.18-.29,1,1,0,0,1-.06-.33,1,1,0,0,1,.08-.41.81.81,0,0,1,.21-.3.84.84,0,0,1,.28-.18.89.89,0,0,1,.31-.06.87.87,0,0,1,.37.07,1,1,0,0,1,.28.2,1.08,1.08,0,0,1,.18.29,1,1,0,0,1,.06.34,1,1,0,0,1-.08.4,1,1,0,0,1-.22.3.84.84,0,0,1-.28.18A.89.89,0,0,1,97.48,106.57Zm0-.12a.45.45,0,0,0,.32-.11A.73.73,0,0,0,98,106a1.29,1.29,0,0,0,.06-.4,1.23,1.23,0,0,0-.06-.39.73.73,0,0,0-.19-.28.42.42,0,0,0-.31-.11.48.48,0,0,0-.32.11.75.75,0,0,0-.18.3,1.35,1.35,0,0,0-.06.41,1.21,1.21,0,0,0,.06.38.59.59,0,0,0,.19.29A.41.41,0,0,0,97.48,106.45Z"/><path class="cls-2" d="M103.22,106.53h0s0,0,0,0l-.62-1.41h0v1.1a.34.34,0,0,0,0,.1.12.12,0,0,0,0,.08.17.17,0,0,0,.12,0h.05s0,0,0,0a.06.06,0,0,1,0,0l0,0h-.52l0,0a.06.06,0,0,1,0,0s0,0,0,0h0a.17.17,0,0,0,.12,0,.12.12,0,0,0,0-.08.34.34,0,0,0,0-.1v-1.1a.44.44,0,0,0,0-.13l-.06-.06-.11,0,0,0s0,0,0-.05a0,0,0,0,1,0,0h.07a.9.9,0,0,1,.24,0,.37.37,0,0,1,.18.08.46.46,0,0,1,.13.19l.47,1.06h0l.54-1.34h.49a.05.05,0,0,1,0,0s0,0,0,0a.06.06,0,0,1,0,0h0c-.06,0-.1,0-.12,0a.11.11,0,0,0-.05.08s0,.06,0,.09v1.1s0,.07,0,.1a.14.14,0,0,0,.05.08.17.17,0,0,0,.12,0h0s0,0,0,0,0,0,0,0a.05.05,0,0,1,0,0h-.67a.05.05,0,0,1,0,0,.06.06,0,0,1,0,0s0,0,0,0h0a.17.17,0,0,0,.12,0,.14.14,0,0,0,0-.08s0-.07,0-.1v-1.1h0l-.57,1.41,0,0Z"/><rect class="cls-2" x="106.51" y="105.78" width="8.44" height="0.14"/><rect class="cls-2" x="69.16" y="105.78" width="8.44" height="0.14"/><line class="cls-3" x1="114.51" y1="40.17" x2="114.51" y2="33.36"/><line class="cls-4" x1="116.34" y1="36.75" x2="116.34" y2="31.39"/><line class="cls-3" x1="112.87" y1="38.12" x2="112.87" y2="34.94"/><line class="cls-3" x1="66.09" y1="70.41" x2="66.09" y2="78.01"/><line class="cls-3" x1="67.98" y1="73.28" x2="67.98" y2="79.26"/><line class="cls-3" x1="69.87" y1="71.85" x2="69.87" y2="75.39"/><path class="cls-2" d="M31.86,97.79l1.53-.22h.3l1.42.22v.59H31.86Zm0-9.12h1.93v.81h-.18l-1.75-.22Zm1.31,0h.62L33.92,93v5.35h-.75Zm0,0h1.36l3.5,8.61h-.5l3.32-8.61h.78l-3.76,9.71h-.74Zm6.59,9.12,1.75-.22h.31l1.9.22v.59h-4ZM41,93.9V88.67h1.39c-.05,1.47-.05,3-.05,4.5v.71c0,1.5,0,3,.05,4.5H41C41,96.91,41,95.41,41,93.9Zm.66-5.23h2v.59l-1.89.22h-.15Z"/><path class="cls-2" d="M45.11,95a3.34,3.34,0,1,1,3.33,3.61A3.32,3.32,0,0,1,45.11,95Zm5.29,0c0-2-.72-3-2-3s-2,1.05-2,3,.7,2.94,2,2.94S50.4,96.92,50.4,95Z"/><path class="cls-2" d="M55.22,95.82c0,1.27.37,1.71,1.15,1.71a3.15,3.15,0,0,0,2.19-1.09h.32v.75h-.75l.51-.23a3.43,3.43,0,0,1-2.77,1.61C54.71,98.57,54,97.88,54,96l0-3.84.31.29L53,92.12v-.51l2.14-.21.15.15-.07,2ZM58.6,98.5l-.2-1.7,0-4.68.32.29-1.35-.29v-.51l2.11-.21.15.15,0,2V98l-.39-.38,1.38.29v.52Z"/><path class="cls-2" d="M63.11,98.38c0-.65,0-2.15,0-3v-.69c0-.79,0-1.24,0-1.82L62,92.69v-.51l2-.87.22.14.17,1.68v2.2c0,.9,0,2.4,0,3Zm2.31-.52v.52H62.05v-.52l1.58-.29H64ZM68.79,94v1.35c0,.93,0,2.4,0,3H67.52c0-.65,0-2.12,0-3V94.1c0-1.33-.34-1.76-1.19-1.76a3.14,3.14,0,0,0-2.13,1h-.32v-.67h.76l-.62.27a3.86,3.86,0,0,1,2.87-1.64C68.18,91.31,68.79,92.08,68.79,94Zm-.41,3.59,1.45.29v.52H66.46v-.52L68,97.57Z"/><path class="cls-2" d="M73.92,97.82a1.64,1.64,0,0,0,1-.4l.33.39a2.05,2.05,0,0,1-1.7.76,1.49,1.49,0,0,1-1.66-1.66c0-.36,0-.67,0-1.23V92.26h-1.2v-.63l1.79-.24-.59.49.46-2.36h.88l-.11,2.54v4.69C73.12,97.5,73.43,97.82,73.92,97.82Zm1.17-6.32v.76H72.5V91.5Z"/><path class="cls-2" d="M78.69,94.57A15.47,15.47,0,0,1,81,94v.52a15,15,0,0,0-2,.58c-1.26.5-1.43,1-1.43,1.48a1,1,0,0,0,1.16,1.08c.5,0,.78-.19,1.67-.82l.31-.23.2.29-.43.44c-.86.86-1.35,1.27-2.25,1.27a1.77,1.77,0,0,1-1.94-1.81C76.29,95.93,76.73,95.27,78.69,94.57Zm1.64,2.49V93.73c0-1.42-.4-1.77-1.35-1.77a3.53,3.53,0,0,0-1.31.26l.6-.46L77.91,93c-.13.45-.36.69-.76.69a.61.61,0,0,1-.67-.59c.26-1.11,1.34-1.79,2.83-1.79s2.24.68,2.24,2.52v3.08c0,.64.2.86.53.86a.69.69,0,0,0,.56-.32l.29.32a1.38,1.38,0,0,1-1.26.76A1.33,1.33,0,0,1,80.33,97.06Z"/><path class="cls-2" d="M85,98.38c0-.65,0-2.15,0-3v-.68c0-.8,0-1.25,0-1.83l-1.17-.13v-.51L86,91.31l.22.14-.05,2v1.91c0,.9,0,2.4.05,3Zm2.28-.52v.52H83.89v-.52l1.58-.29h.33Zm-2.63-9.09a1,1,0,1,1,1,.93A.93.93,0,0,1,84.62,88.77Z"/><path class="cls-2" d="M89.71,98.38c0-.65,0-2.15,0-3v-.69c0-.79,0-1.24,0-1.82l-1.14-.13v-.51l2-.87.22.14L91,93.13v2.2c0,.9,0,2.4,0,3ZM92,97.86v.52H88.66v-.52l1.58-.29h.33ZM95.39,94v1.35c0,.93,0,2.4,0,3H94.12c0-.65,0-2.12,0-3V94.1c0-1.33-.34-1.76-1.19-1.76a3.16,3.16,0,0,0-2.13,1h-.31v-.67h.75l-.62.27a3.86,3.86,0,0,1,2.87-1.64C94.78,91.31,95.39,92.08,95.39,94ZM95,97.57l1.45.29v.52H93.07v-.52l1.58-.29Z"/><path class="cls-2" d="M101.54,97.79l1.53-.22h.3l1.42.22v.59h-3.25Zm0-9.12h1.93v.81h-.18l-1.75-.22Zm1.31,0h.62L103.6,93v5.35h-.75Zm0,0h1.35l3.51,8.61h-.5l3.32-8.61h.78l-3.76,9.71h-.74Zm6.59,9.12,1.74-.22h.32l1.9.22v.59h-4Zm1.25-3.89V88.67h1.39c0,1.47,0,3,0,4.5v.71c0,1.5,0,3,0,4.5h-1.43C110.71,96.91,110.71,95.41,110.71,93.9Zm.66-5.23h2v.59l-1.89.22h-.15Z"/><path class="cls-2" d="M120.83,94.09a2.77,2.77,0,0,1-.11.81h-5.37v-.61h3.41c.7,0,.86-.33.86-.75A1.58,1.58,0,0,0,118.05,92c-.91,0-2,.78-2,2.86,0,1.83.93,2.81,2.36,2.81a2.46,2.46,0,0,0,2-1l.35.28A3,3,0,0,1,118,98.57c-2,0-3.23-1.35-3.23-3.56a3.44,3.44,0,0,1,3.33-3.7A2.61,2.61,0,0,1,120.83,94.09Z"/><path class="cls-2" d="M124.82,94.57a15.67,15.67,0,0,1,2.25-.61v.52a14.37,14.37,0,0,0-1.94.58c-1.27.5-1.43,1-1.43,1.48a1,1,0,0,0,1.16,1.08c.49,0,.78-.19,1.67-.82l.3-.23.2.29-.43.44c-.86.86-1.35,1.27-2.25,1.27a1.77,1.77,0,0,1-1.94-1.81C122.41,95.93,122.85,95.27,124.82,94.57Zm1.63,2.49V93.73c0-1.42-.39-1.77-1.35-1.77a3.53,3.53,0,0,0-1.31.26l.6-.46L124,93c-.12.45-.35.69-.76.69a.62.62,0,0,1-.67-.59,2.64,2.64,0,0,1,2.83-1.79c1.52,0,2.25.68,2.25,2.52v3.08c0,.64.19.86.52.86a.69.69,0,0,0,.56-.32l.3.32a1.39,1.39,0,0,1-1.27.76A1.33,1.33,0,0,1,126.45,97.06Z"/><path class="cls-2" d="M133.48,97.75c.74,0,1.24-.33,1.9-1.18l.13.38a2.59,2.59,0,0,1-2.39,1.62c-1.77,0-3-1.45-3-3.57s1.32-3.69,3.1-3.69a2.62,2.62,0,0,1,2.3,1.49l-.14.37a2.83,2.83,0,0,0-1.95-1c-1.08,0-2,.87-2,2.84S132.32,97.75,133.48,97.75Zm4,.11v.52l-2.26.15-.15-1.47V92.77l.05-.18V89l-1.23-.15v-.51l2.26-.66.21.12-.06,2.06v8.55l-.27-.76Z"/><path class="cls-2" d="M138.75,95a3.34,3.34,0,1,1,3.33,3.61A3.32,3.32,0,0,1,138.75,95ZM144,95c0-2-.72-3-2-3s-2,1.05-2,3,.7,2.94,2,2.94S144,96.92,144,95Z"/><path class="cls-2" d="M147.84,92.3l-1.42-.25V91.5h3.31v.55l-1.57.25Zm4.65-.8,2.12,5.64h-.32L156,91.5h.82l-2.37,7h-.54c-1.4-3.57-1.78-4.76-2.13-5.9h.52l-2.19,5.91h-.54l-2.6-7h1.37l1.91,5.64H150L152,91.5Zm-1.84.55V91.5h3.21v.55l-1.38.25h-.31Zm5.4.25-1.34-.25V91.5h2.66v.55l-1,.25Z"/><path class="cls-5" d="M82.83,74.1c.28-.34.62-.66.93-1S84.55,72.35,85,72a17.69,17.69,0,0,1,4-2.55,15.79,15.79,0,0,1,3.74-1.24c4.19-.84,7.83,1.59,9.8,3.2a15.57,15.57,0,0,1,1.84,1.66c.47.52,1.1,1.26.88,1.85s-.9.78-1.69,1a41.87,41.87,0,0,1-4.84.56c-1.75.16-3.49.32-5.25.44a39,39,0,0,1-7.87-.09c-1.61-.23-3.33-.62-3.21-1.65A2.12,2.12,0,0,1,82.83,74.1Z"/><path class="cls-6" d="M93.88,57a12.29,12.29,0,0,1,4.49-7.76,20.76,20.76,0,0,1,3.32-2.5,8.88,8.88,0,0,1,2-.93c.55-.15,1.7-.39,1.94.34a3.76,3.76,0,0,1-.6,2.39,15.08,15.08,0,0,1-2.91,3.56,26.09,26.09,0,0,1-4.93,4.15A3.92,3.92,0,0,1,93.88,57Z"/><path class="cls-6" d="M95.33,56.71a4.75,4.75,0,0,1,.74-1.14,10.67,10.67,0,0,1,2.87-2.44A15.5,15.5,0,0,1,104.55,51a10.63,10.63,0,0,1,6.25,1l.2.11c.43.22.06.59-.23.75l-2.19,1.24c-1,.54-1.91,1.08-2.91,1.55a14.08,14.08,0,0,1-3.11,1l-.2,0a28.86,28.86,0,0,1-6.75.55h0a.35.35,0,0,1-.3-.11C95.17,57,95.28,56.84,95.33,56.71Z"/><path class="cls-6" d="M95.9,56.47a14.71,14.71,0,0,1,8-1.25,16.88,16.88,0,0,1,4.51,1c.54.21,1.08.43,1.59.69.35.18,1.16.51,1.06,1a.41.41,0,0,1-.21.26A12.1,12.1,0,0,1,105.15,60a15.42,15.42,0,0,1-6.44-1.46A33.29,33.29,0,0,1,95.41,57l0-.05s0-.07,0-.1A2.11,2.11,0,0,1,95.9,56.47Z"/><path class="cls-6" d="M88.6,59.08a6.56,6.56,0,0,1,.51-1.19c.26-.47.62-1.19,1.16-1.39a7,7,0,0,1-.35,1.34c-.18.54-.42,1.06-.61,1.6-.09.25-.27.86-.62.83a.25.25,0,0,1-.18-.14A1.73,1.73,0,0,1,88.6,59.08Z"/><path class="cls-6" d="M86.14,62.36a8.41,8.41,0,0,1-.21-1.22,17.09,17.09,0,0,1-.08-2.86,10.64,10.64,0,0,1,.61-2.9,7.18,7.18,0,0,1,1.59-2.72s.18.66.2.74a4.14,4.14,0,0,1,.06.79,8.61,8.61,0,0,1-.09,1L88,57.1a63.63,63.63,0,0,0-.53,6.47,5.55,5.55,0,0,0,.07,1.63,3.72,3.72,0,0,1-.38-.64l-.42-.77a9.47,9.47,0,0,1-.56-1.26C86.17,62.47,86.16,62.41,86.14,62.36Z"/><path class="cls-6" d="M79.66,56.28c-.09-.24,0-.33.27-.32a2,2,0,0,1,1,.42,9.52,9.52,0,0,1,1.89,1.86,24.67,24.67,0,0,0,2,2,2.42,2.42,0,0,1,.61.74.16.16,0,0,1,0,.16c-.14.28-1.33-.28-1.54-.38a6.26,6.26,0,0,1-1.41-.93,15,15,0,0,1-2.16-2.34,4.72,4.72,0,0,1-.61-1.18Z"/><path class="cls-6" d="M91.12,72.07a20.81,20.81,0,0,1-2.55-7.33c-.25-3.41.79-.49.79-.49S91.37,69.53,91.12,72.07Z"/><path class="cls-6" d="M79.12,60.47s5,.47,6.74,2.6a25.15,25.15,0,0,1,2,3,18.86,18.86,0,0,1,1.71,3.31,3.92,3.92,0,0,1-.7-.44l-.9-.71-2.17-1.75c-1.31-1.08-2.73-2-4-3.08A18.41,18.41,0,0,1,80.22,62a7.56,7.56,0,0,1-.59-.68C79.55,61.22,79.18,60.48,79.12,60.47Z"/><path class="cls-6" d="M89.77,70.43c-.07-.11-.38-.21-.5-.28l-.56-.3c-.38-.2-.76-.41-1.13-.63a11.86,11.86,0,0,1-1.21-.78,3.78,3.78,0,0,1-.56-.5c-.08-.09-.47-.59-.16-.63s.51.21.68.31a18.91,18.91,0,0,1,2,1.36A6.65,6.65,0,0,1,89.77,70.43Z"/><path class="cls-6" d="M84.05,47.67l-.52-.54a39.92,39.92,0,0,1-2.71-3.23l-.39-.54a3.12,3.12,0,0,1-.7-1.45,27.4,27.4,0,0,1,4-.09A8.13,8.13,0,0,1,87,42.6a6.39,6.39,0,0,1,2.47,2.63,24.36,24.36,0,0,1,1.72,3.83h0a1.49,1.49,0,0,1,.09.86c-.15.52-.7.58-1.16.55a9.38,9.38,0,0,1-3.52-.89A9.86,9.86,0,0,1,84.05,47.67Z"/><path class="cls-6" d="M90.08,48.51A14,14,0,0,1,91,42a5.44,5.44,0,0,1,.89-1.55,1.32,1.32,0,0,1,.67-.42c.87-.2,1.64.47,2.2,1.05a20.4,20.4,0,0,1,1.41,1.67c.38.51.8,1,.59,1.69a2.92,2.92,0,0,1-.65,1A40,40,0,0,1,93,49.33c-.47.42-1.18,1-1.87.87a1.13,1.13,0,0,1-.72-.55A2.38,2.38,0,0,1,90.08,48.51Z"/><path class="cls-7" d="M78.21,56.67c-.37-.68.41-2,.67-2.63a9.57,9.57,0,0,1,2.66-3.61,1.24,1.24,0,0,1,.39-.25c.91-.33.6-.7-.19-.93s-1.42.13-2.16-.06a3.22,3.22,0,0,1-2-1.93c-.23-.45-.44-.83-.46-.13a11.81,11.81,0,0,0,.34,2.75l-5.68-.71s.5,1.1.6,1.22a3.09,3.09,0,0,0,1,.74,11.08,11.08,0,0,0,2.66.75,7.63,7.63,0,0,1,1.88.34c.64.39,0,1.47-.32,1.92a.57.57,0,0,1-.12.15,1,1,0,0,1-.18.06,2.28,2.28,0,0,0-1.47,1.88,1.23,1.23,0,0,0,.29,1.06.84.84,0,0,1,.29-.71C77,56.18,77.69,56.48,78.21,56.67Z"/><path class="cls-8" d="M96.06,75.56s-1-.63.44-1.57A4.34,4.34,0,0,1,98,73.33a3.58,3.58,0,0,1,1.3.09c.14,0,.4-.13.55-.15a1.82,1.82,0,0,1,1.65.39,1.25,1.25,0,0,1-.28,1.74,1.93,1.93,0,0,1-.53.17,11.62,11.62,0,0,1-2.82.25,11.11,11.11,0,0,1-1.16-.08A1.41,1.41,0,0,1,96.06,75.56Z"/><path class="cls-8" d="M88.41,74.4s.12-.6,1.65-.76,1.8-.25,2.48.38.11,1.3-.47,1.5a9.93,9.93,0,0,1-3.59-.18C88.2,75.12,88.25,74.78,88.41,74.4Z"/><path class="cls-8" d="M84.19,72.85c-.52-1.57,2.38-1.74,3.31-1.76a.58.58,0,0,1,.23,0,.79.79,0,0,1,.23.25c.28.39.78.7.44,1.24-.49.78-2.56.61-3.36.56C84.75,73.15,84.31,73.2,84.19,72.85Z"/><path class="cls-8" d="M99,71.49a.68.68,0,0,1,.5-.58,3.43,3.43,0,0,1,1.85-.32c.56.15.84-.13.81.43s-.2,1-1.07.85-1,.1-1.37,0A3.06,3.06,0,0,1,99,71.49Z"/><path class="cls-8" d="M92.4,72.68a.16.16,0,0,0,0-.07c-.16-.33-.33-.62.1-.77s.87-.52,1.46-.32c.37.12,1.1.23,1.14.72a1.14,1.14,0,0,1,0,.37.39.39,0,0,1-.33.33c-.49.15-1.51.47-2,.14A1.23,1.23,0,0,1,92.4,72.68Z"/><path class="cls-9" d="M91.71,72.73a7.11,7.11,0,0,1-.56-.76,11.35,11.35,0,0,1-1.65-1.56,15.7,15.7,0,0,0-1.69-1.63h0a10,10,0,0,0-1.39-.85c-1-.61-1.21-.72-1.25-.75h0A1.85,1.85,0,0,0,84.9,67a8.93,8.93,0,0,1-.92-.7c-.57-.45-.58-.49-.58-.51l0-.13.11.06a12.41,12.41,0,0,1,1.15.66c.42.27,1.09.71,1.21.82l.76.54,1.18.66.76.46a14.29,14.29,0,0,1,1.2.94l.38.39a1,1,0,0,1-.16-.26l.11,0s.28.42.5.74l-.63-2.21c0-.09-.75-2.34-.79-2.66a20.74,20.74,0,0,1-.53-2.43v0l.06,0h0l0,0h0c.14.33.64,2.09.65,2.11s.77,2.84.77,2.87l.62,2.24a8.67,8.67,0,0,0,.6,1.45l0,0c.24.35.45.59.45.6Zm-3.86-4a15.15,15.15,0,0,1,1.73,1.65A10.66,10.66,0,0,0,91,71.68a3.79,3.79,0,0,1-.3-.69l0-.07-.06-.09c-.16-.18-.61-.65-.91-1A10.46,10.46,0,0,0,88.47,69l-.75-.46-1.19-.66-.78-.56c0-.06-.75-.53-1.19-.8h0a5,5,0,0,0-.67-.41l.18.15h0a7.58,7.58,0,0,0,.9.68l.27.2c.07.05.77.47,1.21.72A10.16,10.16,0,0,1,87.85,68.68Zm2.85,2,.08.27a2.88,2.88,0,0,0,.23.56C90.88,71.19,90.76,70.85,90.7,70.67ZM88.85,64c.16.76.41,1.69.41,1.7,0,.33.78,2.63.79,2.66l.5,1.75-.5-1.8-.78-2.88C89.26,65.41,89,64.63,88.85,64Z"/><path class="cls-9" d="M90.37,70.3,89.08,69l-2.53-2.68c-.1-.06-1.49-1.69-1.77-2s-1.08-1.18-1.09-1.19a30.76,30.76,0,0,0-3.12-2.37l.06-.1,1.1.54c.51.22,3.82,2.94,4,3.06.74.38,2.89,3.38,3.84,4.74-.43-.79-1-1.77-1-1.9l-1.14-2.37s-.08-.19-.18-.4l0,0A1.21,1.21,0,0,1,87,64a1.82,1.82,0,0,0-.15-.26,4.55,4.55,0,0,1-.66-1.4C86.16,62,86,59.88,86,59.79a15.06,15.06,0,0,1,.12-3.24,7.35,7.35,0,0,1,1.37-3.09l.13-.14,0,.19c0,.27-.86,6.61-1,7.09a4.54,4.54,0,0,0,0,.64c0,.1.3,1.47.33,1.63.08.39.19.81.26,1.09s.34.7.35.72l1.13,2.37c.09.22,1.54,2.87,1.56,2.9Zm-9.08-9.19a19,19,0,0,1,2.49,2s.93,1,1.09,1.19c.66.76,1.67,1.93,1.75,2l2.54,2.69.58.58c-.67-1-3.3-4.74-4.11-5.16,0,0-3.45-2.83-3.95-3Zm6.12-7.42a7.59,7.59,0,0,0-1.23,2.88,14.52,14.52,0,0,0-.11,3.21s.2,2.18.27,2.55a4.23,4.23,0,0,0,.6,1.31l-.18-.75c-.11-.61-.29-1.54-.32-1.61a4.08,4.08,0,0,1,0-.69h0v0C86.53,60.3,87.15,55.68,87.41,53.69Z"/><path class="cls-9" d="M87,63.73s-.06,0-.1-.12a1.91,1.91,0,0,1-.1-.38c-.06-.16-.13-.34-.18-.49l-.4-.91h0l-.05-.07,0,.08a12.9,12.9,0,0,1-1.47-.91l-.37-.25A18.12,18.12,0,0,1,81.09,58a7.9,7.9,0,0,1-1.33-2.23l-.12-.28.21.21s.23.23.51.56a8.24,8.24,0,0,0,1.54,1.1,16.31,16.31,0,0,1,1.47,1.12c.2.11,1.58,1.61,1.74,1.78a10.31,10.31,0,0,1,1.25,1.48l.41.93c0-.23,0-.4,0-.42s.16-1.91.22-2.17.11-1.82.14-2.65c0-.4.29-3.87.3-4h.12s-.33,3.61-.31,4c0,.1-.08,2.43-.14,2.68s-.22,2.13-.22,2.14a6.17,6.17,0,0,0,.09.91c.18.5.17.51.11.53Zm-7-7.68A6.89,6.89,0,0,0,81.18,58a17.21,17.21,0,0,0,3.22,2.63l.36.25a12,12,0,0,0,1.42.88A10.05,10.05,0,0,0,85,60.37a22.54,22.54,0,0,0-1.73-1.76,15,15,0,0,0-1.46-1.12,8.16,8.16,0,0,1-1.57-1.13Z"/><path class="cls-9" d="M76.4,56.58h0a.05.05,0,0,1,0,0,2.33,2.33,0,0,1,.47-2.39,4.66,4.66,0,0,1,1.4-.88l.14-.06a5.65,5.65,0,0,0-.17-1.3,10.27,10.27,0,0,0-.61-1.66l0-.06c-.06-.15-.13-.29-.19-.44h0l-.37,0-1.62-.15-.77-.08-2.46-.23-.27,0a5.2,5.2,0,0,0,2.08,1.6,5.62,5.62,0,0,0,3.58.46,0,0,0,0,1,.06,0s0,.07,0,.07a5.77,5.77,0,0,1-3.65-.46,5.13,5.13,0,0,1-2.2-1.75,0,0,0,0,1,0-.06.05.05,0,0,1,0,0l.4,0,2.46.24.78.08,1.61.15.35,0a12.57,12.57,0,0,1-.94-3s0-.07,0-.07.06,0,.07.05.36.2.47.24l.12.05a3.43,3.43,0,0,1,1,.78c.1.1.94,1.08.78,1.67a.51.51,0,0,1-.37.37,2.14,2.14,0,0,1-1,0c.05.13.1.25.16.37l0,.06a10.93,10.93,0,0,1,.63,1.68,6.91,6.91,0,0,1,.17,1.28l0,0a2.75,2.75,0,0,0,.8-.52A3.28,3.28,0,0,0,80,51.29,3.77,3.77,0,0,1,80.69,50,2.55,2.55,0,0,1,82,49.29a4.1,4.1,0,0,1,.49-.06,2.48,2.48,0,0,1-1-.41l-.18-.13a1.66,1.66,0,0,0-.31-.23,1.12,1.12,0,0,0-.92,0,1.23,1.23,0,0,0-.72.67,3.33,3.33,0,0,1-.84,1.27.07.07,0,0,1-.09,0,.06.06,0,0,1,0-.08,3.19,3.19,0,0,0,.81-1.22,1.38,1.38,0,0,1,.79-.74,1.28,1.28,0,0,1,1,0,2.52,2.52,0,0,1,.33.24l.16.13a3.76,3.76,0,0,0,2,.5.06.06,0,0,1,0,.06.06.06,0,0,1-.06.06h0a6.67,6.67,0,0,0-1.48.06,2.32,2.32,0,0,0-1.28.64,3.47,3.47,0,0,0-.66,1.28,3.43,3.43,0,0,1-.72,1.36,3,3,0,0,1-.83.55l-.1,0a16.26,16.26,0,0,1-.08,1.85c0,.37,0,.74-.06,1.11a.2.2,0,0,1,0,.07,0,0,0,0,1-.06,0,.06.06,0,0,1-.05-.06v-.07a.59.59,0,0,0-.44-.49.93.93,0,0,0-.76.19,3,3,0,0,0-.57.62A.05.05,0,0,1,76.4,56.58Zm1.95-3.24-.09,0a4.34,4.34,0,0,0-1.36.85,2.22,2.22,0,0,0-.49,2.17,2.82,2.82,0,0,1,.53-.56,1,1,0,0,1,.86-.21.65.65,0,0,1,.42.3l.06-.81A17.65,17.65,0,0,0,78.35,53.34Zm-.92-3.69a2.37,2.37,0,0,0,1,0,.41.41,0,0,0,.3-.3c.12-.43-.42-1.19-.76-1.57A3.06,3.06,0,0,0,77,47l-.11,0a3.35,3.35,0,0,1-.4-.18A13.33,13.33,0,0,0,77.43,49.65Z"/><path class="cls-9" d="M94.7,73.08h0a.05.05,0,0,1,0-.07c0-.36.86-9.74.47-14.05a10.41,10.41,0,0,1,.21-3.36h-.11a.07.07,0,0,1,0,0,0,0,0,0,1,0-.05l.29-.4a6.46,6.46,0,0,1,.35-.91,4.5,4.5,0,0,1,1-1.44s3.22-4.35,7.84-4.58a.05.05,0,0,1,.06,0,1.19,1.19,0,0,1,0,.29l.05,0a.05.05,0,0,1,0,0,.06.06,0,0,1,0,0l-.09.11a1,1,0,0,1-.12.29c-.26.44-3.22,4-5.09,5a11,11,0,0,1-4,1.55A10.32,10.32,0,0,0,95.24,59c.38,4.32-.42,13.72-.48,14.08A.06.06,0,0,1,94.7,73.08Zm.63-17.59h0l0-.06Zm.24-.33-.09.32a11,11,0,0,0,4-1.54c1.75-.92,4.48-4.17,5-4.87l-.36.41-1.36,1.57a.05.05,0,0,1-.08,0,.06.06,0,0,1,0-.08l2-2.3a.43.43,0,0,0,0-.11l-.08-.06a1.21,1.21,0,0,0-1.05,0,1.52,1.52,0,0,1-.2.06,14.44,14.44,0,0,0-4.37,2.82A31.07,31.07,0,0,0,95.57,55.16Zm7.23-6.55a12.71,12.71,0,0,0-5.89,4.23,4.29,4.29,0,0,0-1,1.42c-.08.16-.15.35-.23.56a29.3,29.3,0,0,1,3.15-3.53A16.25,16.25,0,0,1,102.8,48.61Zm1.52-.29.28.09,0,0a.39.39,0,0,0,0-.13Z"/><path class="cls-9" d="M105.78,59.87c-.33,0-.69,0-1.07,0a16.57,16.57,0,0,1-5.6-1.53l-.46-.19s-.05,0,0-.08a.05.05,0,0,1,.07,0l.46.19a16.74,16.74,0,0,0,5.57,1.53c3,.21,4.14-.5,4.15-.66s-1-1.42-5.89-2a29.24,29.24,0,0,0-7.85-.09,0,0,0,0,1-.06,0,.06.06,0,0,1,0-.07,28.47,28.47,0,0,1,7.88.09c5.05.63,6,1.93,6,2.16S108,59.87,105.78,59.87Z"/><path class="cls-9" d="M95.17,60.11a.06.06,0,0,1-.06-.06,10.86,10.86,0,0,0-.32-1.84.06.06,0,1,1,.11,0A10,10,0,0,1,95.22,60s0,.06,0,.07Z"/><path class="cls-9" d="M95.12,56.8h0a.06.06,0,0,1-.05-.06,9.2,9.2,0,0,0-1.24-4.1,7.77,7.77,0,0,1-.28-.73c-.26-.72-.65-1.82-1.07-1.92a18,18,0,0,1-2.42-.18,8.85,8.85,0,0,1-4-1.39A59,59,0,0,1,80.24,44a.07.07,0,0,1,0,0,.08.08,0,0,1,0,0,10.25,10.25,0,0,1,8-.8c.07,0,1.89.51,4.11,6.57a.06.06,0,0,1,0,.07.06.06,0,0,1-.08,0,4.41,4.41,0,0,0-1.33-1.06c-.07,0-5.89-4-6.76-4.28l-.46-.16A4,4,0,0,0,80.9,44l0,0a.06.06,0,0,1,0,.08.05.05,0,0,1-.08,0l0,0-.24.11h0a65.76,65.76,0,0,0,5.65,4.22c2,1.56,6.29,1.55,6.33,1.55.49.11.86,1.15,1.16,2a6.85,6.85,0,0,0,.27.72,9.12,9.12,0,0,1,1.25,4.15A.06.06,0,0,1,95.12,56.8ZM81.84,43.69a5.37,5.37,0,0,1,1.91.44c.16.06.31.12.46.16.88.28,6.54,4.12,6.78,4.29a4,4,0,0,1,1.16.87c-2.15-5.72-3.92-6.22-3.93-6.23a10.3,10.3,0,0,0-7.52.58.29.29,0,0,1,.12.07A2.89,2.89,0,0,1,81.84,43.69Zm-1.38.3h.05l.18-.08a.13.13,0,0,0-.08,0,.12.12,0,0,0-.11,0s0,.07,0,.07Z"/><path class="cls-9" d="M92.62,49.93a.23.23,0,0,1-.11,0c-.36-.17-.57-1.14-.63-2.8a21.85,21.85,0,0,1,.39-5.71l0,0h0a13,13,0,0,1,1.92,1c1.29.82,2,1.67,2,2.5a.67.67,0,0,1,0,.28c0,.27,0,.58,0,.92A3,3,0,0,1,95,47.79l-2,1.77a2.24,2.24,0,0,1-.26.23,0,0,0,0,1,.05,0,.05.05,0,0,1,0,.08A.22.22,0,0,1,92.62,49.93Zm-.25-8.43A22.2,22.2,0,0,0,92,47.11c.08,2.22.42,2.62.56,2.69a.13.13,0,0,0,.12,0,.1.1,0,0,1,0,0,0,0,0,0,1,0-.07l.26-.23c.25-.24.73-.76,1.64-1.85a6.83,6.83,0,0,0,1.56-2.51,2.22,2.22,0,0,0-.14-.76.05.05,0,0,1,0-.08h0C95.38,42.78,92.8,41.67,92.37,41.5Zm3.72,4a8.55,8.55,0,0,1-1.47,2.22c-.37.44-.67.79-.92,1.07l1.23-1.07S96,46.9,96.06,46A5.55,5.55,0,0,0,96.09,45.48Z"/><path class="cls-9" d="M92.61,49.81a.32.32,0,0,1-.29-.25v0c.14-1,.23-2.15.28-3.19,0-1.22.07-2.41.08-3.32s0-1.58,0-1.6,0-.05,0-.06a0,0,0,0,1,.06,0,9.93,9.93,0,0,1,0,1.58c0,.88,0,2.07-.07,3.35,0,1.44-.08,2.76-.1,3.28a.05.05,0,0,1-.06,0,.06.06,0,0,1-.06-.06c0-.26,0-.54,0-.83l-.09.78s.08.19.21.15a.06.06,0,0,1,.07,0,.05.05,0,0,1,0,.07Z"/><path class="cls-9" d="M90,70,89,69a1.27,1.27,0,0,1-.29-.28,1.36,1.36,0,0,0-.12-.12l-1.24-1.22-1.63-1.59-1.08-1.06c-.43-.42-.88-.83-1.32-1.23l-1-.9-.32-.29a16.25,16.25,0,0,1-1.47-1.52.13.13,0,0,1,0-.16.28.28,0,0,1,.09,0,3.32,3.32,0,0,1,1,.07l.24,0c.28,0,.57.08.86.14l.14,0a5.48,5.48,0,0,1,1.67.51,8,8,0,0,1,2.49,2.89l0,.09a22.58,22.58,0,0,1,1.43,2.74c.16.36.3.71.42,1.06l-.11,0c-.12-.34-.26-.69-.41-1A22.48,22.48,0,0,0,87,64.43L87,64.34a7.93,7.93,0,0,0-2.45-2.85A5.13,5.13,0,0,0,82.91,61l-.14,0-.86-.14-.24,0a3.43,3.43,0,0,0-1-.06h0a14.91,14.91,0,0,0,1.46,1.51l.32.3,1,.89c.44.4.89.81,1.32,1.24l1.08,1,1.63,1.6,1.25,1.22.12.13a1.22,1.22,0,0,0,.26.25h0l1,.94Z"/><path class="cls-9" d="M98.75,57.05a11.55,11.55,0,0,1-2.64-.3l-.59-.16a1.63,1.63,0,0,1-.45-.2,1.25,1.25,0,0,1-.42-1.11h.11a1.21,1.21,0,0,0,.37,1,2.05,2.05,0,0,0,.43.18c.19.06.39.11.58.15,3.47.82,7.42-.05,11.73-2.57l.6-.35c.36-.21.74-.42,1.11-.65l.19-.14a3.12,3.12,0,0,1,.64-.42,4.92,4.92,0,0,0-2.49-.42l-.59.06-1,.18a29.37,29.37,0,0,0-5.14,1.84l-.52.22c-.84.36-1.82.77-2.81,1.11a4.31,4.31,0,0,0-.44.17,3.23,3.23,0,0,1-2,.37l0-.11a3.22,3.22,0,0,0,1.92-.37l.45-.17c1-.33,2-.75,2.81-1.1l.51-.23a29.05,29.05,0,0,1,5.16-1.84c.35-.07.69-.14,1-.18l.59-.07a5,5,0,0,1,2.74.53h0l-.06.11h0c-.12-.07-.55.26-.75.41l-.2.15c-.37.23-.75.44-1.11.65l-.6.35A18.44,18.44,0,0,1,98.75,57.05Z"/><path class="cls-9" d="M97.81,75.66h-.36a11,11,0,0,1-1.18-.09h-.1a1.06,1.06,0,0,1-.6-.18.81.81,0,0,1-.38-.62c0-.34.28-.69.82-1A4.55,4.55,0,0,1,97.56,73a3.29,3.29,0,0,1,1.17.06l.15,0a.88.88,0,0,0,.31-.08l.22-.07a1.87,1.87,0,0,1,1.71.41,1.33,1.33,0,0,1,.21,1,1.12,1.12,0,0,1-.51.78,2,2,0,0,1-.54.17A12,12,0,0,1,97.81,75.66Zm.12-2.53-.35,0a4.16,4.16,0,0,0-1.5.65c-.52.32-.77.64-.77.94a.72.72,0,0,0,.33.53h0a1,1,0,0,0,.53.16h.11c.42,0,.84.07,1.16.08a11.81,11.81,0,0,0,2.8-.25,1.7,1.7,0,0,0,.51-.17,1,1,0,0,0,.46-.7,1.19,1.19,0,0,0-.19-.94,1.78,1.78,0,0,0-1.6-.38l-.19.06a.84.84,0,0,1-.38.09l-.15,0A4.15,4.15,0,0,0,97.93,73.13Z"/><path class="cls-9" d="M90.55,75.4A8.49,8.49,0,0,1,88,75.12c-.33-.26-.22-.68-.09-1,0-.07.21-.63,1.71-.8l.27,0c1.29-.14,1.6-.18,2.25.43a.79.79,0,0,1,.31.79,1.2,1.2,0,0,1-.8.81A4.64,4.64,0,0,1,90.55,75.4Zm.4-2.09c-.26,0-.59,0-1,.09l-.28,0c-1.46.16-1.6.71-1.61.71h0c-.18.45-.16.71,0,.88a10.11,10.11,0,0,0,3.54.17,1.1,1.1,0,0,0,.73-.72.72.72,0,0,0-.28-.69A1.41,1.41,0,0,0,91,73.31Z"/><path class="cls-9" d="M85.77,73.13c-.41,0-.81,0-1.1,0H84.4c-.27,0-.65,0-.76-.35h0a1,1,0,0,1,.1-.9c.55-.77,2.28-.92,3.27-.94a.53.53,0,0,1,.25,0,.56.56,0,0,1,.22.21l0,0c0,.08.13.16.19.24.25.28.54.6.25,1.07S86.65,73.13,85.77,73.13Zm-2-.44c.09.26.39.26.65.27h.27c.82.06,2.74.18,3.19-.54.25-.38,0-.64-.23-.93a2.41,2.41,0,0,1-.21-.24l0-.05a.39.39,0,0,0-.18-.18.4.4,0,0,0-.2,0c-.77,0-2.64.14-3.17.9A.84.84,0,0,0,83.75,72.69Z"/><path class="cls-9" d="M100.05,71.69l-.21,0a3.37,3.37,0,0,1-.75-.38l0,0v0a.75.75,0,0,1,.54-.63,3.47,3.47,0,0,1,1.88-.33,1.75,1.75,0,0,0,.46.06c.14,0,.25,0,.32.08s.09.17.08.36a1,1,0,0,1-.27.74,1.06,1.06,0,0,1-.86.16,3.78,3.78,0,0,0-.93,0Zm-.86-.49a2.78,2.78,0,0,0,.68.35.94.94,0,0,0,.41,0,3.1,3.1,0,0,1,1,0,1,1,0,0,0,.77-.14.81.81,0,0,0,.23-.66c0-.14,0-.23,0-.27s-.13,0-.24,0a1.88,1.88,0,0,1-.49-.05,3.2,3.2,0,0,0-1.81.31A.65.65,0,0,0,99.19,71.2Z"/><path class="cls-9" d="M92.86,73a1,1,0,0,1-.61-.15,1.33,1.33,0,0,1-.34-.42h0a.25.25,0,0,0,0-.07l0-.05c-.11-.21-.21-.41-.14-.58a.46.46,0,0,1,.29-.22,3.89,3.89,0,0,0,.41-.17,1.31,1.31,0,0,1,1.09-.15l.21.06c.4.11.93.26,1,.71a1.61,1.61,0,0,1,0,.39.45.45,0,0,1-.37.37l-.07,0A5.14,5.14,0,0,1,92.86,73Zm.28-1.76a1.67,1.67,0,0,0-.68.2,2.65,2.65,0,0,1-.42.18.33.33,0,0,0-.22.16c0,.12,0,.29.13.48l0,0,0,.06h0a1,1,0,0,0,.31.38c.41.31,1.35,0,1.85-.12l.07,0c.19-.06.25-.12.28-.29a1,1,0,0,0,0-.35c0-.37-.51-.5-.89-.61l-.21-.06A1.05,1.05,0,0,0,93.14,71.25Z"/></g></g></svg>