<svg id="인쇄" xmlns="http://www.w3.org/2000/svg" viewBox="0 0 181.42 136.06"><defs><style>.cls-1{fill:#231815;}.cls-2,.cls-3{fill:none;stroke:#3f3f3f;stroke-linecap:round;stroke-linejoin:round;}.cls-2{stroke-width:0.4px;}.cls-3{stroke-width:0.25px;}.cls-4{fill:#985e29;}.cls-4,.cls-6{opacity:0.5;}.cls-5,.cls-6,.cls-7{fill:#b5a844;}.cls-5{opacity:0.48;}.cls-7{opacity:0.51;}</style></defs><path class="cls-1" d="M80.23,106.53a.05.05,0,0,1,0,0,.06.06,0,0,1,0,0s0,0,0,0h0a.17.17,0,0,0,.12,0,.14.14,0,0,0,0-.08s0-.07,0-.1v-1.1s0-.06,0-.09a.11.11,0,0,0,0-.08s-.06,0-.12,0h0a.06.06,0,0,1,0,0,.09.09,0,0,1,0,0,.05.05,0,0,1,0,0H81a1.06,1.06,0,0,1,.48.11.77.77,0,0,1,.34.3.81.81,0,0,1,.13.47.74.74,0,0,1-.09.38.73.73,0,0,1-.22.27,1.37,1.37,0,0,1-.32.16,1.5,1.5,0,0,1-.37,0h-.7Zm.75-.11a.61.61,0,0,0,.36-.1.59.59,0,0,0,.2-.26,1.25,1.25,0,0,0,.06-.4,1,1,0,0,0-.08-.4.71.71,0,0,0-.23-.28.77.77,0,0,0-.38-.1H80.7v1.34a.16.16,0,0,0,.07.15A.37.37,0,0,0,81,106.42Z"/><path class="cls-1" d="M85.56,106.53l0,0s0,0,0,0,0,0,0,0h0a.21.21,0,0,0,.12,0l.06-.08,0-.1.48-1.14s0-.08,0-.1a.1.1,0,0,0-.06,0l-.08,0-.06,0s0,0,0-.05,0,0,0,0h.08a.55.55,0,0,1,.19,0,.29.29,0,0,1,.14.08.56.56,0,0,1,.1.19l.47,1.14a.36.36,0,0,0,0,.09.18.18,0,0,0,.06.09.12.12,0,0,0,.09,0h0s0,0,0,0a.06.06,0,0,1,0,0l0,0h-.64l0,0a.06.06,0,0,1,0,0s0,0,0,0h0c.09,0,.14,0,.14,0a.34.34,0,0,0,0-.16l-.1-.23H86a.57.57,0,0,1-.06.15.39.39,0,0,0,0,.06v0a.63.63,0,0,0,0,.14.06.06,0,0,0,0,.06h.2s0,0,0,0a.06.06,0,0,1,0,0,.05.05,0,0,1,0,0h-.57Zm.53-.68h.57l-.27-.71h0Z"/><path class="cls-1" d="M91.88,106.57a.8.8,0,0,1-.36-.07,1,1,0,0,1-.28-.2.79.79,0,0,1-.18-.29,1,1,0,0,1-.06-.33,1,1,0,0,1,.08-.41.81.81,0,0,1,.21-.3.84.84,0,0,1,.28-.18.89.89,0,0,1,.31-.06.87.87,0,0,1,.37.07,1,1,0,0,1,.28.2,1.05,1.05,0,0,1,.17.29,1,1,0,0,1,.06.34.87.87,0,0,1-.08.4.81.81,0,0,1-.21.3.84.84,0,0,1-.28.18A.89.89,0,0,1,91.88,106.57Zm0-.12a.45.45,0,0,0,.32-.11.73.73,0,0,0,.18-.31,1.29,1.29,0,0,0,.06-.4,1.23,1.23,0,0,0-.06-.39.73.73,0,0,0-.19-.28.42.42,0,0,0-.31-.11.48.48,0,0,0-.32.11.75.75,0,0,0-.18.3,1.35,1.35,0,0,0-.06.41,1.21,1.21,0,0,0,.06.38.59.59,0,0,0,.19.29A.41.41,0,0,0,91.88,106.45Z"/><path class="cls-1" d="M97.48,106.57a.83.83,0,0,1-.36-.07,1,1,0,0,1-.28-.2.79.79,0,0,1-.18-.29,1,1,0,0,1-.06-.33,1,1,0,0,1,.08-.41.81.81,0,0,1,.21-.3.84.84,0,0,1,.28-.18.89.89,0,0,1,.31-.06.87.87,0,0,1,.37.07,1,1,0,0,1,.28.2,1.08,1.08,0,0,1,.18.29,1,1,0,0,1,.06.34,1,1,0,0,1-.08.4,1,1,0,0,1-.22.3.84.84,0,0,1-.28.18A.89.89,0,0,1,97.48,106.57Zm0-.12a.45.45,0,0,0,.32-.11A.73.73,0,0,0,98,106a1.29,1.29,0,0,0,.06-.4,1.23,1.23,0,0,0-.06-.39.73.73,0,0,0-.19-.28.42.42,0,0,0-.31-.11.48.48,0,0,0-.32.11.75.75,0,0,0-.18.3,1.35,1.35,0,0,0-.06.41,1.21,1.21,0,0,0,.06.38.59.59,0,0,0,.19.29A.41.41,0,0,0,97.48,106.45Z"/><path class="cls-1" d="M103.22,106.53h0s0,0,0,0l-.62-1.41h0v1.1a.34.34,0,0,0,0,.1.12.12,0,0,0,0,.08.17.17,0,0,0,.12,0h.05s0,0,0,0a.06.06,0,0,1,0,0l0,0h-.52l0,0a.06.06,0,0,1,0,0s0,0,0,0h0a.17.17,0,0,0,.12,0,.12.12,0,0,0,0-.08.34.34,0,0,0,0-.1v-1.1a.44.44,0,0,0,0-.13l-.06-.06-.11,0,0,0s0,0,0-.05a0,0,0,0,1,0,0h.07a.9.9,0,0,1,.24,0,.37.37,0,0,1,.18.08.46.46,0,0,1,.13.19l.47,1.06h0l.54-1.34h.49a.05.05,0,0,1,0,0s0,0,0,0a.06.06,0,0,1,0,0h0c-.06,0-.1,0-.12,0a.11.11,0,0,0-.05.08s0,.06,0,.09v1.1s0,.07,0,.1a.14.14,0,0,0,.05.08.17.17,0,0,0,.12,0h0s0,0,0,0,0,0,0,0a.05.05,0,0,1,0,0h-.67a.05.05,0,0,1,0,0,.06.06,0,0,1,0,0s0,0,0,0h0a.17.17,0,0,0,.12,0,.14.14,0,0,0,0-.08s0-.07,0-.1v-1.1h0l-.57,1.41,0,0Z"/><rect class="cls-1" x="106.51" y="105.78" width="8.44" height="0.14"/><rect class="cls-1" x="69.16" y="105.78" width="8.44" height="0.14"/><line class="cls-2" x1="114.51" y1="40.17" x2="114.51" y2="33.36"/><line class="cls-3" x1="116.34" y1="36.75" x2="116.34" y2="31.39"/><line class="cls-2" x1="112.87" y1="38.12" x2="112.87" y2="34.94"/><line class="cls-2" x1="66.09" y1="70.41" x2="66.09" y2="78.01"/><line class="cls-2" x1="67.98" y1="73.28" x2="67.98" y2="79.26"/><line class="cls-2" x1="69.87" y1="71.85" x2="69.87" y2="75.39"/><path class="cls-4" d="M90.26,75.16c-.17-.13-.27,0-.27,0,.09-1.08.28-1.06.32-2.14a56.93,56.93,0,0,0-.4-8.76,18.12,18.12,0,0,1-.49-4,9.36,9.36,0,0,0,.07-3.91,10.28,10.28,0,0,1-.3-4.37c.51-2.74,1.73-4.38.77-7.2L88.58,40.7c-.16-.48-.08-1.26.67-.94a1.3,1.3,0,0,1,.61.81c.32,1,.2,2,.65,3s1.52,1.62,1.87,2.73a8.79,8.79,0,0,1-.22,4c-.19,1.06-1.31,5.84.16,6.35a1.63,1.63,0,0,0,.66,0l5-.3c-1.42,1.32-3.82,1.3-5,2.86-.81,1.11-.66,2.63-.52,4a75.69,75.69,0,0,1,.45,8c0-.69-.69,3.75.18,4a8.19,8.19,0,0,0-2.18,0C90.62,75.05,90.35,75.24,90.26,75.16Z"/><path class="cls-5" d="M89,49.31l-.68.28c-1.18.54-2.08,1.91-3.54,1.1a.32.32,0,0,0-.16,0,.27.27,0,0,0-.12.06c-.48.38-1,.73-1.48,1.11s-.69.94-1.35,1.21a11.28,11.28,0,0,1-3.39.52,1.78,1.78,0,0,0-.52.1c-.91.39-1.16,2.22-.23,2.7A5.26,5.26,0,0,0,81,57.1c2.83-.07,3.59-2.27,5.79-3.38.53-.26,1.13-.41,1.66-.67a2.53,2.53,0,0,0,1.37-1.67A2.66,2.66,0,0,0,90,50.1,4.63,4.63,0,0,0,89.42,49,1.62,1.62,0,0,1,89,49.31Z"/><path class="cls-5" d="M85,63a.4.4,0,0,1-.32,0,5.59,5.59,0,0,0-1-.3.51.51,0,0,0-.51.09c-.12.16,0,.41-.14.58a.58.58,0,0,1-.44.23c-.74.15-2.85,1.08-3.07-.06s.42-1.67.61-2.36a15.28,15.28,0,0,0,.16-2.65h1.33a4.26,4.26,0,0,0,1.56.38c.78,0,.93-.63,1.56-1a.18.18,0,0,1,.12,0c.1,0,.13.14.14.24a1.26,1.26,0,0,0,.21.71.53.53,0,0,0,.67.15.69.69,0,0,0,.22-.59c0-.55-.23-2.16-.83-2.46-.26-.14,1.58-1,1.83-1a.93.93,0,0,1,.9.77c0,.36-.23.77,0,1.06a1.27,1.27,0,0,0,.41.27,2.22,2.22,0,0,1,.82,1.71.48.48,0,0,1,0,.29.39.39,0,0,1-.2.13c-.41.14-.89,0-1.26.23-.56.32-.81,1-1.14,1.52s-.91,1.27-1.37,1.9A.46.46,0,0,1,85,63Z"/><path class="cls-5" d="M92.75,54.76c-.83,0-3.36-.24-2-1.53s-.26-1.53,2-1.87a11.72,11.72,0,0,0,2.38-.74.4.4,0,0,1,.32,0,.35.35,0,0,1,.17.3,1.5,1.5,0,0,1-.23,1c.2-.29,1.71-.1,2-.1,1,0,2.2-.55,3.07-.28a2.34,2.34,0,0,1,1.11,1c1.1,1.56-2.82,1.8-3.66,1.92a27.09,27.09,0,0,1-5.17.28Z"/><path class="cls-5" d="M85.67,40.18l1.67,1.94c.41.47,4.07,1.43,4,1.81a6.93,6.93,0,0,1,.36-1.56,1,1,0,0,1,.42-.6c.32-.15.69,0,1,.07a2,2,0,0,0,1.29-.49,7.84,7.84,0,0,0,3.14-5.73.4.4,0,0,0,0-.22.41.41,0,0,0-.24-.19c-.88-.38-1.9-.3-2.8-.64-.71-.28-1.29-.8-2-1.1a7.19,7.19,0,0,0-2.65-.42,3.08,3.08,0,0,0-2.18.49,9.37,9.37,0,0,0-1,1.53c-.81,1.1-2.38,1.27-3.5,2.06a1.16,1.16,0,0,0-.59,1.08,1.29,1.29,0,0,0,.3.5"/><path class="cls-5" d="M92.55,45l0,.06a18.74,18.74,0,0,1,3.84-.41l4.22-.39a1.5,1.5,0,0,0,.55-.11,1.41,1.41,0,0,0,.48-.43c.76-.93,1.39-2.31.33-3.28-1.67-1.52-2.23-1.19-2.7-2.89a2.1,2.1,0,0,0-1.91-1.73,8.75,8.75,0,0,0-4.14.23,2.73,2.73,0,0,0-1.55,3.16C92,41.11,92.2,43.08,92.55,45Z"/><path class="cls-6" d="M89.58,47.21c-2.72.14-1.65.15-3.75.32a13.9,13.9,0,0,1-3.59.09,9.46,9.46,0,0,0-2.91-.41c-.57.18-.78.82-1.26,1.46A3.63,3.63,0,0,0,77.26,51c-.14,1.38.41,2.85,1,2.54s-.07.05,1.08.8,0,.86,2,.7,1.82.41,3-.7.39-1.38,2.08-2.06,2.15.25,2.77-.33,0-1.43.76-1.86,1.39-.74.75-1.43A9.5,9.5,0,0,1,89.58,47.21Z"/><path class="cls-7" d="M89.7,46c-.61.21-1.27.07-1.86.28s-1,.77-1.61,1-1.25.18-1.83.42-1,.72-1.57.8-1.33-.43-2-.78a4.13,4.13,0,0,1-.91-.58,6.21,6.21,0,0,1-.56-.76,2.8,2.8,0,0,0-1.89-1.1c.76-.55,1.65-.89,2.39-1.47s1.61-1.4,2.42-2.1c1.58-1.36,3.54-2.6,5.6-2.29a5.49,5.49,0,0,1,3.86,3,3.89,3.89,0,0,1,.51,2.2c-.18,1.55-1.66,1.78-2.72,2.56"/><path class="cls-6" d="M92.68,49.6a9.36,9.36,0,0,1,2.08.31c1.3.25,1.3.72,1.78.14s0,.16.91.34a4.17,4.17,0,0,1,1.89.58c1.14.59,1.31.5,3,.39a12.13,12.13,0,0,0,3.25-.35c.48-.26,1.54-2.3.62-3.6s-1.85-2.23-2.14-2.65-.79-1.36-1.86-1-1.79,1.51-3.21.87-3.86-.58-4.21-.72-3.28-1.1-3.46,0-.7,2-.11,3.19S92.68,49.6,92.68,49.6Z"/><path class="cls-6" d="M99.88,62.92a5.07,5.07,0,0,1-3.16-1.17c-1-.93-1.19-2.37-2.6-2.89-1.06-.38-2.39-.61-2.79-1.84-.48-1.48,1.42-2.26,1.42-2.26a4.75,4.75,0,0,1,2.15.29,7.82,7.82,0,0,1,3.77,4c.23.54,1.87,2.66,1.35,3.11-.14.13-.34.22-.42.4S99.73,63,99.88,62.92Z"/><path class="cls-6" d="M96.12,55.05c1.81-.57,2.64.74,3.17.86s-.14,1.14.65,1.49a15.23,15.23,0,0,0,4.1.41c1.13,0,1.27-1.11,1.13-2s-1.38-1.57-1.86-1.7a32.44,32.44,0,0,1-3-1.64,10.69,10.69,0,0,0-2.75.61c-1.07.47-3.43.07-3.54.52a1.48,1.48,0,0,0,.83,1.46A1.33,1.33,0,0,0,96.12,55.05Z"/><path d="M92.77,76.47h0s0,0,0-.07h0a4.84,4.84,0,0,1,0-.62c0-.22,0-.48,0-.61H90l0,0a.09.09,0,0,1,0-.05,6.12,6.12,0,0,1,.26-1.23,4.18,4.18,0,0,0,.16-1.42c0-1.36,0-2.5,0-3.65,0-.15,0-.3,0-.44a14.15,14.15,0,0,0-.11-1.45.06.06,0,1,1,.12,0c.06.49.08,1,.1,1.46,0,.15,0,.3,0,.44.06,1.15,0,2.3,0,3.66a4.58,4.58,0,0,1-.16,1.45,6,6,0,0,0-.25,1.15h2.6s0,0,0,0a23.72,23.72,0,0,0-.38-2.41A17.17,17.17,0,0,1,91.87,69c0-.81.07-1.64.13-2.44,0-.23,0-.47,0-.7s0-.38,0-.57c0-.4.06-.83.07-1.24,0-.2,0-.4,0-.6a4.78,4.78,0,0,1,.15-1.59,3.59,3.59,0,0,0,0-2.29,1,1,0,0,1,0-.23s0-.06,0-.09a.06.06,0,0,1,0-.07.05.05,0,0,1,.07,0s0,.06,0,.1a1.18,1.18,0,0,0,0,.2,3.76,3.76,0,0,1,0,2.37,4.78,4.78,0,0,0-.14,1.55c0,.2,0,.4,0,.6,0,.42,0,.84-.07,1.25,0,.19,0,.38,0,.57s0,.47,0,.7c0,.8-.1,1.62-.13,2.44a17,17,0,0,0,.43,3.62,16.89,16.89,0,0,1,.42,3.77S92.83,76.47,92.77,76.47Z"/><path d="M91.83,58a.37.37,0,0,1-.22-.08,1.12,1.12,0,0,1-.3-1.45h0a0,0,0,0,1,0,0,.06.06,0,0,1,.12,0v0s0,.06,0,.08a1,1,0,0,0,.27,1.3.25.25,0,0,0,.32,0,.17.17,0,0,0,0-.25A.32.32,0,0,1,92,57.3a2.53,2.53,0,0,1,.52-1.51l0,0a.31.31,0,0,0,.11-.23.4.4,0,0,1,.34-.39,2,2,0,0,0,.41-.09,2.3,2.3,0,0,1,.47-.1l.82-.11A11.51,11.51,0,0,1,96,54.69a9.93,9.93,0,0,1,3,.4,6.85,6.85,0,0,1,1.56.64c.13.07.21.13.33.1a.06.06,0,0,1,0,.11.49.49,0,0,1-.41-.11,6.16,6.16,0,0,0-1.55-.63A9.67,9.67,0,0,0,96,54.81a9.53,9.53,0,0,0-1.31.13,7.86,7.86,0,0,1-.83.11,3,3,0,0,0-.45.1,3,3,0,0,1-.43.1.27.27,0,0,0-.23.26.4.4,0,0,1-.15.31l0,0a2.49,2.49,0,0,0-.5,1.44.27.27,0,0,0,.05.15.33.33,0,0,1,.07.21.28.28,0,0,1-.12.2A.38.38,0,0,1,91.83,58Z"/><path d="M97.58,63.14a.48.48,0,0,1-.5-.61s0-.05.07-.05a.06.06,0,0,1,0,.07.43.43,0,0,0,.09.37.5.5,0,0,0,.42.1l.52-.08.86-.11a.27.27,0,0,0,.27-.25,2.1,2.1,0,0,0-.48-1.95,1.6,1.6,0,0,1-.35-.74,2.74,2.74,0,0,1,0-.28,1.8,1.8,0,0,0-.19-.66,1.11,1.11,0,0,0-.3.12l-.14.07a.74.74,0,0,1-1-.23,1.11,1.11,0,0,1-.16-.59,1.79,1.79,0,0,0-.35-1.21.06.06,0,0,1,0-.08.06.06,0,0,1,.09,0,2,2,0,0,1,.38,1.28,1,1,0,0,0,.13.53.64.64,0,0,0,.86.18l.14-.07a1.4,1.4,0,0,1,.36-.13,0,0,0,0,1,.06,0,1.82,1.82,0,0,1,.23.74c0,.09,0,.19,0,.28a1.36,1.36,0,0,0,.33.68,2.21,2.21,0,0,1,.5,2.06.37.37,0,0,1-.36.33c-.29,0-.58.08-.86.12l-.53.07Z"/><path d="M104.27,51.92a.06.06,0,0,1-.06-.05c-.06-1-.28-1.25-1.29-1.68a5.75,5.75,0,0,0-.67-.21,6.08,6.08,0,0,1-.72-.24,1.63,1.63,0,0,1-1-.91c0-.09-.09-.13-.25-.09-.31.09-.63.16-.94.22L99,49c-.33.07-.39,0-.47-.29a1.44,1.44,0,0,1,0-.74c.07-.31.12-.38.45-.36a3.61,3.61,0,0,1,1.56.52.06.06,0,0,1,0,.08,0,0,0,0,1-.07,0,3.3,3.3,0,0,0-1.51-.5c-.26,0-.27,0-.33.27a1.44,1.44,0,0,0,0,.68c.07.26.08.26.33.21l.31-.07.93-.22a.28.28,0,0,1,.38.16,1.54,1.54,0,0,0,1,.85,5.88,5.88,0,0,0,.71.23,4.48,4.48,0,0,1,.68.22c1.06.44,1.3.76,1.37,1.77a.06.06,0,0,1,0,.06Z"/><path d="M89.92,45.72h0l-.25-.16a5.85,5.85,0,0,0-1.3-.72,1.7,1.7,0,0,0-1.31,0,4.43,4.43,0,0,1-1.73.31h-.13a2,2,0,0,0-.34,0,.48.48,0,0,1-.5-.19,0,0,0,0,1,0-.06.75.75,0,0,1,.56-.31l.21-.06.77-.23.56-.17a.36.36,0,0,0,.27-.29A.58.58,0,0,1,87,43.4a.05.05,0,0,1,.07,0,.07.07,0,0,1,0,.08c-.17.06-.21.22-.24.38a.48.48,0,0,1-.36.38l-.56.17-.77.23-.21.06a.8.8,0,0,0-.47.22.38.38,0,0,0,.37.11,2.23,2.23,0,0,1,.37,0h.12a4.33,4.33,0,0,0,1.68-.3,1.79,1.79,0,0,1,1.4,0,6,6,0,0,1,1.32.73l.25.16a.06.06,0,0,1,0,.08S89.94,45.72,89.92,45.72Z"/><path d="M84.08,50.39h0a.05.05,0,0,1,0-.06v-.08a1.13,1.13,0,0,1,0-.18,1,1,0,0,1,.51-.7.82.82,0,0,1,.66-.08.41.41,0,0,0,.33,0l.21-.11c.55-.27,1.11-.56,1.65-.85l.21-.11A2.72,2.72,0,0,0,89,47a.06.06,0,0,1,.06,0,1.51,1.51,0,0,1,1,1,3.24,3.24,0,0,1,.13,1.93.58.58,0,0,1-.19.34.05.05,0,0,1-.08,0,.06.06,0,0,1,0-.08.41.41,0,0,0,.15-.28A3,3,0,0,0,90,48c-.21-.44-.43-.82-.91-.93a2.86,2.86,0,0,1-1.41,1.21l-.2.11c-.55.3-1.11.58-1.66.86l-.21.1a.48.48,0,0,1-.42,0,.69.69,0,0,0-.57.07,1,1,0,0,0-.45.62.88.88,0,0,0,0,.17s0,.05,0,.08A.06.06,0,0,1,84.08,50.39Z"/><path d="M84.06,48.3h0a.06.06,0,0,1,0-.06.22.22,0,0,0,0-.08.19.19,0,0,1,.07-.22,3,3,0,0,0,.35-.27,1.89,1.89,0,0,1,.62-.4h0a1.54,1.54,0,0,1,1.43,0,.6.6,0,0,0,.38,0,4.57,4.57,0,0,0,.83-.2,4.13,4.13,0,0,1,.5-.15A1,1,0,0,1,89,47a.05.05,0,0,1,0,.08.06.06,0,0,1-.08,0,.92.92,0,0,0-.78-.05,4.42,4.42,0,0,0-.48.15,6.21,6.21,0,0,1-.85.21.79.79,0,0,1-.46-.06,1.45,1.45,0,0,0-1.33,0h0a1.93,1.93,0,0,0-.57.37,3.37,3.37,0,0,1-.37.29s0,0,0,.11v.09A.06.06,0,0,1,84.06,48.3Z"/><path d="M84.94,61.78h-.1a.06.06,0,0,1,0-.12H85a2.42,2.42,0,0,1,.88-.26c.6-.09.6-.09.63-.69v-.16a.23.23,0,0,1,.07-.19,2.59,2.59,0,0,0,.78-2c0-.17,0-.26.22-.35.53-.24,2.31,1.21,2.66,1.67a1.66,1.66,0,0,1-.09,1.86,0,0,0,0,1-.06,0,.75.75,0,0,1-.36-.32,1.06,1.06,0,0,0-.17-.2.22.22,0,0,0-.12-.06s-.07,0-.1.09a.19.19,0,0,0,0,.09s0,0,0,.06a.07.07,0,0,1-.08,0,.06.06,0,0,1,0-.08.43.43,0,0,0,0-.05.35.35,0,0,1,0-.13.24.24,0,0,1,.4-.05,1.37,1.37,0,0,1,.19.23.62.62,0,0,0,.27.26,1.59,1.59,0,0,0,0-1.68c-.41-.54-2.12-1.82-2.52-1.63-.14.06-.17.12-.16.24a2.7,2.7,0,0,1-.81,2.13.12.12,0,0,0,0,.11v.17c0,.65-.07.7-.73.79a2.57,2.57,0,0,0-.83.24A.1.1,0,0,1,84.94,61.78Z"/><path d="M90.26,59.25s0,0-.05,0a.47.47,0,0,1-.06-.47.75.75,0,0,0,0-.21l0-.22c-.06-.71-.13-1.44-.17-2.16A1.13,1.13,0,0,0,90,56a.53.53,0,0,1,0-.41.72.72,0,0,0-.11-.73l0,0,0-.07c-.06-.13-.13-.27-.25-.29a3,3,0,0,1-.62-.21,3,3,0,0,0-.6-.2L88,54a3.93,3.93,0,0,0-1.28-.13h-.09a.46.46,0,0,1-.43-.08.49.49,0,0,0-.59-.1.07.07,0,0,1-.08,0,.05.05,0,0,1,0-.07.58.58,0,0,1,.72.12c.09.09.21.07.34.05l.09,0a4.39,4.39,0,0,1,1.31.14l.32.07a3.21,3.21,0,0,1,.62.2,3,3,0,0,0,.6.21c.17,0,.26.21.33.35l0,.07,0,0a.83.83,0,0,1,.11.84.49.49,0,0,0,0,.34.63.63,0,0,1,0,.19c0,.72.11,1.45.18,2.16l0,.22a1,1,0,0,1,0,.25c0,.14-.06.26,0,.37a.05.05,0,0,1,0,.08Z"/><path d="M97.56,39.29h0a.49.49,0,0,1-.07-.58c.06-.16.13-.32.19-.49l.21-.53a1.17,1.17,0,0,0-.14-1.11A1.41,1.41,0,0,0,96.57,36c-.39,0-.39,0-.52.34l0,.08a.52.52,0,0,0,.13.67.08.08,0,0,0,.08,0h.08a.06.06,0,0,1,0,.11h0a.19.19,0,0,1-.16-.05.65.65,0,0,1-.16-.8l0-.08c.15-.38.17-.4.63-.42a1.51,1.51,0,0,1,1.23.62A1.24,1.24,0,0,1,98,37.72c-.06.18-.13.36-.2.54l-.19.48c-.07.2-.09.33,0,.45a.06.06,0,0,1,0,.08S97.58,39.29,97.56,39.29Z"/><path d="M93.29,52.71h0a.16.16,0,0,1-.17-.12,1.05,1.05,0,0,1,.14-.92.69.69,0,0,1,.57-.39h0a.69.69,0,0,1,.55.41c.05.09.1.19.14.28l.15.29c.07.13.14.2.21.2s.14-.05.23-.18a1.09,1.09,0,0,0,.1-1s0,0,0-.05,0-.2-.17-.19a.06.06,0,0,1-.06,0A.05.05,0,0,1,95,51c.23,0,.27.16.3.27a.07.07,0,0,0,0,.05,1.18,1.18,0,0,1-.12,1.07c-.11.16-.22.23-.33.23s-.21-.1-.3-.27L94.39,52c0-.09-.09-.18-.14-.27a.56.56,0,0,0-.46-.35h0a.58.58,0,0,0-.47.33.94.94,0,0,0-.13.82c0,.05,0,.05.06.05h0a.05.05,0,0,1,0,.06A.05.05,0,0,1,93.29,52.71Z"/><path d="M95.35,59.34h0a.08.08,0,0,1,0-.08.45.45,0,0,0,0-.43l-.21-.58-.18-.5a.27.27,0,0,0-.25-.19,2.49,2.49,0,0,0-1.61.42l-.22.15a2,2,0,0,1-.48.26h0a.43.43,0,0,1-.21-.29A.76.76,0,0,0,92,57.9a.06.06,0,0,1,0-.08.06.06,0,0,1,.08,0,.58.58,0,0,1,.1.21.49.49,0,0,0,.14.22,1.55,1.55,0,0,0,.42-.23l.23-.16a2.56,2.56,0,0,1,1.68-.43.37.37,0,0,1,.35.26c0,.17.12.33.18.5l.21.58a.59.59,0,0,1,0,.53A.05.05,0,0,1,95.35,59.34Z"/><path d="M80.67,63.94h-.11a1,1,0,0,1-.81-.55c-.1-.28,0-.54.35-.83a1,1,0,0,1,.26-.15.79.79,0,0,0,.25-.15.06.06,0,0,1,.09.07.8.8,0,0,1-.3.19.8.8,0,0,0-.22.13c-.31.26-.4.47-.32.7a.85.85,0,0,0,.71.48A1.37,1.37,0,0,0,81.9,62.7a.36.36,0,0,1,0-.1v0a.05.05,0,0,1,.07-.05.06.06,0,0,1,0,.07v0s0,.07,0,.1A1.48,1.48,0,0,1,80.67,63.94Z"/><path d="M96.86,60.26H96.7a2.67,2.67,0,0,1-.4-.13,2.85,2.85,0,0,0-.39-.11.59.59,0,0,1-.33-.31,1.13,1.13,0,0,0-.1-.13l-.06-.09c-.06-.09-.1-.16-.22-.18s-.22-.22-.27-.37a1.74,1.74,0,0,0-.52-.79.59.59,0,0,0-.52-.12.22.22,0,0,0-.21.2c0,.14-.09.29-.14.43l-.09.23v0c0,.07-.06.18-.19.19l-.76.06-.29,0s0,0-.06,0a.06.06,0,0,1,.06-.06l.28,0,.76-.07s.06,0,.09-.11v0a1.55,1.55,0,0,1,.08-.23,3.38,3.38,0,0,0,.13-.42.34.34,0,0,1,.31-.28.69.69,0,0,1,.61.14,1.81,1.81,0,0,1,.56.85c0,.06.08.26.19.28a.48.48,0,0,1,.28.23l.06.09a.71.71,0,0,1,.1.14c.08.12.15.23.26.25a2.8,2.8,0,0,1,.41.13,2.72,2.72,0,0,0,.38.11.43.43,0,0,0,.36-.05.07.07,0,0,1,.08,0,.06.06,0,0,1,0,.08A.55.55,0,0,1,96.86,60.26Z"/><path d="M82.41,43.23a.05.05,0,0,1,0,0c0-.08-.07-.12-.12-.17L82.18,43l-.11-.1a1.12,1.12,0,0,1-.34-.45.91.91,0,0,1,.16-1,.74.74,0,0,1,.92-.06,2.24,2.24,0,0,1,.37.2,1,1,0,0,0,.59.1c.14,0,.21-.07.23-.18a.06.06,0,0,1,.06-.05s.06,0,0,.07-.08.25-.33.27a1,1,0,0,1-.66-.12l-.36-.19a.63.63,0,0,0-.79,0,.81.81,0,0,0-.13.88,1,1,0,0,0,.31.41l.11.1,0,.05a.41.41,0,0,1,.16.24s0,.06,0,.07Z"/><path d="M97.62,44.05a.06.06,0,0,1,0-.1c.17-.15.26-.26.09-.47a.42.42,0,0,1-.09-.35.57.57,0,0,1,1-.37.75.75,0,0,1,.23.39.5.5,0,0,0,.23.34.63.63,0,0,0,.53-.07.82.82,0,0,0,.22-.16l.17-.14h0c.32-.21.53-.35.92,0l.06,0,0,0a.06.06,0,0,1,0,.08.06.06,0,0,1-.08,0h0l-.09-.05c-.33-.26-.47-.17-.79,0l0,0-.15.13a1.7,1.7,0,0,1-.26.18.75.75,0,0,1-.62.07.65.65,0,0,1-.29-.42.59.59,0,0,0-.19-.33.52.52,0,0,0-.61-.06.53.53,0,0,0-.19.35.39.39,0,0,0,.06.27c.24.28.08.46-.09.62Z"/><path d="M89.92,51.18s-.06,0-.06,0a.52.52,0,0,0-.26-.36,2.21,2.21,0,0,0-1.16-.41h-.35a6.57,6.57,0,0,0-1.33,0,.49.49,0,0,1-.53-.3c-.07-.17.11-.26.24-.32l.08,0h0a3.41,3.41,0,0,1,1.31-.29,2.73,2.73,0,0,1,1.58.35l.14.09c.25.15.54.33.49.76a.06.06,0,0,1-.07,0,.06.06,0,0,1,0-.06c0-.35-.18-.49-.43-.64l-.14-.09a2.55,2.55,0,0,0-1.52-.33,3.11,3.11,0,0,0-1.26.27h0l-.1.05c-.15.07-.21.11-.18.17a.38.38,0,0,0,.4.23,6.12,6.12,0,0,1,1.35,0l.36,0a2.2,2.2,0,0,1,1.21.43.63.63,0,0,1,.31.43,0,0,0,0,1,0,.06Z"/><path d="M101,51.89c-.54,0-.71-.42-.83-.75a1.45,1.45,0,0,1-.82-.12.87.87,0,0,1-.36-.35,1.66,1.66,0,0,0-.16-.21.05.05,0,0,1,0-.08.06.06,0,0,1,.08,0,1,1,0,0,1,.19.23.72.72,0,0,0,.3.3,1.34,1.34,0,0,0,.81.11.06.06,0,0,1,.07,0c.14.4.28.72.73.72h0c.45,0,.6-.31.7-.78l0,0h0a3.06,3.06,0,0,0,1,0,5,5,0,0,1,.67,0,1.11,1.11,0,0,1,.31.09.78.78,0,0,0,.36.08.06.06,0,0,1,.06.06.06.06,0,0,1,0,.06,1,1,0,0,1-.41-.09,1.13,1.13,0,0,0-.28-.09,4.85,4.85,0,0,0-.66,0,2.91,2.91,0,0,1-1-.05c-.09.42-.27.8-.8.81Z"/><path d="M100.17,53.14l0,0A3,3,0,0,0,98.59,52a4.71,4.71,0,0,0-1.3-.13c-.06,0-.12,0-.12,0a.68.68,0,0,1-.28.43l-.13.13a.06.06,0,0,1-.09,0,.06.06,0,0,1,0-.08c0-.05.1-.1.15-.15a.57.57,0,0,0,.24-.36c0-.08.09-.14.22-.14h0a5.17,5.17,0,0,1,1.35.14,3.11,3.11,0,0,1,1.58,1.14.05.05,0,0,1,0,.08Z"/><path d="M92.07,55.43h0l0,0a.55.55,0,0,0-.17-.13,4.58,4.58,0,0,1-1.06-.62A2.16,2.16,0,0,1,90,53.55a.3.3,0,0,1,0-.29.19.19,0,0,1,.19-.06,1.48,1.48,0,0,0,.42,0,1.28,1.28,0,0,1,.64,0,.05.05,0,0,1,0,.1,1.26,1.26,0,0,0-.58,0,1.76,1.76,0,0,1-.46,0,.09.09,0,0,0-.09,0,.31.31,0,0,0,0,.19,2.15,2.15,0,0,0,.72,1,4.8,4.8,0,0,0,1,.61.72.72,0,0,1,.2.14l0,0a.06.06,0,0,1,0,.08A0,0,0,0,1,92.07,55.43Z"/><path d="M101.12,45.27H101a1.28,1.28,0,0,1-1.15-.85c-.08-.19-.18-.28-.32-.3a.9.9,0,0,0-1.06.58.31.31,0,0,1-.39.23.54.54,0,0,1-.49-.35,4,4,0,0,1-.13-.6c0-.08,0-.17,0-.25a.06.06,0,0,1,0-.07s.07,0,.07.05,0,.17,0,.25a3.87,3.87,0,0,0,.13.59.44.44,0,0,0,.4.27c.13,0,.2,0,.26-.15A1,1,0,0,1,99.55,44a.55.55,0,0,1,.42.38,1.16,1.16,0,0,0,1,.78,1.21,1.21,0,0,0,1.16-.65,1,1,0,0,1,.17-.22v0a.06.06,0,0,1,.08,0,.06.06,0,0,1,0,.08l0,0a.9.9,0,0,0-.15.19A1.32,1.32,0,0,1,101.12,45.27Z"/><path d="M85.22,59.71a.47.47,0,0,1-.25-.1.88.88,0,0,1-.4-.51.25.25,0,0,0-.27-.21A2,2,0,0,1,83,58.32a.65.65,0,0,0-.46.66,2,2,0,0,1,0,.26l0,.06s0,.05-.07,0a.06.06,0,0,1,0-.07v-.06a2,2,0,0,0,0-.24A.78.78,0,0,1,83,58.2a.07.07,0,0,1,.06,0,1.73,1.73,0,0,0,1.23.56.36.36,0,0,1,.37.3.78.78,0,0,0,.34.44c.11.07.19.11.28.06a1.16,1.16,0,0,0,.58-1.48,1.58,1.58,0,0,0-.68-.65l-.08,0a.06.06,0,0,1,0-.06,1.11,1.11,0,0,1,.07-.26,1.29,1.29,0,0,0,.06-.25,1.85,1.85,0,0,0-.26-1,.07.07,0,0,1,0-.08.06.06,0,0,1,.07,0,1.91,1.91,0,0,1,.27,1.08.82.82,0,0,1-.06.28.83.83,0,0,0-.06.21l.05,0A1.67,1.67,0,0,1,86,58a1.26,1.26,0,0,1-.63,1.63A.22.22,0,0,1,85.22,59.71Z"/><path d="M104.81,47.59l-.29,0a2.26,2.26,0,0,1-1.14-.52l0,0a.49.49,0,0,1-.17-.38.06.06,0,0,1,.12,0,.36.36,0,0,0,.12.29h0a2.09,2.09,0,0,0,1.08.51,1.24,1.24,0,0,0,1-.23l0,0a.5.5,0,0,0-.11-.1,18.87,18.87,0,0,1-1.65-1.36c-.28-.26-.53-.54-.78-.81s-.31-.34-.47-.5l0,0a.37.37,0,0,1-.17-.34.06.06,0,0,1,.06,0,.05.05,0,0,1,.05.06.3.3,0,0,0,.14.25s0,0,0,.05.31.34.47.5.49.55.76.8A16.83,16.83,0,0,0,105.47,47l.12.13.07.06a.06.06,0,0,1,0,.08A1.09,1.09,0,0,1,104.81,47.59Z"/><path d="M82.49,56.81a.78.78,0,0,1-.26,0,.85.85,0,0,1-.55-.56v0a.21.21,0,0,1,0-.2.17.17,0,0,1,.16-.05.05.05,0,0,1,.05.06,0,0,0,0,1-.06,0h-.06a.17.17,0,0,0,0,.1v0a.73.73,0,0,0,.47.48.66.66,0,0,0,.6-.08A.92.92,0,0,0,83,55.33a.83.83,0,0,1-.11-.88,1.29,1.29,0,0,1,.41-.51,1,1,0,0,1,.79-.17,1.06,1.06,0,0,1,.74.47.05.05,0,0,1,0,.08.06.06,0,0,1-.08,0,.93.93,0,0,0-.66-.42.9.9,0,0,0-.7.15,1.27,1.27,0,0,0-.37.46.72.72,0,0,0,.09.77,1,1,0,0,1-.14,1.41A.77.77,0,0,1,82.49,56.81Z"/><path d="M89.38,38.27s0,0,0,0a1.38,1.38,0,0,1-.29-.61L89,37.41c-.07-.18-.1-.31,0-.4s.2-.09.41-.1.41,0,.61,0a3,3,0,0,1,1.24,0s0,0,0,.07a.06.06,0,0,1-.07,0A3.28,3.28,0,0,0,90,37c-.2,0-.41.05-.62.06s-.28,0-.31,0,0,.17,0,.29a2.17,2.17,0,0,1,.07.24,1.29,1.29,0,0,0,.26.57.06.06,0,0,1,0,.08Z"/><path d="M90.17,66.93a.05.05,0,0,1,0,0,.07.07,0,0,1,0-.08c.28-.19,0-1.84-.1-2.64,0-.24-.07-.43-.08-.54a.19.19,0,0,0,0-.11.07.07,0,0,1-.08,0s0-.07,0-.08a.12.12,0,0,1,.1,0,.3.3,0,0,1,.1.2c0,.11,0,.29.08.53.2,1.28.37,2.55,0,2.76Z"/><path d="M92.46,54.61h0a.05.05,0,0,1,0-.06.43.43,0,0,1,.06-.17.21.21,0,0,0,0-.12,1.17,1.17,0,0,1,.57-.87,1.25,1.25,0,0,1,1.13,0A3.22,3.22,0,0,1,95,54l0,0,.11-.15.11-.12a.84.84,0,0,1,.73-.43s0,0,0,.06a.06.06,0,0,1-.06.05c-.3,0-.46.19-.64.39a.69.69,0,0,1-.11.13l-.09.13-.07.09,0,0h0a3.35,3.35,0,0,0-.84-.64,1.12,1.12,0,0,0-1,0,1,1,0,0,0-.51.79.39.39,0,0,1-.07.16.61.61,0,0,0,0,.12A.06.06,0,0,1,92.46,54.61Z"/><path d="M85.1,39.74s0,0,0,0a1.11,1.11,0,0,0-.15-.31.86.86,0,0,1-.1-.16.91.91,0,0,1,0-1,.66.66,0,0,1,.43-.3.9.9,0,0,1,.67.24h.06a.72.72,0,0,1,.27-.12c.15,0,.27-.07.31-.22a.06.06,0,0,1,.11,0c-.06.22-.23.26-.39.3a.74.74,0,0,0-.22.1.19.19,0,0,1-.1,0H85.8a.79.79,0,0,0-.6-.23.48.48,0,0,0-.35.25.76.76,0,0,0,.05.84l.09.15a1,1,0,0,1,.17.35,0,0,0,0,1,0,.06Z"/><path d="M94.5,56.62a.05.05,0,0,1,0,0,0,0,0,0,1,0-.06,1.86,1.86,0,0,0,.59-.23l.3-.14a5.13,5.13,0,0,1,2-.34,1.1,1.1,0,0,1,1,.69.06.06,0,0,1-.11,0,1,1,0,0,0-.88-.6,4.7,4.7,0,0,0-2,.33l-.3.14a1.9,1.9,0,0,1-.63.23Z"/><path d="M95.52,38.39a.07.07,0,0,1,0,0,.05.05,0,0,1,0-.07.93.93,0,0,1,.39-.1,1.24,1.24,0,0,0,.68-.18.65.65,0,0,0,.34-.5.56.56,0,0,0-.24-.48,5.46,5.46,0,0,0-.48-.36L96,36.51a.05.05,0,0,1,0-.08.05.05,0,0,1,.08,0l.22.16c.16.11.33.23.49.36a.71.71,0,0,1,.28.58.8.8,0,0,1-.4.59,1.5,1.5,0,0,1-.74.2.74.74,0,0,0-.34.08Z"/><path d="M100.45,48.18h0a0,0,0,0,1,0-.07c.31-.85.83-1.17,1.59-1a3.51,3.51,0,0,1,.73.26l.33.14a.22.22,0,0,1,.15.22.07.07,0,0,1-.07.06.08.08,0,0,1,0-.07s0-.08-.07-.11l-.34-.13a3.46,3.46,0,0,0-.7-.26c-.7-.16-1.18.15-1.47.93A.05.05,0,0,1,100.45,48.18Z"/><path d="M91.4,43.45a.42.42,0,0,1-.13,0,.67.67,0,0,0-.28,0,.86.86,0,0,1-.23,0,.08.08,0,0,1-.05-.07.06.06,0,0,1,.06,0,.67.67,0,0,0,.2,0,.74.74,0,0,1,.33,0c.1,0,.15,0,.18,0s0-.12,0-.21v0a.9.9,0,0,0-.22-.26,1.45,1.45,0,0,1-.17-.18.65.65,0,0,1,0-1l0,0a.65.65,0,0,1,.3-.27.35.35,0,0,0,.23-.28.36.36,0,0,0,0-.09l0-.1c0-.13.09-.29.29-.32,0,0,.07,0,.07.05a.05.05,0,0,1-.05.06c-.13,0-.16.11-.2.24a.36.36,0,0,1,0,.11l0,.09a.47.47,0,0,1-.31.35c-.09,0-.16.13-.23.23l0,0c-.26.34-.26.48,0,.83a1.21,1.21,0,0,0,.16.16,1.21,1.21,0,0,1,.25.3v0a.31.31,0,0,1,0,.31A.2.2,0,0,1,91.4,43.45Z"/><path d="M98.1,50.65a1.06,1.06,0,0,1-.69-.22,1.37,1.37,0,0,1-.35-1.54.18.18,0,0,1,.15-.09h0a.05.05,0,0,1,.08,0,.06.06,0,0,1,0,.08l-.08,0s0,0-.06,0a1.3,1.3,0,0,0,.32,1.41,1.18,1.18,0,0,0,1.29,0,.11.11,0,0,0,.06-.12s0,0,.06-.06a.06.06,0,0,1,.06.06.23.23,0,0,1-.11.22A1.31,1.31,0,0,1,98.1,50.65Z"/><path d="M89.23,43h0a1.79,1.79,0,0,1-1.58-1.55.73.73,0,0,0-.5-.55,1.3,1.3,0,0,0-1,.17.07.07,0,0,1-.08,0A.05.05,0,0,1,86,41a1.41,1.41,0,0,1,1.09-.18.82.82,0,0,1,.58.65,1.73,1.73,0,0,0,1.47,1.45c.13,0,.2,0,.23,0a.23.23,0,0,0,0-.16c0-.12,0-.25,0-.37a2.89,2.89,0,0,0-.08-.72.37.37,0,0,1,0-.21c.15-.43-.09-.61-.37-.82a1.71,1.71,0,0,1-.26-.21c-.58-.07-.74-.53-.89-.93l-.06-.18a.76.76,0,0,0-.12-.19,1.32,1.32,0,0,1-.12-.2.07.07,0,0,1,0-.08.05.05,0,0,1,.07,0,.67.67,0,0,0,.11.18,1.14,1.14,0,0,1,.12.22,1.34,1.34,0,0,1,.07.18c.15.41.29.8.81.86l0,0a3,3,0,0,0,.26.21c.27.21.59.44.41,1a.17.17,0,0,0,0,.14,3.14,3.14,0,0,1,.09.75c0,.12,0,.24,0,.36a.27.27,0,0,1-.05.25A.34.34,0,0,1,89.23,43Z"/><path d="M79.77,45.07a.63.63,0,0,1-.39-.13,1.26,1.26,0,0,1-.39-.86.45.45,0,0,1,.06-.36c.07-.08.2-.09.4-.07a2.57,2.57,0,0,1,.72.2l.2.07a1.13,1.13,0,0,0,1-.08.62.62,0,0,0,.29-.58,0,0,0,0,1,0,0l.17,0a3,3,0,0,1,1.2.07h.1a.06.06,0,0,1,0,.12h0s-.06,0-.09,0a3.22,3.22,0,0,0-1.16,0H81.8a.7.7,0,0,1-.34.62,1.24,1.24,0,0,1-1.13.09l-.2-.08a2.45,2.45,0,0,0-.69-.19c-.16,0-.27,0-.31,0s0,.12,0,.27a1.12,1.12,0,0,0,.35.78.5.5,0,0,0,.4.1.06.06,0,0,1,.06,0s0,.06,0,.07Z"/><path d="M101.06,55.53l-.13,0a.68.68,0,0,1-.37-.43,1.38,1.38,0,0,0-.35-.49,1,1,0,0,1-.27-.32.06.06,0,1,1,.11-.05.9.9,0,0,0,.24.29,1.52,1.52,0,0,1,.38.53.54.54,0,0,0,.3.36.6.6,0,0,0,.47-.13l.62-.41.28-.19s.07,0,.08,0a.06.06,0,0,1,0,.08l-.28.19-.63.41A1,1,0,0,1,101.06,55.53Z"/><path d="M97.35,60.25a.36.36,0,0,1-.3-.2.4.4,0,0,0-.1-.12,6,6,0,0,1-.76-.84L96.07,59a5.43,5.43,0,0,1-.68-1.23.38.38,0,0,1,0-.32.36.36,0,0,1,.27-.15,2.69,2.69,0,0,0,.45-.16l.29-.13a3.14,3.14,0,0,0,.58-.29l.07,0a3,3,0,0,1,.41-.19,1.81,1.81,0,0,0,.55-.29.06.06,0,0,1,.07.09,1.91,1.91,0,0,1-.58.31,2,2,0,0,0-.39.18l-.07,0a2.8,2.8,0,0,1-.6.3l-.28.12a2,2,0,0,1-.48.17c-.1,0-.17,0-.19.09a.31.31,0,0,0,0,.22,5.06,5.06,0,0,0,.67,1.21l.12.14a5.29,5.29,0,0,0,.75.82.81.81,0,0,1,.12.14c.07.12.13.18.26.15s.06,0,.07,0a.06.06,0,0,1,0,.06Z"/><path d="M96.49,54.38s-.06,0-.06,0,0-.15.14-.17a.79.79,0,0,0,.37-.25l0,0a1.48,1.48,0,0,1,1.2-.36,2.11,2.11,0,0,1,1,.37,1.16,1.16,0,0,0,1.06.17.73.73,0,0,1,.24-.07.82.82,0,0,0,.32-.12.79.79,0,0,0,.34-.46A.39.39,0,0,0,101,53a.4.4,0,0,0-.47-.09l-.21.09-.08,0a.06.06,0,0,1-.08,0,.06.06,0,0,1,0-.07l.1,0a.71.71,0,0,0,.18-.08.57.57,0,0,1,.76.7,1,1,0,0,1-.38.52,1,1,0,0,1-.36.13,1.41,1.41,0,0,0-.22.06A1.25,1.25,0,0,1,99.05,54a1.79,1.79,0,0,0-.9-.35A1.31,1.31,0,0,0,97,54l0,0a.82.82,0,0,1-.41.27h0c-.06,0-.06,0-.06,0a0,0,0,0,1,0,.06Z"/><path d="M78.65,49.22H78.6c-.09-.05-.19-.1-.21-.24a1.83,1.83,0,0,0-.06-.25,1.44,1.44,0,0,1-.07-.36,1,1,0,0,1,.47-1,.94.94,0,0,1,1,0,1.74,1.74,0,0,0,.4.15,1.39,1.39,0,0,1,.6.26h.14a.91.91,0,0,0,.86-.69c0-.14.06-.26.25-.28a.63.63,0,0,1,.48.1.57.57,0,0,1,.18.44.31.31,0,0,1,0,.1.78.78,0,0,1,0,.16c0,.19.07.28.27.36a.22.22,0,0,0,.24-.05l.08-.06c.44-.23.52-.24.87.1a.06.06,0,0,1,0,.08s-.06,0-.08,0c-.3-.29-.33-.3-.73-.08a.18.18,0,0,0-.07.05.32.32,0,0,1-.35.07.47.47,0,0,1-.35-.47.76.76,0,0,0,0-.15s0-.07,0-.1a.55.55,0,0,0-.14-.36.5.5,0,0,0-.39-.07c-.11,0-.14,0-.16.18a1,1,0,0,1-1,.78h0a.42.42,0,0,1-.15,0,1.36,1.36,0,0,0-.55-.24,2.45,2.45,0,0,1-.43-.15.81.81,0,0,0-.85,0,.94.94,0,0,0-.42.91,2.17,2.17,0,0,0,.07.33,2,2,0,0,1,.06.26c0,.08.06.11.15.15l0,0a.06.06,0,0,1,0,.08A.05.05,0,0,1,78.65,49.22Z"/><path d="M93.88,35.5h0a.06.06,0,0,1,0-.07.06.06,0,0,1,.06,0,.13.13,0,0,0,.12,0,.11.11,0,0,0,0-.08,1.41,1.41,0,0,0,0-.2,1.22,1.22,0,0,0-.34-1h0l-.1.1a.49.49,0,0,1-.43.2.05.05,0,0,1-.05,0c0-.08-.07-.17-.11-.25a1.16,1.16,0,0,0-.36-.57,1.36,1.36,0,0,0-.74-.29.22.22,0,0,0-.27.18.07.07,0,0,1-.08,0s0,0,0-.08a.35.35,0,0,1,.4-.26,1.51,1.51,0,0,1,.79.32,1.36,1.36,0,0,1,.4.62l.09.21a.42.42,0,0,0,.31-.17A.74.74,0,0,1,93.6,34h.06s0,0,.06,0a1.33,1.33,0,0,1,.4,1.12,1.41,1.41,0,0,0,0,.2.21.21,0,0,1-.08.16A.21.21,0,0,1,93.88,35.5Z"/><path d="M93,55.21a.09.09,0,0,1,0,0s0-.07,0-.11a.38.38,0,0,0-.16-.21,1.17,1.17,0,0,1-.66-1.16,2,2,0,0,0,0-.25,5.48,5.48,0,0,0,0-1.07.82.82,0,0,1,0-.41.54.54,0,0,0-.55,0,.85.85,0,0,0-.5.45.87.87,0,0,0,0,.75.06.06,0,0,1-.11,0,1,1,0,0,1,0-.85,1,1,0,0,1,.57-.51.63.63,0,0,1,.68.07.06.06,0,0,1,0,.07.76.76,0,0,0,0,.39,5.08,5.08,0,0,1,0,1.1v.24a1.05,1.05,0,0,0,.59,1.06A.46.46,0,0,1,93,55l0,.09a.05.05,0,0,1,0,.08Z"/><path d="M81.44,51.48a1.11,1.11,0,0,1-.52-.13.07.07,0,0,1,0-.08.05.05,0,0,1,.08,0,1,1,0,0,0,1.12-.14,1.43,1.43,0,0,0,.31-.38,2,2,0,0,1,.17-.23l.07-.09a1,1,0,0,1,.67-.47,0,0,0,0,1,.06,0v0a1.33,1.33,0,0,0,.37.41.06.06,0,0,1,0,.08.06.06,0,0,1-.07,0,1.33,1.33,0,0,1-.4-.45.89.89,0,0,0-.56.43l-.07.09a1.88,1.88,0,0,0-.16.23,1.85,1.85,0,0,1-.34.4A1.11,1.11,0,0,1,81.44,51.48Z"/><path d="M83.85,51.41a.17.17,0,0,1-.1,0,.12.12,0,0,1,0-.12,1.35,1.35,0,0,0,0-.39v-.09c0-.13-.07-.33.09-.4a.56.56,0,0,1,.56,0l.14.08a2.92,2.92,0,0,1,.32.21.86.86,0,0,0,.77.18h0a1.78,1.78,0,0,0,1-.51.05.05,0,0,1,.08,0,.06.06,0,0,1,0,.08,2,2,0,0,1-1.06.55h0a1,1,0,0,1-.87-.2l-.31-.2-.14-.08a.45.45,0,0,0-.45,0c-.07,0-.06.14,0,.28l0,.09a1.18,1.18,0,0,1,0,.42v0h0a0,0,0,0,1,.06,0,.05.05,0,0,1,0,.07Z"/><path d="M89.29,44.84a0,0,0,0,1-.05-.05v-.07c0-.1,0-.16-.08-.2h0a2.08,2.08,0,0,0-1.41-.28h0c-.08,0-.22,0-.29-.08l-.13-.2a1.36,1.36,0,0,1-.31-.91A.06.06,0,0,1,87,43a.06.06,0,0,1,.06.06,1.23,1.23,0,0,0,.29.84l.12.2s.07,0,.17,0h0a2.17,2.17,0,0,1,1.48.29h0c.16.07.15.2.15.3v.06a.06.06,0,0,1,0,.06Z"/><path d="M82.18,48.89a.76.76,0,0,1-.21,0c-.26-.09-.3-.31-.34-.51v-.07a.9.9,0,0,1,0-.23.56.56,0,0,0-.13-.42.05.05,0,0,1,0-.08s0,0,.08,0a.63.63,0,0,1,.16.5c0,.07,0,.14,0,.21l0,.07c0,.19.06.35.26.42a.54.54,0,0,0,.59-.18v0a.83.83,0,0,0,.31-.49.06.06,0,1,1,.12,0,1,1,0,0,1-.35.55v0A.71.71,0,0,1,82.18,48.89Z"/><path d="M80,57.84h0a.07.07,0,0,1,0-.09l.15-.17a1.14,1.14,0,0,0,.4-.73.67.67,0,0,1,.05-.19v0a1.12,1.12,0,0,1,.53-.71c.35-.2.47-.22.75.07a0,0,0,0,1,0,.08.06.06,0,0,1-.08,0c-.24-.24-.3-.23-.61,0a1,1,0,0,0-.48.65l0,0a1.22,1.22,0,0,0,0,.17,1.29,1.29,0,0,1-.43.8l-.16.17A.05.05,0,0,1,80,57.84Z"/><path d="M90.14,45.29h0a.48.48,0,0,1-.19-.37h0l-.06-.47c0-.2,0-.41-.09-.61a2.7,2.7,0,0,1,0-.28.82.82,0,0,0-.25-.65.06.06,0,0,1,.08-.09,1,1,0,0,1,.29.73,2.48,2.48,0,0,0,0,.27,6.17,6.17,0,0,1,.09.62l.06.46v0c0,.1,0,.22.13.28a.05.05,0,0,1,0,.08Z"/><path d="M95.46,44.09a2.58,2.58,0,0,1-1-.27l-.34-.15c-.31-.14-.64-.29-1-.41a.6.6,0,0,0-.49,0s-.06,0-.08,0a.05.05,0,0,1,0-.07.69.69,0,0,1,.58,0l1,.41.34.15a1.87,1.87,0,0,0,1.29.23l.06,0c.19-.05.35-.09.41-.28a.58.58,0,0,0-.39-.61.06.06,0,0,1,0-.08.05.05,0,0,1,.07,0,.69.69,0,0,1,.46.75c-.07.25-.29.31-.49.36l-.06,0A1.47,1.47,0,0,1,95.46,44.09Z"/><path d="M84.85,46.34h0a.05.05,0,0,1,0-.08A1,1,0,0,1,86,46l.08,0a1.37,1.37,0,0,0,1.07.06.05.05,0,0,1,.07,0s0,.06,0,.08a1.5,1.5,0,0,1-1.14-.06l-.09,0a.91.91,0,0,0-1.07.21A0,0,0,0,1,84.85,46.34Z"/><path d="M90.6,43.11h0a.06.06,0,0,1,0-.07.84.84,0,0,0,0-.56c-.12-.36-.24-.76-.37-1.25-.07-.24-.15-.54.22-.7a.59.59,0,0,0,.13-.19c.19-.38.42-.75.59-1,0,0,0-.1.08-.16a.5.5,0,0,1,.26-.34,3.11,3.11,0,0,0,.4-.22,2.89,2.89,0,0,1,.56-.27s0-.07,0-.11a.06.06,0,0,1,.11,0,.21.21,0,0,1-.13.23,2.89,2.89,0,0,0-.53.26,4.16,4.16,0,0,1-.42.23c-.1,0-.15.15-.2.27a1.42,1.42,0,0,1-.08.18,10.77,10.77,0,0,0-.59,1c-.11.2-.16.23-.18.24-.28.12-.23.32-.16.56.13.49.25.89.37,1.24a1.05,1.05,0,0,1,0,.63A.05.05,0,0,1,90.6,43.11Z"/><path d="M90,63.52h0s0-.05,0-.07c.39-1-.08-1.52-.84-2.26a.05.05,0,0,1,0-.08.08.08,0,0,1,.09,0c.65.63,1.32,1.28.87,2.38A.05.05,0,0,1,90,63.52Z"/><path d="M84.62,39.83H84a.24.24,0,0,1-.28-.19.85.85,0,0,0-.62-.66.29.29,0,0,1-.17-.17,0,0,0,0,1,0-.05.92.92,0,0,1,.23-.31.9.9,0,0,1,.59-.2l.26,0a.06.06,0,1,1,0,.11,1.33,1.33,0,0,1-.28,0,.81.81,0,0,0-.52.17,1.13,1.13,0,0,0-.2.26.2.2,0,0,0,.1.08,1,1,0,0,1,.69.75c0,.07.07.11.16.1a2.71,2.71,0,0,1,.4,0,1.78,1.78,0,0,0,.61,0,.49.49,0,0,1,.24,0l.09,0a.06.06,0,0,1,.06.06.07.07,0,0,1-.07,0l-.1,0a.36.36,0,0,0-.18,0A1.73,1.73,0,0,1,84.62,39.83Z"/><path d="M91.25,56.65h0a.56.56,0,0,0-.17-.09,1.09,1.09,0,0,1-.23-.14.64.64,0,0,1-.27-.54.53.53,0,0,1,.28-.38,1,1,0,0,1,1.11.15.05.05,0,0,1,0,.08.05.05,0,0,1-.08,0,.88.88,0,0,0-1-.14.42.42,0,0,0-.23.3.54.54,0,0,0,.24.43.59.59,0,0,0,.2.12.93.93,0,0,1,.19.11s0,.05,0,.08Z"/><path d="M96.33,45.37c-.36,0-1-.24-1.06-.54a.11.11,0,0,1,0-.08v0a.06.06,0,0,1,0-.06.06.06,0,0,1,.06.06v.06c.08.24.66.48,1,.46a.33.33,0,0,0,.28-.18c.14-.24.34-.57.52-.91a.05.05,0,0,1,.08,0,.05.05,0,0,1,0,.08c-.18.34-.38.66-.53.91a.39.39,0,0,1-.36.23Z"/><path d="M100.08,40.74a.06.06,0,0,1-.06-.06.57.57,0,0,1,.08-.26.51.51,0,0,0,.07-.15.61.61,0,0,0-.55-.72,1.45,1.45,0,0,0-.84.1.05.05,0,0,1-.08,0s0-.06,0-.08a1.63,1.63,0,0,1,.91-.11.69.69,0,0,1,.52.28.71.71,0,0,1,.13.57.46.46,0,0,1-.08.19.47.47,0,0,0-.06.2s0,0-.06.06Z"/><path d="M79.19,53.39h0s-.05,0-.05-.06v-.51c0-.49,0-1,0-1.5a.22.22,0,0,0,0-.1.21.21,0,0,1,0-.28.06.06,0,0,1,.08,0,.06.06,0,0,1,0,.09c-.05,0,0,.07,0,.14a.43.43,0,0,1,0,.16c0,.5,0,1,0,1.5l0,.51A0,0,0,0,1,79.19,53.39Z"/><path d="M92.15,57.67a.07.07,0,0,1-.05,0,.06.06,0,0,1,0-.07l.08,0a.53.53,0,0,0,.15-.05,10.1,10.1,0,0,1,2-1,.05.05,0,0,1,.07,0,.06.06,0,0,1,0,.08,9.52,9.52,0,0,0-2,1,.49.49,0,0,1-.19.07l-.08,0Z"/><path d="M92.75,47.87a.05.05,0,0,1-.06,0,1,1,0,0,1,0-.45.9.9,0,0,0-.74-1,1.05,1.05,0,0,1-.46-.18.06.06,0,0,1,0-.08.05.05,0,0,1,.08,0,.73.73,0,0,0,.4.15,1,1,0,0,1,.83,1.17,1,1,0,0,0,0,.4.06.06,0,0,1,0,.08Z"/><path d="M81.3,60.16l0,0L81,59.82l-.49-.7c-.11-.16-.18-.28-.15-.39s.12-.19.28-.29a1,1,0,0,1,.69-.14c.14,0,.18.13.22.22a.27.27,0,0,0,.07.13,1,1,0,0,1,.12.17l0,0a1.18,1.18,0,0,0,.54.39l.17.08a.05.05,0,0,1,0,.07.07.07,0,0,1-.08,0l-.17-.08a1.29,1.29,0,0,1-.59-.42l0,0a.42.42,0,0,0-.11-.15.56.56,0,0,1-.09-.17c0-.09-.06-.14-.13-.15a.84.84,0,0,0-.61.13c-.15.09-.22.16-.23.21s0,.15.13.3l.49.71.22.31a.06.06,0,0,1,0,.08Z"/><path d="M94.59,39.52a.06.06,0,0,1-.06-.05.08.08,0,0,1,0-.07l.19,0a1.51,1.51,0,0,1,.6,0,.45.45,0,0,0,.2,0c.22,0,.37-.1.4-.26a.38.38,0,0,0-.22-.39,1.06,1.06,0,0,1-.42-.6.05.05,0,0,1,.1,0h0a.9.9,0,0,0,.37.54.5.5,0,0,1,.27.51c0,.27-.34.33-.49.36a.7.7,0,0,1-.25,0,1.32,1.32,0,0,0-.56,0l-.19,0Z"/><path d="M83.6,37.88a.06.06,0,0,1,0-.06,0,0,0,0,1,0-.06c.25,0,.42-.07.43-.34,0-.05,0-.09.09-.12l0,0a3.18,3.18,0,0,1,1.38-.73h0a1.62,1.62,0,0,1,.9-.11h0c.07,0,.19,0,.17.2a.06.06,0,0,1-.06,0s-.06,0,0-.07,0-.06-.08-.07h0a1.49,1.49,0,0,0-.83.11h0a3.16,3.16,0,0,0-1.33.7l0,0,0,0c0,.39-.33.42-.54.45Z"/><path d="M102.09,58a1.36,1.36,0,0,1-.83-.33l0,0a.49.49,0,0,0-.18-.11s0,0,0-.07,0,0,.07,0a.54.54,0,0,1,.22.13l0,0a1.07,1.07,0,0,0,1.5,0l0,0c.23-.19.45-.37.36-.71a.05.05,0,0,1,0-.07.06.06,0,0,1,.08,0c.11.41-.16.63-.4.83l0,0A1.31,1.31,0,0,1,102.09,58Z"/><path d="M78.7,54.72h-.06a.8.8,0,0,1-.73-.67.76.76,0,0,1,.56-.81,1.32,1.32,0,0,1,.83.1.07.07,0,0,1,0,0,.07.07,0,0,1,0,.06s0,0,0,0a.15.15,0,0,1,0,.12.05.05,0,0,1-.08,0,.06.06,0,0,1,0-.08.07.07,0,0,0,0-.05.14.14,0,0,1,0-.09,1.25,1.25,0,0,0-.7-.07A.64.64,0,0,0,78,54a.67.67,0,0,0,.62.57h.14a.06.06,0,0,1,.06.06.06.06,0,0,1-.06,0H78.7Z"/><path d="M88.56,52.88h0a.06.06,0,0,1,0-.06v-.23a1.29,1.29,0,0,1,.15-.73,1.6,1.6,0,0,1,1.2-.76.29.29,0,0,1,.23,0,.26.26,0,0,1,.09.21.06.06,0,1,1-.11,0,.22.22,0,0,0,0-.13.23.23,0,0,0-.14,0,1.56,1.56,0,0,0-1.13.71,1.18,1.18,0,0,0-.12.67,1.93,1.93,0,0,1,0,.24A0,0,0,0,1,88.56,52.88Z"/><path d="M92.86,54.84l0,0a.06.06,0,0,1,0-.08,1.61,1.61,0,0,1,1.29-.44,3,3,0,0,0,.68-.08h.06a.64.64,0,0,1,.23-.05l.2,0h0a1.76,1.76,0,0,0,.91-.06.06.06,0,0,1,.07,0,.05.05,0,0,1,0,.07,1.91,1.91,0,0,1-1,.06h0l-.17,0-.21,0h-.06a2.69,2.69,0,0,1-.7.09,1.5,1.5,0,0,0-1.21.4Z"/><path d="M87.39,56.17h0a.07.07,0,0,1,0-.08c0-.1.12-.19.18-.29a2.49,2.49,0,0,0,.26-.48A1,1,0,0,0,87,55a1.25,1.25,0,0,0-.87.58l-.12.19,0,.09a.07.07,0,0,1-.08,0,.08.08,0,0,1,0-.08l0-.09.13-.2a1.33,1.33,0,0,1,1-.62,1.18,1.18,0,0,1,1,.36.06.06,0,0,1,0,.06,2.16,2.16,0,0,1-.29.54c0,.1-.12.19-.17.29A.05.05,0,0,1,87.39,56.17Z"/><path d="M96.77,52.4h0a.59.59,0,0,1-.21-.34V52a1.23,1.23,0,0,0-.9-1,.46.46,0,0,0-.43.08.06.06,0,0,1-.08,0,.05.05,0,0,1,0-.08.58.58,0,0,1,.53-.1,1.39,1.39,0,0,1,1,1.06V52a.56.56,0,0,0,.16.28s0,.05,0,.08Z"/><path d="M94,49.33h-.07a.37.37,0,0,1-.27-.27,2,2,0,0,1-.07-.54v-.07a.21.21,0,0,1,.08-.16.18.18,0,0,1,.15-.06,1.31,1.31,0,0,0,.39,0,1.41,1.41,0,0,1,.46,0,.18.18,0,0,1,.1,0l0,0a.86.86,0,0,1,.59-.35h0a1,1,0,0,0,1-.51.24.24,0,0,1,.16-.11h0a.05.05,0,0,1,.07,0,.07.07,0,0,1,0,.08h-.06a.13.13,0,0,0-.09.06,1.13,1.13,0,0,1-1.09.57h0a.72.72,0,0,0-.56.41,2.2,2.2,0,0,1-.52.81A.45.45,0,0,1,94,49.33Zm-.19-1a.09.09,0,0,0-.06,0,.1.1,0,0,0,0,.08v.06a1.67,1.67,0,0,0,0,.51.29.29,0,0,0,.19.2.29.29,0,0,0,.27-.11,1.84,1.84,0,0,0,.5-.77l0,0,0,0,0,0a1.2,1.2,0,0,0-.42,0,1.54,1.54,0,0,1-.43,0Z"/><path d="M92.45,41.81a1,1,0,0,1-.79-.36l-.06-.05,0,0a.05.05,0,0,1,0-.08.06.06,0,0,1,.08,0l0,0s0,0,.06.06a.91.91,0,0,0,.74.32.89.89,0,0,0,.68-.33A1.47,1.47,0,0,1,93,40.1a.94.94,0,0,1,.7-.58,0,0,0,0,1,0,0l0,0a2.1,2.1,0,0,0,.91,1,1.23,1.23,0,0,0,.57.1,1.9,1.9,0,0,1,.41,0,0,0,0,0,1,0,.06.08.08,0,0,1-.07.05,1.58,1.58,0,0,0-.38,0,1.35,1.35,0,0,1-.62-.12,2.19,2.19,0,0,1-1-1.06.83.83,0,0,0-.58.51,1.31,1.31,0,0,0,.17,1.19.09.09,0,0,1,0,.07,1,1,0,0,1-.8.4Z"/><path d="M96.31,46.49h0A5.18,5.18,0,0,1,95,46.2l-.12,0a.41.41,0,0,1-.27-.19.51.51,0,0,1,0-.39.05.05,0,0,1,.07,0,.06.06,0,0,1,0,.08.39.39,0,0,0,0,.29.29.29,0,0,0,.2.13l.11,0a6.47,6.47,0,0,0,1.23.29.31.31,0,0,0,.17-.05l.09,0a.05.05,0,0,1,.07,0s0,.06,0,.08a.15.15,0,0,0-.07,0A.43.43,0,0,1,96.31,46.49Z"/><path d="M80.15,47.56a.06.06,0,0,1-.06-.06.13.13,0,0,1,0-.06.19.19,0,0,0,0-.08,1.55,1.55,0,0,1,0-1.21,1.06,1.06,0,0,0,0-.2s0-.08,0-.13a.14.14,0,0,0-.08-.16.19.19,0,0,0-.17.05l-.06.06-.08.08a1.71,1.71,0,0,1-1.43.29c-.13,0-.22-.06-.26-.13s0-.17,0-.29l0-.1c.11-.2.21-.41.33-.62a.3.3,0,0,1,.36-.15h0a.55.55,0,0,0,.44-.06s.07,0,.08,0a.05.05,0,0,1,0,.08.63.63,0,0,1-.53.07h0a.19.19,0,0,0-.24.1l-.33.62,0,.09s-.07.14,0,.18.14.07.18.08a1.61,1.61,0,0,0,1.34-.27l.06-.06a.34.34,0,0,1,.09-.08c.13-.1.22-.09.28-.06a.27.27,0,0,1,.15.28s0,.08,0,.12a.91.91,0,0,1,0,.23,1.42,1.42,0,0,0,0,1.12.33.33,0,0,1,0,.14v0A.06.06,0,0,1,80.15,47.56Z"/><path d="M103.54,57.87l0,0a.47.47,0,0,1-.15-.25.36.36,0,0,0-.11-.2.06.06,0,0,1,.08-.09.55.55,0,0,1,.14.26,1,1,0,0,0,.09.18,1.53,1.53,0,0,0,1-.74,1.69,1.69,0,0,0,.17-1.36.51.51,0,0,0-.69-.33.06.06,0,0,1-.07,0,.05.05,0,0,1,0-.07.64.64,0,0,1,.84.4,1.84,1.84,0,0,1-.18,1.46,1.66,1.66,0,0,1-1,.8Z"/><path d="M87.29,35.39l-.31,0h-.07a2.9,2.9,0,0,1-1-.31L85.76,35a.05.05,0,0,1,0-.07.06.06,0,0,1,.08,0L86,35a2.85,2.85,0,0,0,.94.29H87a1.09,1.09,0,0,0,.82-.14A2.1,2.1,0,0,0,87,33.94v0h0a.05.05,0,0,1-.08,0,.06.06,0,0,1,0-.08h0a.09.09,0,0,1,.11,0l0,0a2.26,2.26,0,0,1,.82,1.28.08.08,0,0,1,0,0A.85.85,0,0,1,87.29,35.39Z"/><path d="M82.68,63.45h0a.05.05,0,0,1,0-.08s0,0,0-.08a.18.18,0,0,1,.06-.19l.08-.07a1.5,1.5,0,0,1,.88-.4,1.65,1.65,0,0,1,1,.38.06.06,0,0,1,0,.08.06.06,0,0,1-.08,0,1.47,1.47,0,0,0-1-.37,1.5,1.5,0,0,0-.82.39l-.08.06s0,0,0,.09a.23.23,0,0,1,0,.14A.07.07,0,0,1,82.68,63.45Z"/><path d="M101.28,42.14l-.19,0s0,0,0-.07a.06.06,0,0,1,.07,0,.8.8,0,0,0,.74-.24s.09-.09.08-.15a.17.17,0,0,0-.1-.13,4,4,0,0,0-2.06-.71h-.06a.06.06,0,0,1,0-.06.05.05,0,0,1,0-.06h.06a4,4,0,0,1,2.12.74.29.29,0,0,1,.16.21.3.3,0,0,1-.12.24A.9.9,0,0,1,101.28,42.14Z"/><path d="M86,53.56s0,0,0,0a.19.19,0,0,1,0-.15s0-.07,0-.09a.45.45,0,0,1,.12-.5l0,0a2.32,2.32,0,0,1,1.45-.9,0,0,0,0,1,.06,0,.06.06,0,0,1,0,.07,2.21,2.21,0,0,0-1.38.86l0,0c-.09.12-.18.23-.11.38a.22.22,0,0,1,0,.18.09.09,0,0,0,0,.08.06.06,0,0,1,0,.07Z"/><path d="M89.17,34.18a2,2,0,0,1-1-.25,2.32,2.32,0,0,0-.75-.2.06.06,0,0,1,0-.12,2.36,2.36,0,0,1,.78.22,1.78,1.78,0,0,0,1.07.22c.18,0,.37,0,.43-.19a1.43,1.43,0,0,1,.16-.3.85.85,0,0,0,.19-.42c0-.19.14-.28.37-.27a1.57,1.57,0,0,1,.91.42l.12.09c.19.13.23.56.24.64a.06.06,0,0,1-.06.06s0,0-.06,0a.85.85,0,0,0-.19-.56l-.11-.09a1.63,1.63,0,0,0-.86-.4c-.2,0-.24.08-.25.17a1,1,0,0,1-.2.47,1.56,1.56,0,0,0-.16.28c-.07.2-.3.25-.51.27Z"/><path d="M89.32,41.47h0L88,41l-.3-.12a2.53,2.53,0,0,1-.83-.56.06.06,0,0,1,0-.08.74.74,0,0,0,.16-.58,1,1,0,0,1,.14-.6.05.05,0,0,1,.07,0,.07.07,0,0,1,0,.08.91.91,0,0,0-.13.53.8.8,0,0,1-.15.63,2,2,0,0,0,.76.5l.29.12,1.32.52a.06.06,0,0,1,0,.07A.05.05,0,0,1,89.32,41.47Z"/><path d="M97.36,62.54a1.3,1.3,0,0,1-1-.38,1.38,1.38,0,0,1-.3-1.1.42.42,0,0,0,0-.16l0-.11a.89.89,0,0,0-.09-.26.77.77,0,0,1-.08-.56.07.07,0,0,1,.07,0s0,0,0,.08a.6.6,0,0,0,.08.47,1.66,1.66,0,0,1,.1.29.29.29,0,0,0,0,.09.46.46,0,0,1,0,.21,1.24,1.24,0,0,0,.28,1,1.15,1.15,0,0,0,1,.34h0a.06.06,0,1,1,0,.12Z"/><path d="M83,52.35h-.1a.46.46,0,0,1-.48-.42.06.06,0,1,1,.12,0c0,.21.13.3.37.32a.72.72,0,0,0,.55-.15,1,1,0,0,0,.28-.7.06.06,0,0,1,.06-.06s.06,0,0,.07a1.08,1.08,0,0,1-.32.78A.79.79,0,0,1,83,52.35Z"/><path d="M88.7,40.37h0a.06.06,0,0,1-.06-.06.6.6,0,0,0-.1-.4,1.86,1.86,0,0,1-.23-.49,1,1,0,0,1,0-.1.78.78,0,0,1,0-.77.06.06,0,0,1,.09,0,.06.06,0,0,1,0,.08c-.16.22-.08.43,0,.66a1,1,0,0,0,0,.1,1.86,1.86,0,0,0,.22.47.72.72,0,0,1,.12.46S88.73,40.37,88.7,40.37Z"/><path d="M97.19,54.27a.42.42,0,0,1-.17-.05l-.09,0a.06.06,0,1,1,0-.12l.12,0a.2.2,0,0,0,.15,0,3.55,3.55,0,0,1,.46,0l.41,0,.24,0a1.72,1.72,0,0,0,.68-.14,0,0,0,0,1,.07,0,.05.05,0,0,1,0,.08,1.53,1.53,0,0,1-.72.15l-.24,0a3,3,0,0,1-.42,0l-.45,0Z"/><path d="M82.64,45.24a.06.06,0,0,1-.06-.05.08.08,0,0,1,0-.07l1.7-.19s.06,0,.07,0a.06.06,0,0,1-.05.06l-1.7.2Z"/><path d="M90.14,59h0a.43.43,0,0,1-.36-.22,7.47,7.47,0,0,0-.81-1l-.11-.12c-.87-1-1.14-1.17-1.21-1.18s-.18-.07-.22-.13A.67.67,0,0,0,87,56s-.06-.06-.07-.11v0a.07.07,0,0,1,0-.07s.07,0,.07,0a.06.06,0,0,1,0,0v0a.81.81,0,0,1,.52.38.19.19,0,0,0,.11.08h0c.1,0,.36.18,1.31,1.21l.1.12a8.44,8.44,0,0,1,.83,1,.3.3,0,0,0,.26.18s.06,0,.06,0A.06.06,0,0,1,90.14,59ZM87,55.87Z"/><path d="M94.93,38.56s-.05,0-.06-.05A.77.77,0,0,1,95,38.1a.87.87,0,0,0,.08-.26c0-.22.17-.28.31-.31a1.24,1.24,0,0,0,.73-.34.06.06,0,0,1,.09.07,1.35,1.35,0,0,1-.8.39c-.15,0-.21.08-.22.2a1.38,1.38,0,0,1-.08.29.74.74,0,0,0-.08.35,0,0,0,0,1,0,.06Z"/><path d="M103.93,55.49a.06.06,0,0,1-.06-.05v-.07a.16.16,0,0,0,0-.13,2.48,2.48,0,0,0-1.22-.89.26.26,0,0,0-.29.06c0,.14.06.26.19.32a.06.06,0,1,1-.05.1.55.55,0,0,1-.26-.41v0a.07.07,0,0,1,0,0,.4.4,0,0,1,.44-.11,2.63,2.63,0,0,1,1.27.93.26.26,0,0,1,.06.19.13.13,0,0,1,0,.06.08.08,0,0,1,0,.07Z"/><path d="M85.36,41.56a.06.06,0,0,1-.06-.05c0-.15-.13-.19-.26-.24a.56.56,0,0,1-.17-.09,3.46,3.46,0,0,0-1.22-.59.06.06,0,0,1-.05-.06.06.06,0,0,1,.07-.05,3.44,3.44,0,0,1,1.26.61l.16.07c.13.06.29.12.32.33a.06.06,0,0,1,0,.07Z"/><path d="M93.6,44.81h0a.06.06,0,0,1,0-.08.66.66,0,0,1,.43-.34l.12,0a3,3,0,0,1,.43-.08.44.44,0,0,0,.4-.26A.05.05,0,0,1,95,44a.05.05,0,0,1,0,.07.56.56,0,0,1-.5.32,2.7,2.7,0,0,0-.41.08l-.12,0a.58.58,0,0,0-.36.28A.05.05,0,0,1,93.6,44.81Z"/><path d="M91.49,48.42a.9.9,0,0,1-.56-.19.39.39,0,0,0-.24,0h-.07s-.05,0-.05-.06a0,0,0,0,1,.06,0h.05a.41.41,0,0,1,.32.07.91.91,0,0,0,.83.12l.22,0c.23,0,.44,0,.54-.31a.31.31,0,0,1,.23-.17.31.31,0,0,0,.21-.16l0,0a.3.3,0,0,1,.33-.2.38.38,0,0,1,.31.32v0a1.11,1.11,0,0,1,0,.25.82.82,0,0,0,.07.28.07.07,0,0,1,0,.08.05.05,0,0,1-.07,0,.71.71,0,0,1-.08-.31,1.57,1.57,0,0,0,0-.23l0,0c0-.12-.08-.23-.22-.25s-.15,0-.21.15l0,0a.41.41,0,0,1-.29.21.27.27,0,0,0-.15.1c-.12.33-.39.36-.63.39l-.21,0A1.84,1.84,0,0,1,91.49,48.42Z"/><path d="M90.17,40.71l0,0a2.2,2.2,0,0,1-.38-.59,2.76,2.76,0,0,0-.25-.44.24.24,0,0,1,0-.15.51.51,0,0,0-.15-.35c-.31-.37-.31-.59,0-.93a.64.64,0,0,1,.64-.14H90c.27,0,.27.23.28.39v.06a.44.44,0,0,0,0,.1.5.5,0,0,1,0,.13v.09a.32.32,0,0,1,0,.25,1.21,1.21,0,0,0-.14.43.69.69,0,0,1-.3.52h0a1.93,1.93,0,0,0,.34.53.06.06,0,0,1,0,.08Zm-.46-2.53a.42.42,0,0,0-.32.13c-.26.3-.26.45,0,.77a.64.64,0,0,1,.19.44s0,.06,0,.07a2.56,2.56,0,0,1,.22.39h0a.6.6,0,0,0,.25-.44,1.14,1.14,0,0,1,.16-.48.27.27,0,0,0,0-.18.34.34,0,0,1,0-.1.44.44,0,0,0,0-.1.53.53,0,0,1,0-.12v-.07c0-.17,0-.25-.18-.28h-.08Z"/><path d="M89.55,54.41h0a.06.06,0,0,1,0-.07c.07-.21,0-.34-.21-.51a3,3,0,0,0-.77-.5.55.55,0,0,1-.17-.13.29.29,0,0,0-.23-.12,1.35,1.35,0,0,1-.63-.14l-.1,0a.35.35,0,0,0-.3,0l-.31.14a3.5,3.5,0,0,1-.72.29.06.06,0,0,1,0-.11,3.3,3.3,0,0,0,.7-.28l.31-.15a.48.48,0,0,1,.39,0l.11,0a1.44,1.44,0,0,0,.57.13.39.39,0,0,1,.32.15.69.69,0,0,0,.13.11,2.88,2.88,0,0,1,.81.52.54.54,0,0,1,.24.62S89.57,54.41,89.55,54.41Z"/><path d="M96.89,46.4h-.15a.21.21,0,0,1-.19-.09.75.75,0,0,0-.39-.26l-.06,0a5,5,0,0,1-.87-.43.19.19,0,0,0-.22,0,.37.37,0,0,1-.46-.06l-.32-.21c-.16-.11-.32-.22-.48-.35a.37.37,0,0,0-.34-.11.47.47,0,0,0-.27.33l0,.14a.69.69,0,0,1-.09.3.06.06,0,0,1-.07,0,.07.07,0,0,1,0-.08.72.72,0,0,0,.08-.26l0-.15a.58.58,0,0,1,.34-.41.52.52,0,0,1,.46.13,4,4,0,0,0,.47.34l.32.22c.14.1.22.12.34,0a.31.31,0,0,1,.34,0,3.88,3.88,0,0,0,.84.42l.06,0a.92.92,0,0,1,.45.31s0,0,.09,0a2.21,2.21,0,0,0,.86-.1s.05,0,.05-.09a.06.06,0,0,1,.11,0,.19.19,0,0,1-.12.21A2.61,2.61,0,0,1,96.89,46.4Z"/><path d="M77.29,50.33h0a.32.32,0,0,1-.11-.34,1.31,1.31,0,0,1,.42-.71,1.11,1.11,0,0,1,.63-.25l.25,0a.06.06,0,0,1,.07,0,.06.06,0,0,1-.05.07l-.25,0a1,1,0,0,0-.57.21,1.24,1.24,0,0,0-.39.65.21.21,0,0,0,.08.23.07.07,0,0,1,0,.09Z"/><path d="M94.49,50.25l0,0c-.38-.61-1-.6-1.6-.58h-.16a0,0,0,0,1-.05,0,1.66,1.66,0,0,1-.18-.35,1.62,1.62,0,0,0-.19-.37s0,0,0,0l0,0,.41-.33s.07,0,.08,0a.07.07,0,0,1,0,.09l-.38.29a1.66,1.66,0,0,1,.18.35,1.38,1.38,0,0,0,.14.3h.14c.62,0,1.27,0,1.68.6a.61.61,0,0,0,.48-.22.53.53,0,0,0,0-.2.63.63,0,0,1,.1-.34,0,0,0,0,1,.07,0l.22.1c.3.14.61.27.68.69,0,0,0,.07-.05.07s-.06,0-.07,0c-.06-.36-.32-.48-.6-.6l-.18-.09a.56.56,0,0,0,0,.25.56.56,0,0,1-.07.26.76.76,0,0,1-.61.26Z"/><path d="M80.32,52.85a.05.05,0,0,1-.06,0,.52.52,0,0,1,.11-.43l.07-.12.09-.18a1.93,1.93,0,0,0,.3-1.12.05.05,0,0,1,0-.06.06.06,0,0,1,.06.05,2,2,0,0,1-.31,1.19l-.09.17s-.05.09-.07.13a.43.43,0,0,0-.1.34.06.06,0,0,1,0,.07Z"/><path d="M91.11,46.68a.05.05,0,0,1-.06-.06.38.38,0,0,0,0-.1.71.71,0,0,1,0-.25,1.58,1.58,0,0,1,1.15-.78h0a5.38,5.38,0,0,1,.69.07l.27,0a6.67,6.67,0,0,1,1,.21.67.67,0,0,0,.39,0,.05.05,0,0,1,.07,0,.07.07,0,0,1,0,.08.79.79,0,0,1-.47,0,6.31,6.31,0,0,0-1-.2l-.28,0a3.81,3.81,0,0,0-.67-.07h0a1.52,1.52,0,0,0-1,.69.49.49,0,0,0,0,.21v.11S91.14,46.68,91.11,46.68Z"/><path d="M78.59,56.82a.06.06,0,0,1-.06,0,.08.08,0,0,1,0-.07.27.27,0,0,0,.22-.15c0-.26-.19-.33-.41-.35h-.12l-.2,0h0a.55.55,0,0,1-.55-.42,0,0,0,0,1,0-.05s0,0,0,0a2,2,0,0,0,.49-.11,1.48,1.48,0,0,1,.73-.1.06.06,0,0,1,0,.06s0,.06-.07.05a1.45,1.45,0,0,0-.68.1,2.18,2.18,0,0,1-.44.11c.08.22.25.25.44.28h0l.19,0h.12a.5.5,0,0,1,.51.47s0,0,0,0a.38.38,0,0,1-.31.24Z"/><path d="M98.78,39.6h0a.29.29,0,0,1-.1-.28.26.26,0,0,0,0-.14.23.23,0,0,0-.17,0,1.6,1.6,0,0,0-.9.24.06.06,0,0,1-.08,0,.06.06,0,0,1,0-.08,1.88,1.88,0,0,1,1-.26.31.31,0,0,1,.25.08.26.26,0,0,1,.06.24.16.16,0,0,0,.07.17.06.06,0,0,1,0,.08S98.8,39.6,98.78,39.6Z"/><path d="M89.24,44.56h0a.05.05,0,0,1,0-.08.74.74,0,0,0,.1-.45V43a.06.06,0,0,1,.12,0v1a.83.83,0,0,1-.13.51S89.26,44.56,89.24,44.56Z"/><path d="M94.46,56.82h0a.06.06,0,0,1-.06-.06.13.13,0,0,0,0-.06s0,0,0-.05l-.06-.12a1.85,1.85,0,0,0-.73-.94l-.11-.06a.81.81,0,0,1-.37-.3.08.08,0,0,1,0-.08.06.06,0,0,1,.08,0,.65.65,0,0,0,.32.24l.12.07a2,2,0,0,1,.77,1l.06.12a.29.29,0,0,1,0,.13s0,0,0,0A.06.06,0,0,1,94.46,56.82Z"/><path d="M94.16,35.36h-.09a.06.06,0,0,1,0-.06.08.08,0,0,1,.07,0,.54.54,0,0,0,.28,0l.09,0,.18,0a1.16,1.16,0,0,1,.58-.06.83.83,0,0,0,.47,0h0a.06.06,0,0,1,.07.05.07.07,0,0,1,0,.07h0a1,1,0,0,1-.53,0,1,1,0,0,0-.51.06l-.19,0-.09,0A1,1,0,0,1,94.16,35.36Z"/><path d="M83.72,47.76h0a.05.05,0,0,1,0-.08,1.41,1.41,0,0,0,.17-.92.83.83,0,0,1,0-.55.75.75,0,0,1,.44-.38.09.09,0,0,1,.1,0,1.14,1.14,0,0,0,.19.19.63.63,0,0,1,.29.49s0,.06-.06.06a.06.06,0,0,1-.06-.06c0-.19-.11-.29-.24-.4a1,1,0,0,1-.21-.21h0a.69.69,0,0,0-.35.32.75.75,0,0,0,0,.48,1.52,1.52,0,0,1-.18,1A.05.05,0,0,1,83.72,47.76Z"/><path d="M92.44,45a.06.06,0,0,1-.06,0s0-.06,0-.09a.5.5,0,0,0,0-.18c0-.14-.11-.24-.2-.26a.27.27,0,0,0-.27.09.43.43,0,0,0-.18.32.06.06,0,0,1-.06.06h0a.06.06,0,0,1,0-.06.52.52,0,0,1,.22-.41.39.39,0,0,1,.38-.11.45.45,0,0,1,.27.34,1.38,1.38,0,0,1,0,.2v.09a.05.05,0,0,1,0,.06Z"/><path d="M80.09,57.56a.07.07,0,0,1,0,0l0-.11c0-.08,0-.16-.08-.24a.73.73,0,0,0-.58-.55h-.19a.59.59,0,0,1-.26,0,.06.06,0,0,1,0-.11.86.86,0,0,0,.23,0h.22a.82.82,0,0,1,.66.63c0,.08,0,.16.08.23l0,.11a.06.06,0,0,1,0,.07Z"/><path d="M95.92,49.83l0,0a.06.06,0,0,1,0-.08.73.73,0,0,0,.14-.26.93.93,0,0,1,1.12-.64.06.06,0,0,1,0,.08.05.05,0,0,1-.07,0,.81.81,0,0,0-1,.57.92.92,0,0,1-.16.29S95.94,49.83,95.92,49.83Z"/><path d="M95.3,47.93h0s0,0,0-.07a1,1,0,0,1,.51-.54.91.91,0,0,1,.68-.06l0,0h0a.08.08,0,0,1,0,0,.06.06,0,0,1-.06.06h0a.05.05,0,0,1-.05,0v0a.81.81,0,0,0-.54.07.87.87,0,0,0-.45.48A.07.07,0,0,1,95.3,47.93Z"/><path d="M78.25,51.44a.05.05,0,0,1,0,0s0,0,0,0a.25.25,0,0,1,0-.12,5.63,5.63,0,0,1,.2-1.12.2.2,0,0,1,.22-.18.05.05,0,0,1,.06.06.06.06,0,0,1-.06,0c-.06,0-.09,0-.11.1a4.83,4.83,0,0,0-.19,1.1s0,0,0,.06,0,0,0,0,0,.06,0,.08Z"/><path d="M89.3,46.15a1.06,1.06,0,0,1-.64-.27.06.06,0,0,1,0-.08.06.06,0,0,1,.09,0,.75.75,0,0,0,.93.14l.09-.08.13-.1a.06.06,0,0,1,.08,0,.07.07,0,0,1,0,.08s-.06,0-.1.07a.4.4,0,0,1-.12.1A.84.84,0,0,1,89.3,46.15Z"/><path d="M95.3,40.76a.06.06,0,0,1-.06,0,1.11,1.11,0,0,0-.18-.36,1.58,1.58,0,0,1-.39-.88.06.06,0,0,1,.06-.06h0a.06.06,0,0,1,.06.06,1.5,1.5,0,0,0,.36.81,1.44,1.44,0,0,1,.2.39.06.06,0,0,1,0,.07Z"/><path d="M90.88,48.18h0a.06.06,0,0,1,0-.08l0-.07a.77.77,0,0,1,.18-.18,1,1,0,0,0,.4-.53,2.13,2.13,0,0,1-1.15-.82.08.08,0,0,1,0-.08s.07,0,.08,0a2.07,2.07,0,0,0,1.14.8l0,0a0,0,0,0,1,0,0,1.1,1.1,0,0,1-.46.65.71.71,0,0,0-.15.15l-.06.07S90.9,48.18,90.88,48.18Z"/><path d="M81.32,53.19a0,0,0,0,1,0,0,.44.44,0,0,1,.19-.39.68.68,0,0,0,.12-.12,1.35,1.35,0,0,1,.85-.62.06.06,0,1,1,0,.11,1.32,1.32,0,0,0-.79.57.44.44,0,0,1-.13.14c-.09.09-.17.17-.16.3a.06.06,0,0,1,0,.06Z"/><path d="M80.29,47.53a.05.05,0,0,1,0,0,.06.06,0,0,1,0-.08.92.92,0,0,1,1.24,0,.06.06,0,0,1,0,.08.05.05,0,0,1-.08,0,.78.78,0,0,0-1.08,0Z"/><path d="M84.67,63.42a.06.06,0,0,1,0-.06.54.54,0,0,1,.15-.5.47.47,0,0,0,.06-.17s0,0,0-.08a3,3,0,0,0,.06-.74v-.1s0-.05.06-.05h0a0,0,0,0,1,.05.05v.1a3.38,3.38,0,0,1-.06.77.19.19,0,0,0,0,.07.4.4,0,0,1-.09.23.49.49,0,0,0-.12.42.06.06,0,0,1,0,.06Z"/><path d="M91.48,51.44a.19.19,0,0,1-.13,0,.23.23,0,0,1-.07-.24c0-.23.47-.77.74-.73s.24,0,.3-.19a2.23,2.23,0,0,1,.2-.41l.12-.22a.06.06,0,0,1,.08,0,.05.05,0,0,1,0,.08,1.55,1.55,0,0,1-.12.22,2.93,2.93,0,0,0-.19.4.38.38,0,0,1-.43.27c-.17,0-.58.42-.61.62s0,.12,0,.14a.17.17,0,0,0,.17,0l.13-.07a.49.49,0,0,1,.26-.1.05.05,0,0,1,.06,0,.06.06,0,0,1-.05.06.56.56,0,0,0-.21.09l-.14.08Z"/><path d="M80.06,60.36l0,0a.06.06,0,0,1,0-.08.85.85,0,0,1,.6-.21,2.45,2.45,0,0,0,.53-.09.06.06,0,0,1,.07,0s0,.07,0,.07a2.63,2.63,0,0,1-.55.09.79.79,0,0,0-.53.18Z"/><path d="M100.11,57h0s0-.05,0-.08a1.8,1.8,0,0,0,.06-.22,1.13,1.13,0,0,1,.23-.57l.09-.08a.3.3,0,0,0,.13-.17.06.06,0,0,1,.07,0s.05,0,0,.07a.48.48,0,0,1-.16.23.27.27,0,0,0-.08.07,1,1,0,0,0-.21.51,1.05,1.05,0,0,1-.06.24S100.13,57,100.11,57Z"/><path d="M96.2,57.07a.05.05,0,0,1,0,0c-.07-.17-.22-.23-.39-.3l-.12,0a.48.48,0,0,0-.17-.05.58.58,0,0,1-.36-.19.05.05,0,0,1,0-.08.05.05,0,0,1,.08,0,.45.45,0,0,0,.3.14,1.39,1.39,0,0,1,.19.06l.11,0a.7.7,0,0,1,.45.36.06.06,0,0,1,0,.08Z"/><path d="M82.69,63.22l0,0a1,1,0,0,1-.24-.74c0-.07,0-.14,0-.21a.37.37,0,0,0-.39.07.17.17,0,0,1,0,.12v.06h.06a.06.06,0,0,1,.06.06.06.06,0,0,1-.06,0,.2.2,0,0,1-.14,0,.16.16,0,0,1,0-.15v-.06s0,0,0,0,0,0,0,0a.51.51,0,0,1,.58-.13,0,0,0,0,1,0,0,2.46,2.46,0,0,1,0,.26,1,1,0,0,0,.21.67,0,0,0,0,1,0,.08Z"/><path d="M90.28,46.37a.05.05,0,0,1,0,0,.88.88,0,0,1-.12-.26,1.11,1.11,0,0,0-.07-.16.35.35,0,0,0,0-.08.23.23,0,0,1,0-.33.22.22,0,0,0,0-.11.31.31,0,0,1,.23-.26l0,0a.79.79,0,0,0,.71.22c.23,0,.3-.17.39-.35a1.53,1.53,0,0,1,.17-.27.06.06,0,0,1,.08,0,.63.63,0,0,0,.35.13l.19,0s.06,0,.1,0a.2.2,0,0,1,.27.05.06.06,0,0,1,0,.08.06.06,0,0,1-.08,0c0-.05-.07,0-.14,0a.25.25,0,0,1-.17,0L92,45a.81.81,0,0,1-.36-.12,1,1,0,0,0-.11.21c-.1.18-.2.39-.5.4a.89.89,0,0,1-.77-.23c-.07,0-.09.08-.11.17a.3.3,0,0,1-.07.15c-.06.08,0,.12,0,.19a.36.36,0,0,1,.07.1.87.87,0,0,1,.07.17,1.33,1.33,0,0,0,.1.24.06.06,0,0,1,0,.08Z"/><path d="M100.9,43.45h0s0,0,0-.08a1.63,1.63,0,0,0,.33-1.2.06.06,0,0,1,0-.07.07.07,0,0,1,.07,0,1.77,1.77,0,0,1-.35,1.29S100.92,43.45,100.9,43.45Z"/><path d="M77.25,50.53a.06.06,0,0,1-.06-.05c0-.24.16-.29.28-.33l.08,0,.11,0a.69.69,0,0,1,.76,0,.05.05,0,0,1,0,.08.06.06,0,0,1-.08,0,.59.59,0,0,0-.65,0l-.11,0-.1,0c-.13,0-.21.07-.2.21a.05.05,0,0,1,0,.06Z"/><path d="M87.77,46.8l0,0-.12-.11a1.42,1.42,0,0,1-.49-.62.05.05,0,1,1,.1,0,1.52,1.52,0,0,0,.46.58l.09.08a2,2,0,0,0,.87-1.11.06.06,0,0,1,.11,0,2.14,2.14,0,0,1-1,1.2Z"/><path d="M79.27,53.48a.06.06,0,0,1,0-.12A1.09,1.09,0,0,0,80,53a1.08,1.08,0,0,1,1.34-.12.06.06,0,0,1-.06.1,1,1,0,0,0-1.21.11,1.26,1.26,0,0,1-.8.38Z"/><path d="M91.11,44.52l0,0a1,1,0,0,1-.33-.73c0-.49-.19-.73-.58-.83,0,0,0,0,0-.07a0,0,0,0,1,.06,0,.87.87,0,0,1,.68.93.84.84,0,0,0,.28.65.06.06,0,0,1,0,.09Z"/><path d="M87.2,39.05h0a1.61,1.61,0,0,1-.74-.94.06.06,0,0,1,0-.08,0,0,0,0,1,.07,0h0a1.46,1.46,0,0,0,.66.87.62.62,0,0,0,.42-.31.34.34,0,0,1,.4-.18l.24,0a1,1,0,0,1,.52.17.45.45,0,0,0,.27.05,0,0,0,0,1,.06,0s0,.07,0,.07a.52.52,0,0,1-.36-.07.86.86,0,0,0-.47-.14l-.24,0a.22.22,0,0,0-.27.11.78.78,0,0,1-.52.38Z"/><path d="M86.24,50.11h0a1.49,1.49,0,0,1-1-.3.05.05,0,0,1,0-.08.06.06,0,0,1,.08,0,1.39,1.39,0,0,0,.94.27.06.06,0,0,1,0,.12Z"/><path d="M86.92,40.2h0a3.36,3.36,0,0,1-.68-.28,2.64,2.64,0,0,0-.29-.15.07.07,0,0,1,0-.08.06.06,0,0,1,.08,0l.3.16a2.27,2.27,0,0,0,.65.26.06.06,0,0,1,0,.07A.05.05,0,0,1,86.92,40.2Z"/><path d="M84.79,54.24a0,0,0,0,1,0,0,.05.05,0,0,1,0-.08c.4-.33.64-.32,1,0a.06.06,0,0,1-.07.09c-.32-.29-.5-.29-.86,0Z"/><path d="M92.92,49.6h0a.06.06,0,0,1,0-.07l0-.08a1.36,1.36,0,0,0,.07-.53.7.7,0,0,0-.28-.48.9.9,0,0,1-.19-.2.05.05,0,0,1,0-.08.07.07,0,0,1,.08,0l.17.18a.79.79,0,0,1,.33.55,1.65,1.65,0,0,1-.08.56l0,.08A.05.05,0,0,1,92.92,49.6Z"/><path d="M84.13,41.51a.12.12,0,0,1-.09,0,1,1,0,0,0-.18-.18c-.2-.18-.43-.38-.29-.76h0l0,0,0,0s0-.06,0-.08a.06.06,0,0,1,.08,0l0,0a.15.15,0,0,1,0,.14c-.11.31.06.46.25.63a1.66,1.66,0,0,1,.19.18h.11a0,0,0,0,1,0,0,.06.06,0,0,1,0,.06h-.1Z"/><path d="M81,62.36h0a1.49,1.49,0,0,1-1-.91.05.05,0,0,1,0-.07.07.07,0,0,1,.08,0,1.37,1.37,0,0,0,.88.82.06.06,0,0,1,0,.06A.06.06,0,0,1,81,62.36Z"/><path d="M100.57,57.86a.23.23,0,0,1-.19-.1,1.11,1.11,0,0,1-.3-.65v0s0-.06,0-.06h0s0,0,0,0A.06.06,0,0,1,100,57s0-.06,0-.07a.16.16,0,0,1,.12,0,.2.2,0,0,1,.06.14v0a1,1,0,0,0,.26.59c.07.07.13.08.24,0a.51.51,0,0,0,.32-.59.74.74,0,0,1,.06-.36.58.58,0,0,0,0-.34.06.06,0,0,1,.11,0,.71.71,0,0,1,0,.41.53.53,0,0,0,0,.3.65.65,0,0,1-.38.71A.33.33,0,0,1,100.57,57.86Z"/><path d="M89.58,47.26a.05.05,0,0,1,0,0,.05.05,0,0,1,0-.08,1.73,1.73,0,0,0,.66-.75,0,0,0,0,1,.07,0,.05.05,0,0,1,0,.07,1.87,1.87,0,0,1-.71.81Z"/><path d="M93,52.46h0a1.69,1.69,0,0,1-.32-.19,1.13,1.13,0,0,0-.43-.23h-.11A0,0,0,0,1,92.1,52s0-.06.05-.06h0a.27.27,0,0,1,.09,0,1.23,1.23,0,0,1,.47.24,1.66,1.66,0,0,0,.3.19,0,0,0,0,1,0,.07A.05.05,0,0,1,93,52.46Z"/><path d="M78.25,51.5a.07.07,0,0,1,0,0,.06.06,0,0,1,0-.08,2.07,2.07,0,0,0,.34-.15,2,2,0,0,1,.55-.22.06.06,0,0,1,0,.12,1.65,1.65,0,0,0-.52.2,2.21,2.21,0,0,1-.35.16Z"/><path d="M90.26,45.24h0a.05.05,0,0,1,0-.08,1.46,1.46,0,0,1,.43-.46,2.8,2.8,0,0,0,.31-.28.05.05,0,0,1,.08,0,.06.06,0,0,1,0,.08,1.87,1.87,0,0,1-.33.3,1.18,1.18,0,0,0-.4.43A.05.05,0,0,1,90.26,45.24Z"/><path d="M97.19,44.18a1.48,1.48,0,0,1-.85-.23s0-.05,0-.07a.06.06,0,0,1,.08,0,1.67,1.67,0,0,0,1.1.19.06.06,0,1,1,0,.11Z"/><path d="M87.59,57.3h0a.07.07,0,0,1,0-.07.29.29,0,0,0,0-.09.45.45,0,0,0,0-.3.74.74,0,0,1,0-.36v-.07a.06.06,0,0,1,.07,0,.06.06,0,0,1,.05.06v.06a.54.54,0,0,0,0,.31.63.63,0,0,1,0,.36.29.29,0,0,0,0,.09A.06.06,0,0,1,87.59,57.3Z"/><path d="M80.91,61.05h0a2.12,2.12,0,0,1-.69-.49l-.09-.08a.42.42,0,0,0-.36-.15h0a.06.06,0,0,1,0-.11.55.55,0,0,1,.45.17l.09.09a2.08,2.08,0,0,0,.65.46A.06.06,0,0,1,81,61,.05.05,0,0,1,80.91,61.05Z"/><path d="M85.92,56.06a.07.07,0,0,1,0,0,.62.62,0,0,0-.72-.28.42.42,0,0,1-.29,0,.06.06,0,0,1,0-.08.05.05,0,0,1,.07,0,.29.29,0,0,0,.22,0A.73.73,0,0,1,86,56s0,.06,0,.08Z"/><path d="M93.8,38.9h0a.65.65,0,0,1-.36-.23.66.66,0,0,1-.2-.4.06.06,0,0,1,.06-.06.06.06,0,0,1,0,.06.61.61,0,0,0,.18.33.48.48,0,0,0,.28.18s0,0,.07-.07.18-.38.26-.56l.08-.19a.06.06,0,0,1,.08,0,.05.05,0,0,1,0,.07l-.09.19c-.08.18-.16.37-.25.55A.21.21,0,0,1,93.8,38.9Z"/><path d="M90.28,46.43h0a.06.06,0,0,1,0-.08.44.44,0,0,1,.46-.2h0l.28,0h.12a.05.05,0,0,1,0,.06.06.06,0,0,1-.06.06H91l-.27,0h0c-.18,0-.29,0-.35.13A.07.07,0,0,1,90.28,46.43Z"/><path d="M79.86,61.44a.06.06,0,0,1,0-.12,1,1,0,0,0,.86-.35.06.06,0,0,1,.08,0,.05.05,0,0,1,0,.08,1.21,1.21,0,0,1-1,.39Z"/><path d="M96.46,54.3h0a.36.36,0,0,1-.24-.24c0-.18-.11-.36-.16-.54L96,53.3a.07.07,0,0,1,0-.08.07.07,0,0,1,.07,0l.07.23c.06.18.12.36.17.54s.07.12.17.16a.05.05,0,0,1,0,.07A.05.05,0,0,1,96.46,54.3Z"/><path d="M87.45,51.92s0,0,0-.06a.89.89,0,0,0-.11-.31.73.73,0,0,1-.12-.35.08.08,0,0,1,0-.05,2.27,2.27,0,0,1,.32-.22,2.13,2.13,0,0,0,.34-.25l-.11-.3a.05.05,0,0,1,0-.07.06.06,0,0,1,.08,0l.12.34a.07.07,0,0,1,0,.06,2.07,2.07,0,0,1-.39.29,2,2,0,0,0-.28.19.6.6,0,0,0,.1.27.77.77,0,0,1,.12.37.06.06,0,0,1-.06.06Z"/><path d="M85.3,41.36h0a.07.07,0,0,1,0-.08A2.49,2.49,0,0,0,85.4,41a1,1,0,0,1,.3-.47v-.1a0,0,0,0,1,0-.05s.06,0,.06.05a.09.09,0,0,0,0,0c0,.05,0,.11,0,.14a.87.87,0,0,0-.28.42,1.2,1.2,0,0,1-.15.3A.05.05,0,0,1,85.3,41.36Z"/><path d="M96.09,36.06s0,0,0,0a.56.56,0,0,0-.33-.18c-.21-.06-.33-.09-.38-.17s0-.21,0-.44h0v0a.06.06,0,0,1,.12,0v0a.18.18,0,0,1,0,.06.79.79,0,0,0-.06.34.82.82,0,0,0,.31.12.67.67,0,0,1,.39.22.05.05,0,0,1,0,.08Z"/><path d="M85.92,36.49h0a.06.06,0,0,1,0-.07s0,0,0-.06a2.52,2.52,0,0,1-.25-.21,1.38,1.38,0,0,0-.41-.32.2.2,0,0,1-.09-.23.05.05,0,0,1,.07-.05.06.06,0,0,1,0,.07c0,.05,0,.1,0,.1a2,2,0,0,1,.45.34c.08.07.16.15.24.21a.17.17,0,0,1,.08.17A.06.06,0,0,1,85.92,36.49Z"/><path d="M92,51.89h0a.07.07,0,0,1,0-.08.81.81,0,0,0,0-.41,1.5,1.5,0,0,1,0-.22.74.74,0,0,1,.08-.29.64.64,0,0,0,.08-.35,0,0,0,0,1,0,0s0-.06.06-.06a.06.06,0,0,1,.06,0v0a.69.69,0,0,1-.08.41.66.66,0,0,0-.08.25,1.49,1.49,0,0,0,0,.21.77.77,0,0,1,0,.47A.05.05,0,0,1,92,51.89Z"/><path d="M86,35.72a.05.05,0,0,1-.05,0l0-.09-.09-.19a.37.37,0,0,1,0-.43.06.06,0,0,1,.08,0,.06.06,0,0,1,0,.08c-.08.1,0,.18,0,.31l.1.19,0,.09a.07.07,0,0,1,0,.08Z"/><path d="M93,48.61a.06.06,0,0,1,0-.11,1.14,1.14,0,0,1,.69-.15.06.06,0,0,1,0,.07,0,0,0,0,1-.06,0,1,1,0,0,0-.62.14Z"/><path d="M87.93,57.7a.05.05,0,0,1-.05,0,1.12,1.12,0,0,0-.51-.45,1.54,1.54,0,0,1-.42-.3,0,0,0,0,1,0-.06l0-.06a1.28,1.28,0,0,1,.33-.53.06.06,0,0,1,.08,0,.05.05,0,0,1,0,.08,1.23,1.23,0,0,0-.3.49v0a1.41,1.41,0,0,0,.37.25,1.24,1.24,0,0,1,.55.49.06.06,0,0,1,0,.08Z"/><path d="M85.78,54.33l0,0s0-.05,0-.09a.14.14,0,0,1,.08-.09A.56.56,0,0,1,86,54a.61.61,0,0,0,.32-.25.05.05,0,0,1,.08,0,0,0,0,0,1,0,.07.64.64,0,0,1-.37.3.83.83,0,0,0-.16.09h0a.06.06,0,0,1,0,.08Z"/><path d="M92.71,39h0c-.09,0-.14-.12-.18-.23a.5.5,0,0,1,0-.12c0-.07,0-.11-.06-.14a.05.05,0,0,1,0-.08.06.06,0,0,1,.07,0,.24.24,0,0,1,.12.23s0,.06,0,.09.07.15.1.16.08,0,.15-.07l.11-.12a.74.74,0,0,1,.28-.21.06.06,0,0,1,.07,0,.05.05,0,0,1,0,.07.58.58,0,0,0-.23.18l-.12.12A.36.36,0,0,1,92.71,39Z"/><path d="M91.87,55.67h0a.06.06,0,0,1,0-.08c.25-.34.4-.37.86-.2a.06.06,0,0,1,0,.07.07.07,0,0,1-.08,0c-.42-.16-.5-.14-.72.16Z"/><path d="M90.51,39.14a.29.29,0,0,1-.17-.06,0,0,0,0,1,0-.07.05.05,0,0,1,.08,0c.11.06.18,0,.31-.06l0,0,.08-.06c.14-.1.34-.26.56,0a.06.06,0,0,1,0,.08.06.06,0,0,1-.08,0c-.14-.17-.24-.11-.4,0L90.8,39h0A.5.5,0,0,1,90.51,39.14Z"/><path d="M84.13,38.47a.06.06,0,0,1-.06,0,.43.43,0,0,0,0-.05.2.2,0,0,1,0-.15.37.37,0,0,0-.09-.45.06.06,0,0,1,0-.08.05.05,0,0,1,.08,0,.49.49,0,0,1,.1.57s0,0,0,.08a.13.13,0,0,1,0,.06.05.05,0,0,1-.05.06Z"/><path d="M91.46,37.92a.81.81,0,0,1-.75-.38h-.1a0,0,0,0,1,0-.06s0,0,.07,0h0s.1,0,.13,0c.25.38.62.34,1,.3h0a.05.05,0,0,1,.06,0,.06.06,0,0,1-.05.06h0Z"/><path d="M78.48,55.49a.07.07,0,0,1-.06,0s0,0,0-.07a.49.49,0,0,0,0-.07.48.48,0,0,1-.07-.67.05.05,0,0,1,.08,0,.05.05,0,0,1,0,.07c-.12.23-.15.38,0,.53a.19.19,0,0,1,.07.14.43.43,0,0,0,0,0,.06.06,0,0,1,0,.08Z"/><path d="M91.13,38.81a.07.07,0,0,1,0,0,1.07,1.07,0,0,1,.09-.9.08.08,0,0,1,.08,0,.07.07,0,0,1,0,.08.94.94,0,0,0-.08.81.06.06,0,0,1,0,.07Z"/><path d="M85.41,35.87a.06.06,0,0,1,0-.12,1.12,1.12,0,0,1,.87,0,.05.05,0,0,1,0,.07.06.06,0,0,1-.08,0,1,1,0,0,0-.77.06Z"/><path d="M94.91,71.05h0a.08.08,0,0,1-.08-.1v0c0-.08,0-.15,0-.23a2,2,0,0,1,0-.24,2.8,2.8,0,0,1,.06-.28A1,1,0,0,0,95,70v0l0-.12a1.85,1.85,0,0,1,0-.41,1.64,1.64,0,0,1,.13-.54,2.09,2.09,0,0,1,.17-.28,1,1,0,0,1,.25-.28h0l0,0a.36.36,0,0,1,0,.15v.2c.33-.07.67-.15,1-.2h.06a.37.37,0,0,0,.18,0l.15-.05a.14.14,0,0,1,.11,0,.16.16,0,0,1,0,.16c-.07.15-.15.28-.23.42l0,.1-.14.24a.61.61,0,0,0-.07.1l-.06.09a1.42,1.42,0,0,1-.4.41,1.18,1.18,0,0,1-.48.17.9.9,0,0,1-.46,0,.4.4,0,0,0-.07.18,2.23,2.23,0,0,0-.06.41s0,.1,0,.15A.08.08,0,0,1,95,71,.11.11,0,0,1,94.91,71.05Zm.53-2.51a.86.86,0,0,0-.14.18,1.28,1.28,0,0,0-.16.27,1.41,1.41,0,0,0-.12.5,1.2,1.2,0,0,0,0,.38.36.36,0,0,0,0,.11.25.25,0,0,1,0,.07h0l0,.09a.17.17,0,0,1,.08-.07h.07a.9.9,0,0,0,.4,0,1,1,0,0,0,.44-.16,1.2,1.2,0,0,0,.36-.38l.06-.09.07-.09.14-.24,0-.1c.08-.13.16-.27.23-.41s0,0,0,0a.21.21,0,0,0-.11,0,.91.91,0,0,1-.21,0h-.06c-.35,0-.71.13-1,.21h0a0,0,0,0,1,0,0s0,0,0-.05a1,1,0,0,0,0-.17v-.11ZM95,70Zm0,0Z"/><path d="M94.43,65.38h0a.14.14,0,0,1-.13-.1A1.43,1.43,0,0,0,94,64.8c-.5-.43-.19-1.17-.12-1.32v0a.94.94,0,0,1-.16-.47s0-.13.06-.15.12.06.15.1a1.55,1.55,0,0,1,.14.32s0,.08,0,.11h0a.79.79,0,0,1,.6.25c.22.26.18.67-.12,1.22a.43.43,0,0,0,0,.41.06.06,0,0,1,0,.06A.37.37,0,0,1,94.43,65.38ZM93.8,63a1,1,0,0,0,.15.4l0,0a0,0,0,0,1,0,0s-.4.8.07,1.22a1.66,1.66,0,0,1,.37.51v0h0a.52.52,0,0,1,0-.47c.27-.5.32-.87.13-1.09a.73.73,0,0,0-.55-.2.07.07,0,0,1-.06,0l-.06-.15A.86.86,0,0,0,93.8,63Z"/><path d="M88.1,65.94a.61.61,0,0,1-.26-.06l-.08-.06s-.07-.06-.11-.06h-.12a.34.34,0,0,1-.16-.07c-.51-.3-.75-.64-.7-1v0s0,0,0,0-.13-.2-.2-.3l0,0a.35.35,0,0,1-.11-.27.07.07,0,0,1,0-.06.07.07,0,0,1,.11,0,.86.86,0,0,1,.15.22l0,0a.73.73,0,0,0,.09.13.28.28,0,0,0,.13.07.52.52,0,0,0,.19-.06l.11,0a.94.94,0,0,1,.37,0,.87.87,0,0,1,.22.05,1.21,1.21,0,0,1,.2.09l.3.16a.5.5,0,0,1,.08.07.11.11,0,0,1,0,.1s-.09.06-.14.06a.17.17,0,0,1-.1,0h0a.63.63,0,0,0-.19,0,3.63,3.63,0,0,0,.21.53l0,.06.09.19,0,0a.19.19,0,0,1,0,.18l0,0h0A.21.21,0,0,1,88.1,65.94Zm.08-.08Zm-.54-.22h0a.27.27,0,0,1,.17.08l.06,0a.48.48,0,0,0,.25,0s0,0,0-.06l0,0a1.24,1.24,0,0,1-.1-.2l0-.06a3.92,3.92,0,0,1-.21-.56s0,0,0-.06a.15.15,0,0,1,.07-.07l.23,0h.15l-.3-.16-.18-.08-.21,0a.66.66,0,0,0-.31,0l-.1,0a.43.43,0,0,1-.25.07.28.28,0,0,1-.12,0l0,.06,0,.06a.15.15,0,0,1,0,.07c0,.36.32.67.65.86a.24.24,0,0,0,.11.06h.1Z"/><path d="M98.59,67.28a.12.12,0,0,1-.11-.12l0-.48-.1,0,0,0a.42.42,0,0,1-.16-.13.58.58,0,0,1-.17-.42s0-.09,0-.13a.88.88,0,0,1,0-.23.39.39,0,0,1,.08-.25l.07,0c.16,0,.21.14.26.25l.06.12.08.08s0,0,0,0a.72.72,0,0,1,.19.53.68.68,0,0,1,0,.14v.07a4.6,4.6,0,0,0,0,.49A.1.1,0,0,1,98.59,67.28Zm-.47-1.72a.41.41,0,0,0,0,.16,1.47,1.47,0,0,0,0,.21.71.71,0,0,1,0,.14.47.47,0,0,0,.14.34.63.63,0,0,0,.13.11h0c.12,0,.18.06.18.12h0v.29a1.41,1.41,0,0,1,0-.28v-.07s0-.08,0-.13a.59.59,0,0,0-.16-.44l0,0-.09-.1a.83.83,0,0,1-.07-.13C98.23,65.64,98.2,65.58,98.12,65.56Z"/><path d="M88.1,70.07H88a3.1,3.1,0,0,1-.76-.21.08.08,0,0,1,0-.07s0,0,.06,0h0a.73.73,0,0,0,.25,0c0-.27.42-.41.64-.41h0c.38,0,.63,0,.65.16s-.13.22-.28.33h0A.93.93,0,0,1,88.1,70.07Zm-.46-.21a2.71,2.71,0,0,0,.41.09.73.73,0,0,0,.5-.21h0c.22-.16.23-.22.23-.23s-.08-.06-.52,0h0c-.19,0-.53.13-.53.34a.08.08,0,0,1,0,0Z"/><path d="M101.86,66.57h-.12a.05.05,0,0,1,0,0,0,0,0,0,1,0,0c0-.13.33-.59.41-.73a1.58,1.58,0,0,1-.12-.15.45.45,0,0,1-.06-.23s0-.08,0-.11a1,1,0,0,1,0-.25,1,1,0,0,0,0-.3.88.88,0,0,1,.09-.55c.07-.1.19-.25.3-.25h0s.06,0,.08.07l0,.08a1.41,1.41,0,0,0,.22.45.74.74,0,0,1,.2.6,1.54,1.54,0,0,1-.28.49.5.5,0,0,0,0,.13.17.17,0,0,1-.07.13.15.15,0,0,1-.13,0s0,0,0,0,0,.08,0,.13l0,.11s-.16.41-.25.45S101.9,66.57,101.86,66.57Zm0-.12h.06a2.24,2.24,0,0,0,.2-.39s0-.06,0-.09v0C102,66.11,101.9,66.33,101.84,66.45Zm.45-.71h.11V65.7a.35.35,0,0,1,.06-.16,1.41,1.41,0,0,0,.25-.45c0-.15,0-.28-.18-.51a1.83,1.83,0,0,1-.23-.48.31.31,0,0,1,0-.08.84.84,0,0,0-.2.2.81.81,0,0,0-.07.45,1.17,1.17,0,0,1,0,.35.81.81,0,0,0,0,.21s0,.08,0,.13a.69.69,0,0,0,0,.18l.14.17a.05.05,0,0,1,0,0Z"/><path d="M105.51,69.23a1,1,0,0,1-.66-.28,1.3,1.3,0,0,1-.39-.49,1.84,1.84,0,0,1-.14-.51.59.59,0,0,0,0-.14.51.51,0,0,0,0-.09c-.09-.27-.1-.35-.06-.39s.08-.09.25,0a1.54,1.54,0,0,1,.49.3l.07.06a1.06,1.06,0,0,0,.24.19h0a.66.66,0,0,0,.19.09h.07a.32.32,0,0,1,.18.06.18.18,0,0,1,.08.12,1.07,1.07,0,0,1,.06.3.73.73,0,0,0,.08.33.31.31,0,0,0,.16.14h0c.06,0,.14,0,.16.1a.1.1,0,0,1,0,.11c-.05,0-.14,0-.21,0h0l-.09,0a.29.29,0,0,0-.1,0l-.14,0Zm-1.19-1.83a1.74,1.74,0,0,0,.07.29.58.58,0,0,1,0,.1l0,.14a1.6,1.6,0,0,0,.12.49,1.51,1.51,0,0,0,.37.45.82.82,0,0,0,.72.23l.12,0,.11,0h.19a.49.49,0,0,1-.22-.19.92.92,0,0,1-.09-.38,1.28,1.28,0,0,0-.05-.27s0-.06,0-.07a.21.21,0,0,0-.12,0h-.09a.68.68,0,0,1-.21-.1h0a1.28,1.28,0,0,1-.26-.2l-.06-.07a1.56,1.56,0,0,0-.47-.27A.15.15,0,0,0,104.32,67.4Zm0,0"/><path d="M99.91,73a.07.07,0,0,1-.06,0c0-.06,0-.15.13-.33h0l0,0a.34.34,0,0,0,0-.16.39.39,0,0,1,0-.24.78.78,0,0,1,.49-.44,2.18,2.18,0,0,1,1.24,0,.06.06,0,0,1,0,.07.3.3,0,0,1-.08.16,1.6,1.6,0,0,0-.11.19,1.09,1.09,0,0,1-.08.15c-.22.31-.74.7-1.15.52l0,0-.08,0s-.05,0-.08.06a.28.28,0,0,1-.09.1A.24.24,0,0,1,99.91,73Zm.26-.31h0l.11,0,0,0c.34.14.81-.2,1-.49l.08-.13a.61.61,0,0,1,.13-.22.1.1,0,0,0,0-.05,2,2,0,0,0-1.12,0,.65.65,0,0,0-.41.37.27.27,0,0,0,0,.17.3.3,0,0,1,0,.23h0a.2.2,0,0,1,0,.08h0A.13.13,0,0,1,100.17,72.64Zm-.1-.08Z"/><path d="M88.46,75H87.39a4.43,4.43,0,0,1-.51,0l-.27-.06h0l-.08,0h-.08a.06.06,0,0,1-.07,0,.05.05,0,0,1,0-.08.12.12,0,0,0,.05,0,1.39,1.39,0,0,1-.21-.21,0,0,0,0,1,0-.06.07.07,0,0,1,0,0h.18a.06.06,0,0,1,.06,0h.17s0-.11.08-.1a.15.15,0,0,1,.08,0h.11a.43.43,0,0,1,0,0v0a.32.32,0,0,1,0-.14.06.06,0,0,1,.06,0l.11,0s0,0,0,0h.14l.22.24s0,0,0,0l0,0s0-.1,0-.16l0-.1a.11.11,0,0,1,0,0s0,0,0,0v0c0-.13,0-.21,0-.23s0,0,0,0a.06.06,0,0,1,.07,0h0l0,0a2.83,2.83,0,0,1,.28.25l0,0a.07.07,0,0,1,.06,0,.29.29,0,0,1,.09.21h.05V74a.35.35,0,0,0,0-.06.43.43,0,0,1,0,0,.08.08,0,0,1,0,0,.06.06,0,0,1,.08,0h0a1.3,1.3,0,0,0,.1.15c0,.08.1.17.16.25v-.1s0-.05.06-.05,0,0,.06,0,0,0,0,0,0,0,0,0l.09.13v0a.24.24,0,0,1,.06.11.49.49,0,0,0,.1.19.2.2,0,0,0,.16.06.06.06,0,0,1,.06,0h0l.19,0a.6.6,0,0,0,.24-.14.27.27,0,0,1,.08-.07.2.2,0,0,1,.07,0,.09.09,0,0,1,.09,0s0,.1-.09.13l-.15.1a.82.82,0,0,1-.35.17,1.54,1.54,0,0,1-.37,0h-.39Zm-.95-.12h1.54a0,0,0,0,1,0,0h0a.41.41,0,0,1-.19-.09.55.55,0,0,1-.13-.24l0-.07,0,0a.43.43,0,0,0,0-.07v.07a.07.07,0,0,1,0,0,.07.07,0,0,1-.06,0,2.45,2.45,0,0,1-.26-.37h0v.18a.05.05,0,0,1,0,.06.06.06,0,0,1-.06-.05l0,0,0,0H88l0,0a.13.13,0,0,0,0-.06.7.7,0,0,0,0-.14h0s0,0-.07,0h0a2.79,2.79,0,0,0-.22-.2v.17a.11.11,0,0,1,0,.08s0,0,0,.06a.3.3,0,0,1,0,.26.16.16,0,0,1-.12.09.17.17,0,0,1-.13-.05l-.2-.22h-.08l-.09,0v0s0,.07,0,.11v0a.08.08,0,0,1-.05.07l0,0h0a.08.08,0,0,1,0,0h0l-.08,0h0s0,.05,0,.06a.55.55,0,0,1-.18,0h0a.06.06,0,0,1,0,.06h-.11l.13.12,0,0a.11.11,0,0,1,0,.08v0h0l.09,0h0l.26,0a4,4,0,0,0,.49,0Z"/><path d="M96.11,74.72a1.26,1.26,0,0,1-.28,0h-.06c-.16,0-.33-.07-.49-.1l-.6-.15-.12,0a2.59,2.59,0,0,1-.45-.14l-.22-.14h0l-.08-.06,0,0h0l0,0a0,0,0,0,1,0,0,.05.05,0,0,1,0-.08h0a.36.36,0,0,0,.08-.09,2.65,2.65,0,0,1-.12-.37s0,0,0,0,0,0,0,0l.15,0v0a.08.08,0,0,1,.07,0l.06,0,.08,0h0c0-.08,0-.1.06-.11a0,0,0,0,1,0,0l.06.06h.08s0-.08,0-.12v0a.55.55,0,0,1,0-.17s0,0,0,0h0a.18.18,0,0,1,.09.1l0,0h.07s0,0,0,0l.12.38s0,0,0,0l0,0a.57.57,0,0,0,0-.27v-.13a.09.09,0,0,1,0-.05s0,0,0,0a.06.06,0,0,0,0,0l0,0a2.89,2.89,0,0,0,.08-.35,0,0,0,0,1,0,0,.05.05,0,0,1,.08,0h0a.05.05,0,0,1,0,0,2.9,2.9,0,0,1,.16.38h0a.07.07,0,0,1,.06,0,.57.57,0,0,1,0,.3h0l0-.13a.24.24,0,0,0,0-.07.31.31,0,0,0,0-.08s0,0,0,0,.06,0,.07,0h0l0,.22c0,.12,0,.24,0,.35l0-.12a0,0,0,0,1,.06,0,.06.06,0,0,1,.05.06.09.09,0,0,0,0,.05v0a1.18,1.18,0,0,1,0,.2v0A.35.35,0,0,1,96,74a.69.69,0,0,0,0,.3c0,.07.06.11.1.12a.06.06,0,0,1,.05.06h.16c.07,0,.17-.09.25-.16l.09-.07a.09.09,0,0,1,.08,0c.06,0,.07,0,.07.07s0,.1-.1.14l-.16.12a.89.89,0,0,1-.37.17Zm-2.27-.78h0l.08.06h0l.2.13a2.21,2.21,0,0,0,.42.12l.13,0,.6.14.48.11h.06a1.12,1.12,0,0,0,.31,0h-.08l0,0a.09.09,0,0,1,0,0v0a.3.3,0,0,1-.14-.17.9.9,0,0,1,0-.34.59.59,0,0,0,0-.13v-.1l0,.08s0,0,0,0a.07.07,0,0,1-.06,0,2.88,2.88,0,0,1-.1-.54l0,.06,0,.08a.29.29,0,0,0,0,.09.07.07,0,0,1-.07,0,.08.08,0,0,1,0-.07s0,0,0,0h-.07a.05.05,0,0,1,0,0s0-.05,0-.08a1.23,1.23,0,0,0,0-.2h-.07a.05.05,0,0,1,0,0h0l-.11-.3,0,.2v0a.19.19,0,0,1,0,.1.53.53,0,0,0,0,.13.54.54,0,0,1,0,.33.17.17,0,0,1-.15.09s-.08,0-.1-.1-.08-.25-.11-.34h-.07a.34.34,0,0,1-.06-.06v.08a.78.78,0,0,1,0,.14v.06h0s0,.06-.07,0,0,0,0,0h0v0s0,0,0,0a.07.07,0,0,1-.06,0,.21.21,0,0,1,0-.06.07.07,0,0,1,0,0,.32.32,0,0,1-.17,0v0a0,0,0,0,1-.06,0l-.12,0a2.6,2.6,0,0,0,.1.25v0s0,0,0,.07l0,.06Zm.5-.51Z"/><path d="M101.29,74.65a.23.23,0,0,1-.21-.1,0,0,0,0,1,0,0,0,0,0,0,1,0,0,.94.94,0,0,1,.36-.08l.15,0a1.12,1.12,0,0,1-.2-.55.91.91,0,0,1,.56-.89h0l.06,0a1.72,1.72,0,0,0,.65-.37s0,0,.06,0a.07.07,0,0,1,0,0s.18.59.06.84q0,.11,0,.15a.26.26,0,0,0,.24.06l.14,0a1.28,1.28,0,0,1,1,.1.16.16,0,0,1,0,.21,1.19,1.19,0,0,1-.21.44.62.62,0,0,1-.48.15h-.5a4.88,4.88,0,0,0-1,0l-.24,0-.33.06h-.06Zm0-.12a.62.62,0,0,0,.19,0h.06l.33-.06.24,0a5.93,5.93,0,0,1,1-.05h.5a.51.51,0,0,0,.39-.12,1,1,0,0,0,.19-.38c0-.08,0-.08,0-.1a1.17,1.17,0,0,0-.92-.08l-.14,0a.34.34,0,0,1-.35-.1.23.23,0,0,1,0-.26,1.31,1.31,0,0,0,0-.67,2.16,2.16,0,0,1-.64.33h0l0,0h0a.81.81,0,0,0-.5.78,1,1,0,0,0,.24.55.14.14,0,0,1,0,.06.07.07,0,0,1,0,0l-.25,0Z"/><path d="M98.14,74.59a.18.18,0,0,1-.16-.11.07.07,0,0,1,0-.07.49.49,0,0,1,.24-.08l.09,0a1.59,1.59,0,0,1-.14-.56,1.05,1.05,0,0,1,.36-.88l.06,0h0a1,1,0,0,0,.41-.36,0,0,0,0,1,.06,0,0,0,0,0,1,0,0,2.44,2.44,0,0,1,0,.84.18.18,0,0,0,0,.18.11.11,0,0,0,.11,0l.09,0a.59.59,0,0,1,.67.1.26.26,0,0,1,0,.21,1.33,1.33,0,0,1-.13.43.34.34,0,0,1-.33.16H99.3a1.9,1.9,0,0,0-.63,0l-.15,0a1.41,1.41,0,0,1-.22.06h0A.42.42,0,0,1,98.14,74.59Zm0-.12a.26.26,0,0,0,.11,0h0ZM99,72.64a1.16,1.16,0,0,1-.38.29l0,0h0a.93.93,0,0,0-.32.79,1.26,1.26,0,0,0,.15.56.09.09,0,0,1,0,0l0,0h0l0,0,.16,0a2.13,2.13,0,0,1,.66,0h.32c.1,0,.17,0,.23-.1a1.68,1.68,0,0,0,.12-.38c0-.07,0-.1,0-.12-.17-.18-.35-.13-.55-.07l-.09,0a.23.23,0,0,1-.22-.06s-.09-.13,0-.3A2.33,2.33,0,0,0,99,72.64Z"/><path d="M72.34,63.73a.13.13,0,0,1-.08,0c-.06-.06,0-.11,0-.13h0l.14-.19.16-.18a1.37,1.37,0,0,1,.22-.19l.11-.1v0a1.17,1.17,0,0,1,0-.11,1.65,1.65,0,0,1,.22-.36,1.29,1.29,0,0,1,.41-.36,1.11,1.11,0,0,1,.29-.14h0a1,1,0,0,1,.36-.07,0,0,0,0,1,0,0s0,0,0,0a.37.37,0,0,1-.07.14l0,0,0,0a.61.61,0,0,1-.07.1,9.57,9.57,0,0,1,.94.41l0,0a.61.61,0,0,0,.17.07l.15,0c.06,0,.07.07.07.1s0,.09-.11.13l-.42.21-.1,0-.25.12-.12,0-.1,0a1.49,1.49,0,0,1-.54.11h0a1.1,1.1,0,0,1-.5-.13,1.05,1.05,0,0,1-.38-.27.6.6,0,0,0-.16.11,2.8,2.8,0,0,0-.28.3l-.1.12a.1.1,0,0,1,0,0Zm.72-.65a1.07,1.07,0,0,0,.34.23,1.21,1.21,0,0,0,.45.12h0a1.33,1.33,0,0,0,.5-.11l.11,0,.1,0,.25-.11.1-.05.42-.21,0,0-.11,0a.59.59,0,0,1-.2-.07l-.06,0c-.32-.16-.66-.3-1-.43h0s0,0,0-.05a.08.08,0,0,1,0,0,.47.47,0,0,0,.11-.13l0,0,0,0h0a1.41,1.41,0,0,0-.22.06h0a1.31,1.31,0,0,0-.27.12,1.59,1.59,0,0,0-.39.34,2.9,2.9,0,0,0-.2.33s0,.07,0,.11A.07.07,0,0,1,73,63l-.06.06A.1.1,0,0,1,73,63S73.06,63.06,73.06,63.08Z"/><path d="M74.72,61.39l-.13,0a.15.15,0,0,1,0-.16,1.43,1.43,0,0,0,0-.58c-.15-.64.52-1.07.67-1.15v0a1.06,1.06,0,0,1,.14-.48s.07-.1.14-.08.06.11.06.16a1.15,1.15,0,0,1-.07.35.36.36,0,0,0,0,.11.81.81,0,0,1,.35.55c0,.34-.23.65-.79.93a.42.42,0,0,0-.23.34.1.1,0,0,1,0,0Zm.72-2.33a.94.94,0,0,0-.12.42v0s0,0,0,0-.79.43-.63,1a1.88,1.88,0,0,1,0,.63s0,0,0,0h0A.52.52,0,0,1,75,60.9c.51-.26.75-.53.73-.82a.71.71,0,0,0-.34-.49.06.06,0,0,1,0-.06c0-.05,0-.1,0-.15A2.06,2.06,0,0,0,75.44,59.06Zm-.18.45Z"/><path d="M78.32,60.73c-.12,0-.27-.2-.29-.24l0-.1a.16.16,0,0,0,0-.11l0,0-.07,0a.46.46,0,0,1-.09-.15c-.24-.54-.25-1,0-1.2l0,0v0a2.08,2.08,0,0,0,0-.35v-.06a.41.41,0,0,1,.06-.28l.06,0a.08.08,0,0,1,.08.08.82.82,0,0,1,0,.27v.06a.86.86,0,0,0,0,.16.2.2,0,0,0,.06.12c0-.07-.06-.09-.06-.12s0,0,0,0,0,0,.29.24h0a.92.92,0,0,1,.32.18.65.65,0,0,1,.16.17.93.93,0,0,1,.11.19l.16.3a.06.06,0,0,1,0,.07s0,0-.09,0h0a.91.91,0,0,0-.1-.1c.13.15.12.16.1.19a.06.06,0,0,1-.08,0l-.07-.05,0,0-.17-.08a3.43,3.43,0,0,0-.13.55v.07a1.55,1.55,0,0,0,0,.21v0a.18.18,0,0,1-.07.17l0,0h0Zm0-.06Zm-.44-1.91v.06l0,.07a.08.08,0,0,1,0,0c-.25.27-.12.74,0,1.09a.17.17,0,0,0,.06.1l0,0,0,0a.32.32,0,0,1,.09.17s0,.06,0,.08.14.17.18.17,0,0,0-.07v0l0-.22v-.07a4.07,4.07,0,0,1,.15-.58.09.09,0,0,1,0-.05.09.09,0,0,1,.1,0h0l0,0-.5-.61a.46.46,0,0,1-.2-.09A.34.34,0,0,1,77.88,58.76Zm.6.28.28.3,0,0a1.25,1.25,0,0,0-.08-.12,1,1,0,0,0-.14-.15Z"/><path d="M77,63.69l-.06,0a.12.12,0,0,1,0-.16l.26-.41L77.08,63,77,63a.84.84,0,0,1-.05-.2.59.59,0,0,1,.1-.44l.07-.11a.59.59,0,0,1,.13-.19c.12-.15.19-.15.21-.16a.06.06,0,0,1,.06,0,.32.32,0,0,1,.08.34.78.78,0,0,0,0,.14.52.52,0,0,0,0,.11s0,0,0,.07a.7.7,0,0,1-.15.54l-.09.11,0,0a3.06,3.06,0,0,0-.31.38A.11.11,0,0,1,77,63.69ZM77.5,62a.44.44,0,0,0-.13.11,1,1,0,0,0-.11.17l-.08.13a.51.51,0,0,0-.08.35.34.34,0,0,0,.05.16s0,0,0,0,.11.15.08.19h0l-.16.25.18-.21,0,0a.28.28,0,0,0,.09-.1.64.64,0,0,0,.13-.46l0-.06s0-.08,0-.13,0-.11,0-.16S77.55,62.05,77.5,62Zm-.29,1.12Zm0,0Z"/><path d="M77.67,75.51l-.06,0a.11.11,0,0,1,0-.16l.26-.41-.06-.08,0,0a.39.39,0,0,1,0-.2.64.64,0,0,1,.09-.44l.07-.11a.91.91,0,0,1,.13-.19c.13-.15.19-.15.21-.16a.09.09,0,0,1,.07,0,.31.31,0,0,1,.07.34s0,.1,0,.14,0,.07,0,.11a.64.64,0,0,1,0,.07.75.75,0,0,1-.15.54l-.09.11-.06,0a3.1,3.1,0,0,0-.3.38A.14.14,0,0,1,77.67,75.51Zm.53-1.7a.46.46,0,0,0-.12.11,1,1,0,0,0-.12.17.54.54,0,0,1-.07.13.46.46,0,0,0-.08.35.53.53,0,0,0,0,.16l0,0c.07.1.11.15.08.19h0l-.16.25A1.68,1.68,0,0,1,78,75l0,0,.09-.1a.59.59,0,0,0,.12-.46.13.13,0,0,0,0-.06s0-.08,0-.13a.88.88,0,0,1,0-.16C78.25,73.94,78.26,73.87,78.2,73.81Zm-.29,1.12Zm0,0Z"/><path d="M81.77,65.76a.35.35,0,0,1-.13,0,1.94,1.94,0,0,0-.33-.07,1.53,1.53,0,0,1-.36-.07,8.23,8.23,0,0,1-1.15-1c-.25-.24-.47-.45-.54-.5l-.1-.08a1,1,0,0,1-.51-.67,2.15,2.15,0,0,1,0-.51v0a.43.43,0,0,1,0-.11.46.46,0,0,0,0-.22.26.26,0,0,0-.14-.13l-.1-.07c-.06-.06-.27-.25-.25-.43l0,0h0a.44.44,0,0,1,.17.07l.27.2a2.43,2.43,0,0,0,.32.24h0a1.6,1.6,0,0,0,.35.11,1.21,1.21,0,0,1,.53.23,1.09,1.09,0,0,1,.34.58,9.4,9.4,0,0,0,1.46,2.3c.12.12.12.2.1.24A.13.13,0,0,1,81.77,65.76Zm0-.09h0Zm-3.38-3.78a.88.88,0,0,0,.2.24l.08.06c.07.05.16.1.19.19a.49.49,0,0,1,0,.29.29.29,0,0,1,0,.09v0a1.62,1.62,0,0,0,0,.49c0,.29.23.43.45.59l.11.08c.08.06.28.26.55.51a9.62,9.62,0,0,0,1.11,1,1.94,1.94,0,0,0,.33.07,1.53,1.53,0,0,1,.36.07.13.13,0,0,0,.08,0,.3.3,0,0,1-.07-.08,9.9,9.9,0,0,1-1.5-2.36.94.94,0,0,0-.3-.51,1.05,1.05,0,0,0-.48-.21,1.46,1.46,0,0,1-.37-.12h0a1.76,1.76,0,0,1-.34-.25l-.26-.19Z"/><path d="M81.77,61.59h0a.4.4,0,0,1-.18-.11s0,0,0,0,0,0,0,0a6.53,6.53,0,0,1,.75-.37,1.23,1.23,0,0,1,0-.19.49.49,0,0,1,.09-.22,1.17,1.17,0,0,1,0-.11.81.81,0,0,1,.14-.2,1.1,1.1,0,0,0,.17-.25.94.94,0,0,1,.39-.4c.11,0,.32-.1.4,0a.12.12,0,0,1,0,.11.31.31,0,0,1,0,.08,1.51,1.51,0,0,0-.08.49.71.71,0,0,1-.18.61,1.56,1.56,0,0,1-.5.25.21.21,0,0,0-.11.07.2.2,0,0,1-.13.08.19.19,0,0,1-.11-.08l0,0a.41.41,0,0,0-.12.09l-.08.07A1.63,1.63,0,0,1,81.77,61.59Zm0-.15,0,0a2.24,2.24,0,0,0,.38-.21l.07-.06,0,0C82.08,61.27,81.85,61.37,81.73,61.44Zm.72-.35a.19.19,0,0,1,.11.07s0,0,0,0l0,0a.44.44,0,0,1,.15-.1,1.3,1.3,0,0,0,.46-.22c.12-.1.15-.24.15-.53a1.45,1.45,0,0,1,.08-.52.31.31,0,0,0,0-.08.69.69,0,0,0-.27.06.76.76,0,0,0-.32.32.76.76,0,0,1-.19.29,1.08,1.08,0,0,0-.13.18l0,.11a.47.47,0,0,0-.07.17c0,.07,0,.22,0,.22A.05.05,0,0,1,82.45,61.09Z"/><path d="M78.14,68.86a.82.82,0,0,1-.73-.31l0,0a.18.18,0,0,0,0-.07s0,0-.1,0a.42.42,0,0,1-.13,0s-.13,0-.13-.09.08-.12.29-.19h0l0,0A.27.27,0,0,0,77.4,68a.3.3,0,0,1,.12-.21.76.76,0,0,1,.65-.09,2.18,2.18,0,0,1,1,.73,0,0,0,0,1,0,.07.26.26,0,0,1-.16.09.65.65,0,0,0-.19.09l-.16.08A1.56,1.56,0,0,1,78.14,68.86Zm-.84-.56a.16.16,0,0,1,.12,0,.53.53,0,0,1,.06.1l0,0c.2.3.78.3,1.11.18l.14-.07a.67.67,0,0,1,.23-.1l.06,0a2,2,0,0,0-.9-.64.7.7,0,0,0-.56.07.24.24,0,0,0-.07.15.5.5,0,0,1-.12.21h0l-.08,0Zm.06-.09Z"/><path d="M103.19,51a.13.13,0,0,1-.08,0c-.06-.06,0-.11,0-.13h0l.14-.19.16-.18a1.9,1.9,0,0,1,.21-.19l.12-.09v0a1.17,1.17,0,0,1,0-.11,1.65,1.65,0,0,1,.22-.36,1.42,1.42,0,0,1,.41-.36,1.55,1.55,0,0,1,.29-.14h0a1,1,0,0,1,.36-.07l0,0a0,0,0,0,1,0,0,.33.33,0,0,1-.07.13l0,0,0,0-.07.1c.31.12.63.26.94.41l0,0a.61.61,0,0,0,.17.07.44.44,0,0,1,.15,0c.06,0,.07.07.07.09s0,.09-.11.13l-.42.21-.1.05-.25.12-.12,0-.1,0a1.54,1.54,0,0,1-.55.11,1.13,1.13,0,0,1-.5-.13.94.94,0,0,1-.38-.27.6.6,0,0,0-.16.11,2.8,2.8,0,0,0-.28.3l-.1.12a.1.1,0,0,1,0,0Zm.72-.65a.93.93,0,0,0,.34.23,1.21,1.21,0,0,0,.45.12h0a1.33,1.33,0,0,0,.5-.11l.11,0,.1,0,.25-.11.1-.05.42-.21,0,0a.23.23,0,0,0-.11,0,.93.93,0,0,1-.2-.08l-.06,0c-.31-.16-.65-.29-1-.43h0s0,0,0,0a.11.11,0,0,1,0-.06.47.47,0,0,0,.11-.13l0,0,0,0h0a1.41,1.41,0,0,0-.22.06h0a1,1,0,0,0-.27.13,1.12,1.12,0,0,0-.38.34,1.6,1.6,0,0,0-.21.32s0,.07,0,.11a.07.07,0,0,1,0,.06l-.06.06a.1.1,0,0,1,.09,0S103.91,50.28,103.91,50.3Z"/><path d="M106.61,61.87a.12.12,0,0,1-.08,0h0l-.16-.17-.15-.18a2.13,2.13,0,0,1-.16-.25L106,61.1h0l-.1-.06a2.08,2.08,0,0,1-.32-.27,1.57,1.57,0,0,1-.3-.47,1.58,1.58,0,0,1-.09-.31,1.23,1.23,0,0,1,0-.38s0,0,0,0h0l.12.09,0,0,0,0,.09.08c.17-.29.35-.58.55-.86l0-.05a.44.44,0,0,0,.1-.16.35.35,0,0,1,.06-.14.12.12,0,0,1,.11,0c.05,0,.08,0,.11.12s.1.3.14.45l0,.11a2.76,2.76,0,0,1,.08.27.52.52,0,0,1,0,.11l0,.11a1.58,1.58,0,0,1,0,.57,1.17,1.17,0,0,1-.2.47,1,1,0,0,1-.33.33.5.5,0,0,0,.08.17,3.1,3.1,0,0,0,.26.34l.1.11a.1.1,0,0,1,0,.17Zm-1.38-2.16a1.79,1.79,0,0,0,0,.23,1.4,1.4,0,0,0,.09.31,1.67,1.67,0,0,0,.28.43,1.41,1.41,0,0,0,.29.25l.1.06.06,0h0a.43.43,0,0,1,0,.07.11.11,0,0,1,0-.1.07.07,0,0,1,0,0,.9.9,0,0,0,.28-.3.92.92,0,0,0,.19-.42,1.16,1.16,0,0,0,0-.52s0-.08,0-.11,0-.08,0-.11a2.76,2.76,0,0,0-.08-.27l0-.11c0-.14-.09-.29-.14-.44s0,0,0,0a.3.3,0,0,0,0,.1.62.62,0,0,1-.12.19l0,.05c-.2.29-.39.6-.57.9l0,0a.06.06,0,0,1-.1,0,.41.41,0,0,0-.11-.12l0,0,0,0Z"/><path d="M105.57,48.61l-.13,0a.13.13,0,0,1,0-.15,1.48,1.48,0,0,0,0-.59c-.15-.64.52-1.07.67-1.15v0a1.06,1.06,0,0,1,.14-.48s.07-.1.14-.08.06.11.06.16a1.09,1.09,0,0,1-.07.35.43.43,0,0,0,0,.11.81.81,0,0,1,.35.55c0,.34-.23.65-.79.93a.42.42,0,0,0-.23.34.1.1,0,0,1,0,0Zm.72-2.33a1,1,0,0,0-.12.41v.05l0,0s-.79.42-.63,1a1.82,1.82,0,0,1,0,.62s0,0,0,0h0a.55.55,0,0,1,.29-.37c.51-.26.75-.53.73-.82a.71.71,0,0,0-.34-.48.09.09,0,0,1,0-.07s0-.1,0-.15A2.06,2.06,0,0,0,106.29,46.28Zm-.18.45Z"/><path d="M109.17,48c-.12,0-.27-.2-.29-.24a.38.38,0,0,1,0-.1.16.16,0,0,0,0-.11l0,0-.07,0a.46.46,0,0,1-.09-.15c-.24-.54-.25-1,0-1.2l0,0v0a2.17,2.17,0,0,0,0-.36v-.06a.41.41,0,0,1,.06-.28.09.09,0,0,1,.06,0,.07.07,0,0,1,.08.07.81.81,0,0,1,0,.27v.06a.81.81,0,0,0,0,.16.23.23,0,0,0,.06.13.39.39,0,0,0,.19.06l.12,0a.92.92,0,0,1,.32.18.65.65,0,0,1,.16.17.93.93,0,0,1,.11.19l.16.3a.15.15,0,0,1,0,.1.08.08,0,0,1,0,.08s-.11,0-.16,0l-.08-.05,0,0-.17-.08a4,4,0,0,0-.13.55v.06a2.07,2.07,0,0,0,0,.22v0a.18.18,0,0,1-.07.17l0,0h0Zm0-.06Zm0,0ZM108.73,46V46a.25.25,0,0,1,0,.07l0,0c-.25.27-.12.73,0,1.08a.24.24,0,0,0,.06.11l0,0,.05,0a.32.32,0,0,1,.09.17s0,.06,0,.08.14.17.18.17,0,0,0-.07v0a1.81,1.81,0,0,1,0-.23v-.06a4.45,4.45,0,0,1,.15-.58.09.09,0,0,1,0-.05.09.09,0,0,1,.1,0,1,1,0,0,1,.21.1l0,0,.07,0,0,0v0l-.15-.3a1,1,0,0,0-.1-.17.67.67,0,0,0-.14-.15.69.69,0,0,0-.28-.15l-.11,0a.43.43,0,0,1-.24-.08A.35.35,0,0,1,108.73,46Z"/><path d="M107.81,50.91l-.06,0a.12.12,0,0,1,0-.16l.26-.4a.28.28,0,0,0-.06-.09l0-.05a.84.84,0,0,1,0-.2.59.59,0,0,1,.1-.44l.07-.11a.59.59,0,0,1,.13-.19c.11-.13.17-.15.21-.15s.05,0,.06,0a.33.33,0,0,1,.08.35.59.59,0,0,0,0,.13.52.52,0,0,0,0,.11s0,0,0,.07a.7.7,0,0,1-.15.54l-.09.11-.05,0a3.25,3.25,0,0,0-.31.38A.11.11,0,0,1,107.81,50.91Zm.29-.55-.16.26.18-.22,0,0a.28.28,0,0,0,.09-.1.64.64,0,0,0,.13-.46s0,0,0-.06,0-.08,0-.13,0-.1,0-.15,0-.18,0-.24a.4.4,0,0,0-.13.11,1,1,0,0,0-.11.17l-.08.13A.51.51,0,0,0,108,50a.43.43,0,0,0,0,.16l0,0C108.1,50.27,108.13,50.32,108.1,50.36Z"/><path d="M109,56.08a.82.82,0,0,1-.73-.31l0-.05,0-.07s0,0-.11,0a.25.25,0,0,1-.13,0s-.13,0-.13-.09.08-.12.29-.19h0l0,0s.06-.08.08-.14a.3.3,0,0,1,.12-.21.77.77,0,0,1,.65-.09,2.18,2.18,0,0,1,1,.73,0,0,0,0,1,0,.07.24.24,0,0,1-.16.09l-.19.09-.16.08A1.56,1.56,0,0,1,109,56.08Zm-.84-.56a.16.16,0,0,1,.12,0,.53.53,0,0,1,.06.1.08.08,0,0,1,0,0c.2.3.78.3,1.11.18l.14-.07a.94.94,0,0,1,.23-.1.09.09,0,0,0,.06,0,2,2,0,0,0-.9-.64.7.7,0,0,0-.56.07.24.24,0,0,0-.07.15.45.45,0,0,1-.12.21h0l-.08,0Zm.06-.09Z"/><path class="cls-6" d="M95.28,70.3v0l0-.11a1.82,1.82,0,0,1,0-.4,1.33,1.33,0,0,1,.13-.52A1.17,1.17,0,0,1,95.5,69a1.07,1.07,0,0,1,.25-.27.49.49,0,0,1,0,.17.65.65,0,0,1,0,.24c.36-.08.72-.17,1.08-.22a.75.75,0,0,0,.26,0l.13,0c.09,0,.07.07,0,.12l-.28.51-.14.24c0,.07-.09.12-.13.19a1.41,1.41,0,0,1-.38.39,1,1,0,0,1-.45.17,1.14,1.14,0,0,1-.45,0s-.06-.07-.13.22a2,2,0,0,0-.07.42s0,.1,0,.15v0s0,0,0,0,0,0,0-.07,0-.15,0-.23,0-.15,0-.23S95.25,70.44,95.28,70.3Z"/><path class="cls-6" d="M94.18,63.74s-.43.83.09,1.28a2,2,0,0,1,.35.5s0,.06.07.06.1,0,.09,0a.5.5,0,0,1,0-.46c.17-.31.4-.83.13-1.15a.76.76,0,0,0-.6-.23,2.28,2.28,0,0,0-.2-.45c-.06-.09-.1-.12-.1,0A1.11,1.11,0,0,0,94.18,63.74Z"/><path class="cls-6" d="M88.44,66.13c-.06.05-.26,0-.31,0S88,66,87.92,66a.48.48,0,0,1-.12,0,.34.34,0,0,1-.14,0c-.31-.19-.74-.52-.67-.93v0a.08.08,0,0,0,0,0,3.28,3.28,0,0,0-.2-.31c-.06-.09-.14-.16-.13-.27v0s0,0,0,0a1.17,1.17,0,0,1,.17.26.72.72,0,0,0,.11.15.28.28,0,0,0,.15.08.81.81,0,0,0,.33-.11.8.8,0,0,1,.34,0,.87.87,0,0,1,.22,0l.19.08.3.17a.1.1,0,0,1,.05,0c0,.06-.06.08-.1.08h-.13a.76.76,0,0,0-.21,0,0,0,0,0,0,0,0s0,0,0,0a3.66,3.66,0,0,0,.21.55l.12.26s.08.09.06.15Z"/><path class="cls-6" d="M98.78,66.91s-.16-.07-.19-.08a.53.53,0,0,1-.14-.12.51.51,0,0,1-.15-.37c0-.12,0-.24,0-.36s0-.22.1-.22.19.22.28.34l.13.14a.67.67,0,0,1,.17.49s0,.09,0,.13v.08a2.63,2.63,0,0,0,0,.49c0,.08-.1.07-.1,0Z"/><path class="cls-6" d="M87.56,70.06s.34,0,.34,0c0-.25.37-.4.58-.4s.61,0,.63.11-.2.24-.27.29a.77.77,0,0,1-.54.22A3.27,3.27,0,0,1,87.56,70.06Z"/><path class="cls-6" d="M102,66.76c.06-.15.43-.75.43-.75l-.15-.18a1.4,1.4,0,0,1-.06-.32c0-.09,0-.46,0-.56a.74.74,0,0,1,.08-.5c.07-.1.25-.31.29-.19a2,2,0,0,0,.25.54c.16.22.24.39.19.56a1.33,1.33,0,0,1-.26.47c-.09.12,0,.3-.18.24s-.15.16-.19.28a1.68,1.68,0,0,1-.22.41S102,66.76,102,66.76Z"/><path class="cls-6" d="M106.15,69.34l-.22.08a.93.93,0,0,1-.78-.25,1.43,1.43,0,0,1-.38-.47,2.71,2.71,0,0,1-.15-.64c0-.06-.13-.39-.09-.43s0-.06.18,0a1.67,1.67,0,0,1,.48.28,1.53,1.53,0,0,0,.31.26.67.67,0,0,0,.23.1c.07,0,.16,0,.23.06a.17.17,0,0,1,.06.1c.08.21,0,.43.14.63a.37.37,0,0,0,.19.16c.05,0,.21,0,.13.12s-.16,0-.22,0Z"/><path class="cls-6" d="M100.33,72.82c0-.12-.09-.27,0-.4a.73.73,0,0,1,.45-.41,2.13,2.13,0,0,1,1.2,0,.26.26,0,0,1-.06.13,1.8,1.8,0,0,0-.21.35c-.21.29-.7.66-1.08.5a.84.84,0,0,0-.14-.06c-.12,0-.13.13-.21.17s0-.17.06-.24Z"/><path class="cls-6" d="M86.73,75h0l.13,0,.26,0a4.71,4.71,0,0,0,.65,0h.53c.24,0,.48,0,.71,0a2,2,0,0,0,.43,0A.92.92,0,0,0,89.8,75l.14-.1s.13-.08,0-.08h0a.83.83,0,0,1-.34.22l-.25,0v0a.27.27,0,0,1-.19-.08.45.45,0,0,1-.12-.21.29.29,0,0,0-.07-.12l-.09-.13a.18.18,0,0,1-.05-.07,1.64,1.64,0,0,1,0,.23,4.39,4.39,0,0,1-.34-.5s0,.09,0,.11,0,.11,0,.17v.06a.53.53,0,0,0-.06-.1l-.08,0c0-.07,0-.21-.08-.26s-.06,0-.07,0-.3-.28-.33-.29a1.5,1.5,0,0,1,0,.3s0,0,0,0h0v0c0,.09.11.21.06.3a.09.09,0,0,1-.16,0s-.22-.24-.22-.24h-.1c-.07,0-.11-.07-.17-.08a.4.4,0,0,0,0,.15s0,.09,0,.14-.12,0-.14,0a.43.43,0,0,0,0,0s-.09-.07-.13-.08,0,.09,0,.09a.81.81,0,0,1-.22,0v.05h-.24a1.67,1.67,0,0,0,.23.23h0s0,0,0,0a.22.22,0,0,1-.07.09S86.7,75,86.73,75Z"/><path class="cls-6" d="M94.06,74.25l0,0,.1.07.21.13a2.75,2.75,0,0,0,.56.16l.46.11.62.14a1.67,1.67,0,0,0,.39,0,.8.8,0,0,0,.34-.16l.15-.11s.14-.09.06-.11l0,0c-.11.08-.25.24-.37.24h-.22v-.07a.24.24,0,0,1-.15-.16.81.81,0,0,1,0-.32,1.1,1.1,0,0,0,0-.18,1.18,1.18,0,0,1,0-.2.43.43,0,0,1,0-.11l-.09.32a6,6,0,0,1-.14-.78l-.05.16-.06.23,0,.09a.76.76,0,0,0,0-.15l-.09,0a1,1,0,0,0,0-.38s0,0-.07,0-.17-.46-.19-.48a4.19,4.19,0,0,1-.1.42.09.09,0,0,1,0,.07l0,0v0a1,1,0,0,1,0,.43c-.05.08-.12.09-.15,0s-.11-.38-.11-.38-.07,0-.09,0-.07-.12-.12-.14a1.52,1.52,0,0,0,0,.21,1.49,1.49,0,0,1,0,.21s-.1,0-.12-.06a.22.22,0,0,1,0,.08s0-.12-.08-.15,0,.12-.06.12-.13,0-.19,0l0,.08-.21,0a3,3,0,0,0,.12.36h0s0,0,0,0l-.09.11S94,74.22,94.06,74.25Z"/><path class="cls-6" d="M102,74.67a1,1,0,0,1-.25-.6.85.85,0,0,1,.53-.83l.07,0a1.83,1.83,0,0,0,.68-.39,1.6,1.6,0,0,1,.07.8c-.1.23.11.32.3.29a1.4,1.4,0,0,1,1.1.07c.07,0,0,.09,0,.16a.87.87,0,0,1-.19.4.6.6,0,0,1-.47.14,10.62,10.62,0,0,0-1.49,0l-.57.11c-.12,0-.32.08-.4,0A4.08,4.08,0,0,1,102,74.67Z"/><path class="cls-6" d="M98.68,74.61a1.4,1.4,0,0,1-.17-.6,1,1,0,0,1,.34-.83.09.09,0,0,1,.05,0,1.16,1.16,0,0,0,.43-.4,2.57,2.57,0,0,1,0,.81c-.06.23.07.32.2.29s.48-.17.7.06c0,0,0,.1,0,.17a1,1,0,0,1-.12.4c-.08.14-.18.13-.29.13a4.3,4.3,0,0,0-1,0l-.37.11c-.07,0-.2.08-.25,0C98.42,74.64,98.55,74.66,98.68,74.61Z"/><path class="cls-6" d="M73.21,63.2a.23.23,0,0,0,0,0s0-.07,0-.11a1.94,1.94,0,0,1,.21-.34,1.48,1.48,0,0,1,.4-.35,1.55,1.55,0,0,1,.29-.14.81.81,0,0,1,.35-.07.55.55,0,0,1-.09.14.67.67,0,0,1-.14.19c.34.14.68.28,1,.44a1.22,1.22,0,0,0,.24.1l.13,0c.08,0,0,.09,0,.12l-.52.26-.25.12-.22.07a1.2,1.2,0,0,1-.53.11,1.09,1.09,0,0,1-.47-.12.93.93,0,0,1-.36-.25s0-.1-.24.1a2.94,2.94,0,0,0-.3.31l-.09.12,0,0s0,0-.05,0,0,0,0-.07l.14-.18.15-.18C73,63.39,73.1,63.3,73.21,63.2Z"/><path class="cls-6" d="M75.52,59.78s-.82.43-.66,1.1a1.4,1.4,0,0,1,0,.61s0,.07,0,.09H75a.5.5,0,0,1,.27-.38c.31-.16.8-.45.76-.87a.73.73,0,0,0-.37-.53,3.88,3.88,0,0,0,.11-.49c0-.1,0-.15-.1,0A1,1,0,0,0,75.52,59.78Z"/><path class="cls-6" d="M78.58,60.93c-.07,0-.21-.15-.24-.2s0-.18-.1-.23l-.1-.07a.54.54,0,0,1-.07-.13c-.15-.33-.32-.84,0-1.14l0,0a.07.07,0,0,0,0,0,2.17,2.17,0,0,0,0-.36.44.44,0,0,1,0-.3l0,0s0,0,0,0a1.71,1.71,0,0,1,0,.32.54.54,0,0,0,0,.18.24.24,0,0,0,.09.15c.08.08.22.07.32.1a.73.73,0,0,1,.31.17,1.06,1.06,0,0,1,.15.15c0,.06-1-1-.92-1l.15.31a.14.14,0,0,1,0,.06c0,.07-.09,0-.12,0l-.11-.07c-.06,0,.9,1.06.83,1h0l0,0c-.06.19-.1.38-.14.57s0,.19,0,.29,0,.12-.05.16Z"/><path class="cls-6" d="M77.47,63.37s-.1-.15-.11-.17a.53.53,0,0,1,0-.18.49.49,0,0,1,.09-.39,1.89,1.89,0,0,1,.19-.3s.15-.17.2-.13,0,.29,0,.44,0,.12,0,.19a.65.65,0,0,1-.13.5l-.09.1,0,0a3.89,3.89,0,0,0-.32.39c0,.06-.11,0-.07-.07Z"/><path class="cls-6" d="M78.18,75.19a.77.77,0,0,0-.12-.17.37.37,0,0,1,0-.18.49.49,0,0,1,.08-.39,3.13,3.13,0,0,1,.2-.3s.15-.17.2-.13,0,.29,0,.44l0,.19a.65.65,0,0,1-.13.5l-.09.1,0,0a3.89,3.89,0,0,0-.32.39c0,.06-.12,0-.07-.07Z"/><path class="cls-6" d="M79.31,62.56h0c.26.14.64.13.86.34a1,1,0,0,1,.32.54A9.46,9.46,0,0,0,82,65.78c.14.14.13.23-.07.16s-.47-.06-.69-.15a2.88,2.88,0,0,1-.65-.39c-.26-.2-1.57-1.48-1.61-1.84A2,2,0,0,1,79,63c0-.1.08-.26,0-.36s-.18-.16-.26-.22-.25-.25-.23-.38a.46.46,0,0,1,.14.07C78.92,62.26,79.09,62.44,79.31,62.56Z"/><path class="cls-6" d="M77.62,68.47c.11-.08.08-.27.19-.36a.74.74,0,0,1,.6-.07,2.09,2.09,0,0,1,1,.7.31.31,0,0,1-.13.08,2.43,2.43,0,0,0-.37.16c-.33.13-1,.14-1.17-.2l-.08-.13c-.09-.09-.18,0-.27,0-.24,0,.1-.14.18-.17S77.6,68.49,77.62,68.47Z"/><path class="cls-6" d="M104.06,50.42v0s0-.07,0-.11a2.39,2.39,0,0,1,.21-.34,1.48,1.48,0,0,1,.4-.35,1.08,1.08,0,0,1,.29-.13.82.82,0,0,1,.35-.08.42.42,0,0,1-.09.14.67.67,0,0,1-.14.19c.34.14.68.28,1,.44a1.22,1.22,0,0,0,.24.1l.13,0c.08,0,0,.09,0,.12l-.52.26-.25.12-.22.08A1.36,1.36,0,0,1,105,51a1.27,1.27,0,0,1-.47-.13.93.93,0,0,1-.36-.25s0-.1-.24.1a2.94,2.94,0,0,0-.3.31l-.09.12s0,0,0,0,0,0,0,0,0,0,0-.07l.14-.18.15-.17C103.82,50.61,104,50.52,104.06,50.42Z"/><path class="cls-6" d="M106.28,61.32l0,0-.1-.06a1.48,1.48,0,0,1-.3-.26,1.51,1.51,0,0,1-.29-.45,1.71,1.71,0,0,1-.09-.3,1.09,1.09,0,0,1,0-.36.64.64,0,0,1,.13.1,1,1,0,0,1,.17.18,8.12,8.12,0,0,1,.59-.93,1,1,0,0,0,.13-.23.45.45,0,0,1,.06-.12c.06-.07.1,0,.12.05s.12.37.17.56,0,.18.08.27,0,.14,0,.22a1.4,1.4,0,0,1,0,.54,1.22,1.22,0,0,1-.2.45,1,1,0,0,1-.31.32s-.09,0,.07.25a2,2,0,0,0,.26.34l.1.11,0,0a0,0,0,0,1,0,.05s0,0-.07,0l-.15-.17a.9.9,0,0,1-.15-.18C106.43,61.58,106.36,61.44,106.28,61.32Z"/><path class="cls-6" d="M106.37,47s-.82.44-.66,1.1a1.4,1.4,0,0,1,0,.61s0,.07,0,.09h.1a.5.5,0,0,1,.27-.38c.31-.16.8-.45.76-.87a.75.75,0,0,0-.37-.53,3.88,3.88,0,0,0,.11-.49c0-.1,0-.15-.1,0A1,1,0,0,0,106.37,47Z"/><path class="cls-6" d="M109.43,48.15c-.07,0-.21-.15-.24-.2s0-.18-.1-.23l-.1-.07a.4.4,0,0,1-.07-.13c-.15-.32-.32-.84,0-1.14l0,0a.07.07,0,0,0,0-.05,2.17,2.17,0,0,0,0-.36.44.44,0,0,1,0-.3,0,0,0,0,1,0,0s0,0,0,0a1.71,1.71,0,0,1,0,.32.54.54,0,0,0,0,.18.24.24,0,0,0,.09.15c.08.08.22.07.32.1a.73.73,0,0,1,.31.17l.15.15.11.19.15.3a.14.14,0,0,1,0,.07c0,.07-.09,0-.13,0l-.1-.08a.72.72,0,0,0-.2-.09h0s0,0,0,0a4.75,4.75,0,0,0-.14.57c0,.09,0,.18,0,.28s0,.12,0,.16Z"/><path class="cls-6" d="M108.32,50.6s-.1-.15-.11-.18a.48.48,0,0,1,0-.18.49.49,0,0,1,.09-.39,1.89,1.89,0,0,1,.19-.3s.15-.17.2-.13,0,.29,0,.44,0,.13,0,.19a.65.65,0,0,1-.13.5l-.09.1,0,.05a3.89,3.89,0,0,0-.32.39c0,.06-.11,0-.07-.07Z"/><path class="cls-6" d="M108.47,55.69c.11-.08.08-.27.19-.36a.74.74,0,0,1,.6-.07,2,2,0,0,1,1,.71.42.42,0,0,1-.13.07,2.43,2.43,0,0,0-.37.16c-.33.13-.95.15-1.17-.2l-.08-.13c-.09-.08-.18,0-.27,0s.1-.14.18-.17S108.45,55.71,108.47,55.69Z"/><path d="M83.66,75.22h0a3.09,3.09,0,0,1-1.69-.55,3.28,3.28,0,0,0-1.36.53l-.08-.09a3.45,3.45,0,0,1,1.34-.54.39.39,0,0,1-.08-.1s-.53-.78.56-1.58a1.11,1.11,0,0,1,.61-.12c-.14-.32-.29-.68-.31-.74a1.78,1.78,0,0,1,0-1.47,3.12,3.12,0,0,1,.56-.75,1.54,1.54,0,0,1-1-.22.5.5,0,0,1-.24-.39.63.63,0,0,1,.26-.43h0a1.47,1.47,0,0,0,.34-1,4.91,4.91,0,0,1,0-.73l0-.12.47.53C83,67,83,67,83,67l0,0,0,0a9.51,9.51,0,0,0,1,1,2,2,0,0,1,.72,1.08l.16.57a2.66,2.66,0,0,0,.51.81,9.48,9.48,0,0,1,1.19,1.34s.88,1.11.65,2a3.51,3.51,0,0,1-.4.75,1.35,1.35,0,0,1,.34.06l1,.28a1.59,1.59,0,0,0,1.12-.11,4.23,4.23,0,0,0,.44-.34l.09.08s-.1.1-.46.36a1.73,1.73,0,0,1-1.23.12c-.14,0-1-.28-1-.28a1.31,1.31,0,0,0-.39,0,.6.6,0,0,1-.3.22c-.11,0-.22,0-.25,0s0-.14.14-.24h0a2.9,2.9,0,0,1,.34-.06,3.14,3.14,0,0,0,.43-.79c.21-.79-.63-1.85-.63-1.86a9.81,9.81,0,0,0-1.18-1.32,2.25,2.25,0,0,1-.53-.85l-.17-.57a2,2,0,0,0-.67-1,6.65,6.65,0,0,1-.93-1,4.11,4.11,0,0,0,0,.53v.16l-.5-.56c0,.11,0,.29,0,.56a1.59,1.59,0,0,1-.38,1,.52.52,0,0,0-.22.35.37.37,0,0,0,.19.3,1.69,1.69,0,0,0,1.22.15l0,.11c-.27.07-.63.64-.75.85a1.77,1.77,0,0,0,0,1.37c.12.3.46,1.08.54,1.19s.41.76.43.79c.13.32.67.36.68.36h.15l-.12.09a1,1,0,0,1-.53.09c-.86-.1-1.06-.34-1.1-.4a.28.28,0,0,1-.13-.25c0-.18.26-.29.29-.3a.39.39,0,0,0,.13-.47v0a.2.2,0,0,0-.1-.17c-.15-.09-.46,0-.57.09-1,.73-.55,1.39-.53,1.42a.86.86,0,0,0,.13.14,4.52,4.52,0,0,1,1.76.09,5.57,5.57,0,0,0,1.66.15l.47-.14,0,.11a1.47,1.47,0,0,1-.49.14A7.3,7.3,0,0,1,83.66,75.22Zm-1.58-.57a3.22,3.22,0,0,0,1.54.45,5.39,5.39,0,0,0,1.26-.18,6.11,6.11,0,0,1-1.18-.17A4.41,4.41,0,0,0,82.08,74.65Zm4.4,0a.6.6,0,0,0-.08.08l.1,0a.44.44,0,0,0,.17-.1A.81.81,0,0,0,86.48,74.67ZM83.19,73.3a.46.46,0,0,1-.22.36c-.07,0-.22.11-.23.21s0,.1.09.16l0,0s.15.25,1,.34a.87.87,0,0,0,.23,0,.78.78,0,0,1-.53-.38S83.32,73.5,83.19,73.3Z"/><path class="cls-1" d="M49.69,96.36c0-.94-.56-1.36-1.8-1.85l-.56-.22c-1.5-.6-2.52-1.45-2.52-2.94,0-1.68,1.41-2.71,3.29-2.71a3.94,3.94,0,0,1,2.4.78l-.09,1.9h-.9l-.41-2.2.95.48v.72a2.68,2.68,0,0,0-2-.94c-1.12,0-2,.57-2,1.64,0,.91.59,1.45,1.64,1.85l.58.23c1.92.75,2.66,1.59,2.66,3,0,1.72-1.43,2.78-3.46,2.78a5.61,5.61,0,0,1-2.85-.77l.09-2h.9L46,98.28l-1-.4v-.7a3.64,3.64,0,0,0,2.4.93C48.79,98.11,49.69,97.47,49.69,96.36Z"/><path class="cls-1" d="M56,94.79a17,17,0,0,1,2.27-.61v.53a13.22,13.22,0,0,0-2,.58c-1.28.5-1.44,1-1.44,1.49a1,1,0,0,0,1.16,1.08c.5,0,.79-.19,1.68-.83l.31-.23.2.3-.43.44c-.87.87-1.36,1.28-2.26,1.28a1.79,1.79,0,0,1-2-1.83C53.62,96.16,54.07,95.5,56,94.79Zm1.65,2.5V94c0-1.42-.4-1.77-1.36-1.77a3.41,3.41,0,0,0-1.32.26l.61-.46-.37,1.24c-.12.45-.35.69-.76.69a.61.61,0,0,1-.67-.59,2.65,2.65,0,0,1,2.84-1.81c1.53,0,2.26.7,2.26,2.54v3.1c0,.64.2.87.52.87A.73.73,0,0,0,60,97.7l.29.31a1.38,1.38,0,0,1-1.27.77A1.33,1.33,0,0,1,57.69,97.29Z"/><path class="cls-1" d="M63.42,98.63c0-.66,0-2.16,0-3.07v-.69c0-.8,0-1.25,0-1.83l-1.15-.13v-.52l2-.88.22.15.17,1.69v2.21c0,.91,0,2.41,0,3.07Zm2.32-.52v.52H62.36v-.52L64,97.82h.34Zm3.39-3.91v1.36c0,.94,0,2.41.05,3.07H67.86c0-.66,0-2.13,0-3.07V94.32c0-1.33-.34-1.76-1.2-1.76a3.14,3.14,0,0,0-2.14,1h-.32V92.9H65l-.62.27a3.91,3.91,0,0,1,2.88-1.66C68.52,91.51,69.13,92.29,69.13,94.2Zm-.41,3.62,1.46.29v.52H66.8v-.52l1.58-.29Z"/><path class="cls-1" d="M76.06,98c.74,0,1.25-.33,1.91-1.18l.14.38a2.61,2.61,0,0,1-2.41,1.63c-1.77,0-3-1.46-3-3.59s1.32-3.72,3.11-3.72A2.64,2.64,0,0,1,78.16,93l-.15.37a2.81,2.81,0,0,0-2-1c-1.08,0-2,.87-2,2.86S74.9,98,76.06,98Zm4,.12v.52l-2.27.15L77.7,97.3V93l0-.19V89.16L76.5,89V88.5l2.28-.65L79,88,78.93,90v8.6l-.28-.76Z"/><path class="cls-1" d="M84.73,94.79A16.84,16.84,0,0,1,87,94.18v.53a13.6,13.6,0,0,0-1.95.58c-1.28.5-1.44,1-1.44,1.49a1,1,0,0,0,1.16,1.08c.5,0,.79-.19,1.68-.83l.31-.23.2.3-.43.44c-.87.87-1.36,1.28-2.26,1.28a1.78,1.78,0,0,1-2-1.83C82.31,96.16,82.75,95.5,84.73,94.79Zm1.64,2.5V94c0-1.42-.4-1.77-1.36-1.77a3.41,3.41,0,0,0-1.32.26L84.3,92l-.36,1.24c-.13.45-.36.69-.76.69a.62.62,0,0,1-.68-.59,2.66,2.66,0,0,1,2.85-1.81c1.52,0,2.25.7,2.25,2.54v3.1c0,.64.2.87.53.87a.72.72,0,0,0,.56-.32L89,98a1.38,1.38,0,0,1-1.27.77A1.34,1.34,0,0,1,86.37,97.29Z"/><path class="cls-1" d="M93.17,87.85l.21.11L93.32,90v5.53c0,1,0,2,0,3.07H92c0-1,0-2,0-3.07v-6.4L90.89,89V88.5Zm1.34,10.26v.52H90.9v-.52l1.63-.29h.34Z"/><path class="cls-1" d="M102.87,89.68l-1.9-.22v-.59h4v.59l-1.77.22Zm5-.81h.52L111,97l-.39.09,2.28-8.23h.74L111,98.73h-.63l-2.77-8.28.47,0-2.61,8.31h-.62L102,88.87h1.42L105.58,97l-.44.09Zm.15.81-1.86-.22v-.59h4v.59l-1.78.22Zm4.84,0-1.52-.22v-.59h3.31v.59l-1.49.22Z"/><path class="cls-1" d="M115.86,95.19a3.36,3.36,0,1,1,6.7,0,3.36,3.36,0,1,1-6.7,0Zm5.32,0c0-2-.73-3-2-3s-2,1-2,3,.7,3,2,3S121.18,97.16,121.18,95.19Z"/><path class="cls-1" d="M125.32,95.19a3.36,3.36,0,1,1,6.7,0,3.36,3.36,0,1,1-6.7,0Zm5.32,0c0-2-.72-3-2-3s-2,1-2,3,.7,3,2,3S130.64,97.16,130.64,95.19Z"/><path class="cls-1" d="M138.13,98c.74,0,1.25-.33,1.91-1.18l.13.38a2.6,2.6,0,0,1-2.41,1.63c-1.77,0-3-1.46-3-3.59s1.33-3.72,3.11-3.72A2.64,2.64,0,0,1,140.22,93l-.14.37a2.82,2.82,0,0,0-2-1c-1.08,0-2,.87-2,2.86S137,98,138.13,98Zm4.05.12v.52l-2.27.15-.15-1.48V93l.05-.19V89.16L138.56,89V88.5l2.29-.65.2.11L141,90v8.6l-.27-.76Z"/></svg>