<svg id="인쇄" xmlns="http://www.w3.org/2000/svg" viewBox="0 0 181.42 136.06"><defs><style>.cls-1{fill:#231815;}.cls-2,.cls-3{fill:none;stroke:#3f3f3f;stroke-linecap:round;stroke-linejoin:round;}.cls-2{stroke-width:0.4px;}.cls-3{stroke-width:0.25px;}.cls-4{fill:#ab765f;}.cls-5{fill:#cfa66b;}.cls-6{fill:#daceba;}.cls-7{fill:#fff;}.cls-8{fill:#040000;}</style></defs><path class="cls-1" d="M80.23,106.53a.05.05,0,0,1,0,0,.06.06,0,0,1,0,0s0,0,0,0h0a.17.17,0,0,0,.12,0,.14.14,0,0,0,0-.08s0-.07,0-.1v-1.1s0-.06,0-.09a.11.11,0,0,0,0-.08s-.06,0-.12,0h0a.06.06,0,0,1,0,0,.09.09,0,0,1,0,0,.05.05,0,0,1,0,0H81a1.06,1.06,0,0,1,.48.11.77.77,0,0,1,.34.3.81.81,0,0,1,.13.47.74.74,0,0,1-.09.38.73.73,0,0,1-.22.27,1.37,1.37,0,0,1-.32.16,1.5,1.5,0,0,1-.37,0h-.7Zm.75-.11a.61.61,0,0,0,.36-.1.59.59,0,0,0,.2-.26,1.25,1.25,0,0,0,.06-.4,1,1,0,0,0-.08-.4.71.71,0,0,0-.23-.28.77.77,0,0,0-.38-.1H80.7v1.34a.16.16,0,0,0,.07.15A.37.37,0,0,0,81,106.42Z"/><path class="cls-1" d="M85.56,106.53l0,0s0,0,0,0,0,0,0,0h0a.21.21,0,0,0,.12,0l.06-.08,0-.1.48-1.14s0-.08,0-.1a.1.1,0,0,0-.06,0l-.08,0-.06,0s0,0,0-.05,0,0,0,0h.08a.55.55,0,0,1,.19,0,.29.29,0,0,1,.14.08.56.56,0,0,1,.1.19l.47,1.14a.36.36,0,0,0,0,.09.18.18,0,0,0,.06.09.12.12,0,0,0,.09,0h0s0,0,0,0a.06.06,0,0,1,0,0l0,0h-.64l0,0a.06.06,0,0,1,0,0s0,0,0,0h0c.09,0,.14,0,.14,0a.34.34,0,0,0,0-.16l-.1-.23H86a.57.57,0,0,1-.06.15.39.39,0,0,0,0,.06v0a.63.63,0,0,0,0,.14.06.06,0,0,0,0,.06h.2s0,0,0,0a.06.06,0,0,1,0,0,.05.05,0,0,1,0,0h-.57Zm.53-.68h.57l-.27-.71h0Z"/><path class="cls-1" d="M91.88,106.57a.8.8,0,0,1-.36-.07,1,1,0,0,1-.28-.2.79.79,0,0,1-.18-.29,1,1,0,0,1-.06-.33,1,1,0,0,1,.08-.41.81.81,0,0,1,.21-.3.84.84,0,0,1,.28-.18.89.89,0,0,1,.31-.06.87.87,0,0,1,.37.07,1,1,0,0,1,.28.2,1.05,1.05,0,0,1,.17.29,1,1,0,0,1,.06.34.87.87,0,0,1-.08.4.81.81,0,0,1-.21.3.84.84,0,0,1-.28.18A.89.89,0,0,1,91.88,106.57Zm0-.12a.45.45,0,0,0,.32-.11.73.73,0,0,0,.18-.31,1.29,1.29,0,0,0,.06-.4,1.23,1.23,0,0,0-.06-.39.73.73,0,0,0-.19-.28.42.42,0,0,0-.31-.11.48.48,0,0,0-.32.11.75.75,0,0,0-.18.3,1.35,1.35,0,0,0-.06.41,1.21,1.21,0,0,0,.06.38.59.59,0,0,0,.19.29A.41.41,0,0,0,91.88,106.45Z"/><path class="cls-1" d="M97.48,106.57a.83.83,0,0,1-.36-.07,1,1,0,0,1-.28-.2.79.79,0,0,1-.18-.29,1,1,0,0,1-.06-.33,1,1,0,0,1,.08-.41.81.81,0,0,1,.21-.3.84.84,0,0,1,.28-.18.89.89,0,0,1,.31-.06.87.87,0,0,1,.37.07,1,1,0,0,1,.28.2,1.08,1.08,0,0,1,.18.29,1,1,0,0,1,.06.34,1,1,0,0,1-.08.4,1,1,0,0,1-.22.3.84.84,0,0,1-.28.18A.89.89,0,0,1,97.48,106.57Zm0-.12a.45.45,0,0,0,.32-.11A.73.73,0,0,0,98,106a1.29,1.29,0,0,0,.06-.4,1.23,1.23,0,0,0-.06-.39.73.73,0,0,0-.19-.28.42.42,0,0,0-.31-.11.48.48,0,0,0-.32.11.75.75,0,0,0-.18.3,1.35,1.35,0,0,0-.06.41,1.21,1.21,0,0,0,.06.38.59.59,0,0,0,.19.29A.41.41,0,0,0,97.48,106.45Z"/><path class="cls-1" d="M103.22,106.53h0s0,0,0,0l-.62-1.41h0v1.1a.34.34,0,0,0,0,.1.12.12,0,0,0,0,.08.17.17,0,0,0,.12,0h.05s0,0,0,0a.06.06,0,0,1,0,0l0,0h-.52l0,0a.06.06,0,0,1,0,0s0,0,0,0h0a.17.17,0,0,0,.12,0,.12.12,0,0,0,0-.08.34.34,0,0,0,0-.1v-1.1a.44.44,0,0,0,0-.13l-.06-.06-.11,0,0,0s0,0,0-.05a0,0,0,0,1,0,0h.07a.9.9,0,0,1,.24,0,.37.37,0,0,1,.18.08.46.46,0,0,1,.13.19l.47,1.06h0l.54-1.34h.49a.05.05,0,0,1,0,0s0,0,0,0a.06.06,0,0,1,0,0h0c-.06,0-.1,0-.12,0a.11.11,0,0,0-.05.08s0,.06,0,.09v1.1s0,.07,0,.1a.14.14,0,0,0,.05.08.17.17,0,0,0,.12,0h0s0,0,0,0,0,0,0,0a.05.05,0,0,1,0,0h-.67a.05.05,0,0,1,0,0,.06.06,0,0,1,0,0s0,0,0,0h0a.17.17,0,0,0,.12,0,.14.14,0,0,0,0-.08s0-.07,0-.1v-1.1h0l-.57,1.41,0,0Z"/><rect class="cls-1" x="106.51" y="105.78" width="8.44" height="0.14"/><rect class="cls-1" x="69.16" y="105.78" width="8.44" height="0.14"/><line class="cls-2" x1="114.51" y1="40.17" x2="114.51" y2="33.36"/><line class="cls-3" x1="116.34" y1="36.75" x2="116.34" y2="31.39"/><line class="cls-2" x1="112.87" y1="38.12" x2="112.87" y2="34.94"/><line class="cls-2" x1="66.09" y1="70.41" x2="66.09" y2="78.01"/><line class="cls-2" x1="67.98" y1="73.28" x2="67.98" y2="79.26"/><line class="cls-2" x1="69.87" y1="71.85" x2="69.87" y2="75.39"/><path class="cls-1" d="M65.09,96.22c0-.93-.56-1.35-1.8-1.84l-.55-.22c-1.5-.59-2.51-1.43-2.51-2.92,0-1.67,1.41-2.69,3.27-2.69a3.94,3.94,0,0,1,2.39.76l-.09,1.9h-.9L64.5,89l.94.47v.73a2.65,2.65,0,0,0-2-.94c-1.11,0-2,.56-2,1.64,0,.9.59,1.43,1.64,1.84l.57.22c1.91.74,2.65,1.58,2.65,3,0,1.72-1.43,2.77-3.44,2.77A5.6,5.6,0,0,1,60,97.93l.09-2H61l.38,2.24-1-.4V97a3.56,3.56,0,0,0,2.39.94C64.19,98,65.09,97.33,65.09,96.22Z"/><path class="cls-1" d="M75.62,94.19a2.87,2.87,0,0,1-.1.81H70.15v-.62h3.41c.69,0,.85-.33.85-.75a1.58,1.58,0,0,0-1.57-1.57c-.91,0-2,.78-2,2.85,0,1.84.92,2.82,2.35,2.82a2.52,2.52,0,0,0,2-1l.34.28a3,3,0,0,1-2.79,1.68c-2,0-3.23-1.35-3.23-3.56a3.44,3.44,0,0,1,3.34-3.71A2.61,2.61,0,0,1,75.62,94.19Z"/><path class="cls-1" d="M80.05,95.43v-.69c0-.8,0-1.24,0-1.82l-1.14-.13v-.51l2-.88.22.15.17,1.81v2.07c0,.9,0,2.4,0,3H80C80,97.83,80.05,96.33,80.05,95.43ZM79,98l1.59-.29h.36L82.5,98v.52H79Zm1.7-4.48h.84l-.36.11c.46-1.37,1.35-2.19,2.21-2.19a1.2,1.2,0,0,1,1,.53c0,.69-.27,1.07-.85,1.07a1.34,1.34,0,0,1-.89-.37l-.39-.35.7-.12a3.44,3.44,0,0,0-1.72,2.29h-.58Z"/><path class="cls-1" d="M93.08,94.19A2.87,2.87,0,0,1,93,95H87.61v-.62H91c.69,0,.85-.33.85-.75a1.58,1.58,0,0,0-1.57-1.57c-.91,0-2,.78-2,2.85,0,1.84.92,2.82,2.35,2.82a2.52,2.52,0,0,0,2-1l.34.28a3,3,0,0,1-2.79,1.68c-2,0-3.23-1.35-3.23-3.56a3.44,3.44,0,0,1,3.34-3.71A2.61,2.61,0,0,1,93.08,94.19Z"/><path class="cls-1" d="M97.46,98.48c0-.65.05-2.15.05-3v-.69c0-.8,0-1.24-.05-1.82l-1.14-.13v-.51l2-.88.22.15.17,1.68v2.2c0,.9,0,2.4,0,3ZM99.77,98v.52H96.41V98L98,97.67h.34Zm3.37-3.88v1.35c0,.93,0,2.4,0,3h-1.32c0-.65,0-2.12,0-3V94.2c0-1.33-.35-1.76-1.2-1.76a3.18,3.18,0,0,0-2.13,1h-.31v-.67H99l-.62.27a3.89,3.89,0,0,1,2.88-1.65C102.53,91.4,103.14,92.18,103.14,94.08Zm-.41,3.59,1.45.29v.52h-3.36V98l1.58-.29Z"/><path class="cls-1" d="M108.24,98.48c0-.65,0-2.15,0-3v-.68c0-.8,0-1.25,0-1.83l-1.18-.13v-.51l2.24-.88.22.15,0,2v1.91c0,.9,0,2.4,0,3Zm2.28-.52v.52h-3.37V98l1.59-.29h.33Zm-2.63-9.09a1,1,0,1,1,1,.93A.93.93,0,0,1,107.89,88.87Z"/><path class="cls-1" d="M116.38,97.92a1.64,1.64,0,0,0,1-.4l.34.39a2.09,2.09,0,0,1-1.71.76A1.49,1.49,0,0,1,114.33,97c0-.36,0-.67,0-1.23V92.36h-1.2v-.64l1.79-.23-.59.49.46-2.36h.88l-.11,2.54v4.69C115.57,97.6,115.89,97.92,116.38,97.92Zm1.16-6.33v.77H115v-.77Z"/><path class="cls-1" d="M119.76,101.13a.93.93,0,0,1,1-.63,1.42,1.42,0,0,1,1.07.55l.45.46-.57.31-.39-.31a4.23,4.23,0,0,0,1.9-2.48l.47-1.31,2.21-6.13h.79l-2.6,6.84c-1,2.57-1.77,3.67-3,3.67C120.37,102.1,119.76,101.7,119.76,101.13Zm1.46-8.8-1.41-.22v-.52h3.49v.53l-1.71.21Zm2.18,6.91-3.05-7.65h1.41L124,97.73Zm2.47-6.91-1.52-.22v-.52h2.84v.52l-1,.22Z"/><path class="cls-4" d="M99.2,39.05a.26.26,0,0,0-.27,0,4.79,4.79,0,0,0-.57.21h-.11a.71.71,0,0,0-.45-.36.72.72,0,0,0-.6.14c-.06.05-.11.12-.08.19a.22.22,0,0,0,.08.09l.38.27a6.93,6.93,0,0,0,.7.44.24.24,0,0,0,.22,0,.05.05,0,0,0,0,0h0a3.53,3.53,0,0,0,.28-.25,1,1,0,0,0,.39-.48A.24.24,0,0,0,99.2,39.05Z"/><path class="cls-5" d="M112.62,52.22c-1.33,5.86-9.19,7.92-13.25,3.51a10.4,10.4,0,0,1-1.43-2,7.45,7.45,0,0,0,11.26-5,7.92,7.92,0,0,0-1.31-5.92C111.77,44.27,113.61,47.86,112.62,52.22Z"/><path class="cls-6" d="M78.74,53.41a8.93,8.93,0,0,0-2.95,7.68,9.77,9.77,0,0,0,4.09,6.67,11.78,11.78,0,0,0,7.63,2c2.56-.18,5.24-1.27,6.49-3.51a7.83,7.83,0,0,0,.69-5,13.31,13.31,0,0,0-4.41-7.95,7.78,7.78,0,0,0-6.46-2.05A8.74,8.74,0,0,0,78.74,53.41Z"/><path class="cls-7" d="M89.52,64.11a3.8,3.8,0,0,1,1.53-1.85c.66-.47,1.39-.82,2-1.31a5.2,5.2,0,0,0,1.53-1.83,3.18,3.18,0,0,0,.27-1.36c0-.25,0-.51-.07-.76a4.09,4.09,0,0,1,0-.78.1.1,0,0,0-.19,0,7.84,7.84,0,0,1-2.6,3.4,11.09,11.09,0,0,0-1.62,1.52,5.91,5.91,0,0,0-1,2.12c-.13.44-.24.88-.35,1.32a.29.29,0,0,1,0,.09v-.24a30,30,0,0,1,.37-4c0-.28.06-.55.1-.83a1.81,1.81,0,0,1,.45-.84,3.15,3.15,0,0,1,.87-.71c.34-.19.71-.34,1.06-.51a3.63,3.63,0,0,0,1-.67,3.89,3.89,0,0,0,1.06-2.13,5.48,5.48,0,0,0,0-1.28,10,10,0,0,1,0-1.45c0-1.07.25-2.13.3-3.2a.1.1,0,0,0-.19,0,1.91,1.91,0,0,1-.6.78c-.27.23-.53.48-.77.73a3.79,3.79,0,0,0-.92,2.09c-.13.78-.14,1.56-.27,2.34a8.13,8.13,0,0,1-.29,1.18A5.9,5.9,0,0,1,90.64,57c-.22.4-.52.76-.78,1.14a3.78,3.78,0,0,0-.26.43l-.09.11c.08-.77.14-1.54.17-2.32s0-1.35,0-2c0-.52-.08-1-.13-1.56,0-.13,0-.27.07-.4a4.52,4.52,0,0,1,.16-.73,3.9,3.9,0,0,1,.32-.69l.39-.69q.39-.7.75-1.41a6.58,6.58,0,0,0,.59-1.33A5,5,0,0,0,92,46.27a10.06,10.06,0,0,0-.42-2.43,10.63,10.63,0,0,1-.5-2.79c0-.11-.19-.13-.19,0a3,3,0,0,1-.23.93c-.12.33-.25.65-.36,1a4.3,4.3,0,0,0-.2,1.07,8.71,8.71,0,0,0,.06,1.14,10.56,10.56,0,0,1,.09,1.12c0,.39,0,.77,0,1.15a11.11,11.11,0,0,1-.12,1.16,8.69,8.69,0,0,1-.27,1.12c-.11.41-.2.83-.29,1.25,0,.14-.06.28-.08.42a16.79,16.79,0,0,0-.24-2,11.35,11.35,0,0,0-1-5,9.85,9.85,0,0,0-1.4-2.27,20,20,0,0,1-1.66-2.39c-.28-.47-.56-.94-.85-1.4s-.6-.91-.87-1.38c0-.07-.19-.07-.19,0a15.89,15.89,0,0,0,.26,3.15A6.4,6.4,0,0,0,84.72,43a29.75,29.75,0,0,0,2.19,2.3A7,7,0,0,1,88.59,48a10.27,10.27,0,0,1,.33,1.74c.09.6.14,1.2.19,1.8.07.87.16,1.75.21,2.63l0-.07a6.58,6.58,0,0,0-.38-.54,3.2,3.2,0,0,1-.53-1.19c-.06-.21-.1-.42-.15-.64s-.11-.43-.15-.64c-.08-.43-.11-.86-.19-1.28a3.66,3.66,0,0,0-.17-.65,3.23,3.23,0,0,0-.31-.58,11.58,11.58,0,0,0-1.83-2.06c-.39-.37-.78-.72-1.13-1.11a5.32,5.32,0,0,1-.45-.61,3,3,0,0,0-.44-.55.12.12,0,0,0-.2.06,8.89,8.89,0,0,0-.08,2.47,2.85,2.85,0,0,0,.36,1.1,5.5,5.5,0,0,0,.83,1,9.67,9.67,0,0,1,1.76,2c.26.46.43,1,.65,1.44a3.33,3.33,0,0,0,.38.66,2.13,2.13,0,0,0,.47.43,4.54,4.54,0,0,1,1.07.93,3.65,3.65,0,0,1,.55,1.2v.26a.06.06,0,0,0,0,0c0,1.11-.1,2.22-.21,3.33L89,58.56a3.19,3.19,0,0,0-.19-.62,4.37,4.37,0,0,0-.77-1.1c-.32-.34-.63-.7-.92-1.06a5.32,5.32,0,0,1-.46-.63,4.12,4.12,0,0,1-.32-.67,14.13,14.13,0,0,0-.59-1.39A11.8,11.8,0,0,0,85,51.8a5.22,5.22,0,0,0-.93-1.11c-.21-.17-.44-.33-.66-.49s-.24-.21-.36-.32a3.08,3.08,0,0,0-.44-.37.41.41,0,0,0-.4-.08.1.1,0,0,0,0,.12,5.45,5.45,0,0,0,.25.55c.11.19.24.37.36.55l.37.54a3.46,3.46,0,0,1,.28.62,9.59,9.59,0,0,1,.42,1.48c.1.46.16.94.29,1.4a3.43,3.43,0,0,0,1.14,1.83,5.58,5.58,0,0,0,1.09.62,6.5,6.5,0,0,1,1.24.82,8.24,8.24,0,0,1,.62.56,2.42,2.42,0,0,1,.45.51,2.08,2.08,0,0,1,.23.53,3.08,3.08,0,0,1,.07.68.09.09,0,0,0,0,0c-.13,1-.29,2.07-.34,3.12,0,.79,0,1.57,0,2.36A3.09,3.09,0,0,1,88,64c-.08-.72-.07-1.46-.21-2.17a5.09,5.09,0,0,0-.86-2.16,5.25,5.25,0,0,0-1-1c-.39-.32-.8-.61-1.21-.9a10.85,10.85,0,0,1-1.34-1c-.19-.18-.37-.37-.55-.56s-.37-.37-.54-.56a.13.13,0,0,0-.21,0,2.22,2.22,0,0,0,.07,1.17,6.66,6.66,0,0,0,.44,1.15,4.7,4.7,0,0,0,.7,1.07,2.62,2.62,0,0,0,.49.45c.18.12.38.22.56.33a3.86,3.86,0,0,1,1,.81,4.65,4.65,0,0,1,.64.93,8.22,8.22,0,0,1,.46,1.1c.13.37.23.76.38,1.13A2.69,2.69,0,0,0,87.59,65a4.54,4.54,0,0,1,.52.45l.09.12a3.15,3.15,0,0,0,.22.29l.17.22a.05.05,0,0,0,.07,0h0c0,1.18.13,2.35.15,3.52,0-.27-.08-.54-.14-.81a6.23,6.23,0,0,0-.28-1A8.89,8.89,0,0,0,88,67a4.07,4.07,0,0,0-.51-.74,5.78,5.78,0,0,0-.65-.66,8.17,8.17,0,0,1-1.28-1.35c-.21-.31-.39-.64-.59-1a7.23,7.23,0,0,0-.63-.9.1.1,0,0,0-.17,0,4.81,4.81,0,0,0-.1,1.85A3.15,3.15,0,0,0,84.83,66a2.65,2.65,0,0,0,.75.58,9.86,9.86,0,0,1,1,.53,5.43,5.43,0,0,1,.84.66,4.46,4.46,0,0,1,.58.79,8.3,8.3,0,0,1,.79,2s0,0,0,0q0,.33,0,.66,0,.48-.09,1c0,.18.26.21.29,0a16.68,16.68,0,0,0,.17-2.54v0a.05.05,0,0,0,0,0,1.74,1.74,0,0,1,.11-.18,2.11,2.11,0,0,1,.36-.31c.22-.17.47-.31.71-.46a3.85,3.85,0,0,0,1.29-1.11,5.34,5.34,0,0,0,.65-1.91,13.81,13.81,0,0,1,.71-2,10.73,10.73,0,0,0,.72-2.34.12.12,0,0,0-.19-.11c-.24.21-.43.45-.65.68s-.5.43-.74.65a5.22,5.22,0,0,0-1.11,1.53,7.55,7.55,0,0,0-.6,1.85c-.07.36-.14.72-.2,1.07A6,6,0,0,1,90,68a2.76,2.76,0,0,1-.47.79c-.09.11-.17.23-.25.34a1.21,1.21,0,0,0-.16.16c0-1-.09-2.06-.15-3.09l.06-.3a.11.11,0,0,0,0-.1.15.15,0,0,1,0-.07c0-.14.07-.29.1-.43C89.3,64.92,89.4,64.51,89.52,64.11Z"/><path class="cls-8" d="M88.84,72.44h0a.16.16,0,0,1-.14-.18c0-.32.08-.65.09-1s0-.42,0-.64c0,0,0,0,0,0a8.12,8.12,0,0,0-.79-2,3.92,3.92,0,0,0-.57-.78,5,5,0,0,0-.84-.65,8.24,8.24,0,0,0-.77-.42l-.24-.12A2.56,2.56,0,0,1,84.8,66,3.34,3.34,0,0,1,84,64.32a5,5,0,0,1,.1-1.87.12.12,0,0,1,.1-.08.12.12,0,0,1,.13,0,8.93,8.93,0,0,1,.63.9l.18.31c.13.21.26.44.4.64a8.58,8.58,0,0,0,1.2,1.28l.11.09c.21.2.43.41.63.64A4.91,4.91,0,0,1,88,67a7.65,7.65,0,0,1,.41.81,5,5,0,0,1,.29,1c0,.13,0,.26.07.39,0-.66-.05-1.33-.08-2l-.06-1.1h0a.07.07,0,0,1-.08,0,1.4,1.4,0,0,1-.17-.22,1.66,1.66,0,0,1-.22-.3h0l-.08-.1a3.17,3.17,0,0,0-.39-.34L87.58,65a2.63,2.63,0,0,1-.78-1.1c-.09-.23-.16-.46-.24-.69s-.09-.3-.14-.44a8,8,0,0,0-.46-1.1,4.67,4.67,0,0,0-.63-.92,4.07,4.07,0,0,0-1-.81l-.19-.11-.37-.22a3.57,3.57,0,0,1-.51-.45,4.79,4.79,0,0,1-.69-1.08,6.47,6.47,0,0,1-.45-1.15,2.38,2.38,0,0,1-.07-1.19.16.16,0,0,1,.11-.1.17.17,0,0,1,.15,0c.1.12.21.23.32.34l.22.22.08.09c.15.16.31.32.47.47a7.3,7.3,0,0,0,1,.79l.3.21c.48.33.86.62,1.21.9a6,6,0,0,1,1,.95,5.25,5.25,0,0,1,.86,2.17A10,10,0,0,1,88,63.16c0,.28,0,.57.07.85a3.27,3.27,0,0,0,.6,1.67c0-.9,0-1.6,0-2.27,0-.86.16-1.72.27-2.56,0-.18,0-.37.07-.56a.07.07,0,0,1,0,0,2.93,2.93,0,0,0-.07-.67,1.7,1.7,0,0,0-.22-.52,3.16,3.16,0,0,0-.45-.51c-.2-.2-.41-.39-.61-.56a7.14,7.14,0,0,0-1.24-.82L86.13,57a4,4,0,0,1-.85-.49,3.56,3.56,0,0,1-1.15-1.86,9,9,0,0,1-.19-.9c0-.16-.06-.33-.1-.5a9.49,9.49,0,0,0-.41-1.47,3.05,3.05,0,0,0-.29-.61,5,5,0,0,0-.3-.45l-.06-.09c-.11-.16-.25-.36-.36-.56s-.13-.26-.19-.39a1,1,0,0,0-.07-.15.13.13,0,0,1,.06-.17.45.45,0,0,1,.43.09,2.3,2.3,0,0,1,.42.35l.08.08a3.73,3.73,0,0,0,.3.26l.21.15.45.34A5,5,0,0,1,85,51.78a13.65,13.65,0,0,1,.76,1.29,13,13,0,0,1,.59,1.38v0a3.5,3.5,0,0,0,.31.66,5.4,5.4,0,0,0,.46.63c.3.37.6.72.92,1.07a4.23,4.23,0,0,1,.78,1.1,3.41,3.41,0,0,1,.19.62c0,.15,0,.28.08.41.12-1.24.18-2.2.19-3.11a.13.13,0,0,1,0-.06v-.25a3.65,3.65,0,0,0-.54-1.19,4,4,0,0,0-1-.83l-.12-.09a2,2,0,0,1-.47-.43,3.1,3.1,0,0,1-.39-.67c-.08-.18-.15-.36-.23-.53a8,8,0,0,0-.41-.9,6.69,6.69,0,0,0-1.31-1.54l-.45-.43a5.58,5.58,0,0,1-.84-1,2.91,2.91,0,0,1-.36-1.1,8.67,8.67,0,0,1,.09-2.48.14.14,0,0,1,.08-.12.17.17,0,0,1,.15,0,2.47,2.47,0,0,1,.45.55,5.25,5.25,0,0,0,.45.61,11.77,11.77,0,0,0,.87.86l.26.25a12.06,12.06,0,0,1,1.84,2.06,3.29,3.29,0,0,1,.31.59,3.61,3.61,0,0,1,.17.65c0,.21.07.42.1.63s0,.44.09.65l.09.4.06.24,0,.1c0,.18.08.37.13.55a3.22,3.22,0,0,0,.52,1.18l.08.09c.09.13.19.26.28.4,0-.54-.09-1.1-.14-1.63,0-.29-.05-.58-.07-.87,0-.55-.1-1.18-.19-1.79l0-.2a9.11,9.11,0,0,0-.3-1.54,6.7,6.7,0,0,0-1.67-2.68l-.76-.76A16.27,16.27,0,0,1,84.69,43a6.51,6.51,0,0,1-1.19-2.86A15.83,15.83,0,0,1,83.24,37a.12.12,0,0,1,.09-.12.16.16,0,0,1,.16.07c.15.27.33.54.5.8s.25.38.37.57l.5.82c.11.2.23.39.35.59a19.82,19.82,0,0,0,1.66,2.39,10,10,0,0,1,1.4,2.27,11.18,11.18,0,0,1,1,5,17.82,17.82,0,0,1,.22,1.77c0-.07,0-.14,0-.2l0-.09c.08-.38.17-.78.27-1.16l0-.08a7.67,7.67,0,0,0,.24-1,10.58,10.58,0,0,0,.12-1.16c0-.4,0-.78,0-1.15a6.82,6.82,0,0,0-.07-.9,1.64,1.64,0,0,0,0-.22A8.25,8.25,0,0,1,90,44a3.48,3.48,0,0,1,.2-1.08c.07-.22.15-.43.23-.64s.08-.23.13-.35a3.16,3.16,0,0,0,.22-.92.1.1,0,0,1,.11-.11h0a.12.12,0,0,1,.13.12,10.34,10.34,0,0,0,.47,2.7l0,.08A10.3,10.3,0,0,1,92,46.27a4.56,4.56,0,0,1-.16,1.23,5.83,5.83,0,0,1-.54,1.25l0,.08c-.23.44-.47.9-.76,1.41l-.38.7,0,0a3.78,3.78,0,0,0-.31.64,4.73,4.73,0,0,0-.15.72,2.5,2.5,0,0,1,0,.29s0,.08,0,.11l0,.37c0,.39.08.79.1,1.18,0,.65,0,1.33,0,2s-.08,1.38-.16,2.23l0,0a3.89,3.89,0,0,1,.25-.42c.09-.14.19-.27.29-.4a8.14,8.14,0,0,0,.5-.75,5.55,5.55,0,0,0,.47-1.12,7.19,7.19,0,0,0,.29-1.18c.06-.38.1-.77.13-1.15s.07-.79.14-1.18a3.82,3.82,0,0,1,.93-2.11c.22-.23.47-.47.77-.73a1.94,1.94,0,0,0,.6-.77.1.1,0,0,1,.13-.08.13.13,0,0,1,.11.13c0,.55-.09,1.1-.15,1.64s-.13,1-.15,1.56a11.68,11.68,0,0,0,0,1.45v.05a5.06,5.06,0,0,1,0,1.23,4,4,0,0,1-1.07,2.15,3.71,3.71,0,0,1-1,.68l-.35.15c-.24.11-.49.22-.72.35a3.47,3.47,0,0,0-.86.71,1.78,1.78,0,0,0-.44.83c0,.27-.07.55-.11.83s0,.41-.08.61A25.41,25.41,0,0,0,89,64.38h0l0-.08c.09-.36.18-.74.29-1.11a5.82,5.82,0,0,1,1-2.13,9.51,9.51,0,0,1,1.42-1.35l.2-.17a7.7,7.7,0,0,0,2.59-3.38.12.12,0,0,1,.14-.09.14.14,0,0,1,.11.14,3.39,3.39,0,0,0,0,.71V57a5.38,5.38,0,0,1,.06.76,3,3,0,0,1-.26,1.37A4.93,4.93,0,0,1,93.09,61a10.54,10.54,0,0,1-1.13.75c-.3.17-.6.36-.89.56a3.68,3.68,0,0,0-1.52,1.84c-.1.32-.19.66-.27,1l-.06.22-.1.44v0a.08.08,0,0,0,0,0,.15.15,0,0,1,0,.12c0,.1,0,.19,0,.29,0,.25,0,.51,0,.77,0,.73.08,1.49.1,2.23l.11-.09c.07-.12.16-.24.24-.35A2.69,2.69,0,0,0,90,68a6.51,6.51,0,0,0,.23-1v0c.06-.33.12-.67.2-1.07a7.52,7.52,0,0,1,.61-1.86,5.21,5.21,0,0,1,1.11-1.54l.31-.27a3.89,3.89,0,0,0,.43-.38l.21-.23a4.65,4.65,0,0,1,.44-.45.15.15,0,0,1,.17,0,.13.13,0,0,1,.07.14,11.64,11.64,0,0,1-.72,2.35c0,.13-.11.26-.16.4a11.44,11.44,0,0,0-.56,1.65,1.16,1.16,0,0,1,0,.18,4.64,4.64,0,0,1-.6,1.73,3.85,3.85,0,0,1-1.3,1.12l-.08,0c-.21.13-.43.26-.64.41a3.09,3.09,0,0,0-.34.31c0,.06-.08.12-.12.17a.12.12,0,0,1,0,0h0A16.17,16.17,0,0,1,89,72.29.16.16,0,0,1,88.84,72.44Zm-4.59-10h0s0,0,0,0a4.68,4.68,0,0,0-.1,1.84A3.16,3.16,0,0,0,84.85,66a2.49,2.49,0,0,0,.75.57l.23.12a7.56,7.56,0,0,1,.79.42,5,5,0,0,1,.84.66,4,4,0,0,1,.58.79,8.62,8.62,0,0,1,.8,2h0q0,.33,0,.66,0,.48-.09,1a.1.1,0,0,0,.09.12.12.12,0,0,0,.14-.1,17.47,17.47,0,0,0,.17-2.53h0l0,0h0s0,0,0,0l.12-.18a2.4,2.4,0,0,1,.36-.31,6.4,6.4,0,0,1,.64-.42l.08-.05a3.84,3.84,0,0,0,1.28-1.1,4.59,4.59,0,0,0,.6-1.71,1.16,1.16,0,0,1,0-.18,9.93,9.93,0,0,1,.56-1.67l.15-.39a10.57,10.57,0,0,0,.72-2.34.07.07,0,0,0,0-.08.09.09,0,0,0-.11,0,6,6,0,0,0-.43.44l-.2.23c-.14.14-.29.26-.44.39a3.88,3.88,0,0,0-.31.26,5.32,5.32,0,0,0-1.1,1.53,7.36,7.36,0,0,0-.6,1.84c-.08.41-.14.75-.2,1.07v0a5.83,5.83,0,0,1-.24,1,3.21,3.21,0,0,1-.48.8c-.09.11-.17.22-.25.34h0l-.16.14,0,.06v-.07c0-.77-.06-1.55-.1-2.31,0-.26,0-.52,0-.78l.06-.3h0a.1.1,0,0,0,0-.08v-.07h0c0-.18.07-.32.11-.44a1.89,1.89,0,0,1,0-.23c.09-.32.17-.66.28-1h0A3.73,3.73,0,0,1,91,62.23c.29-.2.59-.38.89-.56a11.64,11.64,0,0,0,1.13-.75,4.84,4.84,0,0,0,1.52-1.81,3.14,3.14,0,0,0,.27-1.35,7.48,7.48,0,0,0-.07-.75v-.07a4.47,4.47,0,0,1,0-.73s0-.06-.06-.07-.06,0-.07,0A7.85,7.85,0,0,1,92,59.59l-.2.17a9.51,9.51,0,0,0-1.42,1.35,5.79,5.79,0,0,0-1,2.11c-.1.36-.2.74-.29,1.11l-.05.21s0,0,0,.06l-.06.26v-.48A23.6,23.6,0,0,1,89.2,61c0-.21,0-.42.08-.62s.07-.56.1-.83a1.82,1.82,0,0,1,.46-.86,3.56,3.56,0,0,1,.87-.72c.24-.13.49-.24.73-.35l.34-.15a3.65,3.65,0,0,0,1-.68,3.79,3.79,0,0,0,1-2.11,4.9,4.9,0,0,0,0-1.21V53.4a10,10,0,0,1,0-1.45c0-.53.09-1.05.15-1.57s.13-1.09.15-1.63a.09.09,0,0,0-.06-.08.07.07,0,0,0-.07,0,2,2,0,0,1-.61.8,9.24,9.24,0,0,0-.77.72,3.79,3.79,0,0,0-.92,2.08c-.06.39-.1.79-.13,1.18s-.07.77-.13,1.15a8.84,8.84,0,0,1-.29,1.19A6.62,6.62,0,0,1,90.67,57a6.72,6.72,0,0,1-.51.76l-.28.39a3.89,3.89,0,0,0-.25.42l-.1.12-.06.08v-.1c.09-.89.15-1.63.17-2.32s0-1.38,0-2c0-.4-.06-.8-.09-1.19,0-.12,0-.24,0-.37h0l0-.12c0-.09,0-.19,0-.29a4,4,0,0,1,.16-.73A3.51,3.51,0,0,1,90,51l0,0,.38-.7c.28-.51.53-1,.76-1.41l0-.07a6.47,6.47,0,0,0,.54-1.24,4.91,4.91,0,0,0,.15-1.22,10.13,10.13,0,0,0-.42-2.42l0-.09A10.42,10.42,0,0,1,91,41.05S91,41,90.94,41h0a.06.06,0,0,0-.05.06,2.94,2.94,0,0,1-.23.94c0,.12-.09.24-.13.35s-.16.42-.23.64a4,4,0,0,0-.2,1.06,8.35,8.35,0,0,0,.06,1.14c0,.07,0,.14,0,.21,0,.3.07.61.07.91s0,.75,0,1.15a11,11,0,0,1-.12,1.17,9.64,9.64,0,0,1-.25,1l0,.09c-.11.38-.19.77-.27,1.15l0,.09c0,.13-.06.27-.08.42l0,.24,0-.24a17.84,17.84,0,0,0-.24-2,11.12,11.12,0,0,0-1-5,9.77,9.77,0,0,0-1.39-2.26,19.82,19.82,0,0,1-1.66-2.39c-.12-.2-.24-.39-.35-.59l-.5-.82L84,37.8a8.48,8.48,0,0,1-.51-.81.1.1,0,0,0-.1,0,.06.06,0,0,0,0,.06,15.79,15.79,0,0,0,.26,3.14A6.27,6.27,0,0,0,84.74,43a15,15,0,0,0,1.43,1.54c.26.25.52.5.76.76A7,7,0,0,1,88.62,48a10.34,10.34,0,0,1,.3,1.55l0,.2c.09.61.14,1.25.19,1.79,0,.29,0,.58.07.87.05.58.11,1.18.14,1.77v.15l-.07-.15,0-.06c-.09-.15-.2-.29-.3-.43l-.08-.1a3.42,3.42,0,0,1-.53-1.2c0-.18-.09-.37-.13-.55l0-.09-.06-.25-.09-.4c0-.22-.07-.44-.09-.65l-.09-.63a4.49,4.49,0,0,0-.18-.64,3.07,3.07,0,0,0-.3-.57,12,12,0,0,0-1.83-2.06l-.26-.24c-.3-.28-.6-.57-.88-.87A5.31,5.31,0,0,1,84,44.8a2.61,2.61,0,0,0-.43-.54.12.12,0,0,0-.1,0,.1.1,0,0,0,0,.06,9,9,0,0,0-.08,2.47,2.75,2.75,0,0,0,.35,1.08,5.46,5.46,0,0,0,.83,1l.45.43a6.78,6.78,0,0,1,1.32,1.55c.16.29.29.6.42.9s.15.36.23.54a3.14,3.14,0,0,0,.37.65,2.15,2.15,0,0,0,.46.43l.13.08a4.57,4.57,0,0,1,1,.85,3.9,3.9,0,0,1,.55,1.21h0v.28h0c0,1-.08,2-.22,3.33l0,.21,0-.21c0-.18-.07-.37-.12-.61a3.28,3.28,0,0,0-.18-.61,4.51,4.51,0,0,0-.77-1.09c-.32-.35-.62-.7-.93-1.07a4.67,4.67,0,0,1-.46-.63,3.88,3.88,0,0,1-.31-.67v0c-.19-.47-.36-.92-.59-1.37A12.34,12.34,0,0,0,85,51.82a5,5,0,0,0-.92-1.11c-.14-.12-.3-.23-.44-.33l-.22-.16-.3-.26L83,49.88a2.64,2.64,0,0,0-.41-.34.39.39,0,0,0-.37-.08.07.07,0,0,0,0,.08.77.77,0,0,1,.07.16c.06.13.12.26.19.38s.25.4.36.56l.06.08c.1.15.21.3.3.46a3.41,3.41,0,0,1,.29.62,10.44,10.44,0,0,1,.42,1.48c0,.17.07.34.1.5a9,9,0,0,0,.19.9,3.46,3.46,0,0,0,1.12,1.82,4,4,0,0,0,.85.49l.25.12a6.38,6.38,0,0,1,1.24.83c.21.17.42.36.62.55a3.37,3.37,0,0,1,.46.53,2.08,2.08,0,0,1,.23.53,3.27,3.27,0,0,1,.07.68s0,0,0,0h0c0,.19-.05.38-.07.57-.12.84-.23,1.7-.27,2.55a23.08,23.08,0,0,0,0,2.36v.08l0-.06A3.21,3.21,0,0,1,88,64c0-.28,0-.57-.07-.84a8.58,8.58,0,0,0-.14-1.33,5.11,5.11,0,0,0-.85-2.14,5.55,5.55,0,0,0-1-1c-.34-.27-.72-.56-1.2-.89l-.31-.21a7.79,7.79,0,0,1-1-.8l-.47-.47-.08-.09-.22-.22c-.11-.11-.22-.22-.32-.34a.1.1,0,0,0-.1,0,.07.07,0,0,0-.06,0,2.27,2.27,0,0,0,.07,1.16,6.39,6.39,0,0,0,.44,1.15,4.63,4.63,0,0,0,.69,1.06,2.54,2.54,0,0,0,.49.44l.37.22.19.11a4,4,0,0,1,1,.82,4.65,4.65,0,0,1,.64.93,7.56,7.56,0,0,1,.47,1.11c0,.14.1.29.14.44s.15.46.24.69A2.58,2.58,0,0,0,87.61,65l.13.1a3.25,3.25,0,0,1,.39.35l.09.11h0a2.32,2.32,0,0,0,.22.3,2,2,0,0,0,.18.21,0,0,0,0,0,0,0h0l0,0h0v0c0,.37,0,.74.05,1.11,0,.79.09,1.61.1,2.41H88.8c0-.26-.08-.53-.14-.81a6,6,0,0,0-.28-1,8.56,8.56,0,0,0-.41-.8,4.91,4.91,0,0,0-.51-.75,7.25,7.25,0,0,0-.62-.62l-.11-.1a8.25,8.25,0,0,1-1.21-1.29c-.14-.2-.27-.43-.4-.64l-.18-.31a7.78,7.78,0,0,0-.63-.89A.06.06,0,0,0,84.25,62.42Z"/><path class="cls-8" d="M102.81,42.37l-.37-.61a1.33,1.33,0,0,1-.15-.32,1.73,1.73,0,0,1,0-.51s0,0,0,0a.07.07,0,0,1,.06,0,.69.69,0,0,1,.25.31,1.86,1.86,0,0,1,.1.39l.18,1"/><path class="cls-8" d="M95.18,39.69a.86.86,0,0,1,.35-.52,1.17,1.17,0,0,1,.66-.18,2.62,2.62,0,0,1,.67.16l.2.08s0,0,0,.05l.46.34.23.18a.34.34,0,0,0,.19.07.06.06,0,0,0,.07-.06.74.74,0,0,0-.47-.5l-.35-.15a.52.52,0,0,1,.45-.21.75.75,0,0,1,.54.32.07.07,0,0,0,0,.06,3.29,3.29,0,0,0,.1.53c0,.08.08.37.22.27l.18-.16.15-.15a1.34,1.34,0,0,0,.27-.31.61.61,0,0,0,.1-.37v0l.1.08a.67.67,0,0,1,.18.11.58.58,0,0,1,.15.25,1.18,1.18,0,0,0,.17.54c.12.2.37.46.63.35a.06.06,0,0,0,0-.1,1.27,1.27,0,0,1-.59-.66,1.43,1.43,0,0,0,.32-.28.35.35,0,0,0,.08-.35A.19.19,0,0,0,100,39a.66.66,0,0,0-.14.15s-.15.19-.17.12l0,0c.09-.22.23-.47.49-.51a.33.33,0,0,1,.31.13l.25.36c.16.25.33.49.48.74a6.68,6.68,0,0,1,.67,1.61.08.08,0,0,0,0,0l.06.11a2,2,0,0,0,.39.53s.12,0,.09-.05-.26-.34-.38-.52l-.06-.12h0a1,1,0,0,0,.18,0l0,.08c.11.21.24.4.35.61l.32.64c0,.06.12,0,.11,0-.09-.37-.18-.73-.25-1.1a2.82,2.82,0,0,0-.07-.31l.16,0,.18,0h0c.18.09.35.17.52.27a2,2,0,0,1,.42.29.43.43,0,0,1,.11.21.49.49,0,0,1,0,.27l-.21.55a.05.05,0,0,0,.08.07,1,1,0,0,0,.33-.6.94.94,0,0,0,0-.55l.14.15.56.59a4.46,4.46,0,0,1,.88,1.14c0,.06.13,0,.1,0a3,3,0,0,0-.48-.73c-.36-.42-.75-.8-1.13-1.2s-.74-.69-1.21-.54h0l-.22,0h-.16s0,0,0,0v0h0l0,0,0-.08c0-.06-.07-.11-.1-.16s-.1-.17-.19-.16-.1.09-.1.16a1.56,1.56,0,0,0,0,.43.09.09,0,0,1-.06.06.58.58,0,0,0-.14,0c-.1-.32-.21-.64-.34-.95a5.79,5.79,0,0,0-.47-.84l-.54-.82a.46.46,0,0,0-.62-.18,1,1,0,0,0-.43.55l-.19-.11a1.18,1.18,0,0,0-.18-.13.76.76,0,0,0-.47.06,2.74,2.74,0,0,0-.42.21,1,1,0,0,0-.67-.37.63.63,0,0,0-.53.29L96.79,39a1.91,1.91,0,0,0-.75-.13,1,1,0,0,0-1,.79C95.05,39.74,95.16,39.76,95.18,39.69Zm8.13,1.65a.81.81,0,0,1,.79.47l0,.09,0,0a1.54,1.54,0,0,0-.44-.33Zm-1,0a1.94,1.94,0,0,0,0-.24v-.21a1.94,1.94,0,0,1,.21.29l0,.09a1.91,1.91,0,0,1,.12.47l.12.56c0-.1-.1-.2-.16-.3a3.72,3.72,0,0,0-.19-.34A1.59,1.59,0,0,1,102.27,41.34ZM99.91,40a1.19,1.19,0,0,0,.36.38.76.76,0,0,1-.36-.37Zm-.09-.62a.77.77,0,0,0,.12-.13,1,1,0,0,1,.14-.15c.07,0,.12.05.12.11a.4.4,0,0,1-.1.18,1.07,1.07,0,0,1-.22.2A.83.83,0,0,0,99.82,39.33Zm-1.21.19a.39.39,0,0,0-.2-.25.69.69,0,0,1,.15-.07l.16-.07a1.78,1.78,0,0,1,.33-.09c.06,0,.08,0,.09.08a.76.76,0,0,1,0,.15.85.85,0,0,1-.15.3,2.61,2.61,0,0,1-.24.23l-.14.13h0s0-.09,0-.13A.87.87,0,0,0,98.61,39.52Zm-.23-.08v-.07a.32.32,0,0,1,.13.24.83.83,0,0,1,0,.22v.05a2.25,2.25,0,0,1-.08-.24Zm-1-.11.18.09a.73.73,0,0,1,.37.32l-.12-.09-.21-.15Z"/><path class="cls-8" d="M92.79,46l.88-1.31c.24-.36.49-.72.71-1.09a3.93,3.93,0,0,0,.42-1.16c.08-.44.12-.88.17-1.33l.08-.69c0-.13,0-.25,0-.37,0,.13.06.25.09.38l.18.82.33,1.46c.11.47.19,1,.34,1.41a2.15,2.15,0,0,0,.65,1,5.18,5.18,0,0,0,1.12.52s.1,0,.08-.07c-.23-.44-.47-.88-.67-1.34A8.14,8.14,0,0,1,96.79,43a10.74,10.74,0,0,0-.38-1.22,7.17,7.17,0,0,0-1.24-2.07.13.13,0,0,0,0-.06c0-.07-.11-.09-.11,0a.25.25,0,0,0,0,.08,4.23,4.23,0,0,0-.13.71l-.09.78c0,.43-.08.87-.17,1.3a3.54,3.54,0,0,1-.47,1.16c-.22.37-.47.73-.71,1.09l-.79,1.17C92.66,46,92.75,46.07,92.79,46Zm2.4-6.08a6.53,6.53,0,0,1,.67,1,7.32,7.32,0,0,1,.51,1.1,12.64,12.64,0,0,1,.36,1.24,7.78,7.78,0,0,0,.45,1.22c.16.35.35.7.53,1.05A3,3,0,0,1,96.65,45a2.35,2.35,0,0,1-.57-1.12c-.13-.46-.22-.93-.32-1.4l-.32-1.4-.16-.7C95.25,40.22,95.21,40.07,95.19,39.93Z"/><path class="cls-8" d="M78.2,60.34a8.56,8.56,0,0,1,1-.9,6.91,6.91,0,0,0,.85-.86l.85-1,1.72-2.06a.06.06,0,0,0,0,0c.35-.4.67-.82,1-1.25a11.76,11.76,0,0,1,1-1.3c.41-.42.84-.81,1.24-1.25A12.36,12.36,0,0,0,87.74,49a0,0,0,0,0,0,0c.1-.19.2-.38.31-.56a2.33,2.33,0,0,1,.17-.26.39.39,0,0,1,.21-.19c.28-.09.55-.19.82-.3a5.89,5.89,0,0,0-.55.44,1.21,1.21,0,0,0-.51.7s0,.08.08.06a1.8,1.8,0,0,0,.39-.39c.12-.13.25-.27.39-.4a10.3,10.3,0,0,1,1.59-1.27,7.86,7.86,0,0,1,.89-.51l.28-.14q-.93.55-1.83,1.17l0,0a7.56,7.56,0,0,0-.59.68,7.48,7.48,0,0,0-.43.66c0,.07-.13.21,0,.26s.2-.08.25-.15a4.51,4.51,0,0,0,.46-.68c.15-.24.29-.48.43-.72q1.05-.71,2.13-1.35l0,0a.05.05,0,0,0,0,0l-.09.09s-.09.07-.1.11h0a9.26,9.26,0,0,1-.86.8,6.25,6.25,0,0,0-.78,1,9.71,9.71,0,0,0-.76.81c-.06.08-.2.3,0,.35s.14,0,.18-.09l.16-.21c.19-.27.36-.54.54-.81l0,0a0,0,0,0,0,0,0l0,0a5.47,5.47,0,0,1,.71-.88c.26-.25.56-.46.8-.74a.39.39,0,0,0,.24.1.36.36,0,0,0,.23-.15,1.08,1.08,0,0,0,.18-.24.46.46,0,0,0,0-.09s.08,0,.07-.05h0l.07-.1.08-.12a.33.33,0,0,0,0-.26.11.11,0,0,0-.1-.07.29.29,0,0,0-.12.07l-.22.22h0c-.35.19-.72.34-1.07.53a10.25,10.25,0,0,0-1.67,1.1l0,0h0c-.21.1-.43.19-.65.27l-.32.12a1.86,1.86,0,0,0-.31.1.46.46,0,0,0-.19.2c-.07.09-.13.19-.19.28s-.18.32-.26.49a.05.05,0,0,0,0,0,11.46,11.46,0,0,1-1,1.61,12.75,12.75,0,0,1-1,1.28c-.4.42-.84.8-1.23,1.24-.73.8-1.27,1.74-2,2.54a.13.13,0,0,0,0,.06l-.84,1c-.56.68-1.11,1.37-1.69,2a7.07,7.07,0,0,1-.88.85,7.3,7.3,0,0,0-.88.79S78.15,60.39,78.2,60.34ZM90,48.6a.83.83,0,0,0-.08.12l-.15.21-.14.19s-.07.07-.05,0l0,0,.06-.1a1.39,1.39,0,0,1,.15-.19Zm2.57-2.8h-.06a3.31,3.31,0,0,1,.27-.26h0s0,0,0,0a.25.25,0,0,1,0,.12.3.3,0,0,1-.06.11l0,0A.26.26,0,0,0,92.59,45.8Zm-.17.23A.6.6,0,0,1,92.5,46h.1v0a.31.31,0,0,1-.06.19,1.07,1.07,0,0,1-.14.16s-.08.1-.14.09a.17.17,0,0,1-.1,0l0,0,0,0h0l0,0,.08-.07Zm-2.7,1.77-.15.25c-.13.2-.25.41-.39.6l-.12.13a.23.23,0,0,0,0,0s0-.07,0-.07.12-.21.18-.3A6.26,6.26,0,0,1,89.72,47.8Zm-.86.32-.24.25-.18.2,0,.06a1.64,1.64,0,0,1,.47-.51Z"/><path class="cls-8" d="M78.12,60.27a29.22,29.22,0,0,0,1.56-2.71c.48-.93.92-1.88,1.35-2.84.22-.47.44-.95.65-1.44s.41-1,.61-1.47a6.56,6.56,0,0,1,1.45-2.47,2.54,2.54,0,0,1,2.39-.71l.31.12c.06,0,0,.14,0,.11a2.31,2.31,0,0,0-2.45.43,5.89,5.89,0,0,0-1.5,2.4c-.19.48-.37,1-.58,1.43s-.43,1-.64,1.45c-.43.93-.85,1.86-1.31,2.77A30.38,30.38,0,0,1,78.42,60c-.06.11-.13.21-.2.32S78.08,60.33,78.12,60.27Z"/><path class="cls-8" d="M75.19,65.82a2.35,2.35,0,0,0,.1-.58c0-.21,0-.41,0-.62a4.43,4.43,0,0,1,.22-1.14,5,5,0,0,1,1.14-1.75c.54-.58,1.14-1.09,1.63-1.7l0,0c.23-.26.49-.5.73-.74s.64-.66,1-1c.63-.67,1.23-1.37,1.82-2.07s1-1.17,1.44-1.77l.16,0c-.42.54-.85,1.07-1.29,1.6-.59.71-1.19,1.4-1.81,2.08-.31.34-.62.67-.94,1s-.66.64-1,1a1.71,1.71,0,0,0-.21.26,0,0,0,0,1,0,0,13.14,13.14,0,0,0-2.39,2.78,4.18,4.18,0,0,0-.32,1.08,3.51,3.51,0,0,0,0,.55c0,.2,0,.4,0,.6,0,.37-.19.71-.26,1.07a1.7,1.7,0,0,0,0,.55,2.75,2.75,0,0,0,.2.57,2.79,2.79,0,0,0,.65,1,.91.91,0,0,0,1,.18.05.05,0,1,1,0,.1.94.94,0,0,1-.92,0,2,2,0,0,1-.69-.78A3.54,3.54,0,0,1,75,66.92,2.77,2.77,0,0,1,75.19,65.82Z"/><path class="cls-8" d="M86.91,54.59a4.54,4.54,0,0,1,1.39-1.26,4.46,4.46,0,0,0,.77-.67,7.14,7.14,0,0,0,.67-.89,9.28,9.28,0,0,0,1-2c.13-.34.24-.68.4-1a3.94,3.94,0,0,1,.54-.87c.23-.28.48-.54.69-.82a2.25,2.25,0,0,0,.28-.47.61.61,0,0,0,.06-.57c0-.06.06-.13.09-.07.18.28,0,.66-.17.92a4.91,4.91,0,0,1-.6.78,5.28,5.28,0,0,0-.61.8,6.09,6.09,0,0,0-.45,1c-.12.34-.24.69-.39,1a9.25,9.25,0,0,1-.51,1,6,6,0,0,1-1.4,1.72A5.74,5.74,0,0,0,87,54.66C87,54.72,86.87,54.65,86.91,54.59Z"/><path class="cls-8" d="M77,68.74A8.17,8.17,0,0,0,78.29,68a13.12,13.12,0,0,0,1.2-.87A5.54,5.54,0,0,0,80.42,66a4.18,4.18,0,0,0,.4-.63,18.75,18.75,0,0,1,1.11-2.2l0-.05h0l1.45-2.45.66-1.11,0,0,1.08-2c.38-.68.74-1.37,1.14-2,.21-.36.44-.72.68-1.07,0-.06.13,0,.09.07a21.5,21.5,0,0,0-1.18,1.95l-1.13,2.05-.65,1.18s0,0,0,0c-.68,1.14-1.36,2.28-2,3.43l-.41.72c-.13.22-.26.45-.37.68s-.19.48-.3.72-.25.42-.38.63a6.72,6.72,0,0,1-.9,1.15A8.32,8.32,0,0,1,78.5,68a8.83,8.83,0,0,1-1.48.87C77,68.88,76.91,68.77,77,68.74Z"/><path class="cls-8" d="M96.09,52.05l.42-.63a2.72,2.72,0,0,1,.42-.53,3.61,3.61,0,0,1,.6-.35,1,1,0,0,1,.33-.15c.08,0,.2.07.16.16s0,.1.08.07a3.09,3.09,0,0,0,.4-.41.7.7,0,0,1-.13.24.41.41,0,0,0-.08.3s0,.07.09,0c.35-.28.58-.68,1-.9a1.68,1.68,0,0,1,1.24-.16h0l.09,0a1,1,0,0,0,1.13-1.22,1.07,1.07,0,0,0-.22-.47l0,0a.87.87,0,0,0-.16-.23l0,0,0-.09a0,0,0,0,0,0,0,1.35,1.35,0,0,1,.35-.87,3.86,3.86,0,0,1,.55-.65,1.3,1.3,0,0,1,.38-.22,3.72,3.72,0,0,1,.48-.11,3.3,3.3,0,0,0,.89-.33l.8-.44a1,1,0,0,1,0,.41.05.05,0,0,0,0,.07.28.28,0,0,0,.27-.08l.1-.08a1.12,1.12,0,0,0-.23.43s0,.07.08.06a1.74,1.74,0,0,0,.87-.86,1.66,1.66,0,0,0,0-1.33c0-.07-.14,0-.11,0a1.55,1.55,0,0,1,0,1.25,1.51,1.51,0,0,1-.68.73,1,1,0,0,1,.27-.37.06.06,0,0,0,0-.1.25.25,0,0,0-.26.06.66.66,0,0,1-.21.15,1,1,0,0,0,0-.48.06.06,0,0,0-.09,0c-.35.2-.69.4-1,.57a3,3,0,0,1-.47.18c-.17,0-.34.07-.5.11a1.56,1.56,0,0,0-.77.43,4.65,4.65,0,0,0-.54.7,1.27,1.27,0,0,0-.25.7h0a.17.17,0,0,0,0,.1.31.31,0,0,0-.23,0,.71.71,0,0,0-.31.35c-.07.12-.23.35-.41.23a.42.42,0,0,1-.09-.43.86.86,0,0,1,.13-.23.37.37,0,0,0,.09-.16c0-.15-.08-.23-.19-.3s-.17-.26-.29-.35a.22.22,0,0,0-.19-.05c-.06,0-.06.1,0,.16s0,.4.07.6a5,5,0,0,0,.08.54.75.75,0,0,0,.62.61.6.6,0,0,0,.43-.09.56.56,0,0,0,.17-.37l.06-.22s0,0,0,0l0,0a.21.21,0,0,1,.06.1.78.78,0,0,1,.07.45,1,1,0,0,1-.18.45.54.54,0,0,1-.45.18,1.08,1.08,0,0,1-.8-.58l-.67-1-.33-.51a.21.21,0,0,1,0-.25,2,2,0,0,1,.12-.19c.06-.12,0-.26-.15-.24a.74.74,0,0,0-.44.22.32.32,0,0,0,0,.41c.08.15.22.25.31.4s.25.63.44.92a3.54,3.54,0,0,0,.35.42l.38.4a4.11,4.11,0,0,0,.45.38,1.75,1.75,0,0,0-1,.2,1.85,1.85,0,0,0-.52.4c-.14.15-.27.3-.42.44a1.64,1.64,0,0,1,.14-.22.36.36,0,0,0,0-.33.06.06,0,0,0-.1,0,2.93,2.93,0,0,1-.38.41.25.25,0,0,0-.26-.17.46.46,0,0,0-.28.11,3.18,3.18,0,0,1-.32.16,1.52,1.52,0,0,0-.49.35,2.87,2.87,0,0,0-.37.49L96,52C96,52,96.05,52.11,96.09,52.05Zm4.54-2.45a1.52,1.52,0,0,1-.43-.28,6.46,6.46,0,0,1-.74-.74,1.88,1.88,0,0,1-.31-.43c-.07-.15-.13-.3-.19-.46a1.86,1.86,0,0,0-.23-.41c-.09-.12-.27-.24-.27-.4s.22-.29.36-.33.13,0,.13,0a.24.24,0,0,1,0,.1.59.59,0,0,0-.1.17c-.07.15,0,.27.09.4l.32.48.64,1a1.35,1.35,0,0,0,.71.6.68.68,0,0,0,.77-.27,1.05,1.05,0,0,0,.12-.83.51.51,0,0,0-.22-.33c-.13-.06-.18.16-.2.24s0,.3-.15.39a.5.5,0,0,1-.46,0c-.34-.12-.42-.47-.46-.79s0-.38-.07-.56l0-.17s0-.13,0-.13.13.08.15.12a1.15,1.15,0,0,0,.14.19l.14.11c.06,0,.11.09.07.17a1,1,0,0,1-.12.16c-.14.21-.18.6.07.75a.32.32,0,0,0,.38-.05,2,2,0,0,0,.26-.39.35.35,0,0,1,.21-.15.3.3,0,0,1,.2.06.51.51,0,0,0,.09.13l.11.14.09.14h0a1,1,0,0,1,.07.15.91.91,0,0,1,0,.49,1,1,0,0,1-.6.68A.74.74,0,0,1,100.63,49.6Z"/><path class="cls-8" d="M84.79,63.44l.3-1.28a18.89,18.89,0,0,0,.45-2.24c.08-.7.14-1.4.2-2.1v0a1.8,1.8,0,0,1,.65-1.06,11.7,11.7,0,0,1,2-1.65c.35-.22.72-.4,1.08-.61a2.91,2.91,0,0,0,.81-.62.07.07,0,0,0,.06,0,3.1,3.1,0,0,0,.93-.58c.27-.24.51-.51.77-.76l.78-.75,1.47-1.39a.06.06,0,0,0,.07,0,2.49,2.49,0,0,0,.51-.27,1.33,1.33,0,0,0,.19-.14,1.65,1.65,0,0,1-.1.48,1.61,1.61,0,0,1-.47.6,6.35,6.35,0,0,0-.58.58,8,8,0,0,0-.51.64,1.77,1.77,0,0,1-.55.54,0,0,0,0,0,0,0,1.29,1.29,0,0,0-.38.12c-.11.06-.38.2-.3.36a.05.05,0,0,0,.07,0,3.7,3.7,0,0,0,.83-.39l.74-.4a4.17,4.17,0,0,1,.74-.35c.48-.14,1,0,1.48-.16.07,0,0-.13,0-.1a2.7,2.7,0,0,1-.85.08,2,2,0,0,0-.73.1,6.45,6.45,0,0,0-.74.38l-.58.31h0a2.56,2.56,0,0,0,.46-.52c.18-.23.36-.46.56-.68s.42-.4.63-.61a1.48,1.48,0,0,0,.45-1.22v0s0,0,0-.05,0-.06,0-.09-.06-.07-.09,0a3.41,3.41,0,0,0-.48.37l-.15.13h0l-.91.87-.47.44a.83.83,0,0,0,.06-.21c0-.13,0-.31-.19-.3a.27.27,0,0,0-.18.1l-.18.19-.37.39c-.25.25-.5.49-.76.72a2.81,2.81,0,0,0-.34.35c-.1.13-.17.28-.28.4a3.29,3.29,0,0,0-.47.59l0,0a3.23,3.23,0,0,1-1.07.8c-.37.2-.74.41-1.09.64a11.49,11.49,0,0,0-1,.8c-.32.28-.63.58-.93.89a2.11,2.11,0,0,0-.46.72.06.06,0,0,0,0,.05l-.12,1.31c0,.38-.06.76-.1,1.13s-.13.75-.21,1.12c-.18.75-.36,1.51-.53,2.26C84.66,63.49,84.77,63.51,84.79,63.44ZM92.85,53a3.29,3.29,0,0,1-.57.27.5.5,0,0,1,.13-.1,1,1,0,0,1,.2-.11Zm1.61-2.72.09-.09.18-.16a3.92,3.92,0,0,1,.32-.25.09.09,0,0,0,0,0,.65.65,0,0,1-.29.28A2.38,2.38,0,0,1,94.46,50.27Zm-3.75,3.1,0,0,.22-.25a2.9,2.9,0,0,0,.25-.36,1.81,1.81,0,0,1,.3-.32l.66-.62c.22-.22.43-.44.64-.67,0,0,.13-.16.2-.12s0,.15,0,.21a1.11,1.11,0,0,1-.18.38,0,0,0,0,0,0,0l-.86.82-.47.48h0A6.8,6.8,0,0,0,90.71,53.37Zm-.28.34a.43.43,0,0,1,.12-.11l.27-.17.35-.19,0,0A3.35,3.35,0,0,1,90.43,53.71Z"/><path class="cls-8" d="M93,53.41a4.48,4.48,0,0,0,1.25-.3c.36-.13.7-.3,1.07-.4h.17c.16,0,.33,0,.49,0a2.17,2.17,0,0,0,.88,0,.46.46,0,0,0,.26-.21c.06-.11.06-.24.14-.33a0,0,0,0,0,0,0h0c.07,0,.12-.12.05-.18a.33.33,0,0,0-.13,0H97a2.55,2.55,0,0,0-.39,0c-.53,0-1,.17-1.58.16-.08,0-.09.11,0,.11a7.86,7.86,0,0,0,1.19-.11v0c.16.22.47.18.7.12l.17,0a1.36,1.36,0,0,1-.11.28.52.52,0,0,1-.39.18,4.79,4.79,0,0,1-1,0,2.46,2.46,0,0,0-1,.1,7.17,7.17,0,0,0-.93.29l-.48.17c-.1,0-.28.06-.31.19A.06.06,0,0,0,93,53.41ZM97.2,52s-.15.05-.17.06c-.2.06-.55.17-.72,0l.3,0L97,52S97.19,52,97.2,52Zm-3.94,1.25.23-.09L94,53c.23-.08.47-.15.71-.21l-.51.21A5.39,5.39,0,0,1,93.26,53.26Z"/><path class="cls-8" d="M92.89,55.68a.06.06,0,0,0,.1,0,1.64,1.64,0,0,0,.73,0,7.84,7.84,0,0,0,1.3-.56,3.13,3.13,0,0,0,.32-.15,2.75,2.75,0,0,1,.3-.14,1,1,0,0,1,.57,0A1.24,1.24,0,0,0,96,55a.69.69,0,0,0-.24.24.45.45,0,0,0,0,.36.38.38,0,0,0,.43.19l-.21.19a1.17,1.17,0,0,1-.28.17l-.18.07h0a2.63,2.63,0,0,0-.06-.39l-.06-.19a.51.51,0,0,0-.07-.17c0-.08-.14,0-.15,0a.22.22,0,0,0,0,.14c0,.06,0,.11,0,.16a1.68,1.68,0,0,0,.09.32c0,.07.08.21.18.22a.83.83,0,0,0,.15,0l.16-.07A1,1,0,0,0,96,56.1a3.88,3.88,0,0,1,.49-.4s0,0,0,0a1.42,1.42,0,0,0,.38-.26.37.37,0,0,0,.18-.26.32.32,0,0,0-.13-.27.7.7,0,0,0-.6-.1,1.19,1.19,0,0,0-.7,0A5,5,0,0,0,95,55l-.66.31a2.14,2.14,0,0,1-1.35.28,1.22,1.22,0,0,1,.3-.64,1.64,1.64,0,0,0,.22-.14l.31-.22.63-.44a1.58,1.58,0,0,0,.64-.19,3.58,3.58,0,0,1,.72-.24s0,0,0,0a5.05,5.05,0,0,0,.67-.06h.36l.36,0a1.77,1.77,0,0,0,.64-.16.29.29,0,0,0,.19-.15c0-.11.06-.23.09-.34s.19-.12.14-.19-.1,0-.14-.05l-.19,0-.4,0c-.54,0-1.08,0-1.62-.08-.07,0-.09.11,0,.11.38,0,.77,0,1.15,0h.16s0,0,0,.07l0,0s0,0,0,0a.81.81,0,0,0,.33.14.42.42,0,0,0,.19,0h0l.16,0-.06.22c0,.09-.17.1-.25.13a1.11,1.11,0,0,1-.31.09,1.61,1.61,0,0,1-.31,0,4.28,4.28,0,0,0-.62,0,4.2,4.2,0,0,1-.61.06,1,1,0,0,0-.09-.34c0-.07-.1-.21-.19-.15s0,.19,0,.27a1.16,1.16,0,0,0,.14.27,3,3,0,0,0-.58.19,1.5,1.5,0,0,1-.68.21h0l-.62.44-.3.21a1.69,1.69,0,0,0,.17-.29c0-.06.1-.2,0-.23s-.2.07-.26.12a.75.75,0,0,0-.16.29,1.06,1.06,0,0,0-.09.35s0,0,0,0A1.23,1.23,0,0,0,92.89,55.68Zm5-2.65a.55.55,0,0,1-.18,0l-.12,0a.64.64,0,0,1-.16-.06l0,0s0,0,0,0h0l.3,0,.29,0,.19,0,0,0L98,53Zm-4.59,1.79,0-.09a.64.64,0,0,1,.06-.18.61.61,0,0,1,.12-.16l.1-.07,0,.07a.2.2,0,0,0,0,.08c0,.06-.07.12-.11.17Zm2,1.28a1,1,0,0,1-.07-.25.59.59,0,0,1,0-.14v0c0,.06,0,.12,0,.18Zm.53-.79a.33.33,0,0,0,0,.1.39.39,0,0,0,.09.29h0a.22.22,0,0,1-.15-.12A.32.32,0,0,1,95.87,55.31Zm.47-.42a.6.6,0,0,1,.35,0,.34.34,0,0,1,.26.19c0,.13-.09.21-.17.28a2,2,0,0,1-.3.2.61.61,0,0,1-.35.09s-.1,0-.12-.06a.9.9,0,0,1,0-.16.35.35,0,0,1,.09-.3l0,0A2.31,2.31,0,0,1,96.34,54.89Z"/><path class="cls-8" d="M88.54,59.88a3.56,3.56,0,0,1,.17-.91,1.78,1.78,0,0,1,.39-.64l.19-.18a7,7,0,0,0,3.79-.61,9.92,9.92,0,0,0,1.09-.63,2.62,2.62,0,0,1,.6-.31c.21-.08.42-.14.64-.2s0-.12,0-.1c-.24.07-.49.13-.72.22a3.38,3.38,0,0,0-.64.36,7,7,0,0,1-2.27,1,6.84,6.84,0,0,1-2.34.16l.19-.2a.42.42,0,0,0,.12-.29.13.13,0,0,0-.18-.11.83.83,0,0,0-.21.28,1.38,1.38,0,0,0-.12.34h0l0,0a2.22,2.22,0,0,0-.39.47,3,3,0,0,0-.33,1.28C88.42,59.94,88.53,60,88.54,59.88Zm.82-1.94a.72.72,0,0,1,.09-.2.86.86,0,0,1,.1-.16s0,0,0,0,0,0,0,0a.59.59,0,0,1,0,.08A2.43,2.43,0,0,1,89.36,57.94Z"/><path class="cls-8" d="M83.83,76.14l0-.74-.07-1.47c0-1-.09-2-.12-2.93,0-.55,0-1.09,0-1.64,0,0,0,0,0,0a5.37,5.37,0,0,1,.09-.89c.07-.41.15-.82.23-1.23l.48-2.48c.1-.47.19-.94.29-1.41,0-.07.13,0,.11,0-.34,1.64-.67,3.28-1,4.92a5.73,5.73,0,0,0-.12,1.37.08.08,0,0,1,0,0c0,.86,0,1.73.07,2.6s.09,1.92.13,2.88l0,.81a2.23,2.23,0,0,0,.09.77c.07.12.07.27.18.37a1.2,1.2,0,0,0,.42.17,4,4,0,0,0,1,.1,4.9,4.9,0,0,0,1.94-.33,3.65,3.65,0,0,0,.91-.59s.12,0,.06.09a3.5,3.5,0,0,1-1.78.86,7.56,7.56,0,0,1-1.06.08,3.8,3.8,0,0,1-1-.09,1.53,1.53,0,0,1-.49-.18A.47.47,0,0,1,84,77a2.34,2.34,0,0,0-.09-.24h0v0s0,0,0,0A1.91,1.91,0,0,1,83.83,76.14Z"/><path class="cls-8" d="M87.57,75a4.13,4.13,0,0,0,.66-1.22c.19-.45.37-.9.52-1.36A5.67,5.67,0,0,0,89,71c0-.53,0-1.06-.07-1.59l-.12-1.72a0,0,0,0,1,0,0c-.11-1-.18-2-.23-3.08s-.09-2-.13-3.08l-.06-1.74c0-.07.11-.09.11,0,0,1,.07,2,.11,3.08s.09,2.06.16,3.08c0,.56.09,1.11.14,1.66l0,0,.11,1.63c0,.53.09,1.07.09,1.6a7.61,7.61,0,0,1-.74,2.83,5.09,5.09,0,0,1-.74,1.4S87.53,75,87.57,75Z"/><path class="cls-8" d="M88.52,76.51c.1-.1.2-.2.31-.29a12.57,12.57,0,0,1,1.37-1,14.36,14.36,0,0,0,1.31-1,17.37,17.37,0,0,0,2.22-2.39c.68-.86,1.32-1.77,2-2.65s1.48-1.9,2.27-2.81l2.45-2.82a0,0,0,0,0,0,0,9.14,9.14,0,0,0,1-1.42,5.86,5.86,0,0,0,.86-3.05,9,9,0,0,0-.15-2.26s0,0,0,0-.07-.19-.1-.28-.07-.19-.12-.29a7.9,7.9,0,0,0-.46-1,7,7,0,0,0-2-2,12.55,12.55,0,0,0-2.54-1.58.06.06,0,0,0-.06.09,4.84,4.84,0,0,0,1,.81c.34.21.69.39,1,.61a7.59,7.59,0,0,1,1,.73,9.88,9.88,0,0,1,1.56,1.79s0,0,0,0a2.59,2.59,0,0,1,.34.58c0,.05,0,.1,0,.15a3.68,3.68,0,0,1,.24,1,13,13,0,0,1,0,1.87,5.67,5.67,0,0,1-.29,1.54,7.55,7.55,0,0,1-1.52,2.52l0,0-.31.36c-.84,1-1.68,1.92-2.51,2.89s-1.5,1.83-2.21,2.79-1.3,1.78-2,2.64a15.69,15.69,0,0,1-2.27,2.34,28.14,28.14,0,0,0-2.68,2.07A.06.06,0,1,0,88.52,76.51Zm12.2-22.27a5.23,5.23,0,0,1,.75,1q-.28-.39-.6-.75a8.74,8.74,0,0,0-1.82-1.56,11.63,11.63,0,0,1-1.73-1.12,8.78,8.78,0,0,1,1.19.69c.4.27.79.56,1.17.85A8,8,0,0,1,100.72,54.24Z"/><path class="cls-8" d="M103.65,56.53a1.52,1.52,0,0,0,1,.51,1.7,1.7,0,0,0,1.08-.19,1.6,1.6,0,0,0,.63-2,1.66,1.66,0,0,0-.29-.48,3.13,3.13,0,0,0-.54-.42v0a.19.19,0,0,0,.15-.07v0a.39.39,0,0,0,.2.13.43.43,0,0,0,.36-.09,1.68,1.68,0,0,0,.53-.68,4.41,4.41,0,0,0,.24-.54,3.65,3.65,0,0,0,1-1.65,9.2,9.2,0,0,0,.35-2,7.38,7.38,0,0,0-.15-2.2,5.37,5.37,0,0,0-.83-1.86,8.09,8.09,0,0,0-1.53-1.45.06.06,0,0,0-.07.09,7.2,7.2,0,0,1,1.64,1.62,6.29,6.29,0,0,1,.81,4,8.79,8.79,0,0,1-.39,1.9,3.38,3.38,0,0,1-.75,1.28c0-.16.1-.32.14-.48a10.59,10.59,0,0,0,.33-1.26,9.11,9.11,0,0,0,0-3.64,7.42,7.42,0,0,0-1.49-3.2s-.13,0-.1,0l.18.44a17.26,17.26,0,0,1,1.09,3.72,9.79,9.79,0,0,1-.07,3.58l-.09.35q-.1.33-.24.66a0,0,0,0,0,0,.05,6.28,6.28,0,0,1-.27.59,2.27,2.27,0,0,1-.26.35.54.54,0,0,1-.39.23c-.24,0-.33-.33-.4-.51a.19.19,0,0,0,0-.07c0-.07,0-.14,0-.21a10.21,10.21,0,0,1-.11-3.53c.13-1.19.34-2.38.38-3.58a.06.06,0,0,0-.09,0,.56.56,0,0,0-.22.26,3.06,3.06,0,0,0-.16.81l-.12,1c-.07.68-.13,1.36-.14,2a10.86,10.86,0,0,0,.11,2,8.68,8.68,0,0,0,.2,1l.12.41c0,.13.08.25.13.38s-.2,0-.28-.07a2.2,2.2,0,0,1-.42-1,12.12,12.12,0,0,1-.16-3.4s0-.08-.08-.06c-.35.16-.26.55-.31.87a4.89,4.89,0,0,1-.1-.78,5,5,0,0,1,.24-1.76,7.73,7.73,0,0,0,.45-1.63s0-.09-.09,0a1.88,1.88,0,0,0-.24.25,3.4,3.4,0,0,0-.65,1.32,7.2,7.2,0,0,0-.24,1.6,7.77,7.77,0,0,0,.6,3.3,4.76,4.76,0,0,0,.86,1.39l0,0a.89.89,0,0,0,.19.2l.12.09a.59.59,0,0,0-.3,0,1.63,1.63,0,0,0-.54.47,5.73,5.73,0,0,0-.47.63,6.31,6.31,0,0,0-.4.65,2.06,2.06,0,0,0-.17.33A.3.3,0,0,0,103.65,56.53Zm3.79-5.9a10.61,10.61,0,0,0-.16-2.87,17.51,17.51,0,0,0-1.06-3.46,6.41,6.41,0,0,1,.76,1.35,8.06,8.06,0,0,1,.63,3.46A11,11,0,0,1,107.44,50.63Zm-2.31.64a13.78,13.78,0,0,1,0-1.7c0-.65.09-1.29.17-1.94l.12-1a1.07,1.07,0,0,1,.19-.55c0,.55-.08,1.09-.15,1.63-.12,1-.29,2.06-.32,3.1Zm-.37,1.61.12.42a5.62,5.62,0,0,1-.44-.8,7.58,7.58,0,0,1-.65-3.48,6.79,6.79,0,0,1,.28-1.68,3.18,3.18,0,0,1,.69-1.21,4.39,4.39,0,0,1-.21.79c-.09.27-.19.54-.27.81a5.15,5.15,0,0,0-.17.87,5.07,5.07,0,0,0,.13,1.78.06.06,0,0,0,.11,0,1.39,1.39,0,0,0,.08-.57.59.59,0,0,1,.14-.38c0,.1,0,.19,0,.28A11.53,11.53,0,0,0,104.76,52.88Zm-1.06,3.49c0-.11.08-.25.12-.34a3.37,3.37,0,0,1,.19-.32,5.11,5.11,0,0,1,.41-.62,6.12,6.12,0,0,1,.45-.56.77.77,0,0,1,.61-.31s.07,0,.06-.07a3.24,3.24,0,0,1,.35.27,1.5,1.5,0,0,1-.25,2.34,1.63,1.63,0,0,1-1,.17,1.68,1.68,0,0,1-.49-.17l-.22-.16C103.82,56.54,103.72,56.46,103.7,56.37Z"/><path class="cls-8" d="M98.3,52a4.82,4.82,0,0,0,.9,1,.06.06,0,0,0,.08,0,4.63,4.63,0,0,0,.58.5s.12,0,.08-.07a6.34,6.34,0,0,1-.76-1.46,2.59,2.59,0,0,1-.12-.82,1.58,1.58,0,0,1,0-.38.37.37,0,0,1,.09-.2,4.51,4.51,0,0,0,0,.82,4.79,4.79,0,0,0,.48,1.56,4.89,4.89,0,0,0,.42.69,3.76,3.76,0,0,0,.25.31.93.93,0,0,0,.3.26.05.05,0,0,0,.07-.08,10.64,10.64,0,0,1-.49-.95,5.57,5.57,0,0,1-.49-1.75,4.4,4.4,0,0,1,0-.89c0-.15.06-.29.1-.43a.52.52,0,0,1,.12-.26c0,.17,0,.34-.05.51a4.58,4.58,0,0,0,0,.53A6,6,0,0,0,101,54.28v0s0,0,0,.05a12.19,12.19,0,0,0,1,2,.05.05,0,0,0,0,0v.05s0,.08,0,.1a1.81,1.81,0,0,0,1,0,3.69,3.69,0,0,0,1.59-1,2.5,2.5,0,0,0,.86-1.47.06.06,0,0,0-.12,0,1.65,1.65,0,0,1-.33.85,4.6,4.6,0,0,1-.56.61,5.53,5.53,0,0,1-.7.58,2,2,0,0,1-1.66.34h0c0-.24,0-.48-.07-.73a12.54,12.54,0,0,1,.06-1.62c.07-.66.2-1.31.32-2l.36-2,.74-4a.05.05,0,0,0-.08-.06,1.1,1.1,0,0,0-.58.74,11.53,11.53,0,0,0-.38,1.13,17.67,17.67,0,0,0-.65,4.21,28.17,28.17,0,0,0,.1,3.56v.38a12.66,12.66,0,0,1-.64-1.21c-.09-.2-.18-.4-.26-.6,0,0,0,0,0,0v0l-.06-.14a20.58,20.58,0,0,1-.23-2.6c0-.41,0-.83,0-1.24,0-.12,0-.23,0-.34a.1.1,0,0,0-.11-.11c-.15,0-.23.19-.29.3a3.34,3.34,0,0,0-.08,2,12.86,12.86,0,0,0,.46,1.75c-.09-.16-.18-.32-.26-.49a6,6,0,0,1-.53-1.79,6,6,0,0,1,0-1,3.55,3.55,0,0,1,0-.46,2.24,2.24,0,0,0,0-.52.06.06,0,0,0-.08,0,.49.49,0,0,0-.24.33,2.8,2.8,0,0,0-.12.5,5.52,5.52,0,0,0,.84,3.42l-.12-.14-.27-.35a4.85,4.85,0,0,1-.82-3,.06.06,0,0,0-.08-.06c-.21.07-.25.33-.27.52a3.57,3.57,0,0,0,.71,2.28l-.27-.25a4.81,4.81,0,0,1-1.24-2.08s-.08,0-.1,0A1.23,1.23,0,0,0,98.3,52Zm2.59,1.58a10.4,10.4,0,0,1-.32-1.25,5.36,5.36,0,0,1-.15-1.26,2,2,0,0,1,.08-.59c0-.07.16-.51.27-.51,0,.32,0,.63,0,.94A18.32,18.32,0,0,0,100.89,53.58Zm1.19.88c0-.11,0-.21,0-.32A21.78,21.78,0,0,1,102.3,50a14.46,14.46,0,0,1,.45-2c.1-.33.22-.66.34-1a1.16,1.16,0,0,1,.43-.63l-.4,2.14-.74,4a18.89,18.89,0,0,0-.29,2Zm-4-3.42c.06.17.12.33.19.5a5.47,5.47,0,0,0,.62,1,3.78,3.78,0,0,1-.49-.56A1.44,1.44,0,0,1,98.11,51Z"/></svg>